<svg width="24" height="24" viewBox="0 0 24 24" fill="none" xmlns="http://www.w3.org/2000/svg">
<g clip-path="url(#clip0)">
<path d="M5.9502 20.361C6.47177 20.2742 6.96279 20.0564 7.37728 19.7282C7.79178 19.3999 8.11621 18.9718 8.3202 18.484" stroke="white" stroke-width="1.5" stroke-linecap="round" stroke-linejoin="round"/>
<path d="M2.42114 8.54601C3.43012 8.72294 4.38406 9.1323 5.20746 9.74169C6.03085 10.3511 6.7011 11.1438 7.16514 12.057" stroke="white" stroke-width="1.5" stroke-linecap="round" stroke-linejoin="round"/>
<path d="M5.78296 10.229L7.57596 8.884" stroke="white" stroke-width="1.5" stroke-linecap="round" stroke-linejoin="round"/>
<path d="M10.0001 0.672997C9.98089 1.67546 9.79989 2.66824 9.46411 3.613" stroke="white" stroke-width="1.5" stroke-linecap="round" stroke-linejoin="round"/>
<path d="M8 4.5C8 4.76522 8.10536 5.01957 8.29289 5.20711C8.48043 5.39464 8.73478 5.5 9 5.5C9.26522 5.5 9.51957 5.39464 9.70711 5.20711C9.89464 5.01957 10 4.76522 10 4.5C10 4.23478 9.89464 3.98043 9.70711 3.79289C9.51957 3.60536 9.26522 3.5 9 3.5C8.73478 3.5 8.48043 3.60536 8.29289 3.79289C8.10536 3.98043 8 4.23478 8 4.5Z" stroke="white" stroke-width="1.5" stroke-linecap="round" stroke-linejoin="round"/>
<path d="M14 6.5C14 6.76522 14.1054 7.01957 14.2929 7.20711C14.4804 7.39464 14.7348 7.5 15 7.5C15.2652 7.5 15.5196 7.39464 15.7071 7.20711C15.8946 7.01957 16 6.76522 16 6.5C16 6.23478 15.8946 5.98043 15.7071 5.79289C15.5196 5.60536 15.2652 5.5 15 5.5C14.7348 5.5 14.4804 5.60536 14.2929 5.79289C14.1054 5.98043 14 6.23478 14 6.5Z" stroke="white" stroke-width="1.5" stroke-linecap="round" stroke-linejoin="round"/>
<path d="M17.5 10.5C17.5 10.7652 17.6054 11.0196 17.7929 11.2071C17.9804 11.3946 18.2348 11.5 18.5 11.5C18.7652 11.5 19.0196 11.3946 19.2071 11.2071C19.3946 11.0196 19.5 10.7652 19.5 10.5C19.5 10.2348 19.3946 9.98043 19.2071 9.79289C19.0196 9.60536 18.7652 9.5 18.5 9.5C18.2348 9.5 17.9804 9.60536 17.7929 9.79289C17.6054 9.98043 17.5 10.2348 17.5 10.5Z" stroke="white" stroke-width="1.5" stroke-linecap="round" stroke-linejoin="round"/>
<path d="M14 14C14 14.2652 14.1054 14.5196 14.2929 14.7071C14.4804 14.8946 14.7348 15 15 15C15.2652 15 15.5196 14.8946 15.7071 14.7071C15.8946 14.5196 16 14.2652 16 14C16 13.7348 15.8946 13.4804 15.7071 13.2929C15.5196 13.1054 15.2652 13 15 13C14.7348 13 14.4804 13.1054 14.2929 13.2929C14.1054 13.4804 14 13.7348 14 14Z" stroke="white" stroke-width="1.5" stroke-linecap="round" stroke-linejoin="round"/>
<path d="M7.5 8.5C7.5 8.76522 7.60536 9.01957 7.79289 9.20711C7.98043 9.39464 8.23478 9.5 8.5 9.5C8.76522 9.5 9.01957 9.39464 9.20711 9.20711C9.39464 9.01957 9.5 8.76522 9.5 8.5C9.5 8.23478 9.39464 7.98043 9.20711 7.79289C9.01957 7.60536 8.76522 7.5 8.5 7.5C8.23478 7.5 7.98043 7.60536 7.79289 7.79289C7.60536 7.98043 7.5 8.23478 7.5 8.5Z" stroke="white" stroke-width="1.5" stroke-linecap="round" stroke-linejoin="round"/>
<path d="M6.5 13C6.5 13.2652 6.60536 13.5196 6.79289 13.7071C6.98043 13.8946 7.23478 14 7.5 14C7.76522 14 8.01957 13.8946 8.20711 13.7071C8.39464 13.5196 8.5 13.2652 8.5 13C8.5 12.7348 8.39464 12.4804 8.20711 12.2929C8.01957 12.1054 7.76522 12 7.5 12C7.23478 12 6.98043 12.1054 6.79289 12.2929C6.60536 12.4804 6.5 12.7348 6.5 13Z" stroke="white" stroke-width="1.5" stroke-linecap="round" stroke-linejoin="round"/>
<path d="M23.5001 12C23.502 11.308 23.3265 10.6271 22.9901 10.0224C22.6538 9.41768 22.168 8.90934 21.5791 8.546C21.6468 8.25074 21.6821 7.94893 21.6841 7.646C21.6937 6.64336 21.325 5.67394 20.6514 4.93121C19.9778 4.18847 19.0489 3.72704 18.0501 3.639C18.0603 3.23364 17.9899 2.83028 17.843 2.45234C17.6961 2.0744 17.4756 1.72941 17.1942 1.43739C16.9129 1.14536 16.5764 0.912123 16.2042 0.751207C15.832 0.590291 15.4315 0.504903 15.0261 0.5C14.39 0.536417 13.7749 0.740665 13.2434 1.09197C12.7119 1.44327 12.2829 1.92909 12.0001 2.5C11.7173 1.92909 11.2883 1.44327 10.7568 1.09197C10.2252 0.740665 9.61016 0.536417 8.97408 0.5C8.56862 0.504903 8.16817 0.590291 7.79597 0.751207C7.42378 0.912123 7.08725 1.14536 6.80593 1.43739C6.5246 1.72941 6.30408 2.0744 6.15716 2.45234C6.01024 2.83028 5.93985 3.23364 5.95008 3.639C4.95091 3.72707 4.02174 4.18878 3.34809 4.93194C2.67445 5.6751 2.30591 6.64501 2.31608 7.648C2.31646 7.95075 2.34999 8.25255 2.41608 8.548C1.82862 8.91287 1.34393 9.42155 1.00784 10.0259C0.671746 10.6303 0.495361 11.3104 0.495361 12.002C0.495361 12.6936 0.671746 13.3737 1.00784 13.9781C1.34393 14.5824 1.82862 15.0911 2.41608 15.456C2.34999 15.7515 2.31646 16.0533 2.31608 16.356C2.30692 17.3583 2.67591 18.3272 3.34946 19.0695C4.023 19.8118 4.95161 20.273 5.95008 20.361C5.93985 20.7664 6.01024 21.1697 6.15716 21.5477C6.30408 21.9256 6.5246 22.2706 6.80593 22.5626C7.08725 22.8546 7.42378 23.0879 7.79597 23.2488C8.16817 23.4097 8.56862 23.4951 8.97408 23.5C9.56232 23.5143 10.1452 23.3852 10.6724 23.1238C11.1996 22.8625 11.6553 22.4768 12.0001 22C12.3449 22.4768 12.8006 22.8625 13.3278 23.1238C13.855 23.3852 14.4378 23.5143 15.0261 23.5C15.4315 23.4951 15.832 23.4097 16.2042 23.2488C16.5764 23.0879 16.9129 22.8546 17.1942 22.5626C17.4756 22.2706 17.6961 21.9256 17.843 21.5477C17.9899 21.1697 18.0603 20.7664 18.0501 20.361C19.0492 20.2729 19.9784 19.8112 20.6521 19.0681C21.3257 18.3249 21.6942 17.355 21.6841 16.352C21.6821 16.0491 21.6468 15.7473 21.5791 15.452C22.1677 15.0888 22.6533 14.5808 22.9897 13.9765C23.326 13.3721 23.5017 12.6916 23.5001 12V12Z" stroke="white" stroke-width="1.5" stroke-linecap="round" stroke-linejoin="round"/>
<path d="M12 2.5V14" stroke="white" stroke-width="1.5" stroke-linecap="round" stroke-linejoin="round"/>
<path d="M12 17.958V22" stroke="white" stroke-width="1.5" stroke-linecap="round" stroke-linejoin="round"/>
<path d="M21.1731 5.663L18.4001 7.051C18.0003 7.25115 17.5601 7.35753 17.1131 7.36203C16.666 7.36654 16.2238 7.26906 15.8201 7.077" stroke="white" stroke-width="1.5" stroke-linecap="round" stroke-linejoin="round"/>
<path d="M15 13C15.1454 12.3932 15.4559 11.8384 15.8972 11.3972C16.3384 10.9559 16.8932 10.6454 17.5 10.5" stroke="white" stroke-width="1.5" stroke-linecap="round" stroke-linejoin="round"/>
<path d="M18.05 20.361C17.774 19.4 17.303 18.661 16.5 18.5" stroke="white" stroke-width="1.5" stroke-linecap="round" stroke-linejoin="round"/>
<path d="M7.5 17.5C7.5 17.7652 7.60536 18.0196 7.79289 18.2071C7.98043 18.3946 8.23478 18.5 8.5 18.5C8.76522 18.5 9.01957 18.3946 9.20711 18.2071C9.39464 18.0196 9.5 17.7652 9.5 17.5C9.5 17.2348 9.39464 16.9804 9.20711 16.7929C9.01957 16.6054 8.76522 16.5 8.5 16.5C8.23478 16.5 7.98043 16.6054 7.79289 16.7929C7.60536 16.9804 7.5 17.2348 7.5 17.5Z" stroke="white" stroke-width="1.5" stroke-linecap="round" stroke-linejoin="round"/>
<path d="M14.5 18.5C14.5 18.7652 14.6054 19.0196 14.7929 19.2071C14.9804 19.3946 15.2348 19.5 15.5 19.5C15.7652 19.5 16.0196 19.3946 16.2071 19.2071C16.3946 19.0196 16.5 18.7652 16.5 18.5C16.5 18.2348 16.3946 17.9804 16.2071 17.7929C16.0196 17.6054 15.7652 17.5 15.5 17.5C15.2348 17.5 14.9804 17.6054 14.7929 17.7929C14.6054 17.9804 14.5 18.2348 14.5 18.5Z" stroke="white" stroke-width="1.5" stroke-linecap="round" stroke-linejoin="round"/>
</g>
<defs>
<clipPath id="clip0">
<rect width="24" height="24" fill="white"/>
</clipPath>
</defs>
</svg>
