<svg width="24" height="24" viewBox="0 0 24 24" fill="none" xmlns="http://www.w3.org/2000/svg">
<path d="M11.25 17.25C11.25 18.8413 11.8821 20.3674 13.0074 21.4926C14.1326 22.6179 15.6587 23.25 17.25 23.25C18.8413 23.25 20.3674 22.6179 21.4926 21.4926C22.6179 20.3674 23.25 18.8413 23.25 17.25C23.25 15.6587 22.6179 14.1326 21.4926 13.0074C20.3674 11.8821 18.8413 11.25 17.25 11.25C15.6587 11.25 14.1326 11.8821 13.0074 13.0074C11.8821 14.1326 11.25 15.6587 11.25 17.25Z" stroke="white" stroke-width="1.5" stroke-linecap="round" stroke-linejoin="round"/>
<path d="M19.9239 15.505L17.0189 19.379C16.9543 19.4649 16.8721 19.536 16.7776 19.5873C16.6832 19.6387 16.5789 19.6692 16.4717 19.6768C16.3645 19.6844 16.2569 19.6689 16.1562 19.6313C16.0555 19.5937 15.964 19.535 15.8879 19.459L14.3879 17.959" stroke="white" stroke-width="1.5" stroke-linecap="round" stroke-linejoin="round"/>
<path d="M3.75 6.75V15.75H8.25" stroke="white" stroke-width="1.5" stroke-linecap="round" stroke-linejoin="round"/>
<path d="M3.75 12.75L6.439 10.061C6.5783 9.92161 6.7437 9.81104 6.92575 9.7356C7.1078 9.66015 7.30294 9.62132 7.5 9.62132C7.69706 9.62132 7.8922 9.66015 8.07425 9.7356C8.2563 9.81104 8.4217 9.92161 8.561 10.061L9.142 10.642C9.30319 10.803 9.49894 10.9252 9.71439 10.9993C9.92985 11.0733 10.1593 11.0974 10.3855 11.0695C10.6116 11.0416 10.8284 10.9626 11.0194 10.8385C11.2105 10.7144 11.3707 10.5483 11.488 10.353L11.846 9.753" stroke="white" stroke-width="1.5" stroke-linecap="round" stroke-linejoin="round"/>
<path d="M7.5 20.25H2.25C1.85218 20.25 1.47064 20.092 1.18934 19.8107C0.908035 19.5294 0.75 19.1478 0.75 18.75V2.25C0.75 1.85218 0.908035 1.47064 1.18934 1.18934C1.47064 0.908035 1.85218 0.75 2.25 0.75H12.879C13.2765 0.750085 13.6578 0.907982 13.939 1.189L16.811 4.061C17.092 4.3422 17.2499 4.72345 17.25 5.121V7.5" stroke="white" stroke-width="1.5" stroke-linecap="round" stroke-linejoin="round"/>
</svg>
