<svg width="25" height="22" viewBox="0 0 25 22" fill="none" xmlns="http://www.w3.org/2000/svg">
<path d="M5.5 21H19.5" stroke="white" stroke-width="1.5" stroke-linecap="round" stroke-linejoin="round"/>
<path d="M12 19V21" stroke="white" stroke-width="2" stroke-linecap="round" stroke-linejoin="round"/>
<path d="M1 15H24" stroke="white" stroke-width="1.5" stroke-linecap="round" stroke-linejoin="round"/>
<path d="M1 1H24V19H1V1Z" stroke="white" stroke-width="1.5" stroke-linecap="round" stroke-linejoin="round"/>
<path d="M5 6.5V7.845C5.00024 8.60817 5.14584 9.36431 5.429 10.073L6 11.5L7 8L8 11.5L8.571 10.073C8.85463 9.36445 9.00025 8.60822 9 7.845V6.5" stroke="white" stroke-linecap="round" stroke-linejoin="round"/>
<path d="M11 6.5V7.845C11.0002 8.60817 11.1458 9.36431 11.429 10.073L12 11.5L13 8L14 11.5L14.571 10.073C14.8546 9.36445 15.0002 8.60822 15 7.845V6.5" stroke="white" stroke-linecap="round" stroke-linejoin="round"/>
<path d="M17 6.5V7.845C17.0002 8.60817 17.1458 9.36431 17.429 10.073L18 11.5L19 8L20 11.5L20.571 10.073C20.8546 9.36445 21.0002 8.60822 21 7.845V6.5" stroke="white" stroke-linecap="round" stroke-linejoin="round"/>
</svg>
