<svg width="24" height="24" viewBox="0 0 24 24" fill="none" xmlns="http://www.w3.org/2000/svg">
<path d="M4.5 9.75C6.15685 9.75 7.5 8.40685 7.5 6.75C7.5 5.09315 6.15685 3.75 4.5 3.75C2.84315 3.75 1.5 5.09315 1.5 6.75C1.5 8.40685 2.84315 9.75 4.5 9.75Z" stroke="white" stroke-width="1.5" stroke-linecap="round" stroke-linejoin="round"/>
<path d="M15.75 11.25V12.75M8.25 17.25V15C8.25 14.0054 7.85491 13.0516 7.15165 12.3484C6.44839 11.6451 5.49456 11.25 4.5 11.25C3.50544 11.25 2.55161 11.6451 1.84835 12.3484C1.14509 13.0516 0.75 14.0054 0.75 15V17.25H2.25L3 23.25H6L6.75 17.25H8.25ZM18.75 6.75C18.7525 6.22281 18.616 5.70427 18.3542 5.24662C18.0925 4.78897 17.7148 4.40837 17.2592 4.14316C16.8035 3.87796 16.286 3.73751 15.7588 3.73596C15.2316 3.73441 14.7133 3.87182 14.2561 4.13435C13.799 4.39688 13.419 4.77526 13.1546 5.23136C12.8902 5.68747 12.7507 6.2052 12.75 6.7324C12.7494 7.25961 12.8877 7.77767 13.1511 8.2344C13.4144 8.69113 13.7934 9.0704 14.25 9.334V11.25H17.25V9.334C17.7048 9.07282 18.0829 8.69653 18.3462 8.24295C18.6095 7.78937 18.7487 7.27447 18.75 6.75Z" stroke="white" stroke-width="1.5" stroke-linecap="round" stroke-linejoin="round"/>
<path d="M11.25 15.75H14.25V20.25L18.75 15.75H21.75C22.1478 15.75 22.5294 15.592 22.8107 15.3107C23.092 15.0294 23.25 14.6478 23.25 14.25V2.25C23.25 1.85218 23.092 1.47064 22.8107 1.18934C22.5294 0.908035 22.1478 0.75 21.75 0.75H9.75C9.35218 0.75 8.97064 0.908035 8.68934 1.18934C8.40804 1.47064 8.25 1.85218 8.25 2.25" stroke="white" stroke-width="1.5" stroke-linecap="round" stroke-linejoin="round"/>
</svg>
