<svg width="23" height="25" viewBox="0 0 23 25" fill="none" xmlns="http://www.w3.org/2000/svg">
<path d="M9 10V3C9 2.46957 9.21071 1.96086 9.58579 1.58579C9.96086 1.21071 10.4696 1 11 1H20C20.5304 1 21.0391 1.21071 21.4142 1.58579C21.7893 1.96086 22 2.46957 22 3V22C22 22.5304 21.7893 23.0391 21.4142 23.4142C21.0391 23.7893 20.5304 24 20 24H11C10.4696 24 9.96086 23.7893 9.58579 23.4142C9.21071 23.0391 9 22.5304 9 22V21" stroke="white" stroke-width="1.5" stroke-linecap="round" stroke-linejoin="round"/>
<path d="M7 19.967C7.59099 19.7279 8.09711 19.3178 8.45345 18.7892C8.80978 18.2605 9.0001 17.6375 9 17H12C12.5304 17 13.0391 16.7893 13.4142 16.4142C13.7893 16.0391 14 15.5304 14 15C14 14.4696 13.7893 13.9609 13.4142 13.5858C13.0391 13.2107 12.5304 13 12 13H6" stroke="white" stroke-width="1.5" stroke-linecap="round" stroke-linejoin="round"/>
<path d="M9 8H7C5.4087 8 3.88258 8.63214 2.75736 9.75736C1.63214 10.8826 1 12.4087 1 14V19.046C1 20.559 1.672 21.276 3 22V24" stroke="white" stroke-width="1.5" stroke-linecap="round" stroke-linejoin="round"/>
<path d="M15.677 21.073C15.7119 21.108 15.7356 21.1525 15.7452 21.201C15.7548 21.2495 15.7498 21.2997 15.7309 21.3454C15.712 21.391 15.6799 21.43 15.6388 21.4575C15.5977 21.4849 15.5494 21.4996 15.5 21.4996C15.4506 21.4996 15.4023 21.4849 15.3612 21.4575C15.3201 21.43 15.288 21.391 15.2691 21.3454C15.2502 21.2997 15.2452 21.2495 15.2548 21.201C15.2644 21.1525 15.2881 21.108 15.323 21.073C15.3702 21.0265 15.4337 21.0004 15.5 21.0004C15.5663 21.0004 15.6298 21.0265 15.677 21.073" stroke="white" stroke-width="1.5" stroke-linecap="round" stroke-linejoin="round"/>
</svg>
