<svg id="Layer_1" data-name="Layer 1" xmlns="http://www.w3.org/2000/svg" viewBox="0 0 1280 1024"><defs><style>.cls-1{fill:#21252b;}.cls-19,.cls-2{fill:#58119d;}.cls-18,.cls-3{opacity:0.3;}.cls-11,.cls-13,.cls-15,.cls-16,.cls-19,.cls-20,.cls-22,.cls-23,.cls-3,.cls-6,.cls-8{isolation:isolate;}.cls-4{fill:#868a91;}.cls-5{fill:#61656d;}.cls-15,.cls-6,.cls-7,.cls-8{fill:#fff;}.cls-23,.cls-6{opacity:0.8;}.cls-16,.cls-8{opacity:0.5;}.cls-9{fill:#b2b6bb;}.cls-10{fill:#dadddf;}.cls-11,.cls-17,.cls-19{opacity:0.15;}.cls-12{fill:#3f4249;}.cls-13{opacity:0.6;}.cls-14{fill:#fc9d9d;}.cls-15,.cls-22{opacity:0.2;}.cls-20{opacity:0.4;}.cls-21{fill:#966363;}.cls-24{fill:#ddd;}</style></defs><path class="cls-1" d="M1064.37,761.53a.68.68,0,0,1-.45-.17L1017,714.21a.63.63,0,0,1,.9-.89l46.87,47.14a.6.6,0,0,1,0,.9A.68.68,0,0,1,1064.37,761.53Z"/><path class="cls-1" d="M1110.34,731.6a.68.68,0,0,0-.89.18L1075,783.85l8.51-209.45a.61.61,0,0,0-.62-.63.62.62,0,0,0-.63.63l-9.77,240.28a.63.63,0,0,0,1.26,0l1.16-28.41,35.49-53.77A.59.59,0,0,0,1110.34,731.6Z"/><path class="cls-1" d="M1078.08,701.85c-.18,0-.27-.09-.45-.18a.69.69,0,0,1-.09-.9l53.68-61.3a.69.69,0,0,1,.9-.09.68.68,0,0,1,.09.89l-53.68,61.31A.49.49,0,0,1,1078.08,701.85Z"/><path class="cls-2" d="M1128.25,672.91c12.66-14.89,16.45-32.48,8.47-39.28s-24.75-.24-37.42,14.65-16.45,32.48-8.47,39.28S1115.58,687.8,1128.25,672.91Z"/><path class="cls-3" d="M1137.23,634.09l-46.69,53.24.26.27c8,6.81,24.74.17,37.38-14.7C1140.63,658.29,1144.58,641.17,1137.23,634.09Z"/><path class="cls-2" d="M1045.08,741.31c6.44-6.23,2.25-21-9.38-33.06s-26.26-16.75-32.71-10.52-2.24,21,9.38,33.06S1038.63,747.53,1045.08,741.31Z"/><path class="cls-3" d="M1002.53,698.08,1045.28,741c-.09.09-.18.18-.18.27-6.46,6.18-21.07,1.52-32.72-10.58C1000.91,719,996.7,704.53,1002.53,698.08Z"/><path class="cls-2" d="M1100.78,592.49c.89-19.54-6.7-35.75-16.93-36.21s-19.25,15-20.14,34.52,6.69,35.74,16.92,36.21S1099.89,612,1100.78,592.49Z"/><path class="cls-3" d="M1063.65,590.8c.89-19.54,9.95-34.95,20.16-34.5L1080.59,627C1070.37,626.56,1062.75,610.34,1063.65,590.8Z"/><path class="cls-2" d="M1113.93,752.35c7.79-12.18,8.63-25.55,1.87-29.87s-18.54,2-26.33,14.22-8.62,25.55-1.87,29.87S1106.14,764.52,1113.93,752.35Z"/><path class="cls-3" d="M1089.46,736.71c-7.62,11.92-8.6,25-2.33,29.57l28.68-43.82-1.7-.81C1107.21,719.14,1096.63,725.51,1089.46,736.71Z"/><path class="cls-1" d="M1069.29,812.35a.6.6,0,0,1-.62-.54l-15.33-158.27a.64.64,0,0,1,1.26-.18l15.32,158.27c.09.45-.18.72-.63.72Z"/><path class="cls-2" d="M1057.21,688.26c8.46-1,13.72-15,11.77-31.12s-10.4-28.45-18.85-27.43-13.71,15-11.76,31.13S1048.76,689.28,1057.21,688.26Z"/><path class="cls-3" d="M1038.28,660.89c-2-16.13,3.32-30.12,11.84-31.1l7.08,58.52C1048.68,689.3,1040.26,677,1038.28,660.89Z"/><path class="cls-4" d="M1057.29,870.52h31.9A10.83,10.83,0,0,0,1100,859.67V817.46h-53.6v42.21A10.83,10.83,0,0,0,1057.29,870.52Z"/><path class="cls-4" d="M1101.2,811.72h-55.92a2.87,2.87,0,1,0,0,5.74h55.92a2.89,2.89,0,0,0,2.87-2.87A3,3,0,0,0,1101.2,811.72Z"/><path class="cls-5" d="M1100,817.46h-48.76a2.87,2.87,0,1,1,0-5.74h-5.91a2.87,2.87,0,1,0,0,5.74h1.16v42.3a10.83,10.83,0,0,0,10.84,10.85h17.39a15.82,15.82,0,0,1-15.5-12.82l-7.71-39.43h48.58v-.9Z"/><path class="cls-2" d="M644.21,127H515.78V233.65H644.21Z"/><path class="cls-6" d="M644.21,127H515.78V233.65H644.21Z"/><path class="cls-7" d="M635.07,136.59H524.92v87.47H635.07Z"/><path class="cls-2" d="M524.92,194.58l12-9.24a36.33,36.33,0,0,1,43.11-.8l10-8.34A36.24,36.24,0,0,1,635,175l.09.09V224H524.92Z"/><path class="cls-8" d="M524.92,194.58l12-9.24a36.33,36.33,0,0,1,43.11-.8l10-8.34A36.24,36.24,0,0,1,635,175l.09.09V224H524.92Z"/><path class="cls-9" d="M575.74,167.87a8.07,8.07,0,1,0-8.07-8.07A8.06,8.06,0,0,0,575.74,167.87Z"/><path class="cls-7" d="M582.19,182.84l-10,8.15-.8-1.25,9.5-7.89Z"/><path class="cls-9" d="M515.78,127H513V233.65h2.78Z"/><path class="cls-9" d="M241.44,564.54H181.3a3,3,0,0,1,0-6.09h60.14v6.09Z"/><path class="cls-9" d="M459.32,561.58H189.1V815.31H459.32Z"/><path class="cls-10" d="M721.29,561.58H247.89V815.31h473.4Z"/><path class="cls-9" d="M257.31,583.09H712.59v218H257.31Zm454,1.35H258.74V799.71h452.6Z"/><path class="cls-10" d="M728.28,564.54H241.35a3,3,0,0,1,0-6.09H728.19a3,3,0,0,1,.09,6.09Z"/><path class="cls-9" d="M712.59,726.76H257.31v1.35H712.59Z"/><path class="cls-9" d="M712.59,654.61H257.31V656H712.59Z"/><path class="cls-9" d="M496.87,606.84a4.66,4.66,0,1,0-4.66-4.66A4.66,4.66,0,0,0,496.87,606.84Z"/><path class="cls-11" d="M495.17,602.18a4.66,4.66,0,0,1,3.13-4.39,4.15,4.15,0,0,0-1.52-.27,4.66,4.66,0,1,0,0,9.32,4.71,4.71,0,0,0,1.52-.26A4.67,4.67,0,0,1,495.17,602.18Z"/><path class="cls-9" d="M496.87,678a4.67,4.67,0,1,0-4.66-4.66A4.66,4.66,0,0,0,496.87,678Z"/><path class="cls-11" d="M495.17,673.35a4.67,4.67,0,0,1,3.13-4.4,4.15,4.15,0,0,0-1.52-.27,4.67,4.67,0,0,0,0,9.33,4.47,4.47,0,0,0,1.52-.27A4.75,4.75,0,0,1,495.17,673.35Z"/><path class="cls-9" d="M496.87,750.06a4.66,4.66,0,1,0-4.66-4.66A4.66,4.66,0,0,0,496.87,750.06Z"/><path class="cls-11" d="M495.17,745.4A4.66,4.66,0,0,1,498.3,741a4.15,4.15,0,0,0-1.52-.27,4.66,4.66,0,0,0,0,9.32,4.47,4.47,0,0,0,1.52-.27A4.57,4.57,0,0,1,495.17,745.4Z"/><path class="cls-9" d="M238.39,570.82l9.5-6.28H721.38v2.87Z"/><path class="cls-10" d="M201,815.31,196.36,867a3,3,0,0,0,5.83,1.61l13.53-53.32Z"/><path class="cls-9" d="M202.81,845.33l5.65-1.34,7.26-28.68H201L196.36,867a3.13,3.13,0,0,0,1.79,3.41Z"/><path class="cls-10" d="M253.81,815.31,249.15,867a3,3,0,0,0,5.82,1.61l13.54-53.32Z"/><path class="cls-9" d="M258.74,821l8.42-1.62,1.44-4.12H253.9l-4.66,51.71a3.13,3.13,0,0,0,1.79,3.41Z"/><path class="cls-10" d="M658,815.31,662.67,867a3,3,0,0,1-5.82,1.61l-13.54-53.32Z"/><path class="cls-9" d="M655.41,842.82l5-1.25L658,815.31h-14.7l13.54,53.32a3.07,3.07,0,0,0,2.86,2.07h.18Z"/><path class="cls-10" d="M712.23,815.31,716.89,867a3,3,0,0,1-5.82,1.61l-13.53-53.32Z"/><path class="cls-9" d="M706.5,819.79l6.45-1.17-.72-3.31H697.54l13.53,53.32a3.07,3.07,0,0,0,2.87,2.07h.18Z"/><path class="cls-1" d="M546,473.31h57.63a1.33,1.33,0,0,1,1.26,1.16l.08,2a1.11,1.11,0,0,1-1.07,1.17H546.25a1.33,1.33,0,0,1-1.25-1.17l-.09-2A1.05,1.05,0,0,1,546,473.31Z"/><path class="cls-12" d="M578.43,473.31h130.4a1.32,1.32,0,0,1,1.25,1.16l.09,2a1.11,1.11,0,0,1-1.07,1.17H578.7a1.34,1.34,0,0,1-1.26-1.17l-.09-2A1.06,1.06,0,0,1,578.43,473.31Z"/><path class="cls-1" d="M707.22,474.11H574.3c-.18,0-.44-.18-.44-.36a.37.37,0,0,1,.35-.35H707.13c.18,0,.44.17.44.35A.39.39,0,0,1,707.22,474.11Z"/><path class="cls-1" d="M578.16,473.31H598.5a3,3,0,0,0,3-2.69l7.08-83.17a3.51,3.51,0,0,0-3.41-3.86H584.88a3,3,0,0,0-3,2.69l-7.08,83.17A3.42,3.42,0,0,0,578.16,473.31Z"/><path class="cls-12" d="M581,473.31h126.1a3,3,0,0,0,3-2.69l7.08-83.17a3.51,3.51,0,0,0-3.4-3.86H587.75a3,3,0,0,0-3,2.69l-7.08,83.17A3.46,3.46,0,0,0,581,473.31Z"/><path class="cls-13" d="M652.55,422.58a2.32,2.32,0,0,0,2.15,3.4H655a10.41,10.41,0,0,1-7.88,3.95c-3.86-.09-5.83-3.23-4.39-7.08s5.73-6.9,9.59-6.81c2.51.09,4.21,1.34,4.66,3.31A5.17,5.17,0,0,0,652.55,422.58Z"/><path class="cls-7" d="M416.84,482.27c12.54-111-10-178.89-18-202.28l12.64-3.41,41.76.36,5.29,1.88c1.08,20.79,15.95,114,30.29,203.36h-72Z"/><path class="cls-14" d="M477.24,851.16l58.17,1.43L512.19,836a15.48,15.48,0,0,1-6.45-11.92l-.8-18.19L473.3,806Z"/><path class="cls-11" d="M483.69,829.92v-.36a3.8,3.8,0,0,1,3.23-4.12l18.55-2.69-.18-3.68h-31l2.78,30.83,25.37-2.77-8.34-3.32A16.59,16.59,0,0,1,483.69,829.92Z"/><path class="cls-14" d="M372.47,850.08h26.17l4.84-44.27-30.92.09Z"/><path class="cls-11" d="M379,842.64l.63-13.62a3.72,3.72,0,0,1,3.23-3.49l18.82-2.87.45-3.77-29.49.09-.09,31.37Z"/><path class="cls-2" d="M370.77,457.08v362h34l29.57-295.13a3.74,3.74,0,0,1,7.44,0l31.46,295.13h34l-12.28-362Z"/><path class="cls-15" d="M370.77,457.08v362h34l29.57-295.13a3.74,3.74,0,0,1,7.44,0l31.46,295.13h34l-12.28-362Z"/><path class="cls-12" d="M374.44,834.49l.81-.81a16,16,0,0,1,22.5.27l.44.54a8.33,8.33,0,0,1,2.33,5.73v3.41a18.39,18.39,0,0,0,.9,5.83l2.78,9.23a22.54,22.54,0,0,1,1.07,6.9v1.16a3.39,3.39,0,0,1-3.49,3.23H369.6a3.33,3.33,0,0,1-3.49-3.23v-.45a24.6,24.6,0,0,1,1.34-8l3.23-9.05a19.58,19.58,0,0,0,1.16-6.46l.09-2.6A9,9,0,0,1,374.44,834.49Z"/><path class="cls-2" d="M369.87,819.07h36.21l.72-7.44H370Z"/><path class="cls-11" d="M369.87,819.07H385l.36-7.44H370Z"/><path class="cls-16" d="M366.11,866.3v.45A3.39,3.39,0,0,0,369.6,870h32.18a3.33,3.33,0,0,0,3.49-3.23v-1.16a6.81,6.81,0,0,0-.09-1.35H366.11Z"/><path class="cls-12" d="M473.21,840.85v22.68a6.62,6.62,0,0,0,6.63,6.63h77.08a2.8,2.8,0,0,0,2.78-2.78,12.63,12.63,0,0,0-8.61-11.92l-17.39-5.74-22-17.11a6.07,6.07,0,0,0-7.71.18l-9.77,8.33a5.49,5.49,0,0,1-5.2,1.08l-12.37-3.86A2.65,2.65,0,0,0,473.21,840.85Z"/><path d="M479.84,870.16h77.08a2.8,2.8,0,0,0,2.78-2.78,9.43,9.43,0,0,0-.36-2.78h-86A6.64,6.64,0,0,0,479.84,870.16Z"/><path class="cls-7" d="M511.21,841.66a.69.69,0,0,1-.45-.18.71.71,0,0,1,0-1l4.66-5a.73.73,0,0,1,1,0,.71.71,0,0,1,0,1l-4.66,5A1.28,1.28,0,0,1,511.21,841.66Z"/><path class="cls-7" d="M514.88,844.53a.64.64,0,0,1-.44-.18.71.71,0,0,1,0-1l4.66-5a.69.69,0,0,1,1,0,.71.71,0,0,1,0,1l-4.66,5A1.28,1.28,0,0,1,514.88,844.53Z"/><path class="cls-7" d="M518.56,847.39a.67.67,0,0,1-.45-1.16l4.66-5a.71.71,0,0,1,1,0,.73.73,0,0,1,0,1l-4.66,5A.76.76,0,0,1,518.56,847.39Z"/><path class="cls-7" d="M392.37,842.11A.54.54,0,0,1,392,842a13.78,13.78,0,0,0-11.83,0,.8.8,0,1,1-.72-1.44,15.19,15.19,0,0,1,13.36,0,.87.87,0,0,1,.35,1.08A.92.92,0,0,1,392.37,842.11Z"/><path class="cls-7" d="M392.37,846.23a.54.54,0,0,1-.36-.09,13.72,13.72,0,0,0-11.83,0,.78.78,0,0,1-1.08-.36.77.77,0,0,1,.36-1.07,15.16,15.16,0,0,1,13.36,0,.86.86,0,0,1,.35,1.07A.92.92,0,0,1,392.37,846.23Z"/><path class="cls-7" d="M392.37,850.26a.54.54,0,0,1-.36-.09,13.82,13.82,0,0,0-11.83,0,.78.78,0,0,1-1.08-.36.77.77,0,0,1,.36-1.07,15.16,15.16,0,0,1,13.36,0,.86.86,0,0,1,.35,1.07A.92.92,0,0,1,392.37,850.26Z"/><path class="cls-11" d="M493.46,815,459.94,536.31a17.8,17.8,0,0,0-17.65-15.68h-4.21a3.7,3.7,0,0,1,3.67,3.4L473,817.55Z"/><path class="cls-2" d="M472.31,819.07h36.12l-.54-7.44H471.6Z"/><path class="cls-11" d="M472.31,819.07h21.51l-.8-7.44H471.6Z"/><path class="cls-14" d="M585.6,306.78l3.13-7.79a43.31,43.31,0,0,1,4.39-8.25l8.07-10a.73.73,0,0,1,.81-.35c2.51,1.25,2.78,3.58,1.88,6.18A35.07,35.07,0,0,1,601.1,292c-.72,1.16.45,1.34.9.71l17.65-18.28a2.21,2.21,0,0,1,3-.18,2.15,2.15,0,0,1,.27,3.05c-3,3.67-10,12.19-10,12.19L626.73,278a2.33,2.33,0,0,1,3,.17,2.65,2.65,0,0,1-.09,3.68c-4,3.94-13.26,13.26-13.26,13.26l12.36-9.77a2,2,0,0,1,2.78.45,2.2,2.2,0,0,1-.18,3C627.81,292,621,299.17,621,299.17l7.79-6.19a1.67,1.67,0,0,1,2.16.45,1.91,1.91,0,0,1-.18,2.24l-27,27.16-8.25,11.56-29.66-2.24Z"/><g class="cls-17"><path class="cls-11" d="M602.71,310.64h-.26a.74.74,0,0,1-.45-.9c3.58-9.95-.9-15.41-1.08-15.59a.7.7,0,0,1,1.08-.9c.18.27,5.2,6.28,1.34,17C603.34,310.46,603.07,310.64,602.71,310.64Z"/></g><path class="cls-1" d="M504.58,304.37l28.68,68.29,51.89-65.34L602.8,324,550,413.8a21,21,0,0,1-36.84-1.08l-30.56-59.6Z"/><path class="cls-14" d="M452.51,228s-36.57-22.95-38,5.1l-.53,7.26-2.51,36.75a4.26,4.26,0,0,0,1,2.78l21.15,14.43a1.75,1.75,0,0,0,2.07-.09l15.68-13.36a4.12,4.12,0,0,0,1.43-3.67l-2.33-21.78a27.69,27.69,0,0,0,.72-6.45C451.52,238,452.51,228,452.51,228Z"/><path class="cls-12" d="M455.73,229.71a12.37,12.37,0,1,0-12.37-12.37A12.37,12.37,0,0,0,455.73,229.71Z"/><path class="cls-14" d="M456.63,208.2s13,54.49-15,58.16c-24.2,3.23-26.89-34.5-26.89-34.5l1.17-24.47Z"/><path class="cls-12" d="M455,211.6l-24.73,1.8a5.73,5.73,0,0,0-5.2,6,5.61,5.61,0,0,1-5.2,6,1.64,1.64,0,0,0-1.43,1.61l.36,5.47a1.18,1.18,0,0,1-1.17,1.34,1.25,1.25,0,0,1-1.34-1l-1.08-5.2-1.07-1.71-5.83,3.59s-9.41-14.52-4.93-27.78c2.6-7.53,10-10.22,13.62-10.67a3.94,3.94,0,0,0,2.78-1.79c1.44-2.42,4.93-6.63,12.73-6.36a13.09,13.09,0,0,1,11,6.09,3.79,3.79,0,0,0,4.75,1.34,10.7,10.7,0,0,1,10.49.81C466.85,196.28,463.62,210.26,455,211.6Z"/><path class="cls-11" d="M414,242.17a6.1,6.1,0,0,0,3.58-.81l-3.94,6.09Z"/><path class="cls-14" d="M415.31,227.65a5,5,0,0,0-7.17-2.78c-6.09,2.69-4.84,16.49,5.47,17.3,5.38.44,4.3-2.69,3.4-6.9Z"/><path class="cls-3" d="M407.87,228.45a4,4,0,0,1,3-.8,3.57,3.57,0,0,1,2.33,1.88,7.31,7.31,0,0,1,1,3.76l.09,1.17a.63.63,0,1,1-1.26,0l-.09-1.17a7.67,7.67,0,0,0-.8-3.13,3,3,0,0,0-1.53-1.35,3,3,0,0,0-2,.54.7.7,0,0,1-.9-.18C407.51,229.08,407.6,228.72,407.87,228.45Z"/><path class="cls-14" d="M455.19,212.77l-2.86.27a.6.6,0,0,1-.63-.54c0-.36.18-.63.54-.63l2.86-.27a4.5,4.5,0,0,0,1.08-.17,13.54,13.54,0,0,0,3.32-1.62.58.58,0,0,1,.8.18.59.59,0,0,1-.18.81,13.65,13.65,0,0,1-3.58,1.7Z"/><path class="cls-11" d="M452.24,270.76l-.9-8.79c-2.33,2.42-9,5.92-16.67,4.13h0a18.61,18.61,0,0,1-9.77-6.1.57.57,0,0,0-.81-.09.58.58,0,0,0-.08.81,20.17,20.17,0,0,0,12.9,6.9A20,20,0,0,0,452.24,270.76Z"/><g class="cls-18"><path class="cls-3" d="M443.72,255.25c0,.09-.09.09,0,0l-3.4.27a.79.79,0,0,1-.81-.72.73.73,0,0,1,.72-.8l3.31-.27a.73.73,0,0,1,.81.63C444.35,254.89,444.08,255.25,443.72,255.25Z"/></g><g class="cls-18"><path class="cls-3" d="M445,252c-6.1.9-8.88-2.41-9.86-4a.73.73,0,0,1,.27-1,.74.74,0,0,1,1,.26c.9,1.62,3.95,5.11,11.3,2.69a.71.71,0,0,1,.44,1.35A16,16,0,0,1,445,252Z"/></g><path class="cls-1" d="M436.55,235.89a2.24,2.24,0,1,0-2.24-2.24A2.24,2.24,0,0,0,436.55,235.89Z"/><path class="cls-7" d="M437.54,233.38a.45.45,0,1,0-.45-.44A.45.45,0,0,0,437.54,233.38Z"/><path class="cls-1" d="M454.3,236a2.24,2.24,0,1,0-2.24-2.24A2.24,2.24,0,0,0,454.3,236Z"/><path class="cls-7" d="M455.28,233.47a.45.45,0,1,0-.44-.45A.45.45,0,0,0,455.28,233.47Z"/><g class="cls-18"><path class="cls-3" d="M446.59,246.56l-3,.18a.68.68,0,0,1-.09-1.35l3-.18a1.35,1.35,0,1,0-.18-2.69.75.75,0,0,1-.72-.62c-.09-.36.27-.63.63-.72a2.75,2.75,0,0,1,2.87,2.42A2.81,2.81,0,0,1,446.59,246.56Z"/></g><path class="cls-1" d="M460.66,227.92H429.92a3.21,3.21,0,0,0-3.23,3.22v2.51a8.79,8.79,0,1,0,17.57,0v-2.51a3.14,3.14,0,0,0-.72-2H447a3.06,3.06,0,0,0-.63,2v2.51a8.79,8.79,0,1,0,17.57,0v-2.51A3.21,3.21,0,0,0,460.66,227.92ZM443,231.14v2.51a7.49,7.49,0,1,1-15,.09v-2.51a2,2,0,0,1,2-2h11.11A1.9,1.9,0,0,1,443,231.14Zm19.62,2.51a7.48,7.48,0,1,1-15,.09v-2.51a2,2,0,0,1,2-2h11.11a2,2,0,0,1,2,2Z"/><g class="cls-17"><path class="cls-11" d="M485,466.05H409a.71.71,0,0,1-.72-.72.77.77,0,0,1,.72-.72H485a.72.72,0,0,1,0,1.44Z"/></g><path class="cls-11" d="M455.73,278S459,389.51,467.47,464.79h10.94Z"/><path class="cls-11" d="M430.91,465.24l-45.08,6.09s-1.17,3.23-2.6,8L370.68,485v326.5l14.61.08L398.55,527C437.18,513.19,430.91,465.24,430.91,465.24Z"/><path class="cls-11" d="M495.61,515c.09,0,.18-.09.27-.09l-6.54-50.1H467.56l3.95,36.3A17.23,17.23,0,0,0,495.61,515Z"/><g class="cls-17"><path class="cls-19" d="M473,292H438.34l-2.59,2.24a1.76,1.76,0,0,1-2.24.09L430.1,292H392v3.94h81Z"/><path class="cls-19" d="M473,308.94H392v3.94h81Z"/><path class="cls-11" d="M473,326H392v4h81Z"/><path class="cls-11" d="M473,342.9H392v4h81Z"/><path class="cls-11" d="M473,359.93H392v3.95h81Z"/><path class="cls-11" d="M473,376.87H392v3.94h81Z"/><path class="cls-11" d="M473,393.9H392v3.94h81Z"/><path class="cls-11" d="M477.06,410.84H392v3.94h85.05Z"/><path class="cls-11" d="M479.75,427.87H392v3.94h87.74Z"/><path class="cls-11" d="M485,444.81H392v3.94h93Z"/></g><path class="cls-1" d="M366.65,506.56l2-119.47-29.76-39.8-.71-32.8a26.74,26.74,0,0,1,21.06-26.62l50.19-10.75c7,20.52,24.91,102.62,21.42,197.17a42.17,42.17,0,0,1-42.13,40.51H374.8A8,8,0,0,1,366.65,506.56Z"/><path class="cls-20" d="M392,397.84l-23.39-10.66-2,119.47A8.16,8.16,0,0,0,374.8,515h13.89a39.18,39.18,0,0,0,4.66-.27C393,473.93,392,397.84,392,397.84Z"/><path class="cls-1" d="M507.53,318.62l-9.94,194.66a1.75,1.75,0,0,1-1.71,1.61h-1.61A12.51,12.51,0,0,1,482,504.4c-13.62-88.54-25.36-206.4-26.35-226.29l32,10.21C498,291.55,508.16,304.45,507.53,318.62Z"/><path class="cls-7" d="M494.81,430l3.13-39.89H469.53L472,430a2,2,0,0,0,2,1.79h18.91A2,2,0,0,0,494.81,430Z"/><path class="cls-2" d="M498,386.73H494.9l-1.44-3.68a.56.56,0,0,0-.53-.35H473.84a.62.62,0,0,0-.54.35l-1.44,3.68h-2.42a.61.61,0,0,0-.62.63v2.24a.6.6,0,0,0,.62.62h28.68a.61.61,0,0,0,.63-.62v-2.24A.76.76,0,0,0,498,386.73Z"/><path class="cls-15" d="M498,386.73H494.9l-1.44-3.68a.56.56,0,0,0-.53-.35H473.84a.62.62,0,0,0-.54.35l-1.44,3.68h-2.42a.61.61,0,0,0-.62.63v2.24a.6.6,0,0,0,.62.62h28.68a.61.61,0,0,0,.63-.62v-2.24A.76.76,0,0,0,498,386.73Z"/><path class="cls-11" d="M494.63,386H478.85L480,382.7h-6.18a.62.62,0,0,0-.54.35l-1.44,3.68h-2.42a.61.61,0,0,0-.62.63v2.24a.6.6,0,0,0,.62.62h5.11l1-2.77a.79.79,0,0,1,.81-.54H494.9Z"/><path class="cls-11" d="M497.94,391.12l.09-1H469.62L472,430a2,2,0,0,0,2,1.79h1.35l1-39.26Z"/><path class="cls-2" d="M483.69,419.89a10.4,10.4,0,1,0-10.75-10.4A10.59,10.59,0,0,0,483.69,419.89Z"/><path class="cls-14" d="M461.11,403.31l9-4.21.09,2a2.86,2.86,0,0,0,2.87,2.69l22.94-.18a3,3,0,0,1,3,3.05v.09a3.25,3.25,0,0,1-3.14,3.22c-2.95,0-7,.09-7,.09l7-.09a3.1,3.1,0,1,1,.09,6.19l-7.26.09,7.53-.09a3,3,0,0,1,3,2.86,3,3,0,0,1-2.69,3c-3.05.27-7.62.63-7.62.63l8.16.81a2.34,2.34,0,0,1,2.15,2.33v.08a2.41,2.41,0,0,1-2.42,2.42c-9.5,0-56.91,1.26-56.91,1.26l9.68-25.1,4.39.27A17.81,17.81,0,0,0,461.11,403.31Z"/><g class="cls-17"><path class="cls-11" d="M495.43,410.57h-5a.71.71,0,0,1-.72-.72.77.77,0,0,1,.72-.72h5a.71.71,0,0,1,.72.72A.77.77,0,0,1,495.43,410.57Z"/></g><g class="cls-17"><path class="cls-11" d="M495.79,416.84h-5.11a.71.71,0,0,1-.71-.71.77.77,0,0,1,.71-.72h5.11a.71.71,0,0,1,.72.72A.77.77,0,0,1,495.79,416.84Z"/></g><path class="cls-1" d="M338.24,312.25V415.41a19,19,0,0,0,20.07,18.91l95.9-5.38V404.47l-73.85-4.57,2-89.35"/><path class="cls-20" d="M361.72,422.4c-7.44.27-14-5.29-14-14.52l1.34-97c.63-10.22,3.67-18.11,12.1-23.57l-1.88.44a26.67,26.67,0,0,0-21.06,27.52v100a18.81,18.81,0,0,0,20.16,18.82l95.81-5.2V423.3Z"/><path class="cls-20" d="M429.83,403l-.09-1.52-37.82-2.42-8.87-71.16A.54.54,0,0,0,382,328l-1.52,72,11.65.72Z"/><path class="cls-11" d="M585.15,307.32l20,14-1.43,1.44-.9,1.25Z"/><path class="cls-11" d="M454.21,404.47l2.33,14.88a6.14,6.14,0,0,0,5.91,5.2l36.84,1a2.46,2.46,0,0,1-2.42,2.42l-42.66.89Z"/><path class="cls-20" d="M520.89,404.3l-14.7-27.61,1.08-27.78a.77.77,0,0,0-1.53-.09l-1.07,27.78c0,.09-.09.18-.09.27l-1.08,16.94,9.68,18.91c7.53,14.79,28.41,15.33,36.84,1.08l.71-1.26A21,21,0,0,1,520.89,404.3Z"/><path class="cls-20" d="M530,377l3.23-4.3L529,362.44l-.89,13.8A1.09,1.09,0,0,0,530,377Z"/><path class="cls-5" d="M341.19,491.14h17.66l-53,379H299Z"/><path class="cls-5" d="M1031.83,870.16h-6.9l-53-379h17.66Z"/><path class="cls-16" d="M299,870.16h3l45.44-368.35a5.53,5.53,0,0,1,5-4.84l5.73-.54.72-5.2H341.19Z"/><path class="cls-16" d="M1027.44,870.16l-47.14-368a5.25,5.25,0,0,1,4.12-5.82l5.65-1.17-.45-4.12H972l53,379h2.51Z"/><path class="cls-5" d="M287,491.14h17.66l-53,379h-6.9Z"/><path class="cls-5" d="M977.61,870.16h-6.9l-53-379H935.4Z"/><path class="cls-16" d="M244.76,870.16h3l17.65-134.35,5.47-3.13,33-236.34.72-5.2H286.88Z"/><path class="cls-16" d="M973.22,870.16,956,736.89l6.18-4.3L935.31,491.05H917.65l53,379h2.6Z"/><path class="cls-7" d="M947.32,405.73a1.53,1.53,0,1,0-1.53-1.52A1.52,1.52,0,0,0,947.32,405.73Z"/><path class="cls-2" d="M796.3,304.45l-30.11,60.32L725.14,364l-3.67,19.54,46.24,9.14a19.67,19.67,0,0,0,19.54-7.88L810,352.85"/><path class="cls-21" d="M675,355.9l-10.84-1.44-12.91,3.77a1.5,1.5,0,0,0-.9,2.33,2,2,0,0,0,2.07.72L664.82,359l7.71,2.51L664.82,359l-10.75,3a1.35,1.35,0,0,0-.9,1.89,1.71,1.71,0,0,0,1.88.71l10.85-2.06,11.2,3.5-11.2-3.5-7.71,3.14a.87.87,0,0,0-.36,1.34,1.21,1.21,0,0,0,1.35.36l9-2.15,10.58,2.6Z"/><path class="cls-11" d="M675,355.9l-10.84-1.44-12.91,3.77a1.5,1.5,0,0,0-.9,2.33,2,2,0,0,0,2.07.72L664.82,359l7.71,2.51L664.82,359l-10.75,3a1.35,1.35,0,0,0-.9,1.89,1.71,1.71,0,0,0,1.88.71l10.85-2.06,11.2,3.5-11.2-3.5-7.71,3.14a.87.87,0,0,0-.36,1.34,1.21,1.21,0,0,0,1.35.36l9-2.15,10.58,2.6Z"/><path class="cls-21" d="M674.32,352.4l16,9.23a7,7,0,0,0,3,.9L725.14,364l-3.67,19.54-25.46-5a6.32,6.32,0,0,0-2.6,0l-1.43.27a20.16,20.16,0,0,1-15.68-2h-.09a5.57,5.57,0,0,0-2.16-.72c-2.77-.27-9.5-1-9.5-1a.71.71,0,0,1-.71-.72,3.73,3.73,0,0,1,3.49-3.49l4.75-.63c2.51-.36,3.95-2.69,2.87-4.66l-4.75-8.34a2.26,2.26,0,0,0-1.43-1.07l-16.85-4.39a1.27,1.27,0,0,1-1.08-1.44,1.65,1.65,0,0,1,1.88-1.25c4.31.53,17.39,2.42,20.44,3A1.76,1.76,0,0,1,674.32,352.4Z"/><path class="cls-11" d="M766.28,364.77l5.37.18a3,3,0,0,0,2.87-2l8.88-32.44Z"/><path class="cls-2" d="M892.11,817.64a25.07,25.07,0,0,0-1.17,9.23l-.09,25.81a28.29,28.29,0,0,0,3.68,12.82l.54.89a7.33,7.33,0,0,0,6.45,3.68H909a7.39,7.39,0,0,0,7.17-5.65,27.12,27.12,0,0,0,.36-11.65l-6.28-27.69a32.28,32.28,0,0,0-2.24-7.53H892.11Z"/><path class="cls-21" d="M783.93,705.43l-13,99.84a30,30,0,0,1-3.14,9.14l-21.33,40.15,5,6.82L771,851.61l17.38-31.37a49.6,49.6,0,0,1,2.33-15.78l26.89-99Z"/><path class="cls-11" d="M771,821.76c1.52-2.87,4.57-9.86,5-13.08l14.07-77.35a11.44,11.44,0,0,1,6.81-8.42l17.83-7.35.81-3-33.7,8-11,84.6a29.93,29.93,0,0,1-3.14,9.14l-21.33,40.15,3,5.11Z"/><path class="cls-2" d="M732.67,860.84l13.8-6.28a21,21,0,0,0,19.72-7.43l22.22-26.89a47.75,47.75,0,0,1,4,27.51l-3.23,22.32h-2.51L786,847.13a1.8,1.8,0,0,0-3.22-1.08l-13.54,16.58a20.27,20.27,0,0,1-15.77,7.44H728.81a2.36,2.36,0,0,1-2.15-3.23A12.6,12.6,0,0,1,732.67,860.84Z"/><path class="cls-21" d="M891,806a208.45,208.45,0,0,1,1.44,28l-.18,11.2a9.11,9.11,0,0,0,9.14,8.79H903a9.18,9.18,0,0,0,9.06-10.4l-2.6-13.26A82.1,82.1,0,0,1,908,809.93l7.17-128.88-34.86,10Z"/><path class="cls-2" d="M904.93,294.06l-29.49-6-48,.54-17.66,4.75c-11,3.5-16.49,13.09-16.31,24.65l1.62,8.42-4.57,15.78c-2.69,10.21.8,16.13,7.88,24.37,2.24,2.6,3.41,3.68,4.3,8.61,0,0,4.31,16.22,5.11,22.94a299.86,299.86,0,0,1,2,46l90.7-.18c4.22,0,6-4.48,4-8.16,0,0-6.19-12.28-7.35-22.67-3.77-33.88,5.91-74.21,5.91-74.21l19-21.06C922.58,306.78,915.41,296.48,904.93,294.06Z"/><path class="cls-12" d="M812,444,781.87,721.38l133-34,1.35-114.09a491.34,491.34,0,0,0-15.06-126.82l-.63-2.6Z"/><g class="cls-17"><path class="cls-11" d="M856.53,408.6a.5.5,0,0,1-.54-.45.53.53,0,0,1,.45-.63l37.91-7.35a.55.55,0,0,1,.18,1.08l-37.91,7.35Z"/></g><path class="cls-21" d="M841.38,410.21l-10.93-2.15L828,410.39l2.87,3.41Z"/><path class="cls-11" d="M841.38,410.21l-10.93-2.15L828,410.39l2.87,3.41Z"/><path class="cls-11" d="M880.82,695.84,891,806.08c.45,3.85.81,7.71,1,11.47v.09c.36,5.47.45,10.93.36,16.4l-.18,11.2a9.14,9.14,0,0,0,8.6,8.79c-4.21-3.32-3.94-8.7-4-12.73l-7.62-133.54a9.92,9.92,0,0,1,5.83-9.68L914.6,689l.09-1.7Z"/><path class="cls-11" d="M725.05,364.32l-4.21,9a7.78,7.78,0,0,1-8.25,4.39l-15.68-2.51a7.61,7.61,0,0,0-3.77.18c-3.22,1.07-10.39,2.95-17.2,1.16a.33.33,0,0,0,.27.09h.09a20.16,20.16,0,0,0,15.68,2l1.43-.27a6.69,6.69,0,0,1,2.6,0l25.46,5Z"/><path class="cls-11" d="M839.41,428.85l15.15-3.23L898.65,422l.45.18c2.15,6.18,3,8.24,4.66,12.19l-6.45.27a225.12,225.12,0,0,1-30.12-1.53,108,108,0,0,0-27.87.36v-4.57Z"/><path class="cls-2" d="M920.88,309.38l-9.23.63c-7.35,12.19-11.74,22-11.3,36.12l-.62,5.65L917.56,397l-43.64,8.33,7,17.93,57-3.77c8.33-.54,14.25-9.5,11.2-17.92Z"/><path class="cls-1" d="M807.86,453.86l1-9.86,91.5-.27,2.51,10.13Z"/><path class="cls-22" d="M869.88,453.86a32.56,32.56,0,0,0-32.26,28.23l-31.37,233-24.38,6.27,29-267.52Z"/><path class="cls-12" d="M853.75,448,820.41,390.4a3.12,3.12,0,0,0-3.76-1.34l-47.06,15.86a2.94,2.94,0,0,0-1.7,4.21l31.46,54.68a3.27,3.27,0,0,0,3.58,1.43l48.94-12.91A2.89,2.89,0,0,0,853.75,448Z"/><path class="cls-23" d="M853.75,448,820.41,390.4a3.12,3.12,0,0,0-3.76-1.34l-47.06,15.86a2.94,2.94,0,0,0-1.7,4.21l31.46,54.68a3.27,3.27,0,0,0,3.58,1.43l48.94-12.91A2.89,2.89,0,0,0,853.75,448Z"/><path class="cls-1" d="M852.14,448.66,818.8,391a3.13,3.13,0,0,0-3.77-1.34l-47,15.95a2.94,2.94,0,0,0-1.7,4.21l31.46,54.67a3.27,3.27,0,0,0,3.58,1.44l48.93-12.91A3.08,3.08,0,0,0,852.14,448.66Z"/><path class="cls-12" d="M803.47,418.64a2,2,0,0,1-.63-2.07,6.59,6.59,0,0,0-4.3-.18c-2.15.72-2.6,2.69-1,4.31a7.1,7.1,0,0,0,6.72,1.61,2.61,2.61,0,0,0,2-2.33A5.84,5.84,0,0,1,803.47,418.64Z"/><path class="cls-20" d="M775,411.84c.46-.82-.15-2-1.37-2.7s-2.56-.55-3,.27.16,2,1.37,2.71S774.5,412.66,775,411.84Z"/><path class="cls-12" d="M774.57,412c.45-.82-.16-2-1.37-2.7s-2.57-.55-3,.27.16,2,1.37,2.71S774.11,412.84,774.57,412Z"/><path class="cls-16" d="M773.79,411.71c.31-.56-.1-1.39-.93-1.84s-1.74-.37-2.05.19.1,1.39.93,1.85S773.48,412.27,773.79,411.71Z"/><path class="cls-20" d="M771.39,410.84a.87.87,0,0,1,.71-1.26h-.27c-.8,0-1.25.54-1,1.26a2.21,2.21,0,0,0,2,1.25h.27A2.1,2.1,0,0,1,771.39,410.84Z"/><path class="cls-21" d="M873.83,405.37l-25.37,4.84a3,3,0,0,1-.89.09L831.52,410a15.35,15.35,0,0,0-4.93.81L808,417.65a1.57,1.57,0,0,0-1,2,1.61,1.61,0,0,0,2,1.17l17.74-4.66-16.85,9.23a1.74,1.74,0,0,0,1.53,3.13l17.21-6.81-15.51,6.1a1.78,1.78,0,0,0-1,2.15,1.67,1.67,0,0,0,2.07,1.16l15.77-4.3-13.62,3.76a1.44,1.44,0,0,0,.71,2.78l36.3-7.71L881,423.3Z"/><g class="cls-17"><path class="cls-11" d="M813.06,428.4a.62.62,0,0,1-.54-.35.54.54,0,0,1,.36-.72l14.43-5.74a.57.57,0,0,1,.36,1.08l-14.43,5.73Z"/></g><g class="cls-17"><path class="cls-11" d="M816.29,431.09a.57.57,0,0,1-.54-.45.6.6,0,0,1,.36-.71l13.62-3.77a.57.57,0,0,1,.36,1.08L816.47,431C816.38,431.09,816.38,431.09,816.29,431.09Z"/></g><path class="cls-11" d="M815.3,432.26a1.44,1.44,0,0,0,1.7,1.07l36.3-7.71,27.61-2.32-7-17.93,1,10.4a3.93,3.93,0,0,1-3.23,4.21l-20.79,3.4Z"/><path class="cls-13" d="M873.83,405.37l3.94-.9,7.44,18.47-4.39.36Z"/><path class="cls-7" d="M889.15,307a1.52,1.52,0,1,0-1.52-1.52A1.52,1.52,0,0,0,889.15,307Z"/><path class="cls-7" d="M852.58,312.07a1.52,1.52,0,1,0-1.52-1.52A1.52,1.52,0,0,0,852.58,312.07Z"/><path class="cls-7" d="M904.39,413.62a1.53,1.53,0,1,0-1.53-1.53A1.53,1.53,0,0,0,904.39,413.62Z"/><path class="cls-7" d="M890.59,343.08a1.52,1.52,0,1,0-1.53-1.52A1.52,1.52,0,0,0,890.59,343.08Z"/><path class="cls-7" d="M926.08,344.07a1.53,1.53,0,1,0-1.53-1.53A1.52,1.52,0,0,0,926.08,344.07Z"/><path class="cls-7" d="M833.85,335.73a1.52,1.52,0,1,0-1.52-1.52A1.52,1.52,0,0,0,833.85,335.73Z"/><path class="cls-7" d="M802.84,346a1.53,1.53,0,1,0-1.52-1.52A1.52,1.52,0,0,0,802.84,346Z"/><path class="cls-7" d="M789.58,328.74a1.52,1.52,0,1,0-1.52-1.52A1.52,1.52,0,0,0,789.58,328.74Z"/><path class="cls-7" d="M785,374.27a1.53,1.53,0,1,0-1.52-1.52A1.52,1.52,0,0,0,785,374.27Z"/><path class="cls-7" d="M758,385.83a1.52,1.52,0,1,0-1.52-1.52A1.53,1.53,0,0,0,758,385.83Z"/><path class="cls-7" d="M739.48,369.34a1.53,1.53,0,1,0-1.52-1.52A1.52,1.52,0,0,0,739.48,369.34Z"/><path class="cls-7" d="M819.78,301.41a1.53,1.53,0,1,0-1.52-1.53A1.53,1.53,0,0,0,819.78,301.41Z"/><path class="cls-7" d="M857.78,355a1.52,1.52,0,1,0-1.52-1.52A1.52,1.52,0,0,0,857.78,355Z"/><path class="cls-7" d="M846.22,400a1.52,1.52,0,1,0-1.52-1.52A1.53,1.53,0,0,0,846.22,400Z"/><path class="cls-7" d="M870.24,432.08a1.53,1.53,0,1,0-1.52-1.53A1.52,1.52,0,0,0,870.24,432.08Z"/><path class="cls-7" d="M828,375.44a1.53,1.53,0,1,0-1.53-1.53A1.53,1.53,0,0,0,828,375.44Z"/><path class="cls-7" d="M818.26,411.11a1.53,1.53,0,1,0-1.52-1.53A1.53,1.53,0,0,0,818.26,411.11Z"/><path class="cls-7" d="M918,378.39a1.52,1.52,0,1,0-1.52-1.52A1.52,1.52,0,0,0,918,378.39Z"/><path class="cls-7" d="M879.65,385a1.53,1.53,0,1,0-1.52-1.53A1.53,1.53,0,0,0,879.65,385Z"/><path class="cls-13" d="M870.69,296.48l11.65-7.08L875.53,288l-48,.54-4.66,1.26,11.47,6.81A35.36,35.36,0,0,0,870.69,296.48Z"/><path class="cls-1" d="M875.35,213.76A14.79,14.79,0,1,0,860.56,199,14.8,14.8,0,0,0,875.35,213.76Z"/><path class="cls-2" d="M883.77,211.16a14.77,14.77,0,0,1-22.58-16.31c.18-.54.36-1,.54-1.53C868.36,194.31,879.92,200.22,883.77,211.16Z"/><path class="cls-1" d="M868.09,260.45c-.72,15.95-5.47,24.83,3.41,25.18,14.16.63,26.26-11.83,27-27.78s-10.21-29.4-24.47-29.93C870.24,241.54,868.72,244.5,868.09,260.45Z"/><path class="cls-1" d="M861.82,261.3c1.21-13.8-9.28-26-23.43-27.24s-26.61,8.94-27.82,22.75,9.28,26,23.44,27.25S860.61,275.11,861.82,261.3Z"/><path class="cls-21" d="M868.72,249.61l.89,32.26a6,6,0,0,0,4.39,5.56l3.68,1-8.43,5.2a31.41,31.41,0,0,1-32.62.27l-9.14-5.47,4.12-1.16a5.94,5.94,0,0,0,4.3-5l4.22-38.36Z"/><path class="cls-21" d="M846.22,273.44l1.53.09a19.85,19.85,0,0,0,20.7-19l1.16-27.87a6.62,6.62,0,0,0-6.36-6.9l-26.08-1.16a8.61,8.61,0,0,0-9,8.24l-1.08,25.9A20,20,0,0,0,846.22,273.44Z"/><path class="cls-1" d="M848.37,245.12a2.15,2.15,0,1,0-2.15-2.15A2.15,2.15,0,0,0,848.37,245.12Z"/><path class="cls-7" d="M847.48,243a.45.45,0,0,0,0-.89.45.45,0,1,0,0,.89Z"/><path class="cls-1" d="M831.61,245.12a2.15,2.15,0,1,0-2.15-2.15A2.15,2.15,0,0,0,831.61,245.12Z"/><path class="cls-7" d="M830.72,242.88a.45.45,0,0,0,0-.89.45.45,0,1,0,0,.89Z"/><g class="cls-18"><path class="cls-3" d="M839.41,255.52l2.87.27a.64.64,0,0,0,.18-1.26l-2.87-.27a1.3,1.3,0,0,1-1.17-1.43,1.45,1.45,0,0,1,1.44-1.25.64.64,0,0,0,.18-1.26,2.6,2.6,0,0,0-2.78,2.33A2.3,2.3,0,0,0,839.41,255.52Z"/></g><path class="cls-1" d="M819.78,239.66c3.23-2.15,2-6.46,2-6.46a20,20,0,0,1-1-5.82c-.09-6.63,3.49-9.23,5.38-10.13a1.93,1.93,0,0,0,1.16-1.7c1.43-20.7,29.85-25.63,44.72-13.27,9,7.53,11,15.87,10.31,23.66a5.22,5.22,0,0,0,2.6,5.2l-3.85,1.62c-1.53,5.73-4,11-5.47,15.14-.63,1.79-3.86-5.55-5.38-6.36-.18-.09-1.61,1.88-2.51,3.14a1.21,1.21,0,0,1-2.15-.27,31.54,31.54,0,0,1-1.34-10.85l.18-3.31c-7.26-1.08-10-8-10-8-7.17,8-19.18,7.08-24,6.36a2,2,0,0,0-2.24,1.89L827.58,243a24.09,24.09,0,0,1-3.67-4.84l-3.32,2.33Z"/><path class="cls-21" d="M867,255.61s9.41,1.52,12.19-7.62-8.69-11.92-11.11-2.6l-2.15,10.22Z"/><path class="cls-3" d="M876.69,242.79a3.68,3.68,0,0,0-2.77-1,3.46,3.46,0,0,0-2.42,1.61,7,7,0,0,0-1.35,3.59l-.09,1c-.09.72,1.17,1.08,1.26.18l.18-1.07a6.54,6.54,0,0,1,1.07-3,2.11,2.11,0,0,1,3.5-.45.68.68,0,0,0,.89-.09A.73.73,0,0,0,876.69,242.79Z"/><path class="cls-7" d="M821.66,244.68a8.68,8.68,0,1,0,16.41-3.23,7.38,7.38,0,0,1,4.3.09,9.73,9.73,0,0,0-.72,2.78,8.68,8.68,0,1,0,9.32-8,8.56,8.56,0,0,0-8.06,4.12,8,8,0,0,0-5.38-.09,8.71,8.71,0,0,0-15.87,4.31Zm21-.27a7.5,7.5,0,1,1,6.9,8.06A7.51,7.51,0,0,1,842.64,244.41Zm-19.81.36a7.51,7.51,0,1,1,6.9,8.06A7.52,7.52,0,0,1,822.83,244.77Z"/><path class="cls-2" d="M869.88,254.36a1.89,1.89,0,1,0-1.88-1.89A1.89,1.89,0,0,0,869.88,254.36Z"/><path class="cls-11" d="M869.08,254.09a2,2,0,0,0,2.24-1.89,2.13,2.13,0,0,0-.27-1.07,2.08,2.08,0,0,1,.71,1.61,1.84,1.84,0,0,1-2.06,1.7,1.62,1.62,0,0,1-1.07-.44A.67.67,0,0,1,869.08,254.09Z"/><path class="cls-1" d="M832.51,232.4c8.42.27,14.16-2.33,17.48-4.66a18.1,18.1,0,0,0,5.37-5.11.59.59,0,0,0-.18-.81.58.58,0,0,0-.8.18c-.09.09-6.46,9.68-21.87,9.23a.58.58,0,0,0-.54.54A.77.77,0,0,0,832.51,232.4Z"/><path class="cls-11" d="M868.9,255.7h-3l3.23,6.45Z"/><path class="cls-11" d="M836.36,270.13a22.11,22.11,0,0,0,10.22,2.78H849a3.06,3.06,0,0,0,.9-.09h.18c.44-.09.89-.09,1.43-.18.18,0,.36-.09.54-.09a20.67,20.67,0,0,0,7-2.51.57.57,0,0,1,.8.18.59.59,0,0,1-.17.81,22.86,22.86,0,0,1-9.15,3A17.62,17.62,0,0,1,840,277.57a18.44,18.44,0,0,1-4.48-.54Z"/><path class="cls-7" d="M837.8,258.93a.39.39,0,0,0-.36.53,6.16,6.16,0,0,0,11.11,0c.09-.27,0-.53-.36-.53Z"/><path class="cls-13" d="M725.14,363.88l4.3.08-3.94,20.35-4-.81Z"/><path class="cls-11" d="M921.42,396.23l-3.95.72-16-40.69-1.34-3.41c1.25-5.82,2.86-13.44,3.94-18a1.06,1.06,0,0,1,2.06-.09l17.92,57A3.35,3.35,0,0,1,921.42,396.23Z"/><path class="cls-11" d="M798.36,366.47c-7.08-8.24-8.24-16.4-5.55-26.61l2.86-10.58,2.42-11.38v-.18c0-.18-.18-.36-.44-.45a.59.59,0,0,0-.72.45l-3,13.44-1.43,4.57s-11.56,16.49-8,29c1.34,4.57,2.15,7.62-.63,11.47l-5.11,7.44c-4.57,4.21-11.38,3.14-11.38,3.14l-45.26-7.35-.8,4.21,41.94,8.25h-.18l4.48.8a19.79,19.79,0,0,0,17.57-5.55,18.19,18.19,0,0,0,2-2.33l12.1-17A5,5,0,0,0,798.36,366.47Z"/><path class="cls-5" d="M967.93,484.42a6.72,6.72,0,0,1-6.72,6.72H257.93a6.72,6.72,0,1,1,0-13.44H961.3A6.69,6.69,0,0,1,967.93,484.42Z"/><path class="cls-16" d="M967.93,484.42a6.72,6.72,0,0,1-6.72,6.72H257.93a6.72,6.72,0,1,1,0-13.44H961.3A6.69,6.69,0,0,1,967.93,484.42Z"/><path class="cls-5" d="M1020.72,484.42a6.72,6.72,0,0,1-6.72,6.72H386.09a6.72,6.72,0,0,1,0-13.44H1014A6.77,6.77,0,0,1,1020.72,484.42Z"/><path class="cls-7" d="M778.38,174.5H697.63V277.3h80.75Z"/><path class="cls-24" d="M767.53,184.9H708.38V267h59.15Z"/><path class="cls-10" d="M695.27,277.33h2.33V174.54h-2.33Z"/><path class="cls-2" d="M747.81,237.15A12.82,12.82,0,1,0,735,224.33,12.82,12.82,0,0,0,747.81,237.15Z"/><path class="cls-22" d="M713.58,258.12l13.35-21,13.36,20.7Z"/><path class="cls-22" d="M744.86,193.77h-27.7v27.69h27.7Z"/><path class="cls-7" d="M783.84,475.9,787,436H758.57L761,475.9a2,2,0,0,0,2,1.8h18.91A2,2,0,0,0,783.84,475.9Z"/><path class="cls-2" d="M787,432.62h-3.14l-1.43-3.68a.56.56,0,0,0-.54-.36h-19a.61.61,0,0,0-.54.36l-1.43,3.68h-2.42a.61.61,0,0,0-.63.62v2.24a.62.62,0,0,0,.63.63h28.68a.62.62,0,0,0,.63-.63v-2.24A1,1,0,0,0,787,432.62Z"/><path class="cls-15" d="M787,432.62h-3.14l-1.43-3.68a.56.56,0,0,0-.54-.36h-19a.61.61,0,0,0-.54.36l-1.43,3.68h-2.42a.61.61,0,0,0-.63.62v2.24a.62.62,0,0,0,.63.63h28.68a.62.62,0,0,0,.63-.63v-2.24A1,1,0,0,0,787,432.62Z"/><path class="cls-11" d="M783.57,431.9H767.8l1.17-3.32h-6.1a.61.61,0,0,0-.54.36l-1.43,3.68h-2.42a.61.61,0,0,0-.63.62v2.24a.62.62,0,0,0,.63.63h5.11c.45-1.25,1-2.78,1-2.78a.78.78,0,0,1,.81-.53h18.55Z"/><path class="cls-11" d="M786.89,437l.09-1H758.57L761,475.9a2,2,0,0,0,2,1.8h1.35l1-39.26Z"/><path class="cls-2" d="M764.22,454.66a8.07,8.07,0,0,1,16.13,0"/><path class="cls-2" d="M785.28,456.9H759.82l.45,7.8h24.38Z"/></svg>