<svg id="Layer_1" data-name="Layer 1" xmlns="http://www.w3.org/2000/svg" viewBox="0 0 956.35 764.74"><defs><style>.cls-1,.cls-13,.cls-20,.cls-6{fill:#58119d;}.cls-2,.cls-3,.cls-7{fill:#fff;}.cls-10,.cls-17,.cls-2,.cls-20{opacity:0.3;}.cls-10,.cls-13,.cls-19,.cls-2,.cls-20,.cls-25,.cls-26,.cls-3,.cls-6,.cls-9{isolation:isolate;}.cls-3{opacity:0.7;}.cls-4{fill:#61656d;}.cls-5{fill:#21252b;}.cls-16,.cls-25,.cls-6{opacity:0.2;}.cls-8{fill:#fc9d9d;}.cls-12,.cls-13,.cls-9{opacity:0.15;}.cls-11,.cls-18{fill:none;stroke-miterlimit:10;stroke-width:0.91px;}.cls-11{stroke:#21252b;}.cls-14{fill:#b1b5ba;}.cls-15{fill:#3f4249;}.cls-18{stroke:#fff;}.cls-19{opacity:0.5;}.cls-21{fill:#966363;}.cls-22{fill:#868a91;}.cls-23{fill:#ddd;}.cls-24{fill:#dadddf;}.cls-26,.cls-27{opacity:0.6;}.cls-28{fill:#d9dcde;}.cls-29{fill:#b2b6bb;}</style></defs><path class="cls-1" d="M587.85,137.9V492.66a8.28,8.28,0,0,0,8.25,8.24h513.66a8.26,8.26,0,0,0,8.24-8.24V137.9a8.28,8.28,0,0,0-8.24-8.25H596.1a8.14,8.14,0,0,0-3.16.63,8.2,8.2,0,0,0-5.09,7.62Z" transform="translate(-161.65 -129.65)"/><path class="cls-2" d="M587.85,137.9V492.66a8.28,8.28,0,0,0,8.25,8.24h513.66a8.26,8.26,0,0,0,8.24-8.24V137.9a8.28,8.28,0,0,0-8.24-8.25H596.1a8.14,8.14,0,0,0-3.16.63,8.2,8.2,0,0,0-5.09,7.62Z" transform="translate(-161.65 -129.65)"/><path class="cls-1" d="M581.6,137.9V492.66a8.26,8.26,0,0,0,8.25,8.24h513.66a8.26,8.26,0,0,0,8.24-8.24V137.9a8.28,8.28,0,0,0-8.24-8.25H589.85a8.28,8.28,0,0,0-8.25,8.25Z" transform="translate(-161.65 -129.65)"/><path class="cls-3" d="M581.6,137.9V492.66a8.26,8.26,0,0,0,8.25,8.24h513.66a8.26,8.26,0,0,0,8.24-8.24V137.9a8.28,8.28,0,0,0-8.24-8.25H589.85a8.28,8.28,0,0,0-8.25,8.25Z" transform="translate(-161.65 -129.65)"/><path class="cls-1" d="M601.26,152.39a5.16,5.16,0,1,0-5.16-5.16A5.16,5.16,0,0,0,601.26,152.39Z" transform="translate(-161.65 -129.65)"/><path class="cls-4" d="M619.74,152.39a5.16,5.16,0,1,0-5.16-5.16A5.17,5.17,0,0,0,619.74,152.39Z" transform="translate(-161.65 -129.65)"/><path class="cls-5" d="M638.13,152.39a5.16,5.16,0,1,0-5.16-5.16A5.17,5.17,0,0,0,638.13,152.39Z" transform="translate(-161.65 -129.65)"/><path class="cls-6" d="M1029.85,208.74H743.58a3.52,3.52,0,0,1-3.53-3.53V188.36a3.52,3.52,0,0,1,3.53-3.53h286.27a3.6,3.6,0,0,1,1.35.26,3.5,3.5,0,0,1,1.91,1.92,3.27,3.27,0,0,1,.28,1.35v16.85a3.57,3.57,0,0,1-.24,1.37,3.46,3.46,0,0,1-1.93,1.92,3.2,3.2,0,0,1-1.37.24Z" transform="translate(-161.65 -129.65)"/><path class="cls-1" d="M1021.88,193.43a4.39,4.39,0,0,0-7.6,3,4.55,4.55,0,0,0,3.93,4.54,4.61,4.61,0,0,0,3.13-.73l2.53,2.53.91-.9-2.54-2.54a4.41,4.41,0,0,0-.36-5.89Z" transform="translate(-161.65 -129.65)"/><path class="cls-3" d="M1021.07,199a3.41,3.41,0,0,1-2.36.95,3.37,3.37,0,0,1-2.35-.95,3.26,3.26,0,0,1-.86-2.28,3.35,3.35,0,0,1,1-2.24,3.27,3.27,0,0,1,4.53-.1,3.26,3.26,0,0,1,.75,1,3.35,3.35,0,0,1,.28,1.25,3,3,0,0,1-.24,1.26,3.31,3.31,0,0,1-.7,1.07Z" transform="translate(-161.65 -129.65)"/><path class="cls-1" d="M1075.69,192.89h-13.4v1.36h13.4Z" transform="translate(-161.65 -129.65)"/><path class="cls-1" d="M1075.69,197.6h-13.4V199h13.4Z" transform="translate(-161.65 -129.65)"/><path class="cls-1" d="M1075.69,202.31h-13.4v1.36h13.4Z" transform="translate(-161.65 -129.65)"/><path class="cls-7" d="M752.64,466.48H623a5.36,5.36,0,0,1-5.34-5.35V239.63a5.36,5.36,0,0,1,5.34-5.34H752.73a5.36,5.36,0,0,1,5.35,5.34V461.22a5.45,5.45,0,0,1-5.44,5.26Z" transform="translate(-161.65 -129.65)"/><path class="cls-1" d="M687.78,334.3a40.41,40.41,0,1,0-40.41-40.4A40.4,40.4,0,0,0,687.78,334.3Z" transform="translate(-161.65 -129.65)"/><path class="cls-2" d="M698.67,332.78h-.13a40.52,40.52,0,0,1-18.06.79c-1.17-.21-2.33-.47-3.47-.79l-1.28-.37a40.4,40.4,0,1,1,26.27-.74c-.46.17-.91.34-1.4.5l-.8.26Z" transform="translate(-161.65 -129.65)"/><path class="cls-7" d="M699.78,332.5l.81-.26,1.39-.5q-.4-2.79-.76-5.32c-.09-.68-.19-1.35-.28-2-.32-2.37-.61-4.53-.85-6.43-.08-.7-.17-1.36-.24-2-.33-2.79-.55-5-.63-6.47v-.14l-2.81-.82h-.08l-20.47-.27-2.59.71-3.75,1c.55,1.59,1.22,3.58,2,6,.2.64.4,1.3.6,2q.87,2.88,1.82,6.43l.49,2q.71,2.83,1.38,6.06l1.29.37c1.13.32,2.29.58,3.47.79a40.47,40.47,0,0,0,18.05-.79h.14Z" transform="translate(-161.65 -129.65)"/><path class="cls-8" d="M696.2,284.12S678,272.7,677.36,286.65l-.27,3.63-1.27,18.29a2.2,2.2,0,0,0,.45,1.36l10.51,7.16a.83.83,0,0,0,.51.13.91.91,0,0,0,.49-.22l7.79-6.7a2.06,2.06,0,0,0,.72-1.82h0l-1.18-10.87a17,17,0,0,0,.37-3.26C695.66,289.1,696.2,284.12,696.2,284.12Z" transform="translate(-161.65 -129.65)"/><path class="cls-5" d="M697.74,285a6.16,6.16,0,1,0-6.16-6.16A6.16,6.16,0,0,0,697.74,285Z" transform="translate(-161.65 -129.65)"/><path class="cls-8" d="M698.19,274.33s6.44,27.09-7.42,28.9c-12,1.63-13.41-17.12-13.41-17.12L677.9,274Z" transform="translate(-161.65 -129.65)"/><path class="cls-5" d="M697.38,276.05l-12.32.91a2.73,2.73,0,0,0-1,.28,2.67,2.67,0,0,0-.86.67,2.89,2.89,0,0,0-.52,1,2.63,2.63,0,0,0-.11,1.08h0a2.64,2.64,0,0,1-.11,1.08,2.53,2.53,0,0,1-.52,1,2.74,2.74,0,0,1-.85.67,2.79,2.79,0,0,1-1,.29h0a.74.74,0,0,0-.54.25.76.76,0,0,0-.16.26.77.77,0,0,0,0,.3l.18,2.72a.6.6,0,0,1-.14.43.62.62,0,0,1-.4.2h0c-.27,0-.64-.18-.64-.45l-.54-2.53-.54-.82-2.9,1.81s-4.71-7.25-2.45-13.77c1.27-3.71,5-5.07,6.8-5.34a1.94,1.94,0,0,0,.78-.29,1.81,1.81,0,0,0,.58-.62,6.62,6.62,0,0,1,2.7-2.52,6.55,6.55,0,0,1,3.64-.65,6.38,6.38,0,0,1,5.43,3,1.93,1.93,0,0,0,1,.79,1.85,1.85,0,0,0,1.31-.07,5.39,5.39,0,0,1,2.63-.48,5.23,5.23,0,0,1,2.53.85C703.27,268.35,701.64,275.33,697.38,276.05Z" transform="translate(-161.65 -129.65)"/><path class="cls-9" d="M677,291.18a3,3,0,0,0,1.81-.45l-2,3Z" transform="translate(-161.65 -129.65)"/><path class="cls-8" d="M677.63,284a2.52,2.52,0,0,0-.56-.91,2.43,2.43,0,0,0-.89-.59,2.42,2.42,0,0,0-2.08.15c-3,1.35-2.45,8.24,2.71,8.6,2.72.18,2.18-1.36,1.73-3.44Z" transform="translate(-161.65 -129.65)"/><path class="cls-10" d="M673.92,284.39a1.74,1.74,0,0,1,.68-.34,2,2,0,0,1,.77,0,2.21,2.21,0,0,1,1.17.91,4.22,4.22,0,0,1,.55,1.9l.09.64c0,.18-.09.36-.27.36s-.37-.09-.37-.27l-.09-.64a3.13,3.13,0,0,0-.45-1.54c-.27-.36-.45-.63-.73-.63a1.19,1.19,0,0,0-.53,0,1.17,1.17,0,0,0-.46.26c-.18.09-.36.09-.45-.09a.48.48,0,0,1,0-.29.5.5,0,0,1,.13-.25Z" transform="translate(-161.65 -129.65)"/><path class="cls-8" d="M697.47,276.61l-1.45.19a.27.27,0,0,1-.19-.08.3.3,0,0,1-.08-.2.27.27,0,0,1,.27-.27l1.45-.18c.18,0,.36-.09.54-.09a4.62,4.62,0,0,0,1.54-.91l.12-.05h.13l.12.05.09.09,0,.1a.21.21,0,0,1,0,.11.31.31,0,0,1,0,.1l-.09.06a6.07,6.07,0,0,1-1.73,1A1.77,1.77,0,0,1,697.47,276.61Z" transform="translate(-161.65 -129.65)"/><path class="cls-9" d="M696,305.4l-.45-4.34a9.71,9.71,0,0,1-8.25,2.08h0a10.09,10.09,0,0,1-4.89-3l-.08-.06-.1,0-.1,0-.08.06-.06.08a.26.26,0,0,0,0,.2l.06.08A10.29,10.29,0,0,0,688.5,304,9.57,9.57,0,0,0,696,305.4Z" transform="translate(-161.65 -129.65)"/><path class="cls-10" d="M691.76,297.7c-1.18.09-1.72.19-1.72.19a.38.38,0,0,1-.26-.11.4.4,0,0,1-.1-.26.39.39,0,0,1,.1-.25.38.38,0,0,1,.26-.11,11.14,11.14,0,0,0,1.63-.18c.18,0,.3,0,.36.36a.2.2,0,0,1,0,.13.61.61,0,0,1,0,.12.39.39,0,0,1-.1.08.28.28,0,0,1-.13,0Z" transform="translate(-161.65 -129.65)"/><path class="cls-10" d="M692.4,296.07c-3.08.46-4.44-1.17-4.9-2a.28.28,0,0,1,0-.12.24.24,0,0,1,0-.12.17.17,0,0,1,0-.12.2.2,0,0,1,.09-.09.22.22,0,0,1,.11-.05h.13a.31.31,0,0,1,.12.05.38.38,0,0,1,.09.09c.45.81,2,2.53,5.61,1.36a.35.35,0,0,1,.14,0l.13,0,.11.08a.44.44,0,0,1,.08.11.3.3,0,0,1,0,.26.41.41,0,0,1-.07.11.28.28,0,0,1-.11.08,5.23,5.23,0,0,1-1.54.36Z" transform="translate(-161.65 -129.65)"/><path class="cls-5" d="M688.23,288.1a1.09,1.09,0,1,0-1.09-1.09A1.09,1.09,0,0,0,688.23,288.1Z" transform="translate(-161.65 -129.65)"/><path class="cls-7" d="M688.68,286.92a.27.27,0,1,0-.27-.27A.27.27,0,0,0,688.68,286.92Z" transform="translate(-161.65 -129.65)"/><path class="cls-5" d="M697,288.1a1.09,1.09,0,1,0-1.09-1.09A1.08,1.08,0,0,0,697,288.1Z" transform="translate(-161.65 -129.65)"/><path class="cls-7" d="M697.47,286.92a.27.27,0,1,0-.27-.27A.27.27,0,0,0,697.47,286.92Z" transform="translate(-161.65 -129.65)"/><path class="cls-10" d="M693.21,293.36l-1.45.09c-.18,0-.36-.09-.36-.28s.09-.36.27-.36l1.45-.09a.77.77,0,0,0,.26-.07.65.65,0,0,0,.21-.16.76.76,0,0,0,.13-.23.75.75,0,0,0,0-.26.77.77,0,0,0-.07-.26.68.68,0,0,0-.17-.21.48.48,0,0,0-.23-.13.75.75,0,0,0-.26,0c-.18,0-.36-.09-.36-.27s.09-.36.27-.36a1.31,1.31,0,0,1,1,.29,1.34,1.34,0,0,1,.48.89,1.14,1.14,0,0,1,0,.52,1.09,1.09,0,0,1-.23.47,1.34,1.34,0,0,1-.42.33A1.28,1.28,0,0,1,693.21,293.36Z" transform="translate(-161.65 -129.65)"/><path class="cls-11" d="M700.19,284.12H685a1.36,1.36,0,0,0-.63.12,1.58,1.58,0,0,0-.88.88,1.68,1.68,0,0,0-.12.63V287a4.35,4.35,0,1,0,8.69,0v-1.26a1.37,1.37,0,0,0-.36-1h1.77a1.9,1.9,0,0,0-.36,1V287a4.35,4.35,0,1,0,8.69,0v-1.26a1.38,1.38,0,0,0-.08-.64,1.47,1.47,0,0,0-.33-.55,1.73,1.73,0,0,0-.54-.35A1.36,1.36,0,0,0,700.19,284.12Z" transform="translate(-161.65 -129.65)"/><path class="cls-9" d="M698.67,332.78c-.1-2.25-.19-4.38-.29-6.39,0-.68,0-1.35-.08-2-.1-2.37-.18-4.53-.25-6.43,0-.7,0-1.37-.08-2-.06-1.73-.11-3.18-.15-4.3a.48.48,0,0,0,0-.17c0-1.46-.06-2.32-.07-2.48l.85,7,.25,2,.78,6.43.24,2,.71,5.81-.81.26Z" transform="translate(-161.65 -129.65)"/><g class="cls-12"><path class="cls-13" d="M706.35,316H689.14l-1.27,1.09a1,1,0,0,1-.53.23.92.92,0,0,1-.56-.14L685.06,316H666.12v2h40.23Z" transform="translate(-161.65 -129.65)"/><path class="cls-13" d="M706.44,324.43H666.12v2h40.32Z" transform="translate(-161.65 -129.65)"/><path class="cls-13" d="M698.54,332.85a40.53,40.53,0,0,1-18.06.79c-1.17-.21-2.33-.47-3.47-.79Z" transform="translate(-161.65 -129.65)"/></g><path class="cls-5" d="M680.48,333.69c-1.17-.21-2.33-.47-3.47-.79l-1.28-.37a40.57,40.57,0,0,1-23.32-19l20.84-4.44,1.59-.35c.56,1.67,1.27,4.15,2,7.34.16.63.31,1.29.48,2,.45,1.93.9,4.09,1.4,6.43.15.65.27,1.32.41,2,.4,2,.79,4.16,1.19,6.43C680.41,333.13,680.45,333.4,680.48,333.69Z" transform="translate(-161.65 -129.65)"/><path class="cls-5" d="M719.78,318.56A40.54,40.54,0,0,1,702,331.74c-.46.17-.9.34-1.39.5l-.81.26q-.33-3.21-.61-6.08c-.07-.68-.13-1.34-.19-2-.23-2.36-.43-4.53-.6-6.43-.07-.7-.12-1.36-.17-2-.15-1.65-.27-3.09-.37-4.29a.48.48,0,0,0,0-.17c-.07-1-.12-1.87-.16-2.51h.09l1.46.47,14.3,4.57a13.78,13.78,0,0,1,6.27,4.49Z" transform="translate(-161.65 -129.65)"/><path class="cls-1" d="M742.22,450.26H704.35a1.81,1.81,0,0,1-1.81-1.81V439a1.81,1.81,0,0,1,1.81-1.81h37.87A1.81,1.81,0,0,1,744,439v9.42a1.67,1.67,0,0,1-.12.7,1.72,1.72,0,0,1-1,1,1.67,1.67,0,0,1-.7.12Z" transform="translate(-161.65 -129.65)"/><path class="cls-7" d="M732.08,445.19H714.5a1.4,1.4,0,0,1-1.36-1.36h0a1.4,1.4,0,0,1,1.36-1.36h17.58a1.44,1.44,0,0,1,.95.41,1.4,1.4,0,0,1,.41.95h0a1.4,1.4,0,0,1-.41.95,1.44,1.44,0,0,1-.95.41Z" transform="translate(-161.65 -129.65)"/><path class="cls-1" d="M636.14,439.93l.9,1.91a1.41,1.41,0,0,0,.37.27l2.08.27a.41.41,0,0,1,.21.1.43.43,0,0,1,.13.19.34.34,0,0,1,0,.22.4.4,0,0,1-.09.21l-1.54,1.45c-.09.09-.18.28-.09.37l.36,2.08a.36.36,0,0,1,0,.25.43.43,0,0,1-.15.2.48.48,0,0,1-.23.07.4.4,0,0,1-.24-.07l-1.9-1a.26.26,0,0,0-.18-.07.24.24,0,0,0-.18.07l-1.91,1c-.27.18-.63-.09-.63-.45l.36-2.08c0-.18,0-.28-.09-.37l-1.54-1.45c-.27-.27-.09-.63.27-.72l2.09-.27c.18,0,.27-.09.36-.27l.9-1.91C635.5,439.57,636,439.57,636.14,439.93Z" transform="translate(-161.65 -129.65)"/><path class="cls-1" d="M646.74,439.93l.9,1.91a1.41,1.41,0,0,0,.37.27l2.08.27a.41.41,0,0,1,.21.1.43.43,0,0,1,.13.19.34.34,0,0,1,0,.22.4.4,0,0,1-.09.21l-1.54,1.45c-.09.09-.18.28-.09.37l.36,2.08a.36.36,0,0,1,0,.25.43.43,0,0,1-.15.2.48.48,0,0,1-.23.07.4.4,0,0,1-.24-.07l-1.9-1a.26.26,0,0,0-.18-.07.26.26,0,0,0-.19.07l-1.9,1c-.27.18-.63-.09-.63-.45l.36-2.08c0-.18,0-.28-.09-.37l-1.54-1.45c-.27-.27-.09-.63.27-.72l2.09-.27c.18,0,.27-.09.36-.27l.9-1.91C646.1,439.57,646.56,439.57,646.74,439.93Z" transform="translate(-161.65 -129.65)"/><path class="cls-1" d="M657.34,439.93l.9,1.91a1.41,1.41,0,0,0,.37.27l2.08.27a.41.41,0,0,1,.21.1.43.43,0,0,1,.13.19.42.42,0,0,1,0,.22.4.4,0,0,1-.09.21l-1.54,1.45c-.09.09-.18.28-.09.37l.36,2.08a.42.42,0,0,1-.16.45.48.48,0,0,1-.23.07.4.4,0,0,1-.24-.07l-1.9-1a.26.26,0,0,0-.18-.07.26.26,0,0,0-.19.07l-1.9,1c-.27.18-.63-.09-.63-.45l.36-2.08c0-.18,0-.28-.09-.37L653,443.1c-.27-.27-.09-.63.27-.72l2.08-.27c.19,0,.28-.09.37-.27l.9-1.91A.38.38,0,0,1,657.34,439.93Z" transform="translate(-161.65 -129.65)"/><path class="cls-1" d="M667.94,439.93l.9,1.91a1.41,1.41,0,0,0,.37.27l2.08.27a.45.45,0,0,1,.21.1.53.53,0,0,1,.13.19.42.42,0,0,1,0,.22.4.4,0,0,1-.09.21L670,444.55c-.09.09-.18.28-.09.37l.36,2.08a.42.42,0,0,1-.16.45.48.48,0,0,1-.23.07.4.4,0,0,1-.24-.07l-1.9-1a.26.26,0,0,0-.19-.07.26.26,0,0,0-.18.07l-1.9,1c-.27.18-.63-.09-.63-.45l.36-2.08c0-.18,0-.28-.09-.37l-1.54-1.45c-.27-.27-.09-.63.27-.72l2.08-.27a.39.39,0,0,0,.37-.27l.9-1.91C667.3,439.57,667.76,439.57,667.94,439.93Z" transform="translate(-161.65 -129.65)"/><path class="cls-14" d="M678.54,439.93l.9,1.91a1.54,1.54,0,0,0,.36.27l2.09.27a.45.45,0,0,1,.21.1.53.53,0,0,1,.13.19.55.55,0,0,1,0,.22.4.4,0,0,1-.09.21l-1.54,1.45c-.09.09-.18.28-.09.37l.36,2.08a.42.42,0,0,1-.16.45.48.48,0,0,1-.23.07.4.4,0,0,1-.24-.07l-1.91-1a.24.24,0,0,0-.18-.07.26.26,0,0,0-.18.07l-1.9,1c-.27.18-.63-.09-.63-.45l.36-2.08c0-.18,0-.28-.09-.37l-1.54-1.45c-.27-.27-.09-.63.27-.72l2.08-.27c.18,0,.27-.09.37-.27l.9-1.91C677.9,439.57,678.35,439.57,678.54,439.93Z" transform="translate(-161.65 -129.65)"/><path class="cls-15" d="M729.45,369H645.11a1.23,1.23,0,0,1-.83-.35,1.18,1.18,0,0,1-.35-.83V364a1.16,1.16,0,0,1,.35-.83,1.18,1.18,0,0,1,.83-.35h84.34a1.18,1.18,0,0,1,.83.35,1.21,1.21,0,0,1,.35.83v3.89a1.2,1.2,0,0,1-1.18,1.18Z" transform="translate(-161.65 -129.65)"/><path class="cls-14" d="M735.34,385.49H640.22a1.68,1.68,0,0,1-.63-.12,1.61,1.61,0,0,1-.53-.36,1.58,1.58,0,0,1-.35-.53,1.68,1.68,0,0,1-.13-.62h0a1.69,1.69,0,0,1,.13-.63,1.58,1.58,0,0,1,.88-.88,1.68,1.68,0,0,1,.63-.12h95.12a1.63,1.63,0,0,1,.62.12,1.58,1.58,0,0,1,.53.35,1.61,1.61,0,0,1,.36.53,1.69,1.69,0,0,1,0,1.25,1.71,1.71,0,0,1-.89.89,1.63,1.63,0,0,1-.62.12Z" transform="translate(-161.65 -129.65)"/><path class="cls-14" d="M735.34,400.53H640.22a1.51,1.51,0,0,1-.63-.13,1.58,1.58,0,0,1-.88-.88,1.68,1.68,0,0,1-.13-.62h0a1.69,1.69,0,0,1,.13-.63,1.58,1.58,0,0,1,.88-.88,1.51,1.51,0,0,1,.63-.13h95.12a1.47,1.47,0,0,1,.62.13,1.58,1.58,0,0,1,.53.35,1.61,1.61,0,0,1,.36.53,1.69,1.69,0,0,1,0,1.25,1.61,1.61,0,0,1-.36.53,1.58,1.58,0,0,1-.53.35A1.47,1.47,0,0,1,735.34,400.53Z" transform="translate(-161.65 -129.65)"/><path class="cls-14" d="M714,415.56H661.73a1.46,1.46,0,0,1-.62-.12,1.58,1.58,0,0,1-.53-.35,1.47,1.47,0,0,1-.36-.53,1.68,1.68,0,0,1-.12-.63h0a1.67,1.67,0,0,1,.12-.62,1.47,1.47,0,0,1,.36-.53,1.58,1.58,0,0,1,.53-.35,1.47,1.47,0,0,1,.62-.13H714a1.51,1.51,0,0,1,.63.13,1.58,1.58,0,0,1,.88.88,1.49,1.49,0,0,1,.12.62h0a1.55,1.55,0,0,1-.12.64,1.79,1.79,0,0,1-.37.54,1.62,1.62,0,0,1-.54.35,1.56,1.56,0,0,1-.64.1Z" transform="translate(-161.65 -129.65)"/><path class="cls-3" d="M602.8,356.05a5.62,5.62,0,1,0-5.62-5.62A5.62,5.62,0,0,0,602.8,356.05Z" transform="translate(-161.65 -129.65)"/><path class="cls-1" d="M603.43,353.15l.91-.91-1.9-1.81,1.9-1.9-.91-.91-2.8,2.81Z" transform="translate(-161.65 -129.65)"/><path class="cls-3" d="M1091.46,356.05a5.62,5.62,0,1,0-5.62-5.62A5.62,5.62,0,0,0,1091.46,356.05Z" transform="translate(-161.65 -129.65)"/><path class="cls-1" d="M1090.82,353.15l-.9-.91,1.9-1.81-1.9-1.9.9-.91,2.81,2.81Z" transform="translate(-161.65 -129.65)"/><path class="cls-1" d="M687.6,205.21H621.1a3.38,3.38,0,0,1-2.43-1,3.39,3.39,0,0,1-.75-1.12,3.44,3.44,0,0,1-.26-1.31v-9.88a3.53,3.53,0,0,1,.26-1.32,3.46,3.46,0,0,1,.75-1.11,3.35,3.35,0,0,1,1.11-.75,3.53,3.53,0,0,1,1.32-.26h66.5a3.48,3.48,0,0,1,1.31.26,3.39,3.39,0,0,1,1.12.75,3.63,3.63,0,0,1,.75,1.11,3.53,3.53,0,0,1,.26,1.32v9.88a3.44,3.44,0,0,1-.26,1.31,3.47,3.47,0,0,1-1.87,1.87,3.48,3.48,0,0,1-1.31.26Z" transform="translate(-161.65 -129.65)"/><g class="cls-16"><path class="cls-6" d="M1102.24,161.18H591v1.27h511.22Z" transform="translate(-161.65 -129.65)"/></g><path class="cls-7" d="M911.54,466.48H781.81a5.34,5.34,0,0,1-5.34-5.35V239.63a5.34,5.34,0,0,1,5.34-5.34H911.54a5.34,5.34,0,0,1,5.34,5.34V461.22a5.39,5.39,0,0,1-1.62,3.7A5.46,5.46,0,0,1,911.54,466.48Z" transform="translate(-161.65 -129.65)"/><path class="cls-15" d="M888.26,369H804a1.2,1.2,0,0,1-1.18-1.18V364a1.21,1.21,0,0,1,.35-.83,1.18,1.18,0,0,1,.83-.35H888.3a1.18,1.18,0,0,1,.83.35,1.16,1.16,0,0,1,.35.83v3.89a1.21,1.21,0,0,1-.36.84,1.45,1.45,0,0,1-.4.26,1.48,1.48,0,0,1-.46.08Z" transform="translate(-161.65 -129.65)"/><path class="cls-14" d="M894.15,385.49H799a1.67,1.67,0,0,1-.62-.12,1.61,1.61,0,0,1-.53-.36,1.77,1.77,0,0,1-.36-.53,1.67,1.67,0,0,1-.12-.62h0a1.68,1.68,0,0,1,.12-.63,1.77,1.77,0,0,1,.36-.53,1.58,1.58,0,0,1,.53-.35,1.67,1.67,0,0,1,.62-.12h95.13a1.67,1.67,0,0,1,.62.12,1.56,1.56,0,0,1,.89.88,1.68,1.68,0,0,1,.12.63h0a1.74,1.74,0,0,1-.09.64,1.54,1.54,0,0,1-.36.55,1.53,1.53,0,0,1-.54.35,1.77,1.77,0,0,1-.64.09Z" transform="translate(-161.65 -129.65)"/><path class="cls-14" d="M894.15,400.53H799a1.5,1.5,0,0,1-.62-.13,1.58,1.58,0,0,1-.53-.35,1.77,1.77,0,0,1-.36-.53,1.67,1.67,0,0,1-.12-.62h0a1.68,1.68,0,0,1,.12-.63,1.77,1.77,0,0,1,.36-.53,1.58,1.58,0,0,1,.53-.35,1.5,1.5,0,0,1,.62-.13h95.13a1.5,1.5,0,0,1,.62.13,1.56,1.56,0,0,1,.89.88,1.68,1.68,0,0,1,.12.63,1.77,1.77,0,0,1-.09.64,1.51,1.51,0,0,1-.36.54,1.3,1.3,0,0,1-.54.35,1.59,1.59,0,0,1-.64.1Z" transform="translate(-161.65 -129.65)"/><path class="cls-14" d="M872.81,415.56H820.54a1.51,1.51,0,0,1-.63-.12,1.81,1.81,0,0,1-.53-.35,1.58,1.58,0,0,1-.35-.53,1.69,1.69,0,0,1,0-1.25,1.58,1.58,0,0,1,.35-.53,1.81,1.81,0,0,1,.53-.35,1.51,1.51,0,0,1,.63-.13h52.27a1.51,1.51,0,0,1,.63.13,1.58,1.58,0,0,1,.88.88,1.49,1.49,0,0,1,.12.62h0a1.4,1.4,0,0,1-.11.64,1.57,1.57,0,0,1-.35.54,1.49,1.49,0,0,1-.53.35A1.54,1.54,0,0,1,872.81,415.56Z" transform="translate(-161.65 -129.65)"/><path class="cls-14" d="M887.08,293.9a40.4,40.4,0,0,1-27,38.09l-.64.23a40.42,40.42,0,1,1,27.56-38.32Z" transform="translate(-161.65 -129.65)"/><path class="cls-1" d="M862.62,314.1c-.08.34-.16.68-.24,1s-.18.79-.26,1.21a144.32,144.32,0,0,0-2,15.64l-.65.23a40.48,40.48,0,0,1-44.86-13.68,11.25,11.25,0,0,1,3.76-1.63l15.31-3,2.09-.44h.09l.21-.05,1.49-.31h4.23l13.69.11h4.17l.85.24,1.42.4.55.16Z" transform="translate(-161.65 -129.65)"/><path class="cls-5" d="M851.88,301.47a13.68,13.68,0,1,0-14.78,12.07A13.49,13.49,0,0,0,851.88,301.47Z" transform="translate(-161.65 -129.65)"/><path class="cls-5" d="M852.89,270.79a7.7,7.7,0,1,0-10.89-.2A7.69,7.69,0,0,0,852.89,270.79Z" transform="translate(-161.65 -129.65)"/><path class="cls-1" d="M840.06,267.17a7.71,7.71,0,0,0,2.45,4,7.68,7.68,0,0,0,12-2.6,4.82,4.82,0,0,1,.27-.72C851.75,265.82,845.23,264.18,840.06,267.17Z" transform="translate(-161.65 -129.65)"/><path class="cls-5" d="M854.1,300.51c-.36,8.25-1.81,12.78,2.72,13,7.34.36,13.59-6.07,13.95-14.41s-5.34-15.22-12.68-15.49C856.19,290.64,854.47,292.27,854.1,300.51Z" transform="translate(-161.65 -129.65)"/><path class="cls-8" d="M835.8,313.47l1.36,1.08a17.25,17.25,0,0,0,22.29-.09l1.09-.9-3.81-1a1.94,1.94,0,0,1-1.45-1.72l-1.54-20.29L841.06,293l-1.27,18.12a2,2,0,0,1-.44,1.09,2,2,0,0,1-1,.63Z" transform="translate(-161.65 -129.65)"/><path class="cls-8" d="M847.85,306.51a9.35,9.35,0,0,1-9.33-8.88l-1.18-19.39,21.38.19-1.45,19.38a9.27,9.27,0,0,1-9.42,8.7Z" transform="translate(-161.65 -129.65)"/><path class="cls-8" d="M847.85,306.51a9.35,9.35,0,0,1-9.33-8.88l-1.18-19.39,21.38.19-1.45,19.38a9.27,9.27,0,0,1-9.42,8.7Z" transform="translate(-161.65 -129.65)"/><path class="cls-5" d="M843.69,292.09A1.09,1.09,0,1,0,842.6,291,1.09,1.09,0,0,0,843.69,292.09Z" transform="translate(-161.65 -129.65)"/><path class="cls-7" d="M843.23,290.91a.27.27,0,1,0,0-.54.27.27,0,0,0,0,.54Z" transform="translate(-161.65 -129.65)"/><path class="cls-5" d="M852.38,289.91a1.1,1.1,0,0,1,.61.19,1.16,1.16,0,0,1,.4.48,1.13,1.13,0,0,1,.06.63,1,1,0,0,1-.3.56,1.13,1.13,0,0,1-.56.3,1.11,1.11,0,0,1-1.11-.47,1,1,0,0,1-.18-.6.87.87,0,0,1,.07-.42,1,1,0,0,1,.23-.36A1.05,1.05,0,0,1,852,290a1,1,0,0,1,.42-.08Z" transform="translate(-161.65 -129.65)"/><path class="cls-7" d="M851.84,290.91a.27.27,0,1,0-.27-.27A.27.27,0,0,0,851.84,290.91Z" transform="translate(-161.65 -129.65)"/><g class="cls-17"><path class="cls-10" d="M848.13,297.25h-1a.36.36,0,0,1-.26-.11.33.33,0,0,1-.1-.25.34.34,0,0,1,.36-.36h1a.65.65,0,0,0,.48-.17.64.64,0,0,0,.24-.47.71.71,0,0,0-.16-.49.68.68,0,0,0-.47-.23.38.38,0,0,1-.37-.37.36.36,0,0,1,.11-.25.36.36,0,0,1,.26-.11,1.44,1.44,0,0,1,.95.41,1.35,1.35,0,0,1,.4.95,1.46,1.46,0,0,1-.43,1,1.48,1.48,0,0,1-1,.43Z" transform="translate(-161.65 -129.65)"/></g><path class="cls-5" d="M830.1,289.73a3.21,3.21,0,0,0,1-3.35,15.13,15.13,0,0,1-.54-3,6.89,6.89,0,0,1,1.81-4.89A2.59,2.59,0,0,0,833,277c1-10.51,16.39-12.87,24.09-6.52,4.62,3.89,5.71,8.15,5.35,12.23a2.69,2.69,0,0,0,1.36,2.71l-2,.82c-.81,3-2.26,4.35-3,6.52-1.64-1.09-1.27-5.89-1.27-5.89C853,286.29,853,281,853,281c-4.17,8.79-15,8-15,8l-.64,2.44s-4.25-.9-5.16-2.44l-1.72,1.17Z" transform="translate(-161.65 -129.65)"/><path class="cls-8" d="M857.55,294.8a4.12,4.12,0,0,0,3.8-4c.18-3.62-4.35-3.53-4.35.09l.18,4Z" transform="translate(-161.65 -129.65)"/><path class="cls-10" d="M858.32,290a1.3,1.3,0,0,1,.27-.52,1.47,1.47,0,0,1,.45-.38,1.58,1.58,0,0,1,1.09.09c.09.09.18.27.09.36l-.18.18h-.18c-.27-.09-.46-.18-.64-.09a.76.76,0,0,0-.23.24.67.67,0,0,0-.13.3,3.83,3.83,0,0,0-.18,1,.41.41,0,0,1,0,.11l-.06.09a.24.24,0,0,1-.09.06.22.22,0,0,1-.11,0h0a.26.26,0,0,1-.19-.08.27.27,0,0,1-.08-.19A4.75,4.75,0,0,1,858.32,290Z" transform="translate(-161.65 -129.65)"/><path class="cls-1" d="M858.57,294.12c.3,0,.53-.34.53-.74a.64.64,0,0,0-.56-.71c-.3,0-.53.33-.52.74S858.27,294.12,858.57,294.12Z" transform="translate(-161.65 -129.65)"/><path class="cls-9" d="M858.36,294c.36,0,.55-.36.55-.82a.89.89,0,0,0-.09-.45.59.59,0,0,1,.2.24.63.63,0,0,1,.07.3c0,.37-.27.73-.55.73a.33.33,0,0,1-.14,0,.57.57,0,0,1-.13-.08C858.32,294,858.32,294,858.36,294Z" transform="translate(-161.65 -129.65)"/><path class="cls-8" d="M838.16,294.8a4.12,4.12,0,0,1-3.8-4c-.19-3.62,4.34-3.53,4.34.09l-.18,4Z" transform="translate(-161.65 -129.65)"/><path class="cls-10" d="M837.53,290a2,2,0,0,0-.73-.9,1.47,1.47,0,0,0-1.09.09c-.09.09-.18.27-.09.36l.18.18H836c.27-.09.45-.18.63-.09s.27.27.45.54a3.83,3.83,0,0,1,.18,1,.21.21,0,0,0,0,.11.31.31,0,0,0,.07.09.15.15,0,0,0,.09.06.2.2,0,0,0,.11,0h0a.29.29,0,0,0,.19-.08.41.41,0,0,0,.08-.19C837.71,290.82,837.62,290.37,837.53,290Z" transform="translate(-161.65 -129.65)"/><path class="cls-1" d="M837.78,293.19a.66.66,0,0,0-.54-.74c-.29,0-.54.32-.55.72s.23.73.53.73S837.77,293.59,837.78,293.19Z" transform="translate(-161.65 -129.65)"/><path class="cls-9" d="M837.48,294c-.36,0-.54-.36-.54-.82a.79.79,0,0,1,.09-.45.61.61,0,0,0-.21.24.62.62,0,0,0-.06.3c0,.37.27.73.54.73a.33.33,0,0,0,.14,0,.57.57,0,0,0,.13-.08.07.07,0,0,1,0,.06.06.06,0,0,1-.06,0Z" transform="translate(-161.65 -129.65)"/><path class="cls-7" d="M850.3,299c.18,0,.27.18.18.27a3.25,3.25,0,0,1-1.19,1.33,3.21,3.21,0,0,1-1.71.49,3.41,3.41,0,0,1-1.7-.51,3.29,3.29,0,0,1-1.2-1.31c-.09-.09,0-.27.18-.27Z" transform="translate(-161.65 -129.65)"/><path class="cls-18" d="M852.75,287.65a4.55,4.55,0,0,0-3.36,2,4,4,0,0,0-2.81.09,4.51,4.51,0,0,0-1.79-1.62,4.62,4.62,0,0,0-2.37-.46,4.41,4.41,0,0,0-2.45,1,4.5,4.5,0,0,0-1.49,2.17,4.57,4.57,0,0,0,0,2.64,4.41,4.41,0,0,0,1.44,2.2,4.53,4.53,0,0,0,5,.53,4.54,4.54,0,0,0,2.39-4.45,6.46,6.46,0,0,0-.36-1.44,3.36,3.36,0,0,1,2.17-.1,4.3,4.3,0,0,0-.45,2.36,4.5,4.5,0,1,0,7.35-3.86,4.52,4.52,0,0,0-3.27-1Z" transform="translate(-161.65 -129.65)"/><path class="cls-9" d="M844,306.51a9.26,9.26,0,0,0,3.71.72,5.4,5.4,0,0,0,1.27-.09,9.83,9.83,0,0,0,6.25.18l-.27-3.89-.54.54a11.36,11.36,0,0,1-2.45,1.63,13,13,0,0,1-4,.91h-.18a9.62,9.62,0,0,1-3.44-.63l-.14,0a.24.24,0,0,0-.12,0,.29.29,0,0,0-.12.07.35.35,0,0,0-.07.12C843.69,306.22,843.82,306.4,844,306.51Z" transform="translate(-161.65 -129.65)"/><path class="cls-1" d="M877.44,320.1A40.51,40.51,0,0,1,860.13,332l-.64.23a171.65,171.65,0,0,1,2.29-17.5c.06-.29.12-.56.18-.8l.56.15,9.68,2.66a11.59,11.59,0,0,1,5.24,3.37Z" transform="translate(-161.65 -129.65)"/><path class="cls-1" d="M860.63,313.47l-1.09.9a17.21,17.21,0,0,1-22.38.09l-1.27-1-2.17.48,2.27,1.9a19,19,0,0,0,12.23,4.44,19.39,19.39,0,0,0,12.41-4.53l2-1.72Z" transform="translate(-161.65 -129.65)"/><path class="cls-19" d="M860.63,313.47l-1.09.9a17.21,17.21,0,0,1-22.38.09l-1.27-1-2.17.48,2.27,1.9a19,19,0,0,0,12.23,4.44,19.39,19.39,0,0,0,12.41-4.53l2-1.72Z" transform="translate(-161.65 -129.65)"/><path class="cls-7" d="M862.62,316.55a.73.73,0,0,0,.72-.73.72.72,0,0,0-1.44,0A.73.73,0,0,0,862.62,316.55Z" transform="translate(-161.65 -129.65)"/><path class="cls-7" d="M853.92,327.69a.73.73,0,1,0-.72-.72A.72.72,0,0,0,853.92,327.69Z" transform="translate(-161.65 -129.65)"/><path class="cls-7" d="M836.53,321.8a.72.72,0,0,0,.72-.72.73.73,0,0,0-.72-.73.73.73,0,0,0-.73.73A.73.73,0,0,0,836.53,321.8Z" transform="translate(-161.65 -129.65)"/><path class="cls-7" d="M821.85,318.81a.73.73,0,0,0,.73-.72.73.73,0,0,0-.73-.73.73.73,0,0,0-.72.73A.72.72,0,0,0,821.85,318.81Z" transform="translate(-161.65 -129.65)"/><path class="cls-14" d="M838.88,444.55c-.09.09-.18.28-.09.37l.37,2.08a.7.7,0,0,1,0,.25.39.39,0,0,1-.16.2.43.43,0,0,1-.47,0l-1.9-1c-.09,0-.09-.09-.18-.09l-1.45-.09.72-5.53.64-1.18c.18,0,.27.09.36.27l.91,1.91a1.22,1.22,0,0,0,.36.27l2.08.27a.45.45,0,0,1,.21.1.43.43,0,0,1,.13.19.42.42,0,0,1,0,.22.33.33,0,0,1-.09.21Z" transform="translate(-161.65 -129.65)"/><path class="cls-1" d="M794.4,439.93l.91,1.91a1.36,1.36,0,0,0,.36.27l2.09.27a.42.42,0,0,1,.2.1.45.45,0,0,1,.14.19.55.55,0,0,1,0,.22.4.4,0,0,1-.09.21l-1.54,1.45c-.09.09-.18.28-.09.37l.36,2.08a.42.42,0,0,1-.16.45.48.48,0,0,1-.24.07.44.44,0,0,1-.24-.07l-1.9-1a.27.27,0,0,0-.36,0l-1.9,1c-.27.18-.64-.09-.64-.45l.37-2.08c0-.18,0-.28-.09-.37l-1.54-1.45c-.28-.27-.1-.63.27-.72l2.08-.27c.18,0,.27-.09.36-.27l.91-1.91a.37.37,0,0,1,.14-.19.41.41,0,0,1,.22-.07.48.48,0,0,1,.23.07.41.41,0,0,1,.13.19Z" transform="translate(-161.65 -129.65)"/><path class="cls-1" d="M805,439.93l.91,1.91a1.22,1.22,0,0,0,.36.27l2.08.27a.41.41,0,0,1,.21.1.36.36,0,0,1,.13.19.42.42,0,0,1,0,.22.5.5,0,0,1-.09.21l-1.54,1.45c-.09.09-.18.28-.09.37l.36,2.08a.42.42,0,0,1-.16.45.48.48,0,0,1-.24.07.42.42,0,0,1-.24-.07l-1.9-1a.27.27,0,0,0-.36,0l-1.9,1c-.27.18-.64-.09-.64-.45l.37-2.08c0-.18,0-.28-.1-.37l-1.54-1.45c-.27-.27-.09-.63.28-.72l2.08-.27c.18,0,.27-.09.36-.27l.91-1.91a.37.37,0,0,1,.14-.19.38.38,0,0,1,.44,0,.37.37,0,0,1,.14.19Z" transform="translate(-161.65 -129.65)"/><path class="cls-1" d="M815.6,439.93l.91,1.91a1.22,1.22,0,0,0,.36.27l2.08.27a.41.41,0,0,1,.21.1.36.36,0,0,1,.13.19.42.42,0,0,1,0,.22.67.67,0,0,1-.09.21l-1.54,1.45c-.09.09-.19.28-.09.37L818,447a.42.42,0,0,1-.16.45.48.48,0,0,1-.24.07.42.42,0,0,1-.24-.07l-1.9-1a.27.27,0,0,0-.36,0l-1.9,1c-.28.18-.64-.09-.64-.45l.36-2.08c0-.18,0-.28-.09-.37l-1.54-1.45c-.27-.27-.09-.63.28-.72l2.08-.27c.18,0,.27-.09.36-.27l.91-1.91a.37.37,0,0,1,.14-.19.38.38,0,0,1,.44,0,.37.37,0,0,1,.14.19Z" transform="translate(-161.65 -129.65)"/><path class="cls-1" d="M826.2,439.93l.91,1.91a1.22,1.22,0,0,0,.36.27l2.08.27a.41.41,0,0,1,.21.1.36.36,0,0,1,.13.19.42.42,0,0,1,0,.22.5.5,0,0,1-.09.21l-1.54,1.45c-.1.09-.19.28-.1.37l.37,2.08a.53.53,0,0,1,0,.25.5.5,0,0,1-.15.2.48.48,0,0,1-.24.07.42.42,0,0,1-.24-.07l-1.9-1a.27.27,0,0,0-.36,0l-1.9,1c-.28.18-.64-.09-.64-.45l.36-2.08c0-.18,0-.28-.09-.37l-1.54-1.45c-.27-.27-.09-.63.28-.72l2.08-.27c.18,0,.27-.09.36-.27l.91-1.91a.41.41,0,0,1,.13-.19.48.48,0,0,1,.23-.07.41.41,0,0,1,.22.07.37.37,0,0,1,.14.19Z" transform="translate(-161.65 -129.65)"/><path class="cls-1" d="M836.44,439.68v6.79c-.09,0-.09,0-.18.1l-1.9,1c-.28.18-.64-.09-.64-.45l.36-2.08c0-.19,0-.28-.09-.37l-1.54-1.45c-.27-.27-.09-.63.27-.72l2.09-.27c.18,0,.27-.09.36-.27l.91-1.91C836.17,439.75,836.35,439.68,836.44,439.68Z" transform="translate(-161.65 -129.65)"/><path class="cls-1" d="M901.12,450.26H863.25a1.83,1.83,0,0,1-1.81-1.81V439a1.83,1.83,0,0,1,1.81-1.81h37.87a1.81,1.81,0,0,1,1.81,1.81v9.42a1.8,1.8,0,0,1-.54,1.26,1.85,1.85,0,0,1-1.27.55Z" transform="translate(-161.65 -129.65)"/><path class="cls-7" d="M890.93,445.19H873.36a1.43,1.43,0,0,1-1-.41,1.39,1.39,0,0,1-.4-.95h0a1.39,1.39,0,0,1,.4-.95,1.43,1.43,0,0,1,1-.41h17.57a1.42,1.42,0,0,1,1,.41,1.4,1.4,0,0,1,.41.95,1.3,1.3,0,0,1-.1.52,1.2,1.2,0,0,1-.29.45,1.25,1.25,0,0,1-.44.29A1.42,1.42,0,0,1,890.93,445.19Z" transform="translate(-161.65 -129.65)"/><path class="cls-7" d="M1070.35,466.48H940.62a5.36,5.36,0,0,1-5.35-5.35V239.63a5.36,5.36,0,0,1,5.35-5.34h129.73a5.34,5.34,0,0,1,5.34,5.34V461.22a5.3,5.3,0,0,1-1.59,3.73A5.36,5.36,0,0,1,1070.35,466.48Z" transform="translate(-161.65 -129.65)"/><path class="cls-15" d="M1047.07,369H962.72a1.22,1.22,0,0,1-.82-.35,1.18,1.18,0,0,1-.35-.83V364a1.16,1.16,0,0,1,.35-.83,1.18,1.18,0,0,1,.82-.35h84.35a1.18,1.18,0,0,1,.82.35,1.13,1.13,0,0,1,.35.83v3.89a1.14,1.14,0,0,1-.35.83,1.22,1.22,0,0,1-.82.35Z" transform="translate(-161.65 -129.65)"/><path class="cls-14" d="M1053.09,385.49H958a1.68,1.68,0,0,1-.63-.12,1.61,1.61,0,0,1-.53-.36,1.58,1.58,0,0,1-.35-.53,1.49,1.49,0,0,1-.12-.62h0a1.51,1.51,0,0,1,.12-.63,1.58,1.58,0,0,1,.88-.88,1.68,1.68,0,0,1,.63-.12h95.12a1.62,1.62,0,0,1,1.16.47,1.75,1.75,0,0,1,.35.53,1.68,1.68,0,0,1,.12.63h0a1.67,1.67,0,0,1-.12.62,1.75,1.75,0,0,1-.35.53,1.72,1.72,0,0,1-.53.36,1.68,1.68,0,0,1-.63.12Z" transform="translate(-161.65 -129.65)"/><path class="cls-14" d="M1053.09,400.53H958a1.51,1.51,0,0,1-.63-.13,1.58,1.58,0,0,1-.88-.88,1.49,1.49,0,0,1-.12-.62h0a1.51,1.51,0,0,1,.12-.63,1.58,1.58,0,0,1,.88-.88,1.51,1.51,0,0,1,.63-.13h95.12a1.51,1.51,0,0,1,.63.13,1.69,1.69,0,0,1,.53.35,1.75,1.75,0,0,1,.35.53,1.68,1.68,0,0,1,.12.63h0a1.67,1.67,0,0,1-.12.62,1.75,1.75,0,0,1-.35.53,1.69,1.69,0,0,1-.53.35A1.51,1.51,0,0,1,1053.09,400.53Z" transform="translate(-161.65 -129.65)"/><path class="cls-14" d="M1031.67,415.56H979.39a1.49,1.49,0,0,1-.62-.12,1.56,1.56,0,0,1-.89-.88,1.68,1.68,0,0,1-.12-.63h0a1.67,1.67,0,0,1,.12-.62,1.56,1.56,0,0,1,.89-.88,1.5,1.5,0,0,1,.62-.13h52.28a1.5,1.5,0,0,1,.62.13,1.58,1.58,0,0,1,.53.35,1.61,1.61,0,0,1,.36.53,1.67,1.67,0,0,1,.12.62h0a1.68,1.68,0,0,1-.12.63,1.61,1.61,0,0,1-.36.53,1.58,1.58,0,0,1-.53.35,1.49,1.49,0,0,1-.62.12Z" transform="translate(-161.65 -129.65)"/><path class="cls-20" d="M1045.89,293.9a40.15,40.15,0,1,1-11.75-28.65,40.1,40.1,0,0,1,11.75,28.65Z" transform="translate(-161.65 -129.65)"/><path class="cls-5" d="M993.53,284.12a5.89,5.89,0,0,1-5-4.16,5.84,5.84,0,0,1-.22-2.28,6.06,6.06,0,0,1,.67-2.19,5.79,5.79,0,0,1,1.46-1.77,6,6,0,0,1,2-1.07,5.86,5.86,0,0,1,2.28-.22c.18,0,.64-.09.64.09C993.71,277.59,994.79,284.21,993.53,284.12Z" transform="translate(-161.65 -129.65)"/><path class="cls-21" d="M1018.67,307.85c0,.27-6.89,16.49-12.23,16.85-4.72.36-8-14.58-8-14.95l.18-7.88-.09-4.08c-.27-1-1.36-1.81-1.45-3.08-.54-5.7-1.26-10.87-1.26-10.87s18.3-12.95,19.84,1.54l1.81,2.27Z" transform="translate(-161.65 -129.65)"/><path class="cls-21" d="M995.7,265.82s-8.79,33.88,7,36.41c13.58,2.27,15.85-19,15.85-19l-.18-13.86-10.42-4.53Z" transform="translate(-161.65 -129.65)"/><path class="cls-5" d="M999.64,274.42A8.66,8.66,0,0,1,1007,271a5.51,5.51,0,0,1,2.25.64,5.66,5.66,0,0,1,1.79,1.51,5.75,5.75,0,0,1,1,2.12,5.43,5.43,0,0,1,0,2.34l-.09.82a1.45,1.45,0,0,0,1.18,1.63h0a2.69,2.69,0,0,1,1.81.95,2.76,2.76,0,0,1,.64,1.95l-.19,2.35a.49.49,0,0,0,0,.21.44.44,0,0,0,.12.18.57.57,0,0,0,.18.12.49.49,0,0,0,.21,0,.93.93,0,0,0,.52-.09.9.9,0,0,0,.38-.37l.46-2.53-1.54-14.77-12-4-5.26,4Z" transform="translate(-161.65 -129.65)"/><path class="cls-9" d="M1017.44,288.46a2.27,2.27,0,0,1-1-.51,2.33,2.33,0,0,1-.63-.94l1.72,3.36Z" transform="translate(-161.65 -129.65)"/><path class="cls-9" d="M1011.83,299.61A10.12,10.12,0,0,1,1005,303a11,11,0,0,1-6.43,1.63v-4l.63.46a9.55,9.55,0,0,0,6.35,1.27,9.44,9.44,0,0,0,5.7-3.09.36.36,0,0,1,.21-.11.43.43,0,0,1,.25,0C1011.92,299.26,1011.92,299.43,1011.83,299.61Z" transform="translate(-161.65 -129.65)"/><path class="cls-5" d="M1006.12,285.2a1.27,1.27,0,1,0-1.27-1.27A1.27,1.27,0,0,0,1006.12,285.2Z" transform="translate(-161.65 -129.65)"/><path class="cls-7" d="M1005.57,283.75a.27.27,0,1,0-.27-.27A.27.27,0,0,0,1005.57,283.75Z" transform="translate(-161.65 -129.65)"/><path class="cls-5" d="M997.06,285.38a1.27,1.27,0,1,0-1.27-1.26A1.26,1.26,0,0,0,997.06,285.38Z" transform="translate(-161.65 -129.65)"/><path class="cls-7" d="M996.52,283.93a.27.27,0,1,0-.28-.27A.27.27,0,0,0,996.52,283.93Z" transform="translate(-161.65 -129.65)"/><g class="cls-17"><path class="cls-10" d="M1000.41,290.55l1.63-.09a.36.36,0,0,0,.26-.11.35.35,0,0,0,.1-.26.35.35,0,0,0-.1-.25.36.36,0,0,0-.26-.11l-1.63.09a.78.78,0,0,1-.3,0,.68.68,0,0,1-.26-.15.84.84,0,0,1-.18-.24.59.59,0,0,1-.07-.29.63.63,0,0,1,0-.3.68.68,0,0,1,.15-.26.69.69,0,0,1,.24-.18.74.74,0,0,1,.29-.08.36.36,0,0,0,.25-.1.36.36,0,0,0,0-.52.36.36,0,0,0-.25-.1,1.46,1.46,0,0,0-1,.47,1.51,1.51,0,0,0-.41,1.07,1.54,1.54,0,0,0,.49,1,1.57,1.57,0,0,0,1,.43Z" transform="translate(-161.65 -129.65)"/></g><path class="cls-15" d="M1041.53,312.15a40.41,40.41,0,0,1-72.37-.54,8,8,0,0,1,3.89-1.59h.09l24.07-2.9,1.27-.16h.11l5.15,9.27.24.43,2.29,4.13,3.31-3.93.35-.43,8.27-9.84.29.07,1.59.37,20.23,4.82c.27.09.54.09.72.18Z" transform="translate(-161.65 -129.65)"/><path class="cls-5" d="M1022.06,274c-.27-3.72-2-6.61-5.16-7.52a9.18,9.18,0,0,0-4.17-.09.87.87,0,0,1-.36,0,1,1,0,0,1-.34-.14.88.88,0,0,1-.25-.26.85.85,0,0,1-.14-.34,5.62,5.62,0,0,0-1.83-3.21,5.77,5.77,0,0,0-3.42-1.41,6.13,6.13,0,0,0-2.58.47,6,6,0,0,0-2.13,1.53,1.16,1.16,0,0,1-.29.25,1,1,0,0,1-.37.1.9.9,0,0,1-.37-.05.93.93,0,0,1-.33-.21,7.58,7.58,0,0,0-8.7-.46,8,8,0,0,0-3.35,10.24,6.52,6.52,0,0,0,1.75,2.49,6.62,6.62,0,0,0,8.49.23,7.68,7.68,0,0,0,2.54-4.89,11.11,11.11,0,0,0-.1-3.9l1.64.09a50.61,50.61,0,0,1,7.88.36c-.09,0-.09.1-.18.1l5,2.08s.72,13.68,1.63,13.5C1020.48,282.48,1022.33,277.32,1022.06,274Z" transform="translate(-161.65 -129.65)"/><path class="cls-5" d="M1022.06,275.06l-10.32-.37a5.71,5.71,0,0,0-1.89-2.62,5.62,5.62,0,0,0-3-1.18,8.69,8.69,0,0,0-4,.78,8.53,8.53,0,0,0-3.2,2.57h0a5.28,5.28,0,0,1-1.18,1.27c-3.35,2.81-8.52,1.27-10.24-2.72a8,8,0,0,1-.28-5.76,8.1,8.1,0,0,1,3.63-4.48,7.74,7.74,0,0,1,8.7.46,1,1,0,0,0,.7.26,1,1,0,0,0,.37-.11,1,1,0,0,0,.29-.24,5.54,5.54,0,0,1,2.11-1.57,5.64,5.64,0,0,1,2.6-.43,5.77,5.77,0,0,1,5.25,4.62.85.85,0,0,0,.14.34.88.88,0,0,0,.25.26,1,1,0,0,0,.34.13.87.87,0,0,0,.36,0,8.19,8.19,0,0,1,4.17.09c3.17.9,5,3.8,5.16,7.52A5.81,5.81,0,0,1,1022.06,275.06Z" transform="translate(-161.65 -129.65)"/><path class="cls-21" d="M995.52,277.68l1.63-.27c.18,0,.27-.18.27-.36s-.18-.27-.36-.27l-1.63.27a1.39,1.39,0,0,1-.64.09,7.38,7.38,0,0,1-2.08-.36.34.34,0,0,0-.26,0,.32.32,0,0,0-.19.19.3.3,0,0,0,0,.26.31.31,0,0,0,.18.19,10.09,10.09,0,0,0,2.17.45,2,2,0,0,1,.91-.18Z" transform="translate(-161.65 -129.65)"/><path class="cls-7" d="M1005.39,321.26l-5.16-4.35,6.34-1.18,6.25,1.27-5.52,4.35a1.75,1.75,0,0,1-1,.26,1.72,1.72,0,0,1-.94-.35Z" transform="translate(-161.65 -129.65)"/><path class="cls-7" d="M1006.57,315.73l10.51,2.18,3.08-11-.36-3a.89.89,0,0,0-.29-.49.94.94,0,0,0-.53-.23h-.63l.18,2.9Z" transform="translate(-161.65 -129.65)"/><path class="cls-7" d="M998.51,306.85v-2.53h-.36a.89.89,0,0,0-.91.9l-.18,12.23,9.51-1.72Z" transform="translate(-161.65 -129.65)"/><g class="cls-12"><path class="cls-9" d="M1014.54,318l-8-1.82-8.42,1.64-.18-.55,8.6-1.54,8.15,1.72Z" transform="translate(-161.65 -129.65)"/></g><path class="cls-15" d="M1022.06,275.06c-.18,3.17-1.9,7.15-4.89,7.88l-.45,2.44a.75.75,0,0,1-.33.37.83.83,0,0,1-.49.09.58.58,0,0,1-.37-.17.6.6,0,0,1-.17-.38l.18-2.35a2.75,2.75,0,0,0-.65-1.93,2.78,2.78,0,0,0-1.8-1,1.46,1.46,0,0,1-.52-.18,1.53,1.53,0,0,1-.42-.38,1.22,1.22,0,0,1-.22-.51,1.18,1.18,0,0,1,0-.56l.09-.82a5.83,5.83,0,0,0-.18-2.81Z" transform="translate(-161.65 -129.65)"/><path class="cls-21" d="M1017.26,281.58a2.39,2.39,0,0,1,.5-.91,2.35,2.35,0,0,1,.82-.62,2.41,2.41,0,0,1,1-.23,2.33,2.33,0,0,1,1,.22c3,1.09,2.09,7.25-2.08,8.42-2.54.37-2.17-1.17-1.81-3.17Z" transform="translate(-161.65 -129.65)"/><path class="cls-10" d="M1020.88,281.58a1.82,1.82,0,0,0-1.35-.18,1.9,1.9,0,0,0-1.18,1.08,3.91,3.91,0,0,0-.27,1.82v.54c0,.18.18.27.36.27s.27-.18.27-.36v-.54a3.85,3.85,0,0,1,.27-1.54,1,1,0,0,1,.73-.64,1.31,1.31,0,0,1,1,.09c.09.09.37,0,.46-.09C1021.07,282.05,1021.25,281.76,1020.88,281.58Z" transform="translate(-161.65 -129.65)"/><path class="cls-5" d="M1015.09,276v.64l-3-.19v-.63Z" transform="translate(-161.65 -129.65)"/><path class="cls-5" d="M1014.42,277.54l0,.63,2.53.16,0-.64Z" transform="translate(-161.65 -129.65)"/><path class="cls-5" d="M1003,302.69a5.59,5.59,0,0,1-2.14-.34,5.53,5.53,0,0,1-1.83-1.14,5.63,5.63,0,0,1-1.26-1.76,5.5,5.5,0,0,1-.48-2.11l-.09-2.63a3.58,3.58,0,0,1,.24-1.51,3.86,3.86,0,0,1,.81-1.29,3.85,3.85,0,0,1,2.76-1.18l3.17-.09a3.81,3.81,0,0,1,2.8,1.05,3.56,3.56,0,0,1,.87,1.26,3.82,3.82,0,0,1,.31,1.49l.09,2.63a5.11,5.11,0,0,1-.3,2.12,5.34,5.34,0,0,1-1.11,1.82,5.2,5.2,0,0,1-1.75,1.23A5.41,5.41,0,0,1,1003,302.69Z" transform="translate(-161.65 -129.65)"/><path class="cls-7" d="M999.78,293.08l5.52-.09a2.58,2.58,0,0,1-2.53,2.18,2.64,2.64,0,0,1-1,0,2.53,2.53,0,0,1-.92-.4,2.7,2.7,0,0,1-.7-.73,2.5,2.5,0,0,1-.36-.95Z" transform="translate(-161.65 -129.65)"/><path class="cls-5" d="M1008.11,282.12c.18,0,.36-.18.45-.45a.55.55,0,0,0,0-.18.46.46,0,0,0-.25-.25.37.37,0,0,0-.18,0l-2.9-.19a.41.41,0,0,0-.31.14.4.4,0,0,0-.14.32.41.41,0,0,0,.14.32.44.44,0,0,0,.31.13Z" transform="translate(-161.65 -129.65)"/><path class="cls-5" d="M995.25,282.39a.45.45,0,0,1-.31-.14.51.51,0,0,1-.15-.31.57.57,0,0,1,0-.18.49.49,0,0,1,.1-.15.56.56,0,0,1,.15-.1.36.36,0,0,1,.18,0l2.9-.27a.42.42,0,0,1,.31.13.43.43,0,0,1,.14.32.45.45,0,0,1-.14.32.46.46,0,0,1-.31.13Z" transform="translate(-161.65 -129.65)"/><path class="cls-1" d="M952.76,439.93l.91,1.91a1.1,1.1,0,0,0,.36.27l2.08.27a.45.45,0,0,1,.21.1.72.72,0,0,1,.14.19.55.55,0,0,1,0,.22.4.4,0,0,1-.09.21l-1.54,1.45c-.09.09-.18.28-.09.37l.36,2.08a.53.53,0,0,1,0,.25.45.45,0,0,1-.16.2.42.42,0,0,1-.23.07.4.4,0,0,1-.24-.07l-1.9-1a.26.26,0,0,0-.18-.07.24.24,0,0,0-.18.07l-1.91,1c-.27.18-.63-.09-.63-.45l.36-2.08c0-.18,0-.28-.09-.37l-1.54-1.45c-.27-.27-.09-.63.27-.72l2.09-.27c.18,0,.27-.09.36-.27l.9-1.91C952.13,439.57,952.58,439.57,952.76,439.93Z" transform="translate(-161.65 -129.65)"/><path class="cls-1" d="M963.4,439.93l.91,1.91a1.36,1.36,0,0,0,.36.27l2.09.27a.42.42,0,0,1,.2.1.55.55,0,0,1,.14.19.42.42,0,0,1,0,.22.5.5,0,0,1-.09.21l-1.54,1.45c-.09.09-.18.28-.09.37l.36,2.08a.42.42,0,0,1-.16.45.48.48,0,0,1-.24.07.39.39,0,0,1-.23-.07l-1.91-1a.23.23,0,0,0-.18-.07.26.26,0,0,0-.18.07l-1.9,1c-.27.18-.64-.09-.64-.45l.37-2.08c0-.18,0-.28-.09-.37l-1.54-1.45c-.28-.27-.1-.63.27-.72l2.08-.27c.18,0,.27-.09.36-.27l.91-1.91C962.72,439.57,963.18,439.57,963.4,439.93Z" transform="translate(-161.65 -129.65)"/><path class="cls-1" d="M974,439.93l.9,1.91a1.26,1.26,0,0,0,.37.27l2.08.27a.5.5,0,0,1,.21.1.53.53,0,0,1,.13.19.55.55,0,0,1,0,.22.4.4,0,0,1-.09.21L976,444.55c-.09.09-.18.28-.09.37l.36,2.08a.43.43,0,0,1,0,.25.37.37,0,0,1-.15.2.43.43,0,0,1-.24.07.39.39,0,0,1-.23-.07l-1.9-1a.27.27,0,0,0-.18-.07.26.26,0,0,0-.19.07l-1.9,1c-.27.18-.63-.09-.63-.45l.36-2.08c0-.18,0-.28-.09-.37l-1.54-1.45c-.27-.27-.09-.63.27-.72l2.08-.27c.19,0,.28-.09.37-.27l.9-1.91A.38.38,0,0,1,974,439.93Z" transform="translate(-161.65 -129.65)"/><path class="cls-1" d="M984.56,439.93l.9,1.91a1.26,1.26,0,0,0,.37.27l2.08.27a.5.5,0,0,1,.21.1.41.41,0,0,1,.12.19.42.42,0,0,1,0,.22.4.4,0,0,1-.09.21l-1.54,1.45c-.09.09-.18.28-.09.37l.36,2.08a.43.43,0,0,1,0,.25.37.37,0,0,1-.15.2.45.45,0,0,1-.24.07.39.39,0,0,1-.23-.07l-1.9-1a.28.28,0,0,0-.19-.07.26.26,0,0,0-.18.07l-1.9,1c-.27.18-.63-.09-.63-.45l.36-2.08c0-.18,0-.28-.09-.37l-1.54-1.45c-.27-.27-.09-.63.27-.72l2.08-.27c.19,0,.28-.09.37-.27l.9-1.91C983.92,439.57,984.38,439.57,984.56,439.93Z" transform="translate(-161.65 -129.65)"/><path class="cls-14" d="M995.16,439.93l.9,1.91a1.36,1.36,0,0,0,.36.27l2.09.27a.5.5,0,0,1,.21.1.41.41,0,0,1,.12.19.42.42,0,0,1,0,.22.4.4,0,0,1-.09.21l-1.54,1.45c-.09.09-.18.28-.09.37l.36,2.08a.43.43,0,0,1,0,.25.37.37,0,0,1-.15.2.45.45,0,0,1-.24.07.39.39,0,0,1-.23-.07l-1.9-1a.28.28,0,0,0-.19-.07.26.26,0,0,0-.18.07l-1.9,1c-.27.18-.63-.09-.63-.45l.36-2.08c0-.18,0-.28-.09-.37l-1.54-1.45c-.27-.27-.09-.63.27-.72l2.08-.27a.39.39,0,0,0,.37-.27l.9-1.91C994.52,439.57,995,439.57,995.16,439.93Z" transform="translate(-161.65 -129.65)"/><path class="cls-1" d="M1059.93,450.26h-37.87a1.83,1.83,0,0,1-1.81-1.81V439a1.83,1.83,0,0,1,1.81-1.81h37.87a1.81,1.81,0,0,1,1.81,1.81v9.42a1.81,1.81,0,0,1-1.81,1.81Z" transform="translate(-161.65 -129.65)"/><path class="cls-7" d="M1049.78,445.19h-17.53a1.44,1.44,0,0,1-1-.41,1.33,1.33,0,0,1,0-1.9,1.44,1.44,0,0,1,1-.41h17.58a1.42,1.42,0,0,1,1,.41,1.4,1.4,0,0,1,.41.95h0a1.44,1.44,0,0,1-.45.95,1.41,1.41,0,0,1-1,.41Z" transform="translate(-161.65 -129.65)"/><path class="cls-4" d="M457.13,606.9a5.44,5.44,0,0,0,.43,2.18,5.54,5.54,0,0,0,1.23,1.86,5.72,5.72,0,0,0,1.86,1.24,5.65,5.65,0,0,0,2.19.42H930.38a5.71,5.71,0,1,0,0-11.41H462.93a5.83,5.83,0,0,0-2.22.41,5.72,5.72,0,0,0-1.88,1.23,5.62,5.62,0,0,0-1.26,1.86A5.77,5.77,0,0,0,457.13,606.9Z" transform="translate(-161.65 -129.65)"/><path class="cls-4" d="M457.13,606.9a5.44,5.44,0,0,0,.43,2.18,5.54,5.54,0,0,0,1.23,1.86,5.72,5.72,0,0,0,1.86,1.24,5.65,5.65,0,0,0,2.19.42H930.38a5.71,5.71,0,1,0,0-11.41H462.93a5.83,5.83,0,0,0-2.22.41,5.72,5.72,0,0,0-1.88,1.23,5.62,5.62,0,0,0-1.26,1.86A5.77,5.77,0,0,0,457.13,606.9Z" transform="translate(-161.65 -129.65)"/><path class="cls-22" d="M411.83,606.9a5.7,5.7,0,0,0,1.67,4,5.79,5.79,0,0,0,1.85,1.24,5.69,5.69,0,0,0,2.19.42h425a5.71,5.71,0,0,0,0-11.41h-425a5.73,5.73,0,0,0-2.2.41,5.42,5.42,0,0,0-1.86,1.24,5.58,5.58,0,0,0-1.65,4.06Z" transform="translate(-161.65 -129.65)"/><path class="cls-4" d="M920.24,612.6H826.93V894.07h93.31Z" transform="translate(-161.65 -129.65)"/><path class="cls-22" d="M826.93,612.6H815.87V894.07h11.06Z" transform="translate(-161.65 -129.65)"/><path class="cls-22" d="M706.62,816.26h-11v77.81h11Z" transform="translate(-161.65 -129.65)"/><path class="cls-22" d="M816,612.6H695.75V864.27H816Z" transform="translate(-161.65 -129.65)"/><path class="cls-4" d="M548.68,612.92H442.23V894.39H548.68Z" transform="translate(-161.65 -129.65)"/><path class="cls-22" d="M442.45,612.6H431.4V894.07h11.05Z" transform="translate(-161.65 -129.65)"/><path class="cls-22" d="M815.87,612.6H431.31v26H815.87Z" transform="translate(-161.65 -129.65)"/><path class="cls-9" d="M826.93,612.69H816.6v-.09h-1.36v.09H431.4v1.36H815.24V864.27h1.36V614.05h10.33Z" transform="translate(-161.65 -129.65)"/><path class="cls-9" d="M800.12,649.13H713.41V847.56h86.71Z" transform="translate(-161.65 -129.65)"/><path class="cls-22" d="M798.3,650.83v63.51H715.23V650.83h32.16a10.28,10.28,0,0,0,18.84,0Z" transform="translate(-161.65 -129.65)"/><path class="cls-22" d="M766.14,782.46h32.07V846h-83V782.46H747.3a10.28,10.28,0,0,0,18.84,0Z" transform="translate(-161.65 -129.65)"/><path class="cls-22" d="M766.23,716.69H798.3V780.2H715.23V716.69H747.3a10.39,10.39,0,0,0,9.51,6.16,10.18,10.18,0,0,0,9.42-6.16Z" transform="translate(-161.65 -129.65)"/><path class="cls-7" d="M396,246H295.69V373.62H396Z" transform="translate(-161.65 -129.65)"/><path class="cls-23" d="M382.57,258.84H309v102h73.56Z" transform="translate(-161.65 -129.65)"/><path class="cls-24" d="M398.88,246H396V373.62h2.9Z" transform="translate(-161.65 -129.65)"/><path class="cls-1" d="M333.65,323.79a15.94,15.94,0,1,0-15.94-15.94A15.93,15.93,0,0,0,333.65,323.79Z" transform="translate(-161.65 -129.65)"/><path class="cls-22" d="M373.42,349.7l-16.58-25.91-16.58,25.64Z" transform="translate(-161.65 -129.65)"/><path class="cls-25" d="M371.79,269.89H337.36v34.43h34.43Z" transform="translate(-161.65 -129.65)"/><path class="cls-14" d="M777.46,599.12l-3.53-44.75h31.89l-2.72,44.75a2.31,2.31,0,0,1-.73,1.49,2.28,2.28,0,0,1-1.53.6H779.73a2.35,2.35,0,0,1-1.52-.62,2.41,2.41,0,0,1-.75-1.47Z" transform="translate(-161.65 -129.65)"/><path class="cls-15" d="M773.84,550.55h3.53l1.63-4.08a.81.81,0,0,1,.25-.33.67.67,0,0,1,.39-.12H801a.69.69,0,0,1,.39.12.78.78,0,0,1,.24.33l1.63,4.08h2.81a.68.68,0,0,1,.72.63v2.45a.75.75,0,0,1,0,.26.89.89,0,0,1-.16.22.7.7,0,0,1-.24.13.62.62,0,0,1-.27,0H773.93a.68.68,0,0,1-.72-.63v-2.45a.49.49,0,0,1,0-.24.6.6,0,0,1,.14-.21.66.66,0,0,1,.2-.14.55.55,0,0,1,.25,0Z" transform="translate(-161.65 -129.65)"/><path class="cls-9" d="M777.73,549.73H795.4L794,546h6.89a.69.69,0,0,1,.39.12.78.78,0,0,1,.24.33l1.63,4.08H806a.68.68,0,0,1,.72.63v2.45a.75.75,0,0,1-.05.26.72.72,0,0,1-.17.22.58.58,0,0,1-.23.13.62.62,0,0,1-.27,0h-5.66c-.46-1.36-1.09-3.17-1.09-3.17a.93.93,0,0,0-.36-.45.91.91,0,0,0-.55-.18H777.51Z" transform="translate(-161.65 -129.65)"/><path class="cls-25" d="M774.07,555.44l-.09-1.09h31.88l-2.71,44.75a2.28,2.28,0,0,1-2.27,2.09h-1.54l-1.18-44Z" transform="translate(-161.65 -129.65)"/><path class="cls-15" d="M799.43,574.19a9.06,9.06,0,0,0-18.12,0" transform="translate(-161.65 -129.65)"/><path class="cls-15" d="M775.74,577.73h28.72l-.54,8.78H776.47Z" transform="translate(-161.65 -129.65)"/><path class="cls-5" d="M1061.56,761.63,1017.8,809.1l.28-87.33H1017l-.18,42.39-37-37.68-.82.72,37.78,38.5-.27,79.09h1.08l.18-34.06v-.09l44.49-48.29Z" transform="translate(-161.65 -129.65)"/><path class="cls-5" d="M984.1,808.92l-.72.81,19.21,18.12,3.08,17,1.08-.18-12.23-68.22-1,.19,8.78,49.37Z" transform="translate(-161.65 -129.65)"/><path class="cls-22" d="M998.24,894h27.17a9.25,9.25,0,0,0,9.24-9.24v-36H989v36a9.25,9.25,0,0,0,9.24,9.24Z" transform="translate(-161.65 -129.65)"/><path class="cls-1" d="M1017.53,721.86a28.45,28.45,0,1,0-28.44-28.45A28.45,28.45,0,0,0,1017.53,721.86Z" transform="translate(-161.65 -129.65)"/><path class="cls-1" d="M992,779.38a20.29,20.29,0,1,0-20.3-20.29A20.29,20.29,0,0,0,992,779.38Z" transform="translate(-161.65 -129.65)"/><g class="cls-17"><path class="cls-2" d="M992,779.38a20.29,20.29,0,1,0-20.3-20.29A20.29,20.29,0,0,0,992,779.38Z" transform="translate(-161.65 -129.65)"/></g><g class="cls-17"><path class="cls-2" d="M1017.53,721.86a28.45,28.45,0,1,0-28.44-28.45A28.45,28.45,0,0,0,1017.53,721.86Z" transform="translate(-161.65 -129.65)"/></g><path class="cls-1" d="M974,733.36a12.14,12.14,0,1,0-12.14-12.14A12.14,12.14,0,0,0,974,733.36Z" transform="translate(-161.65 -129.65)"/><path class="cls-1" d="M973.6,814.35A14.41,14.41,0,1,0,959.19,800,14.4,14.4,0,0,0,973.6,814.35Z" transform="translate(-161.65 -129.65)"/><path class="cls-1" d="M1050.69,792.79a18.39,18.39,0,1,0-18.39-18.39A18.39,18.39,0,0,0,1050.69,792.79Z" transform="translate(-161.65 -129.65)"/><path class="cls-22" d="M1035.65,844H988.09a2.5,2.5,0,0,0-.94.18,2.46,2.46,0,0,0-1.32,1.32,2.54,2.54,0,0,0-.19.94h0a2.54,2.54,0,0,0,.19.94,2.24,2.24,0,0,0,.53.79,2.64,2.64,0,0,0,.79.54,2.71,2.71,0,0,0,.94.18h47.65a2.71,2.71,0,0,0,.94-.18,2.52,2.52,0,0,0,.79-.54,2.41,2.41,0,0,0,.54-.79,2.75,2.75,0,0,0,.18-.94,2.61,2.61,0,0,0-.79-1.72,2.55,2.55,0,0,0-1.75-.72Z" transform="translate(-161.65 -129.65)"/><path class="cls-1" d="M989.09,693.41A28.47,28.47,0,0,1,1017.53,665v56.89a28.34,28.34,0,0,1-20.13-8.32,28.27,28.27,0,0,1-8.31-20.13Z" transform="translate(-161.65 -129.65)"/><path class="cls-1" d="M995,779.2a20.34,20.34,0,0,1-7.07-40Z" transform="translate(-161.65 -129.65)"/><path class="cls-10" d="M965.35,729.92a12.09,12.09,0,0,1-2.66-3.93,12.16,12.16,0,0,1,2.57-13.28c.09-.09.09-.09.18-.09l17,17.3a12.32,12.32,0,0,1-17.12,0Z" transform="translate(-161.65 -129.65)"/><path class="cls-10" d="M983.83,810.09a14.38,14.38,0,0,1-20.65-20l21,19.75C984.1,809.82,984,810,983.83,810.09Z" transform="translate(-161.65 -129.65)"/><path class="cls-4" d="M1034.65,848.78H993.16a2.46,2.46,0,0,1-1.73-.72,2.44,2.44,0,0,1,1.73-4.17h-5.07a2.45,2.45,0,0,0,0,4.89h1v36a9.25,9.25,0,0,0,9.24,9.24h14.76a13.45,13.45,0,0,1-13.22-10.87l-6.53-33.52h41.41l-.1-.81Z" transform="translate(-161.65 -129.65)"/><path class="cls-10" d="M1063.19,760.81c-.09-.09-.18-.09-.27-.18l-24.82,27.18.09.09a18.44,18.44,0,0,0,25-27.09Z" transform="translate(-161.65 -129.65)"/><path class="cls-5" d="M712,597.66H650.27a.89.89,0,0,0-.9.9v1.54a.9.9,0,0,0,.26.64.91.91,0,0,0,.64.27H712a.9.9,0,0,0,.91-.91v-1.45a.7.7,0,0,0,0-.38.8.8,0,0,0-.18-.34.87.87,0,0,0-.32-.22.74.74,0,0,0-.39-.05Z" transform="translate(-161.65 -129.65)"/><path class="cls-26" d="M712,597.66H650.27a.89.89,0,0,0-.9.9v1.54a.9.9,0,0,0,.26.64.91.91,0,0,0,.64.27H712a.9.9,0,0,0,.91-.91v-1.45a.7.7,0,0,0,0-.38.8.8,0,0,0-.18-.34.87.87,0,0,0-.32-.22.74.74,0,0,0-.39-.05Z" transform="translate(-161.65 -129.65)"/><path class="cls-5" d="M670.38,597.66H563a.92.92,0,0,0-.65.26.9.9,0,0,0-.26.64v1.54a.9.9,0,0,0,.26.64.93.93,0,0,0,.65.27H670.52a.91.91,0,0,0,.64-.27.9.9,0,0,0,.26-.64v-1.45a1.06,1.06,0,0,0-.32-.7,1.08,1.08,0,0,0-.72-.29Z" transform="translate(-161.65 -129.65)"/><g class="cls-27"><path class="cls-26" d="M710.65,598.29H601.17a.27.27,0,0,1,0-.54H710.65a.21.21,0,0,1,.11,0,.28.28,0,0,1,.15.15.2.2,0,0,1,0,.11C711,598.22,710.79,598.29,710.65,598.29Z" transform="translate(-161.65 -129.65)"/></g><path class="cls-5" d="M697.06,597.66h16.22a2.61,2.61,0,0,0,1.65-.58,2.52,2.52,0,0,0,.88-1.51l13.59-71.38a2.59,2.59,0,0,0-.54-2.14,2.64,2.64,0,0,0-.89-.7,2.8,2.8,0,0,0-1.1-.25H710.65a2.61,2.61,0,0,0-1.65.58,2.59,2.59,0,0,0-.89,1.51l-13.58,71.39a2.54,2.54,0,0,0,0,1.13,2.8,2.8,0,0,0,.51,1,2.64,2.64,0,0,0,.9.69,2.67,2.67,0,0,0,1.11.24Z" transform="translate(-161.65 -129.65)"/><path class="cls-26" d="M697.06,597.66h16.22a2.61,2.61,0,0,0,1.65-.58,2.52,2.52,0,0,0,.88-1.51l13.59-71.38a2.59,2.59,0,0,0-.54-2.14,2.64,2.64,0,0,0-.89-.7,2.8,2.8,0,0,0-1.1-.25H710.65a2.61,2.61,0,0,0-1.65.58,2.59,2.59,0,0,0-.89,1.51l-13.58,71.39a2.54,2.54,0,0,0,0,1.13,2.8,2.8,0,0,0,.51,1,2.64,2.64,0,0,0,.9.69,2.67,2.67,0,0,0,1.11.24Z" transform="translate(-161.65 -129.65)"/><path class="cls-5" d="M606.61,597.66h104a2.55,2.55,0,0,0,2.54-2.09l13.59-71.38a2.62,2.62,0,0,0-1.44-2.84,2.76,2.76,0,0,0-1.1-.25h-104a2.57,2.57,0,0,0-1.64.58,2.54,2.54,0,0,0-.89,1.51l-13.59,71.39a2.48,2.48,0,0,0,.51,2.16,2.47,2.47,0,0,0,.9.7,2.74,2.74,0,0,0,1.13.22Z" transform="translate(-161.65 -129.65)"/><path class="cls-7" d="M606.7,595.12H709.34l14.76-71.48H620.38C606.7,595.12,620.38,523.73,606.7,595.12Z" transform="translate(-161.65 -129.65)"/><path class="cls-1" d="M620.38,523.64l-13.59,71.48h103l14.76-71.48Z" transform="translate(-161.65 -129.65)"/><path class="cls-3" d="M620.38,523.64l-13.59,71.48h103l14.76-71.48Z" transform="translate(-161.65 -129.65)"/><path class="cls-1" d="M623.88,527.69a.92.92,0,1,0-1.42.06A1,1,0,0,0,623.88,527.69Z" transform="translate(-161.65 -129.65)"/><path class="cls-4" d="M627.49,527.69a.92.92,0,1,0-1.22-1.34.92.92,0,1,0,1.22,1.34Z" transform="translate(-161.65 -129.65)"/><path class="cls-5" d="M631,527.69a.92.92,0,1,0-1.22-1.34.92.92,0,1,0,1.22,1.34Z" transform="translate(-161.65 -129.65)"/><path class="cls-6" d="M703.54,539H648.46a.47.47,0,0,1-.26-.05.55.55,0,0,1-.2-.17.51.51,0,0,1-.1-.24.46.46,0,0,1,0-.26l.63-3.26a1,1,0,0,1,.82-.73h55.08a.57.57,0,0,1,.25.06.54.54,0,0,1,.21.16.56.56,0,0,1,.1.24.62.62,0,0,1,0,.27l-.64,3.26a.84.84,0,0,1-.28.5A.87.87,0,0,1,703.54,539Z" transform="translate(-161.65 -129.65)"/><path class="cls-1" d="M702.63,536a.92.92,0,0,0-.63-.26.9.9,0,0,0-.63.26,1,1,0,0,0-.37.59,1,1,0,0,0,.09.68.83.83,0,0,0,.53.25.8.8,0,0,0,.56-.16l.36.45.18-.18-.36-.45a.92.92,0,0,0,.36-.54.9.9,0,0,0-.09-.64Z" transform="translate(-161.65 -129.65)"/><path class="cls-3" d="M702.18,537.05a1,1,0,0,1-.2.15.74.74,0,0,1-.25,0,.7.7,0,0,1-.25,0,.8.8,0,0,1-.21-.15.82.82,0,0,1-.07-.49.81.81,0,0,1,.26-.42.62.62,0,0,1,.2-.15.7.7,0,0,1,.25,0,.57.57,0,0,1,.45.2.66.66,0,0,1,.11.24,1.13,1.13,0,0,1,0,.26.67.67,0,0,1-.1.23A.81.81,0,0,1,702.18,537.05Z" transform="translate(-161.65 -129.65)"/><path class="cls-1" d="M713,536.14h-2.63l.09-.27H713Z" transform="translate(-161.65 -129.65)"/><path class="cls-1" d="M712.78,537.05h-2.63l.09-.27h2.54Z" transform="translate(-161.65 -129.65)"/><path class="cls-1" d="M712.6,538H710l.09-.28h2.54Z" transform="translate(-161.65 -129.65)"/><path class="cls-7" d="M640.76,588.6h-25a1,1,0,0,1-.37-.08.89.89,0,0,1-.29-.22,1,1,0,0,1-.16-.33.77.77,0,0,1,0-.37l8.15-42.67a1.3,1.3,0,0,1,.42-.7,1.25,1.25,0,0,1,.76-.3h25a.86.86,0,0,1,.36.08.84.84,0,0,1,.3.22,1,1,0,0,1,.16.33.77.77,0,0,1,0,.37l-8.15,42.67a1.3,1.3,0,0,1-.42.7,1.25,1.25,0,0,1-.76.3Z" transform="translate(-161.65 -129.65)"/><path class="cls-1" d="M639.33,560.52c3.48-3.17,4.18-8.07,1.55-11s-7.57-2.66-11,.5-4.18,8.07-1.55,11S635.86,563.68,639.33,560.52Z" transform="translate(-161.65 -129.65)"/><path class="cls-2" d="M639.33,560.52c3.48-3.17,4.18-8.07,1.55-11s-7.57-2.66-11,.5-4.18,8.07-1.55,11S635.86,563.68,639.33,560.52Z" transform="translate(-161.65 -129.65)"/><path class="cls-1" d="M639.31,585.43h-7.25c-.18,0-.27-.19-.27-.37l.36-1.81a.42.42,0,0,1,.12-.25.41.41,0,0,1,.25-.11h7.24c.18,0,.27.18.27.36l-.36,1.81a.33.33,0,0,1-.11.25.42.42,0,0,1-.25.12Z" transform="translate(-161.65 -129.65)"/><path class="cls-1" d="M619.29,583.43l.09.36h.09l.36.1c.09,0,.09.09,0,.18l-.36.27v.45a.09.09,0,0,1,0,.07l-.06,0-.36-.18h-.09l-.37.18c-.09,0-.09,0-.09-.09l.18-.36v-.09l-.27-.27c0-.09,0-.09.09-.18l.46-.1H619l.27-.36C619.2,583.34,619.29,583.34,619.29,583.43Z" transform="translate(-161.65 -129.65)"/><path class="cls-1" d="M621.28,583.43l.09.36h.09l.37.1c.09,0,.09.09,0,.18l-.37.27v.45a.14.14,0,0,1,0,.07l-.07,0-.36-.18h0l-.36.18c-.09,0-.09,0-.09-.09l.18-.36v-.09l-.27-.27c0-.09,0-.09.09-.18l.45-.1h.1l.27-.36C621.19,583.34,621.28,583.34,621.28,583.43Z" transform="translate(-161.65 -129.65)"/><path class="cls-1" d="M623.37,583.43l.09.36h.09l.36.1c.09,0,.09.09,0,.18l-.36.27v.45a.09.09,0,0,1,0,.07l-.06,0-.37-.18H623l-.36.18c-.09,0-.09,0-.09-.09l.18-.36v-.09l-.27-.27c0-.09,0-.09.09-.18l.45-.1h.09l.28-.36C623.27,583.34,623.37,583.34,623.37,583.43Z" transform="translate(-161.65 -129.65)"/><path class="cls-1" d="M625.36,583.43l.09.36h.09l.36.1c.09,0,.09.09,0,.18l-.36.27v.45a.09.09,0,0,1,0,.07l-.06,0-.36-.18H625l-.37.18c-.09,0-.09,0-.09-.09l.18-.36v-.09l-.27-.27c0-.09,0-.09.09-.18l.46-.1h.09l.27-.36C625.27,583.34,625.36,583.34,625.36,583.43Z" transform="translate(-161.65 -129.65)"/><path class="cls-28" d="M627.44,583.43l.09.36h.09l.37.1c.09,0,.09.09,0,.18l-.37.27v.45a.14.14,0,0,1,0,.07l-.07,0-.36-.18h-.09l-.36.18c-.09,0-.09,0-.09-.09l.18-.36v-.09l-.27-.27c0-.09,0-.09.09-.18l.45-.1h.09l.27-.36C627.35,583.34,627.44,583.34,627.44,583.43Z" transform="translate(-161.65 -129.65)"/><path class="cls-15" d="M639.85,569.75H623.68a.18.18,0,0,1-.12,0,.22.22,0,0,1-.06-.13l.18-.72c0-.09.18-.18.27-.18h16.22a.17.17,0,0,1,.12.05.18.18,0,0,1,.06.13l-.18.72A.39.39,0,0,1,639.85,569.75Z" transform="translate(-161.65 -129.65)"/><path class="cls-14" d="M640.4,573H622.1c-.18,0-.27-.18-.27-.36a.36.36,0,0,1,.11-.25.44.44,0,0,1,.25-.11h18.3c.18,0,.27.18.27.36a.44.44,0,0,1-.11.25.36.36,0,0,1-.25.11Z" transform="translate(-161.65 -129.65)"/><path class="cls-14" d="M639.85,575.82h-18.3c-.18,0-.27-.18-.27-.36a.47.47,0,0,1,.11-.25.41.41,0,0,1,.25-.11H640c.18,0,.27.18.27.36S640,575.82,639.85,575.82Z" transform="translate(-161.65 -129.65)"/><path class="cls-14" d="M635.14,578.72h-10c-.18,0-.28-.18-.28-.36a.42.42,0,0,1,.12-.25.33.33,0,0,1,.25-.11h10.05c.18,0,.27.18.27.36a.32.32,0,0,1,0,.14.36.36,0,0,1-.08.12.28.28,0,0,1-.12.08.26.26,0,0,1-.15,0Z" transform="translate(-161.65 -129.65)"/><path class="cls-3" d="M616.78,566.89a1,1,0,1,0-1.34-1.47,1.08,1.08,0,0,0-.2,1.53A1.1,1.1,0,0,0,616.78,566.89Z" transform="translate(-161.65 -129.65)"/><path class="cls-1" d="M616.12,566.76l.27-.18-.36-.36.45-.36-.09-.18-.63.54Z" transform="translate(-161.65 -129.65)"/><path class="cls-3" d="M710.89,566.89a1,1,0,1,0-1.54.05A1.1,1.1,0,0,0,710.89,566.89Z" transform="translate(-161.65 -129.65)"/><path class="cls-1" d="M710,566.76l-.09-.18.45-.36-.36-.36.27-.18.37.54Z" transform="translate(-161.65 -129.65)"/><path class="cls-1" d="M637.77,538.23H625a.53.53,0,0,1-.25,0,.53.53,0,0,1-.3-.35.53.53,0,0,1,0-.25l.36-1.9a.93.93,0,0,1,.31-.44.89.89,0,0,1,.51-.19H638.4a.47.47,0,0,1,.24,0,.48.48,0,0,1,.2.14.57.57,0,0,1,.11.22.49.49,0,0,1,0,.24l-.37,1.9a.92.92,0,0,1-.3.45A1,1,0,0,1,637.77,538.23Z" transform="translate(-161.65 -129.65)"/><g class="cls-16"><path class="cls-6" d="M719.21,530H620.74l.09-.18h98.38Z" transform="translate(-161.65 -129.65)"/></g><path class="cls-7" d="M701.91,588.6h-25a1,1,0,0,1-.37-.08.89.89,0,0,1-.29-.22,1,1,0,0,1-.16-.33.77.77,0,0,1,0-.37l8.15-42.67a1.3,1.3,0,0,1,.42-.7,1.25,1.25,0,0,1,.76-.3h25a.86.86,0,0,1,.36.08.84.84,0,0,1,.3.22,1,1,0,0,1,.16.33.77.77,0,0,1,0,.37l-8.15,42.67a1.3,1.3,0,0,1-.42.7,1.25,1.25,0,0,1-.76.3Z" transform="translate(-161.65 -129.65)"/><path class="cls-1" d="M700.46,585.43h-7.25c-.18,0-.27-.19-.27-.37l.36-1.81a.42.42,0,0,1,.12-.25.41.41,0,0,1,.24-.11h7.25c.18,0,.27.18.27.36l-.36,1.81a.33.33,0,0,1-.11.25.42.42,0,0,1-.25.12Z" transform="translate(-161.65 -129.65)"/><path class="cls-15" d="M701,569.75H684.79a.17.17,0,0,1-.18-.18l.18-.72c0-.09.18-.18.27-.18h16.21a.19.19,0,0,1,.13.05.31.31,0,0,1,.06.13l-.19.72C701.27,569.66,701.09,569.75,701,569.75Z" transform="translate(-161.65 -129.65)"/><path class="cls-14" d="M701.59,573h-18.3c-.18,0-.27-.18-.27-.36a.38.38,0,0,1,.36-.36h18.3c.18,0,.27.18.27.36a.38.38,0,0,1-.36.36Z" transform="translate(-161.65 -129.65)"/><path class="cls-14" d="M701,575.82H682.7c-.18,0-.27-.18-.27-.36a.47.47,0,0,1,.11-.25.41.41,0,0,1,.25-.11h18.3c.18,0,.28.18.28.36a.59.59,0,0,1,0,.14.57.57,0,0,1-.08.13.37.37,0,0,1-.12.07.26.26,0,0,1-.15,0Z" transform="translate(-161.65 -129.65)"/><path class="cls-14" d="M696.29,578.72h-10c-.18,0-.28-.18-.28-.36a.42.42,0,0,1,.12-.25.33.33,0,0,1,.25-.11h10c.18,0,.27.18.27.36a.32.32,0,0,1,0,.14.36.36,0,0,1-.08.12.28.28,0,0,1-.12.08.26.26,0,0,1-.15,0Z" transform="translate(-161.65 -129.65)"/><path class="cls-20" d="M700.48,560.51c3.48-3.17,4.17-8.07,1.54-11s-7.57-2.66-11,.5-4.17,8.07-1.55,11S697,563.67,700.48,560.51Z" transform="translate(-161.65 -129.65)"/><path class="cls-1" d="M680.26,583.43l.09.36h.09l.36.1c.09,0,.09.09,0,.18l-.36.27v.45a.09.09,0,0,1,0,.07l-.06,0-.36-.18h-.1l-.36.18c-.09,0-.09,0-.09-.09l.18-.36v-.09l-.27-.27c0-.09,0-.09.09-.18l.45-.1h.1l.27-.36C680.08,583.34,680.17,583.34,680.26,583.43Z" transform="translate(-161.65 -129.65)"/><path class="cls-1" d="M682.25,583.43l.09.36h.09l.36.1c.09,0,.09.09,0,.18l-.36.27v.45a.14.14,0,0,1,0,.07l-.07,0-.36-.18h-.09l-.36.18c-.1,0-.1,0-.1-.09l.19-.36v-.09l-.28-.27c0-.09,0-.09.09-.18l.46-.1H682l.27-.36C682.16,583.34,682.25,583.34,682.25,583.43Z" transform="translate(-161.65 -129.65)"/><path class="cls-1" d="M684.38,583.43l.09.36h.09l.36.1c.09,0,.09.09,0,.18l-.36.27v.45a.11.11,0,0,1-.09.09l-.36-.18H684l-.37.18c-.09,0-.09,0-.09-.09l.19-.36v-.09l-.28-.27c0-.09,0-.09.09-.18l.46-.1h.09l.27-.36Z" transform="translate(-161.65 -129.65)"/><path class="cls-1" d="M686.33,583.43l.09.36h.09l.36.1c.09,0,.09.09,0,.18l-.36.27v.45a.09.09,0,0,1,0,.07l-.06,0-.36-.18H686l-.36.18c-.09,0-.09,0-.09-.09l.18-.36v-.09l-.27-.27c0-.09,0-.09.09-.18l.45-.1h.1l.27-.36C686.24,583.34,686.33,583.34,686.33,583.43Z" transform="translate(-161.65 -129.65)"/><path class="cls-28" d="M688.41,583.43l.09.36h.09l.36.1c.09,0,.09.09,0,.18l-.36.27v.45a.14.14,0,0,1,0,.07l-.07,0-.36-.18h-.09l-.36.18c-.09,0-.09,0-.09-.09l.18-.36v-.09l-.28-.27c0-.09,0-.09.1-.18l.45-.1h.09l.27-.36C688.32,583.34,688.41,583.34,688.41,583.43Z" transform="translate(-161.65 -129.65)"/><path class="cls-7" d="M671.29,588.6h-25a.86.86,0,0,1-.65-.3.73.73,0,0,1-.16-.33.77.77,0,0,1,0-.37l8.15-42.67a1.19,1.19,0,0,1,.42-.7,1.25,1.25,0,0,1,.76-.3h25a.86.86,0,0,1,.65.3.73.73,0,0,1,.16.33.77.77,0,0,1,0,.37l-8.15,42.67a1.31,1.31,0,0,1-.43.72,1.27,1.27,0,0,1-.79.28Z" transform="translate(-161.65 -129.65)"/><path class="cls-1" d="M669.93,585.43h-7.25c-.18,0-.27-.19-.27-.37l.36-1.81a.42.42,0,0,1,.12-.25.41.41,0,0,1,.25-.11h7.24c.18,0,.27.18.27.36l-.36,1.81a.33.33,0,0,1-.11.25A.42.42,0,0,1,669.93,585.43Z" transform="translate(-161.65 -129.65)"/><path class="cls-15" d="M670.38,569.75H654.17a.17.17,0,0,1-.18-.18l.18-.72c0-.09.18-.18.27-.18h16.21a.19.19,0,0,1,.13.05.31.31,0,0,1,.06.13l-.19.72C670.65,569.66,670.56,569.75,670.38,569.75Z" transform="translate(-161.65 -129.65)"/><path class="cls-14" d="M670.93,573H652.67c-.18,0-.27-.18-.27-.36a.38.38,0,0,1,.36-.36h18.3c.18,0,.27.18.27.36a.37.37,0,0,1-.4.36Z" transform="translate(-161.65 -129.65)"/><path class="cls-14" d="M670.38,575.82h-18.3c-.18,0-.27-.18-.27-.36a.47.47,0,0,1,.11-.25.41.41,0,0,1,.25-.11h18.3c.18,0,.28.18.28.36a.59.59,0,0,1,0,.14.57.57,0,0,1-.08.13.37.37,0,0,1-.12.07.26.26,0,0,1-.15,0Z" transform="translate(-161.65 -129.65)"/><path class="cls-14" d="M665.76,578.72h-10c-.18,0-.28-.18-.28-.36a.42.42,0,0,1,.12-.25.33.33,0,0,1,.25-.11h10.05c.18,0,.27.18.27.36S665.94,578.72,665.76,578.72Z" transform="translate(-161.65 -129.65)"/><path class="cls-14" d="M669.87,560.51c3.48-3.17,4.18-8.07,1.55-11s-7.57-2.66-11,.5-4.18,8.07-1.55,11S666.39,563.67,669.87,560.51Z" transform="translate(-161.65 -129.65)"/><path class="cls-28" d="M658.15,584.34v.49l0,0,0,0h0l-.36-.18-.27-.09.45-1.09.09-.09h.09l.09.36h.09l.37.1c.09,0,.09.09,0,.18Z" transform="translate(-161.65 -129.65)"/><path class="cls-1" d="M649.73,583.43l.09.36h.09l.36.1c.09,0,.09.09,0,.18l-.36.27v.45a.09.09,0,0,1,0,.07l-.06,0-.36-.18h-.09l-.37.18c-.09,0-.09,0-.09-.09l.18-.36v-.09l-.27-.27c0-.09,0-.09.09-.18l.46-.1h.09l.27-.36C649.64,583.34,649.73,583.34,649.73,583.43Z" transform="translate(-161.65 -129.65)"/><path class="cls-1" d="M651.81,583.43l.09.36H652l.36.1c.1,0,.1.09,0,.18l-.36.27v.45a.14.14,0,0,1,0,.07l-.07,0-.36-.18h-.09l-.36.18c-.09,0-.09,0-.09-.09l.18-.36v-.09l-.27-.27c0-.09,0-.09.09-.18l.45-.1h.09l.27-.36C651.77,583.34,651.81,583.34,651.81,583.43Z" transform="translate(-161.65 -129.65)"/><path class="cls-1" d="M653.8,583.43l.09.36h.1l.36.1c.09,0,.09.09,0,.18l-.36.27v.45a.09.09,0,0,1,0,.07l-.07,0-.36-.18h-.09l-.36.18c-.09,0-.09,0-.09-.09l.18-.36v-.09l-.27-.27c0-.09,0-.09.09-.18l.45-.1h.09l.27-.36C653.71,583.34,653.8,583.34,653.8,583.43Z" transform="translate(-161.65 -129.65)"/><path class="cls-1" d="M655.89,583.43l.09.36h.09l.36.1c.09,0,.09.09,0,.18l-.36.27v.45a.09.09,0,0,1,0,.07l-.06,0-.36-.18h-.09l-.37.18c-.09,0-.09,0-.09-.09l.18-.36v-.09l-.27-.27c0-.09,0-.09.09-.18l.46-.1h.09l.27-.36C655.8,583.34,655.89,583.34,655.89,583.43Z" transform="translate(-161.65 -129.65)"/><path class="cls-1" d="M657.88,583.43l-.27,1.27-.36.18c-.09,0-.09,0-.09-.09l.18-.36v-.09l-.27-.27c0-.09,0-.09.09-.18l.45-.1h.09l.18-.36Z" transform="translate(-161.65 -129.65)"/><path class="cls-8" d="M609,877.87l-51-1.26-2.46-28.16h-.14l-7.33-71-.13-1.17L528.61,589.48a3.33,3.33,0,0,0-1-2.15,3.28,3.28,0,0,0-4.45,0,3.24,3.24,0,0,0-1,2.15L501.19,776.1l-8.09,72.32-1.32,15.13-1.13,13-28.37.7,2.22-13.5,1.13-10.95.72-16L468,777.34v-.81L475,532.61l109.37-1.81L583,775.87l-.38,68.61.37,8.37a13.43,13.43,0,0,0,2.82,7.72,13.56,13.56,0,0,0,2.84,2.72Z" transform="translate(-161.65 -129.65)"/><path class="cls-9" d="M585.81,860.57l-11.77,10-.57-16.14-2.18-62a9.21,9.21,0,0,0-5.94-8.31L548,777.52l-.47-.18-.09-1h.43l35.08-.45-.38,68.61.37,8.37a4.62,4.62,0,0,0,.07,1,13.51,13.51,0,0,0,2.78,6.7Z" transform="translate(-161.65 -129.65)"/><path class="cls-15" d="M463.42,859.27l.77-.79a15.51,15.51,0,0,1,21.85.26l.44.53a8.2,8.2,0,0,1,2.26,5.57v3.34a17.87,17.87,0,0,0,.9,5.66l2.72,9a21.77,21.77,0,0,1,1.05,6.7v1.13a3.28,3.28,0,0,1-3.4,3.14H458.72a3.57,3.57,0,0,1-1.26-.19,3.26,3.26,0,0,1-1.84-1.71,3.13,3.13,0,0,1-.29-1.24v-.43a23.74,23.74,0,0,1,1.3-7.75l3.13-8.78a19.16,19.16,0,0,0,1.15-6.27l.08-2.52A8.61,8.61,0,0,1,463.42,859.27Z" transform="translate(-161.65 -129.65)"/><path class="cls-19" d="M455.33,890.16v.44a3.28,3.28,0,0,0,3.39,3.13H490a3.18,3.18,0,0,0,1.26-.2,3.13,3.13,0,0,0,1.09-.66,3.18,3.18,0,0,0,.75-1,3.37,3.37,0,0,0,.3-1.24v-1.14a7.15,7.15,0,0,0-.09-1.31H455.33Z" transform="translate(-161.65 -129.65)"/><path class="cls-1" d="M584.37,530.83V853.76l-1.31.07-9.57.55-18,1-7.89-78.09-.09-1L528.61,589.48a3.3,3.3,0,0,0-1.07-2.13,3.28,3.28,0,0,0-4.41,0,3.37,3.37,0,0,0-1,2.13L494.14,855.4l-29.59-1.46L475,532.64Z" transform="translate(-161.65 -129.65)"/><path class="cls-25" d="M481.51,854.78,506,605.85c.91-11.05,7.62-19.35,15.49-19.35h3.69c-1.65,0-3.06,1.82-3.22,4.21l-27.84,264.7Z" transform="translate(-161.65 -129.65)"/><path class="cls-25" d="M584.37,534.75v319l-10.87.62-5.43-319.61Z" transform="translate(-161.65 -129.65)"/><path class="cls-15" d="M554.44,867.57V887.5a5.82,5.82,0,0,0,1.7,4.12,6.07,6.07,0,0,0,1.89,1.26,5.86,5.86,0,0,0,2.23.43h67.63a2.48,2.48,0,0,0,1.73-.71,2.44,2.44,0,0,0,.72-1.72h0a11.1,11.1,0,0,0-7.55-10.47l-15.26-5-19.34-15a5.34,5.34,0,0,0-6.77.16l-8.57,7.32a4.94,4.94,0,0,1-2.15,1,4.69,4.69,0,0,1-2.38-.13l-10.87-3.37a2.42,2.42,0,0,0-1.07-.08,2.52,2.52,0,0,0-1,.42,2.46,2.46,0,0,0-.7.81,2.4,2.4,0,0,0-.26,1.05Z" transform="translate(-161.65 -129.65)"/><path d="M560.27,893.28H627.9a2.49,2.49,0,0,0,1.73-.72,2.42,2.42,0,0,0,.72-1.72h0a8.17,8.17,0,0,0-.32-2.45h-75.5a5.82,5.82,0,0,0,5.74,4.89Z" transform="translate(-161.65 -129.65)"/><path class="cls-7" d="M587.78,868.27a.7.7,0,0,1-.39-.15.6.6,0,0,1-.14-.21.49.49,0,0,1,0-.24.51.51,0,0,1,0-.25.6.6,0,0,1,.14-.21l4.09-4.4a.64.64,0,1,1,.9.91l-4.09,4.4a1.16,1.16,0,0,1-.51.15Z" transform="translate(-161.65 -129.65)"/><path class="cls-7" d="M591,870.79a.59.59,0,0,1-.4-.15.8.8,0,0,1-.15-.21.66.66,0,0,1-.05-.25.64.64,0,0,1,.05-.24.8.8,0,0,1,.15-.21l4.08-4.4a.6.6,0,0,1,.21-.14.7.7,0,0,1,.25-.05.69.69,0,0,1,.24.05.6.6,0,0,1,.21.14.77.77,0,0,1,.14.21.64.64,0,0,1,0,.24.74.74,0,0,1,0,.25.72.72,0,0,1-.14.2l-4.09,4.41a1.12,1.12,0,0,1-.5.15Z" transform="translate(-161.65 -129.65)"/><path class="cls-7" d="M594.23,873.31a.57.57,0,0,1-.39-.16.8.8,0,0,1-.15-.21.66.66,0,0,1-.05-.25.64.64,0,0,1,.05-.24.8.8,0,0,1,.15-.21l4.09-4.4a.52.52,0,0,1,.2-.14.65.65,0,0,1,.5,0,.52.52,0,0,1,.2.14.6.6,0,0,1,.14.21.69.69,0,0,1,0,.24.74.74,0,0,1,0,.25.56.56,0,0,1-.14.2l-4.09,4.41a.56.56,0,0,1-.24.13.63.63,0,0,1-.27,0Z" transform="translate(-161.65 -129.65)"/><path class="cls-8" d="M503,350.17H536.4a2.12,2.12,0,0,1,1,.27,2.08,2.08,0,0,1,.77.76l2.9,4.76,32,4.13a31.51,31.51,0,0,1,19,9.78l43.09,46.2,47.72-46.86,13.16,17.51L644.9,447a17.88,17.88,0,0,1-24,2.21L584.23,424.7V534.75H474.79s-10.92-171.47-7-172.26l30.49-5.84,2.81-5.34a2.28,2.28,0,0,1,.79-.84A2.18,2.18,0,0,1,503,350.17Z" transform="translate(-161.65 -129.65)"/><path class="cls-8" d="M492,357.91,468.52,362a16.69,16.69,0,0,0-6.33,2.53,16.49,16.49,0,0,0-4.76,4.87l-52.55,77.17a17.56,17.56,0,0,0,3.93,23.89l35,26.43,15.11-16.06-22.11-23.3L479,406.63l19.54-.9Z" transform="translate(-161.65 -129.65)"/><path class="cls-8" d="M443.79,496.89l14.92,11.35s.29,6.64,11.21,11.69L473,531c.71,3.41,5.43,3.12,5.43-.27l5.05-26.46-24.55-23.46Z" transform="translate(-161.65 -129.65)"/><path class="cls-15" d="M461.59,483.46l5.33,5.14-13,15.76L448.1,500Z" transform="translate(-161.65 -129.65)"/><path d="M460.8,482.81l7.17,6.8a1.18,1.18,0,0,0,.42.31,1.13,1.13,0,0,0,.51.09,1.08,1.08,0,0,0,.5-.15,1,1,0,0,0,.38-.35h0a1.26,1.26,0,0,0,.28-.82,1.28,1.28,0,0,0-.33-.81l-7.18-6.78a1.26,1.26,0,0,0-.82-.26,1.31,1.31,0,0,0-.8.31h0a1.1,1.1,0,0,0-.34.34,1,1,0,0,0-.15.46,1.08,1.08,0,0,0,.07.47A1,1,0,0,0,460.8,482.81Z" transform="translate(-161.65 -129.65)"/><path class="cls-8" d="M542,314.8c-.43.06-.59.53-.52,1s.52.59,1,.52l3.45-.71a3.17,3.17,0,0,0,1.13-.53,3.25,3.25,0,0,0,.84-.93,3.09,3.09,0,0,0,.42-1.18,3.29,3.29,0,0,0-.06-1.25,3.35,3.35,0,0,0-.78-1.4,3.25,3.25,0,0,0-1.34-.87,3.64,3.64,0,0,1-1.61-1.24,3.58,3.58,0,0,1-.66-1.92,5.83,5.83,0,0,0-.11-1.25C541.81,297.81,542,314.8,542,314.8Z" transform="translate(-161.65 -129.65)"/><path class="cls-9" d="M548.17,311.69a3.34,3.34,0,0,0-1.52-2,1,1,0,0,0,.1.28,3.1,3.1,0,0,1,.06,1.25,3.22,3.22,0,0,1-.42,1.18,3.07,3.07,0,0,1-.84.92,3.28,3.28,0,0,1-1.13.54l-2.47.51v.42c-.43.06-.59.53-.52,1s.52.59,1,.52l3.45-.71a3.17,3.17,0,0,0,1.13-.53,3.25,3.25,0,0,0,.84-.93,3.09,3.09,0,0,0,.42-1.18,3.29,3.29,0,0,0-.06-1.25Z" transform="translate(-161.65 -129.65)"/><path class="cls-8" d="M542.53,291.73l3.09,35.85A10.89,10.89,0,0,1,537.79,339l-2.24.65,1.88,16.48-16-2.15-18.37,1.49,2-43.67,20.4-19.52Z" transform="translate(-161.65 -129.65)"/><path class="cls-9" d="M521.84,315l.44,1.12a40.21,40.21,0,0,0,4.71,1.1l-5.89,7.33Z" transform="translate(-161.65 -129.65)"/><path class="cls-5" d="M547.22,310.21a.86.86,0,0,1-.53-.19.9.9,0,0,1-.29-.48l-2.77-12.27a1,1,0,0,1,0-.34.91.91,0,0,1,.12-.31,1.09,1.09,0,0,1,.24-.24.81.81,0,0,1,.3-.13,1,1,0,0,1,.34,0,.91.91,0,0,1,.31.12,1,1,0,0,1,.23.24.93.93,0,0,1,.13.31l2.78,12.31a.87.87,0,0,1-.12.63.84.84,0,0,1-.54.36.55.55,0,0,1-.18,0Z" transform="translate(-161.65 -129.65)"/><path class="cls-5" d="M545.48,301.69l-19,4.21.37,1.66,19-4.22Z" transform="translate(-161.65 -129.65)"/><path class="cls-9" d="M535.55,339.61l-7-.14a3,3,0,0,0-1.38.31,3,3,0,0,0-1.59,2.26,3,3,0,0,0,.16,1.4l2.56,6.75h8.47Z" transform="translate(-161.65 -129.65)"/><path class="cls-5" d="M521.84,315l-.74,9.55-16.85,5.52s-10.2-3.29-12.36-16.47l32.48-15.23,2.1,7.61Z" transform="translate(-161.65 -129.65)"/><path class="cls-8" d="M528.28,312c.91,3.18,2,5.51-2.28,5.54-8.08,0-9.7-10.63-5.2-13.07a3.8,3.8,0,0,1,1.56-.59A3.89,3.89,0,0,1,524,304a4,4,0,0,1,1.45.82,3.86,3.86,0,0,1,1,1.36Z" transform="translate(-161.65 -129.65)"/><path class="cls-10" d="M525.92,310.66a6.45,6.45,0,0,0-1.06-2.9,3.42,3.42,0,0,0-1.92-1.27,2.87,2.87,0,0,0-2.22.73.74.74,0,0,0-.16.41.75.75,0,0,0,.08.44c.17.27.45.25.72.09a1.88,1.88,0,0,1,.69-.45,1.91,1.91,0,0,1,.82-.09c.43,0,.74.38,1.21.91a4.88,4.88,0,0,1,.9,2.35l.22,1c0,.28.31.4.59.38a.5.5,0,0,0,.39-.59l-.22-1" transform="translate(-161.65 -129.65)"/><path class="cls-5" d="M543.59,281.05c0-6.45-4.68-11.67-10.45-11.67a9.29,9.29,0,0,0-2.35.3,12.69,12.69,0,0,0-21,.68,12.7,12.7,0,0,0-8.89-3.62c-6.84,0-12.38,5.27-12.38,11.78a11.24,11.24,0,0,0,1.32,5.26c-4.77,1.1-8.24,4.41-8.24,8.33,0,3.42,2.64,6.35,6.48,7.8a6.58,6.58,0,0,0-2.25,2.32,6.45,6.45,0,0,0-.84,3.12,6.63,6.63,0,0,0,5.27,6.34v.21a4.36,4.36,0,0,0,8.64.81,6.12,6.12,0,0,0,2,.37c3.19,0,5.91-2.6,7.05-6.28.41,0,.81,0,1.24,0,5.25,0,9.59-2.57,10.36-5.92a12.77,12.77,0,0,0,1.74.15c5.57,0,10.09-3.57,10.19-8a8.79,8.79,0,0,0,5.44,1.85,8.38,8.38,0,0,0,8.57-8.15,8,8,0,0,0-1.93-5.18C543.58,281.4,543.59,281.23,543.59,281.05Z" transform="translate(-161.65 -129.65)"/><path class="cls-15" d="M492,357.91l-22.89,4a17.85,17.85,0,0,0-11.93,8l-29.46,43.49,26.41,23.34,24.9-30,19.54-.9Z" transform="translate(-161.65 -129.65)"/><path class="cls-15" d="M467,362.51l31.42-5.83,2.48-5.15a3.13,3.13,0,0,1,1.14-1.28,3.22,3.22,0,0,1,1.66-.46l32.61.39a3,3,0,0,1,2.58,1.54l2.39,4.28,32.92,4.29A31,31,0,0,1,593,370.15l24.12,26.49-26.68,32.25-6.11-4.11v110H474.89l-6.95-97.28S458.45,364.09,467,362.51Z" transform="translate(-161.65 -129.65)"/><path class="cls-10" d="M579.85,412.29a4.92,4.92,0,0,0-2.46-.83,5,5,0,0,0-4.48,2.27,4.9,4.9,0,0,0-.78,2.49l-.49,11.91L568,534.78h16.31v-110l6.2,4,5-6Z" transform="translate(-161.65 -129.65)"/><path class="cls-8" d="M696.08,386.75,666,385.9l18-17.67,17.39-19.58,12.86-13.45a2.33,2.33,0,0,1,.65-.6,2.12,2.12,0,0,1,.85-.27,2,2,0,0,1,.88.08,2.09,2.09,0,0,1,.77.43,2.2,2.2,0,0,1,.54.71,2.14,2.14,0,0,1,.21.86,2.32,2.32,0,0,1-.16.87,2.36,2.36,0,0,1-.5.74c-2.37,2.72-6.1,7.16-10,11.58a3.57,3.57,0,0,1,1.77-.24,3.71,3.71,0,0,1,2.86,1.95,3.69,3.69,0,0,1,.42,1.73,3.62,3.62,0,0,1-.28,1.38A3.63,3.63,0,0,1,714,354a3.73,3.73,0,0,1,1.81.53,3.58,3.58,0,0,1,1.31,1.34,3.68,3.68,0,0,1,.48,1.83,3.83,3.83,0,0,1-.17,1.11,3.81,3.81,0,0,1,2.13-.32,3.71,3.71,0,0,1,1.95.91c2.19,2-.44,6.19-1.81,7.92C714.69,373.73,696.08,386.75,696.08,386.75Z" transform="translate(-161.65 -129.65)"/><path class="cls-9" d="M719.83,358.52c-.91,7.45-22.9,23-22.9,23l-53.24,59.33c-6.24,6.85-15.72,4.92-23.1-.68L583.82,415l.43,9.79c1.47,1,39.1,26,39.1,26,7.68,3.8,15.74,2.37,21.57-3.79l51.16-60.23S715,373.67,719.9,367.14c1.48-1.95,3.79-5.87,1.67-7.75a3.51,3.51,0,0,0-1.74-.87Z" transform="translate(-161.65 -129.65)"/><path class="cls-9" d="M467,362.51c-2.94.72-3.83,1.49-6.52,3.63.08,8.15-1.65,40.47-.47,52.72l-28.08,31.05a1.49,1.49,0,0,0-.4,1,1.51,1.51,0,0,0,.4,1l5,5.6,25.37-30.64,4-4.82S458.45,364.09,467,362.51Z" transform="translate(-161.65 -129.65)"/><path class="cls-29" d="M348.28,679.28a16.79,16.79,0,0,0-9.87-12.86l1.17-1.36h-8.06c-.63,0-1.18.09-1.81.09l-84.79,10.78a23.14,23.14,0,0,0-19.57,17.21L173.08,894h12.59l51.45-197.67a11.11,11.11,0,0,1,3.38-5.48,11,11,0,0,1,5.86-2.67l84.8-10.78a4.46,4.46,0,0,1,5,3.8l32.43,213h12.32Z" transform="translate(-161.65 -129.65)"/><path class="cls-22" d="M193.41,894.07H180.82l52.27-200.84A23.24,23.24,0,0,1,252.66,676l84.8-10.78a16.51,16.51,0,0,1,18.57,14l32.7,214.79H376.41L344,681.18a4.46,4.46,0,0,0-5-3.8l-84.8,10.78a10.86,10.86,0,0,0-9.24,8.15Z" transform="translate(-161.65 -129.65)"/><path class="cls-15" d="M484.31,754.29H282.15a8.07,8.07,0,0,1,0-16.13h202.2a8.07,8.07,0,0,1,8.06,8.07,8,8,0,0,1-.62,3.09,8.17,8.17,0,0,1-1.76,2.62,8.14,8.14,0,0,1-5.72,2.35Z" transform="translate(-161.65 -129.65)"/><path class="cls-4" d="M311.14,754.29H196.67a8.07,8.07,0,0,1,0-16.13H311.14a8.07,8.07,0,0,1,0,16.13Z" transform="translate(-161.65 -129.65)"/><path class="cls-15" d="M314.63,564.23a8.75,8.75,0,0,0-8.52-6.62H187.8a8.74,8.74,0,0,0-8.52,10.78l39,169.77H357.48Z" transform="translate(-161.65 -129.65)"/><path class="cls-4" d="M297.23,564.23a8.73,8.73,0,0,0-8.51-6.62H170.4a8.73,8.73,0,0,0-3.82.88,8.64,8.64,0,0,0-3.05,2.45,8.71,8.71,0,0,0-1.64,7.45l40.76,169.77H340.13Z" transform="translate(-161.65 -129.65)"/><path class="cls-10" d="M202.29,736.44l124.93.09-.45,1.54H202.65Z" transform="translate(-161.65 -129.65)"/><path class="cls-29" d="M461.39,679.28a16.77,16.77,0,0,0-9.88-12.86l1.18-1.36h-8.06c-.64,0-1.18.09-1.82.09L358,675.93a23.14,23.14,0,0,0-19.57,17.21L286.18,894h12.59l51.46-197.85a11,11,0,0,1,9.24-8.15l84.79-10.78a4.46,4.46,0,0,1,5,3.8l32.43,213H494Z" transform="translate(-161.65 -129.65)"/><path class="cls-22" d="M306.61,894.07H294l52.27-200.84A23.21,23.21,0,0,1,365.86,676l84.79-10.76a16.49,16.49,0,0,1,18.57,14l32.71,214.79H489.61l-32.44-213a4.48,4.48,0,0,0-5-3.81L367.4,688.08a10.89,10.89,0,0,0-9.24,8.16Z" transform="translate(-161.65 -129.65)"/></svg>