<svg id="Layer_1" data-name="Layer 1" xmlns="http://www.w3.org/2000/svg" viewBox="0 0 1280 1024"><defs><style>.cls-1{fill:#58119d;}.cls-2,.cls-3,.cls-4{fill:#fff;}.cls-17,.cls-2{opacity:0.5;}.cls-10,.cls-11,.cls-17,.cls-19,.cls-2,.cls-23,.cls-25,.cls-26,.cls-3,.cls-30{isolation:isolate;}.cls-3{opacity:0.7;}.cls-5{fill:#e6e6e6;}.cls-6{fill:#e1e1e1;}.cls-7{fill:#f0f0f0;}.cls-8{fill:#2f2e41;}.cls-9{fill:#906363;}.cls-10,.cls-13,.cls-19{opacity:0.3;}.cls-11,.cls-29{opacity:0.15;}.cls-12{fill:#21252b;}.cls-14{fill:#21242b;}.cls-15{fill:#fbfbfb;}.cls-16{fill:#61656d;}.cls-18{fill:#fcfcfc;}.cls-19{fill:none;stroke:#000;stroke-linecap:round;stroke-linejoin:round;stroke-width:0.75px;}.cls-20{fill:#84888f;}.cls-21{fill:#b0b4b9;}.cls-22{fill:#f59696;}.cls-23{opacity:0.08;}.cls-24,.cls-25{opacity:0.2;}.cls-26{opacity:0.4;}.cls-27{fill:#3f4249;}.cls-28{fill:#f39494;}.cls-30,.cls-31{opacity:0.6;}.cls-32{fill:#d7dadc;}.cls-33{fill:#afb3b8;}.cls-34{fill:#83878e;}</style></defs><path class="cls-1" d="M898,481.62H523.63a14.72,14.72,0,0,1-14.7-14.7V247.22a14.72,14.72,0,0,1,14.7-14.7H898a14.72,14.72,0,0,1,14.7,14.7v219.7A14.66,14.66,0,0,1,898,481.62Z"/><path class="cls-2" d="M898,481.62H523.63a14.72,14.72,0,0,1-14.7-14.7V247.22a14.72,14.72,0,0,1,14.7-14.7H898a14.72,14.72,0,0,1,14.7,14.7v219.7A14.66,14.66,0,0,1,898,481.62Z"/><path class="cls-1" d="M888.13,481.62H513.63a14.72,14.72,0,0,1-14.7-14.7V247.22a14.72,14.72,0,0,1,14.7-14.7h374.5a14.72,14.72,0,0,1,14.7,14.7v219.7A14.66,14.66,0,0,1,888.13,481.62Z"/><path class="cls-3" d="M888.13,481.62H513.63a14.72,14.72,0,0,1-14.7-14.7V247.22a14.72,14.72,0,0,1,14.7-14.7h374.5a14.72,14.72,0,0,1,14.7,14.7v219.7A14.66,14.66,0,0,1,888.13,481.62Z"/><path class="cls-4" d="M708.13,364.12h-2.5v117.6h2.5Z"/><path class="cls-5" d="M710.63,364.42h-2.5v117.2h2.5Z"/><path class="cls-4" d="M859.83,364.12h-2.5v117.6h2.5Z"/><path class="cls-5" d="M862.33,364.42h-2.5v117.2h2.5Z"/><path class="cls-5" d="M882.13,357.32H695v9.6h187.1v-9.6Z"/><path class="cls-4" d="M858.63,366.92h-82.4v16h82.4Z"/><path class="cls-6" d="M821.13,373.82a1.8,1.8,0,1,1-1.8-1.8A1.73,1.73,0,0,1,821.13,373.82Z"/><path class="cls-5" d="M627.93,267.32H531v214.4h96.9Z"/><path class="cls-4" d="M627.93,267.32h-92.3v214.4h92.3Z"/><path class="cls-5" d="M623,272.12h-82.6v204.6H623Z"/><path class="cls-4" d="M605.13,371.22H612a3.37,3.37,0,0,0,3.4-3.4,3.44,3.44,0,0,0-3.4-3.4h-6.9a3.37,3.37,0,0,0-3.4,3.4A3.31,3.31,0,0,0,605.13,371.22Z"/><path class="cls-7" d="M623,272.12h-1.3v204.6H623Z"/><path class="cls-8" d="M696.23,262.22a56.93,56.93,0,0,1,56.9,56.9v54.2a11.14,11.14,0,0,1-11.1,11.1h-81.7l-4.9-15.3-4.9,15.3a11.14,11.14,0,0,1-11.1-11.1v-54.2A56.85,56.85,0,0,1,696.23,262.22Z"/><path class="cls-9" d="M699.43,361.92l-2.2.1a29.27,29.27,0,0,1-30.6-28.1l-1.7-41.2a9.82,9.82,0,0,1,9.4-10.2l38.6-1.7a12.82,12.82,0,0,1,13.3,12.2l1.6,38.3A29.84,29.84,0,0,1,699.43,361.92Z"/><path class="cls-9" d="M675.13,326.12l-1.3,47.8a8.76,8.76,0,0,1-6.5,8.2l-5.4,1.5,12.5,7.6a46.88,46.88,0,0,0,41.2,3.9,39,39,0,0,0,7.1-3.5l11.9-7.1L730,384c-4.9-1.8-5.8-6.2-6.2-9.6l-6.2-56.8Z"/><path class="cls-10" d="M676.53,355.22c.5-.1.6.1.9.4a28.2,28.2,0,0,0,19.7,6.5A31.49,31.49,0,0,0,721,351l.9,8.3c-1.8,1.3-5.3,3.6-9,3.4a47.74,47.74,0,0,1-6-.7,30.49,30.49,0,0,1-10.6,1.8c-10.4,0-16.9-3.9-20.4-6.9a.93.93,0,0,1-.2-1.2C675.93,355.52,676.23,355.22,676.53,355.22Z"/><path class="cls-9" d="M666.33,334.82s-12.7.5-14.9-12,13.4-14.4,15.1-1.7l.9,13.8Z"/><path class="cls-11" d="M655.53,316.32a5.21,5.21,0,0,1,3.8-.9,4.41,4.41,0,0,1,2.9,2.5,9.28,9.28,0,0,1,1.2,5v1.3c0,1-1.7,1.2-1.7,0l-.1-1.5a8.54,8.54,0,0,0-1-4.1,3.41,3.41,0,0,0-2-1.8,3.92,3.92,0,0,0-2.6.6,1,1,0,0,1-1.2-.3C655,317,655.23,316.52,655.53,316.32Z"/><path class="cls-1" d="M663,332.72a2.5,2.5,0,1,0-2.5-2.5A2.48,2.48,0,0,0,663,332.72Z"/><path class="cls-11" d="M663.83,332.42a2.84,2.84,0,0,1-2.7-2.8,3.36,3.36,0,0,1,.5-1.4,3,3,0,0,0-1.2,2,2.48,2.48,0,0,0,2.4,2.6,2,2,0,0,0,1.5-.4C664.23,332.42,663.93,332.32,663.83,332.42Z"/><path class="cls-9" d="M726.93,334.82s12.7.5,14.9-12-13.4-14.4-15.1-1.7l-.9,13.8Z"/><path class="cls-11" d="M737.63,316.32a5.21,5.21,0,0,0-3.8-.9,4.41,4.41,0,0,0-2.9,2.5,9.28,9.28,0,0,0-1.2,5v1.3c0,1,1.7,1.2,1.7,0l.1-1.5a8.54,8.54,0,0,1,1-4.1,3.41,3.41,0,0,1,2-1.8,3.92,3.92,0,0,1,2.6.6,1,1,0,0,0,1.2-.3C738.23,317,738,316.52,737.63,316.32Z"/><path class="cls-1" d="M730.13,332.72a2.5,2.5,0,1,0-2.5-2.5A2.48,2.48,0,0,0,730.13,332.72Z"/><path class="cls-11" d="M729.33,332.42a2.84,2.84,0,0,0,2.7-2.8,3.36,3.36,0,0,0-.5-1.4,3,3,0,0,1,1.2,2,2.48,2.48,0,0,1-2.4,2.6,2,2,0,0,1-1.5-.4C729,332.42,729.23,332.32,729.33,332.42Z"/><path class="cls-8" d="M728.33,281.72l-25.4-9.9-14.4-.6c-11.1,1.7-24.2,7-26.7,18l1.3,15h17.4l4.9-11.3v11.4h8l4.7-18.5,3.1,18.5h28.3Z"/><path class="cls-12" d="M682.63,328.72a3.2,3.2,0,1,0-3.2-3.2A3.22,3.22,0,0,0,682.63,328.72Z"/><path class="cls-4" d="M683.93,325.52a.7.7,0,1,0-.7-.7A.84.84,0,0,0,683.93,325.52Z"/><path class="cls-12" d="M707.43,328.72a3.2,3.2,0,1,0-3.2-3.2A3.22,3.22,0,0,0,707.43,328.72Z"/><path class="cls-4" d="M708.73,325.42a.7.7,0,1,0-.7-.7A.84.84,0,0,0,708.73,325.42Z"/><path class="cls-4" d="M710.23,311a12.93,12.93,0,0,0-9.5,5.6,12.19,12.19,0,0,0-8,.1,12.64,12.64,0,0,0-11.9-6.1,12.84,12.84,0,1,0,13.8,11.8,11.33,11.33,0,0,0-1.1-4.1,11.07,11.07,0,0,1,6.4-.1,12.07,12.07,0,0,0-1.3,6.8,12.84,12.84,0,0,0,25.6-2A13.22,13.22,0,0,0,710.23,311Zm-27.3,23.5a11.08,11.08,0,1,1,10.2-11.9A11.22,11.22,0,0,1,682.93,334.52Zm29.3.5a11.08,11.08,0,1,1,10.2-11.9A11.08,11.08,0,0,1,712.23,335Z"/><g class="cls-13"><path class="cls-10" d="M696.63,339.62h-2.9a1,1,0,0,1,0-2h2.9a2.05,2.05,0,0,0,2.1-2.1,2.14,2.14,0,0,0-2.1-2.2,1,1,0,0,1,0-2,4.12,4.12,0,0,1,4.1,4.1A4,4,0,0,1,696.63,339.62Z"/></g><path class="cls-4" d="M687.93,343.22l17.2-.3a.65.65,0,0,1,.6.9,9.79,9.79,0,0,1-18.4.4v-.1A.73.73,0,0,1,687.93,343.22Z"/><path class="cls-14" d="M700.93,451.42l-39-66.4-25.8,5.3c-12,2.8-19.6,14.8-19,27.4l21.1,23.8a331,331,0,0,1,6.4,40.1h54.5Z"/><path class="cls-14" d="M773.83,394.92l-29.9-7.6-42.8,58.2-2,36.1h55.3C760.63,446.12,773.83,394.92,773.83,394.92Z"/><path class="cls-11" d="M701.13,447.72l3.8-8.2-.4,22.2h-4.3Z"/><path class="cls-14" d="M644.53,481.62h1.7l4.8-50.9,1.6-43.7-22.3,4.4a21.86,21.86,0,0,0-16.6,20.3l-2.3,52.9-.7,17h31.1l.9-18.3Z"/><path class="cls-14" d="M790.23,467.42l-2.3-52.9a22,22,0,0,0-16.6-20.3l-27.5-6.8,9.6,46.4,5.5,47.9h32Z"/><path class="cls-15" d="M652.63,387l19.7-7.3,28.9,18.6-15.8,25.1Z"/><path class="cls-15" d="M743.83,387.42l-19.6-8.3-23,19.2,17.8,25.1Z"/><path class="cls-15" d="M652.63,387l46.9,84.8,44.3-84.4L719,423.52l-17.8-25.2-15.8,25.1Z"/><path class="cls-11" d="M701.23,398.32l17.8,24.1,24.7-34.9L717.93,432Z"/><path class="cls-11" d="M701.23,398.32l-15.8,25.1L652.73,387l35.4,46.6Z"/><path class="cls-11" d="M703.83,463.72l-4.3,8.1-.5,9.8h3.8Z"/><path class="cls-16" d="M898,481.62H523.63a14.72,14.72,0,0,1-14.7-14.7V428h403.9v38.9A14.81,14.81,0,0,1,898,481.62Z"/><path class="cls-17" d="M898,481.62H523.63a14.72,14.72,0,0,1-14.7-14.7V428h403.9v38.9A14.81,14.81,0,0,1,898,481.62Z"/><path class="cls-16" d="M888.13,481.62H513.63a14.72,14.72,0,0,1-14.7-14.7V428h403.9v38.9A14.66,14.66,0,0,1,888.13,481.62Z"/><path class="cls-1" d="M724.73,467.52a14.2,14.2,0,1,0-14.2-14.2A14.25,14.25,0,0,0,724.73,467.52Z"/><path class="cls-2" d="M724.73,467.52a14.2,14.2,0,1,0-14.2-14.2A14.25,14.25,0,0,0,724.73,467.52Z"/><path class="cls-4" d="M719.13,460.62a.78.78,0,0,0,1.1,0l11.6-11.7a.91.91,0,0,0,0-1.2l-1.6-1.6a.91.91,0,0,0-1.2,0l-9.2,9.3-2.4,2.4a.78.78,0,0,0,0,1.1Z"/><path class="cls-4" d="M730.33,460.62a.78.78,0,0,1-1.1,0l-11.6-11.7a.91.91,0,0,1,0-1.2l1.6-1.6a.91.91,0,0,1,1.2,0l9.2,9.3,2.4,2.4a.78.78,0,0,1,0,1.1Z"/><path class="cls-1" d="M677,467.52a14.2,14.2,0,1,0-14.2-14.2A14.25,14.25,0,0,0,677,467.52Z"/><path class="cls-2" d="M677,467.52a14.2,14.2,0,1,0-14.2-14.2A14.25,14.25,0,0,0,677,467.52Z"/><path class="cls-18" d="M679.43,459h-8.9a1.37,1.37,0,0,1-1.4-1.4v-7.7a1.37,1.37,0,0,1,1.4-1.4h8.9a1.37,1.37,0,0,1,1.4,1.4v7.7A1.43,1.43,0,0,1,679.43,459Z"/><path class="cls-18" d="M680.83,451.92v3.2a.52.52,0,0,0,.2.4l3.8,2a.48.48,0,0,0,.7-.4v-6.7c0-.3-.3-.6-.6-.4l-3.8,1.5C680.93,451.52,680.83,451.72,680.83,451.92Z"/><path class="cls-19" d="M508.23,509.62s11.4-7.7,11.5-8.5"/><path class="cls-19" d="M508.23,513.22s5.3-3.6,8.7-6.1"/><path class="cls-1" d="M628.43,624.32l-4-55.7h5.7l1.1,15.1-1.4.1,2.1,40.5Z"/><path class="cls-1" d="M631.93,626.82l3.5-42.6-1.5-.1,1.2-13.1,5.8.9-5.4,55.5Z"/><path class="cls-1" d="M638.33,618l4.4-55.7,4.6.7-5.4,55.5Z"/><path class="cls-1" d="M650.43,634l-2.1-55.8H654l.3,13.9-1,.1.8,41.9Z"/><path class="cls-1" d="M650.23,621.92l10.2-54.9,5.7,1.5-2.7,13.2-1.2-.2-8.5,41.3Z"/><path class="cls-12" d="M412.23,447.92c1.2,3,2.3,6.1,3.5,9.3,3.6,10.4-6.5,12.2-6.5,12.2s3.5,7.1-1.4,13a10,10,0,0,1-11.5,3.1s-2.2,3.2-8.4,3.9c-8.9.9-12.4-2.5-12.4-2.5l-9.4-1.3c-1.2.7-2,5.4-11.8,6.9-9,1.4-13.8-3.8-13.8-3.8-2.2,4.8-13.4,4.4-15-3-1.5-6.9,1.6-9.9,2-10.2-5.6,4.3-15.8-6.4-5.9-17.4,4-4.5,6.2-6.6,7.7-8.8-4.6,1.3-9.7-3.9-7.8-8.8,2.4-6.2,7.5-4,11.9-12.9,5.9-11.9,10.6-16.1,10.9-16.3,7.9-8.1,20-12.2,33.3-11.9,11.4.2,18.1,4.6,22.2,9.2a23.65,23.65,0,0,1,5.6,14.3l.3,3.3c1.7,3.8,5.3,10.5,9.2,12.4A4.88,4.88,0,0,1,412.23,447.92Z"/><path class="cls-20" d="M309.23,773.12h106.6a11,11,0,0,0,10.4-14.2l-50.9-175.5a10.89,10.89,0,0,0-10.4-7.9H258.33a11,11,0,0,0-10.4,14.2l50.9,175.5A10.8,10.8,0,0,0,309.23,773.12Z"/><path class="cls-21" d="M323.83,773.12h92.9a11,11,0,0,0,10.4-14.2l-50.9-175.5a10.89,10.89,0,0,0-10.4-7.9h-92.9a11,11,0,0,0-10.4,14.2l50.9,175.5A10.89,10.89,0,0,0,323.83,773.12Z"/><path class="cls-21" d="M341.73,773.12h112.9a9.5,9.5,0,0,0,0-19H341.73a9.5,9.5,0,1,0,0,19Z"/><path class="cls-20" d="M420.83,921.62h-97v9.6h97Z"/><path class="cls-20" d="M411.83,929.22a9.12,9.12,0,1,0,10.5-7.5A9.09,9.09,0,0,0,411.83,929.22Z"/><path class="cls-20" d="M378.33,767.42h-9.6v158.1h9.6Z"/><path class="cls-20" d="M314.73,929.22a9.12,9.12,0,1,0,10.5-7.5A9.2,9.2,0,0,0,314.73,929.22Z"/><path class="cls-20" d="M312.23,773.12h112.9a9.5,9.5,0,0,0,0-19H312.23a9.5,9.5,0,1,0,0,19Z"/><path class="cls-22" d="M444.73,908.52c112.5-189.1,92.6-211.8,73.3-220.9-.2-.1.3,0,0,0-22.2-1.6-63.2-17.8-63.2-17.8L399,744.22l72.1,14.6c-5.6,37.3-4.9,54.1-27.9,97.6C434.73,872.42,447.23,889.32,444.73,908.52Z"/><path class="cls-23" d="M498.93,809.82l11.6-23.5c-.8-41.3-1-65.9-3.4-86.6-1.7-14.4-14.3-14.5-23.1-12.9,5,1.2,8.9,5.3,10,14.8C496.73,725.12,498.23,759.52,498.93,809.82Z"/><path class="cls-22" d="M513.23,939l-13.8-9.5v-57.3a.1.1,0,0,0-.1-.1c-.3-85.7-1.7-138.4-5.4-170.5-3.5-30.4-35-5.3-43.7-9.4-5.3-2.5-8.8-12.3-19.3-12.9-18.6-.9-21.3-25.5-21.3-25.5l-12.9,76.1,48.9,1.7c-1.3,49.6,19,81.2,28.3,133.4-5.1,3.3-8.9,9.4-8.9,18.5,22.6,7.5,20.1,48.8,20.1,48.8Z"/><path class="cls-22" d="M430.93,679.42c10.5.5,14,10.4,19.3,12.9,1.8.8,4.5.5,7.8-.4-4.9-3-8.5-12-18.6-12.5-18.6-.9-21.3-25.5-21.3-25.5l-2.7,16.1C418.53,674.82,423.43,679,430.93,679.42Z"/><path class="cls-22" d="M467.73,868.82l-31.2,52.7,13.9,18.2-22.8-21.1s15.5-33.4,5.9-52.5C441.53,846.62,469.53,851.62,467.73,868.82Z"/><path class="cls-1" d="M448.43,939.62l-21.1-8.7a5.21,5.21,0,0,1-3-6c2.7-10.5,8.9-38.1,3.4-54.8,0,0,2-13.6,15.3-13.7,0,0,8.2,12.2-4.7,33l-3.7,26.8s11.9,10,16.5,20.5A2.07,2.07,0,0,1,448.43,939.62Z"/><path class="cls-1" d="M427.83,870.12l-23.7,51.1,2.2.9,27.2-49.7Z"/><g class="cls-24"><path class="cls-25" d="M466.33,692.22c3.9,1.8,12.2-2.1,20.5-4.3-6.3-3.4-15.5-.3-23.4,2.3A13.67,13.67,0,0,0,466.33,692.22Z"/><path class="cls-26" d="M499.43,893.82c-4.5-6.2-10.6-22.8-11.7-28.9-9.3-52.1-27.5-83.7-26.2-133.4l-48.9-1.7,9.1-53.4c-10.4-6.7-12.2-22.7-12.2-22.7l-12.9,76.1,48.9,1.7c-1.3,49.6,19,81.2,28.3,133.4-5.1,3.3-8.9,9.4-8.9,18.5,22.6,7.5,20.1,48.8,20.1,48.8l28.2,6.7-13.8-9.5Z"/></g><path class="cls-1" d="M512.33,939.82h-23.4a6.57,6.57,0,0,1-6.5-5.6c-1.7-11.5-6.6-37.9-17.6-50.7,0,0-3.3-13.4,8.9-18.5,0,0,12.3,8.1,8.3,32.3l6.8,26.2s16.6,5.2,24.5,14.1A1.27,1.27,0,0,1,512.33,939.82Z"/><path class="cls-1" d="M464.93,883.52l-2.3,56.3h2.3l6.1-56.3Z"/><path class="cls-27" d="M446.43,756.72l71.1-69.2L438.93,663l-9.7-13.4H315.33v70.2a36.87,36.87,0,0,0,36.9,36.9Z"/><path class="cls-25" d="M369.33,742.82a36.87,36.87,0,0,1-36.9-36.9v-56.3h-16.7v70.2a36.87,36.87,0,0,0,36.9,36.9h94.2l14.3-13.9Z"/><path class="cls-16" d="M176.33,654.62H169v285.2h7.3Z"/><path class="cls-16" d="M605.93,654.62h-7.3v285.2h7.3Z"/><path class="cls-16" d="M683.13,654.62h-77.2v285.2h77.2Z"/><path class="cls-17" d="M683.13,654.62h-77.2v285.2h77.2Z"/><path class="cls-16" d="M253.63,654.62h-77.2v285.2h77.2Z"/><path class="cls-17" d="M253.63,654.62h-77.2v285.2h77.2Z"/><path class="cls-16" d="M533.13,640.42H682a7.1,7.1,0,0,1,0,14.2H533.13"/><path class="cls-17" d="M533.13,640.42H682a7.1,7.1,0,0,1,0,14.2H533.13"/><path class="cls-16" d="M159.73,640.42h454.8a7.1,7.1,0,0,1,0,14.2H159.73a7.1,7.1,0,1,1,0-14.2Z"/><path class="cls-17" d="M176.33,654.62H169V657h7.3Z"/><path class="cls-12" d="M625.43,640.32h32.9a3.9,3.9,0,0,0,3.9-3.9v-37.9h-40.7v37.9A3.9,3.9,0,0,0,625.43,640.32Z"/><path class="cls-12" d="M390,474.92a10.11,10.11,0,1,0-13.2,5.5A10.08,10.08,0,0,0,390,474.92Z"/><path class="cls-28" d="M556.53,466.32l-38.7,48.8-40.6-13.7-12.2,32,40.7,11.6a26.81,26.81,0,0,0,30.4-12.1l33.6-57.4Z"/><path class="cls-28" d="M557.83,463s1-5.2,3.2-14c.7-2.9,4.6-1.8,4.9-.9.7,2,.5,4.7.5,7.1.1,5.9,18-6.5,23.1-10.2a1.25,1.25,0,0,1,2,1.1c-.2,2.9-3.1,9.7-17.6,25.1-1.6,1.7-3.4,3.5-5.4,5.5C539.63,505.72,557.83,463,557.83,463Z"/><path class="cls-1" d="M465,533.42l12.2-32s-27.6-9.3-42.7-14.5a52.48,52.48,0,0,0-19.7-2.6l-19,1.1-60.1,3.3a32.23,32.23,0,0,0-29.7,38l5.5,30.9,4,27.5v55.2h114.1s-2.2-19.9,1.1-54.5c1.9-20.3,12.3-22.8,10.2-41.5-.9-7.9-4.6-13.2-7.9-20.7l9.1,2.9Z"/><path class="cls-22" d="M357.33,445.52l.9,34.8a6.68,6.68,0,0,1-4.4,6.3l-3.9,1.4,9.4,5a34.15,34.15,0,0,0,30.2,1.2,36.33,36.33,0,0,0,5.1-2.8l9.5-6.4-4.5-1a6.41,6.41,0,0,1-4.9-5.2l-6.8-41.2Z"/><path class="cls-22" d="M383.53,472.42l-1.6.2a21.53,21.53,0,0,1-23.5-19.3l-2.9-30a7.11,7.11,0,0,1,6.5-7.8l28.1-2.8a9.39,9.39,0,0,1,10.2,8.4L403,449A21.8,21.8,0,0,1,383.53,472.42Z"/><path class="cls-12" d="M379.43,441.92a2.3,2.3,0,1,0-2.3-2.3A2.26,2.26,0,0,0,379.43,441.92Z"/><path class="cls-4" d="M380.43,439.62a.5.5,0,1,0-.5-.5A.47.47,0,0,0,380.43,439.62Z"/><path class="cls-12" d="M397.53,441a2.3,2.3,0,1,0-2.3-2.3A2.26,2.26,0,0,0,397.53,441Z"/><path class="cls-4" d="M398.43,438.52a.5.5,0,1,0-.5-.5C398,438.32,398.23,438.52,398.43,438.52Z"/><g class="cls-29"><path class="cls-11" d="M389.83,452.72l-3.1.5a.67.67,0,1,1-.3-1.3l3.1-.5a1.44,1.44,0,0,0,1.2-1.6,1.6,1.6,0,0,0-1.6-1.3.67.67,0,0,1-.3-1.3,2.74,2.74,0,0,1,3.1,2.3A2.41,2.41,0,0,1,389.83,452.72Z"/></g><path class="cls-22" d="M360,454.42s-10.1,2.2-13.6-7.5,8.7-13.4,11.8-3.5l3,10.9Z"/><path class="cls-11" d="M348.83,441.12a3.83,3.83,0,0,1,2.9-1.2,3.57,3.57,0,0,1,2.7,1.6,8.25,8.25,0,0,1,1.7,3.8l.2,1.1c.1.8-1.2,1.2-1.3.3l-.3-1.1a6.82,6.82,0,0,0-1.3-3.1,3.18,3.18,0,0,0-1.8-1.2c-.6-.1-1.2.3-2,.9a.91.91,0,0,1-1,0C348.53,441.72,348.53,441.32,348.83,441.12Z"/><path class="cls-1" d="M356.83,453.12a2,2,0,1,0-2.1-1.9A2,2,0,0,0,356.83,453.12Z"/><path class="cls-11" d="M357.73,452.92a2.18,2.18,0,0,1-2.5-1.9,4.3,4.3,0,0,1,.2-1.2,2.27,2.27,0,0,0-.7,1.8,2,2,0,0,0,2.3,1.7,1.43,1.43,0,0,0,1.1-.5C358,452.72,357.83,452.82,357.73,452.92Z"/><path class="cls-11" d="M393.13,469.12a23.89,23.89,0,0,1-10.9,3.6,22.6,22.6,0,0,1-2.6.1h-1.2c-.5-.1-1,0-1.6-.1-.2,0-.4-.1-.6-.1a22.05,22.05,0,0,1-7.7-2.3.65.65,0,0,0-.7,1.1,26.32,26.32,0,0,0,10,2.7,19.66,19.66,0,0,0,11.5,3.3,24.06,24.06,0,0,0,4.8-.8Z"/><path class="cls-4" d="M391.83,456.22a.44.44,0,0,1,.4.6,6.69,6.69,0,0,1-5.8,4.1,7,7,0,0,1-6.2-3.4c-.1-.3,0-.6.4-.6Z"/><path class="cls-22" d="M349.93,487.92c.9,16.6,32.3,28.5,32.3,28.5s22.8-14.9,21.9-31.5l-5.2-1.2Z"/><path class="cls-4" d="M397.73,431.82a9.72,9.72,0,0,0-6.8,4.4,9,9,0,0,0-5.8.4,9.33,9.33,0,0,0-9-4,9.38,9.38,0,1,0,10.5,8.1,10.4,10.4,0,0,0-.9-3,8.18,8.18,0,0,1,4.6-.3,9.28,9.28,0,0,0-.7,5,9.38,9.38,0,0,0,18.6-2.4A9.33,9.33,0,0,0,397.73,431.82Zm-19,18.2a8.12,8.12,0,1,1,7-9.1A8.33,8.33,0,0,1,378.73,450Zm21.4-.8a8.12,8.12,0,1,1,7-9.1A8.1,8.1,0,0,1,400.13,449.22Z"/><path class="cls-12" d="M361,504.62l37.7-4a44.34,44.34,0,0,1-7,8.1,80.5,80.5,0,0,1-9.5,7.7,97.2,97.2,0,0,1-11.7-5.6A66.38,66.38,0,0,1,361,504.62Z"/><path class="cls-22" d="M418.23,617.32l9.2,1.2,19.5-1.7a6.61,6.61,0,0,1,4.5,1.9l12.1,10.8a1.88,1.88,0,0,1,.2,2.6,1.79,1.79,0,0,1-2.6.3l-11.4-8.4,7.4,8.8a1.89,1.89,0,0,1-.8,3,1.68,1.68,0,0,1-1.9-.4l-9.9-9.7,7.5,7.4a1.67,1.67,0,0,1-.6,2.8,1.72,1.72,0,0,1-1.7-.2l-10.6-7.7,7.2,5.3a1.6,1.6,0,0,1,0,2.5,1.63,1.63,0,0,1-1.5.2l-9.6-4a3.29,3.29,0,0,0-2.9.1l-3.7,1.8a21.54,21.54,0,0,1-9.6,2.3h-6C404.43,636,418.23,617.32,418.23,617.32Z"/><path class="cls-11" d="M446.23,633.62c-.1,0-.1,0-.2-.1l-6.6-4.8a.36.36,0,0,1,.4-.6l6.6,4.8c.1.1.2.3.1.4S446.33,633.62,446.23,633.62Z"/><path class="cls-11" d="M451.93,633.42c-.1,0-.2,0-.2-.1l-7.1-7a.45.45,0,0,1,0-.5c.1-.2.3-.1.5,0l7.1,7a.45.45,0,0,1,0,.5A.49.49,0,0,1,451.93,633.42Z"/><path class="cls-11" d="M437.33,630.72c2.2,1.1,5.9,3,7.2,3.7,1.8,1,2.3-.3,2.3-.3a1.66,1.66,0,0,1-.6,1.6,1.63,1.63,0,0,1-1.5.2l-9.6-4a3.29,3.29,0,0,0-2.9.1l1.9-1.1A3.62,3.62,0,0,1,437.33,630.72Z"/><path class="cls-22" d="M418.23,617.32l-64.9-14.8-5.8-46.3-35.3,5.1,6.9,43.3a27.85,27.85,0,0,0,25,24L413,636Z"/><path class="cls-12" d="M402.33,636h77.4a1.22,1.22,0,0,1,1.2,1.2v2a1.22,1.22,0,0,1-1.2,1.2h-77.4a1.22,1.22,0,0,1-1.2-1.2v-2A1.22,1.22,0,0,1,402.33,636Z"/><path class="cls-30" d="M402.33,636h77.4a1.22,1.22,0,0,1,1.2,1.2v2a1.22,1.22,0,0,1-1.2,1.2h-77.4a1.22,1.22,0,0,1-1.2-1.2v-2A1.22,1.22,0,0,1,402.33,636Z"/><path class="cls-12" d="M454.43,636h134.9a1.22,1.22,0,0,1,1.2,1.2v2a1.22,1.22,0,0,1-1.2,1.2H454.43a1.22,1.22,0,0,1-1.2-1.2v-2C453.43,636.62,453.83,636,454.43,636Z"/><g class="cls-31"><path class="cls-30" d="M587.63,636.82H450.33a.4.4,0,1,1,0-.8h137.3a.43.43,0,0,1,.4.4C588,636.62,587.73,636.82,587.63,636.82Z"/></g><path class="cls-12" d="M454.13,636h20.3a3.22,3.22,0,0,0,3.2-2.7l17-89.5a3.22,3.22,0,0,0-3.2-3.8h-20.2a3.22,3.22,0,0,0-3.2,2.7l-17,89.5A3.15,3.15,0,0,0,454.13,636Z"/><path class="cls-30" d="M454.13,636h20.3a3.22,3.22,0,0,0,3.2-2.7l17-89.5a3.22,3.22,0,0,0-3.2-3.8h-20.2a3.22,3.22,0,0,0-3.2,2.7l-17,89.5A3.15,3.15,0,0,0,454.13,636Z"/><path class="cls-12" d="M457,636h130.5a3.22,3.22,0,0,0,3.2-2.7l17-89.5a3.22,3.22,0,0,0-3.2-3.8H474.13a3.22,3.22,0,0,0-3.2,2.7l-17,89.5A3.15,3.15,0,0,0,457,636Z"/><path class="cls-30" d="M531.63,585.52c-.8,1.8.1,3.4,1.9,3.4h.3c-2.1,2.3-5.3,4-8.2,3.9-3.8-.1-5.7-3.2-3.9-7.1s6.2-6.8,10-6.8c2.4.1,4.1,1.3,4.5,3.3A6,6,0,0,0,531.63,585.52Z"/><path class="cls-11" d="M343.63,525.62l17.9,70.1,56.7,21.6-64.9-14.8Z"/><path class="cls-11" d="M433.13,523.82c-4.6-12-7.9-39-7.9-39,.9,0,5.3,1,5.3,1,1.1,12.3,11,40.6,12.5,41.2Z"/><path class="cls-12" d="M367.43,415.22s-1.1,18.9-9.9,26.5c0,0-.8-5-7.6-4.3,0,0-.6-1.2-1.6-6.8s2.6-29.1,28.6-27.6c0,0,8.3-1.7,19.8,8.2s4.7,20.7,4.7,20.7S382.13,429.32,367.43,415.22Z"/><path class="cls-17" d="M260.53,633.42h14.7l2,6.9h-14.7Z"/><path class="cls-21" d="M390.43,327h88.5a10.76,10.76,0,0,1,10.8,10.8v25.9a10.76,10.76,0,0,1-10.8,10.8h-77.5a21.52,21.52,0,0,0-15.9,8.5l-3.3,4.2h-7.4l4.8-23.5v-25.9A10.69,10.69,0,0,1,390.43,327Z"/><path class="cls-32" d="M385.53,327H474a10.76,10.76,0,0,1,10.8,10.8v25.9a10.76,10.76,0,0,1-10.8,10.8h-76.3A22.17,22.17,0,0,0,383,380l-8.3,7.2v-49.4A10.88,10.88,0,0,1,385.53,327Z"/><path class="cls-20" d="M405,356.52a6,6,0,1,0-6-6A6,6,0,0,0,405,356.52Z"/><path class="cls-20" d="M429.83,356.52a6,6,0,1,0-6-6A6,6,0,0,0,429.83,356.52Z"/><path class="cls-20" d="M454.63,356.52a6,6,0,1,0-6-6A6,6,0,0,0,454.63,356.52Z"/><path class="cls-21" d="M1064.53,426H957.33a13.14,13.14,0,0,0-13.1,13.1v130.2a13.14,13.14,0,0,0,13.1,13.1h107.2a13.14,13.14,0,0,0,13.1-13.1V439.12A13.14,13.14,0,0,0,1064.53,426Z"/><path class="cls-4" d="M1057.93,426H950.73a13.14,13.14,0,0,0-13.1,13.1v130.2a13.14,13.14,0,0,0,13.1,13.1h107.2a13.14,13.14,0,0,0,13.1-13.1V439.12A13.14,13.14,0,0,0,1057.93,426Z"/><path class="cls-1" d="M963.83,445h79.4a10.61,10.61,0,0,1,10.6,10.6v95.6a10.61,10.61,0,0,1-10.6,10.6h-79.4a10.61,10.61,0,0,1-10.6-10.6v-95.6A10.61,10.61,0,0,1,963.83,445Z"/><path class="cls-3" d="M963.83,445h79.4a10.61,10.61,0,0,1,10.6,10.6v95.6a10.61,10.61,0,0,1-10.6,10.6h-79.4a10.61,10.61,0,0,1-10.6-10.6v-95.6A10.61,10.61,0,0,1,963.83,445Z"/><path class="cls-2" d="M1032.63,542.42h-58.2a3.6,3.6,0,0,1,0-7.2h58.2a3.6,3.6,0,0,1,0,7.2Z"/><path class="cls-1" d="M983.83,506a10.28,10.28,0,0,1-1.7-.1,10.23,10.23,0,0,1-4.4-18.4l33.5-24.2a14.2,14.2,0,0,1,10.4-2.5,14,14,0,0,1,9.1,5.6,14.2,14.2,0,0,1,2.5,10.4,14,14,0,0,1-5.6,9.1l-26.7,19.3a1.5,1.5,0,0,1-1.8-2.4l26.7-19.3a10.77,10.77,0,0,0,4.4-7.1,10.55,10.55,0,0,0-1.9-8.1,10.77,10.77,0,0,0-7.1-4.4,10.55,10.55,0,0,0-8.1,1.9L979.63,490a7.19,7.19,0,0,0-1.6,10.1,7.2,7.2,0,0,0,10.1,1.6l25.9-18.6a4.07,4.07,0,0,0,.9-5.5,4.21,4.21,0,0,0-2.5-1.6,3.75,3.75,0,0,0-2.9.7L991,490a1.5,1.5,0,0,1-1.8-2.4l18.5-13.3a6.88,6.88,0,0,1,8,11.2l-25.9,18.6A10.93,10.93,0,0,1,983.83,506Z"/><path class="cls-4" d="M1019,528.32h-31.1a3.6,3.6,0,1,1,0-7.2H1019a3.6,3.6,0,0,1,0,7.2Z"/><path class="cls-21" d="M871.23,97.52h129.6a11.65,11.65,0,0,1,11.7,11.7v82.5a11.65,11.65,0,0,1-11.7,11.7H883.23a23.77,23.77,0,0,0-17.3,9.2l-3.6,4.5h-8l5.2-25.5v-82.5A11.57,11.57,0,0,1,871.23,97.52Z"/><path class="cls-4" d="M864.93,97.52h129.6a11.65,11.65,0,0,1,11.7,11.7v82.5a11.65,11.65,0,0,1-11.7,11.7H878.13a24.24,24.24,0,0,0-15.9,5.9l-9,7.8v-108A11.69,11.69,0,0,1,864.93,97.52Z"/><path class="cls-1" d="M970.43,158.82h-92.7a5.34,5.34,0,0,1-5.3-5.3v-4.2a5.34,5.34,0,0,1,5.3-5.3h92.7a5.34,5.34,0,0,1,5.3,5.3v4.2A5.4,5.4,0,0,1,970.43,158.82Z"/><path class="cls-3" d="M970.43,158.82h-92.7a5.34,5.34,0,0,1-5.3-5.3v-4.2a5.34,5.34,0,0,1,5.3-5.3h92.7a5.34,5.34,0,0,1,5.3,5.3v4.2A5.4,5.4,0,0,1,970.43,158.82Z"/><path class="cls-1" d="M853.23,190.62a18.3,18.3,0,1,1,18.3-18.3A18.31,18.31,0,0,1,853.23,190.62Z"/><path class="cls-4" d="M849.43,180.72l-7-7a1,1,0,0,1,0-1.4l1.8-1.8a1,1,0,0,1,1.4,0l4.5,4.5,10.8-10.8a1,1,0,0,1,1.4,0l1.8,1.8a1,1,0,0,1,0,1.4l-13.3,13.3A1,1,0,0,1,849.43,180.72Z"/><path class="cls-1" d="M985.63,183.32h-92.7a5.34,5.34,0,0,1-5.3-5.3v-4.2a5.34,5.34,0,0,1,5.3-5.3h92.7a5.34,5.34,0,0,1,5.3,5.3V178A5.34,5.34,0,0,1,985.63,183.32Z"/><path class="cls-3" d="M985.63,183.32h-92.7a5.34,5.34,0,0,1-5.3-5.3v-4.2a5.34,5.34,0,0,1,5.3-5.3h92.7a5.34,5.34,0,0,1,5.3,5.3V178A5.34,5.34,0,0,1,985.63,183.32Z"/><path class="cls-1" d="M924.63,172.42h-28.9v2.1h28.9Z"/><path class="cls-1" d="M911.83,177.42h-16.1v2.1h16.1Z"/><path class="cls-1" d="M985.63,134h-92.7a5.34,5.34,0,0,1-5.3-5.3v-4.2a5.34,5.34,0,0,1,5.3-5.3h92.7a5.34,5.34,0,0,1,5.3,5.3v4.2A5.34,5.34,0,0,1,985.63,134Z"/><path class="cls-3" d="M985.63,134h-92.7a5.34,5.34,0,0,1-5.3-5.3v-4.2a5.34,5.34,0,0,1,5.3-5.3h92.7a5.34,5.34,0,0,1,5.3,5.3v4.2A5.34,5.34,0,0,1,985.63,134Z"/><path class="cls-1" d="M924.63,123.12h-28.9v2.1h28.9Z"/><path class="cls-1" d="M911.83,128.12h-16.1v2.1h16.1Z"/><path class="cls-21" d="M561.93,125.22v73.5a7.13,7.13,0,0,1-7.1,7.1h-114a7.13,7.13,0,0,1-7.1-7.1v-73.5a7,7,0,0,1,2.9-5.7,6.85,6.85,0,0,1,4.2-1.4h114a6.69,6.69,0,0,1,4.6,1.7A7.27,7.27,0,0,1,561.93,125.22Z"/><path class="cls-4" d="M555.93,125.22v73.5a7.13,7.13,0,0,1-7.1,7.1h-114a7.13,7.13,0,0,1-7.1-7.1v-73.5a7,7,0,0,1,2.9-5.7,6.85,6.85,0,0,1,4.2-1.4h114a6.69,6.69,0,0,1,4.6,1.7A6.94,6.94,0,0,1,555.93,125.22Z"/><path class="cls-1" d="M553.43,119.82l-57.5,39.4a7.25,7.25,0,0,1-8.1,0l-57.2-39.6a6.85,6.85,0,0,1,4.2-1.4h114A6.62,6.62,0,0,1,553.43,119.82Z"/><path class="cls-3" d="M553.43,119.82l-57.5,39.4a7.25,7.25,0,0,1-8.1,0l-57.2-39.6a6.85,6.85,0,0,1,4.2-1.4h114A6.62,6.62,0,0,1,553.43,119.82Z"/><path class="cls-1" d="M427.73,140.82a22.7,22.7,0,1,0-22.7-22.7A22.75,22.75,0,0,0,427.73,140.82Z"/><path class="cls-4" d="M430.73,107.92a3.38,3.38,0,0,0-4.9,0l-4.7,4.7a3.57,3.57,0,0,0,0,4.9,3.6,3.6,0,0,0,3.7.8V126a3.5,3.5,0,0,0,7,0v-15.5A4.71,4.71,0,0,0,430.73,107.92Z"/><path class="cls-1" d="M969,147.62h-89.9v2.1H969Z"/><path class="cls-1" d="M895.13,152.72H879v2.1h16.1Z"/><path d="M662.33,603.22h-40.7v3.4h40.7Z"/><path d="M662.33,608.52h-40.7v2.4h40.7Z"/><path class="cls-1" d="M645.73,562.82l-1.8,16.9,2.5.3,1.8-16.9Z"/><path class="cls-33" d="M941.33,705.82h58.8a3,3,0,0,0,0-6h-58.8Z"/><path class="cls-33" d="M992.53,702.92h-59.3v182.8h59.4V702.92Z"/><path class="cls-32" d="M935,702.92H753.43v182.8H935Z"/><path class="cls-33" d="M925.83,871.72H761.93V728.32l163.9.2v143.2Zm-162.6-1.3h161.2V729.82H763.23Z"/><path class="cls-32" d="M746.73,705.82h194.7a3,3,0,0,0,0-6H746.73a3,3,0,0,0-3,3A3.07,3.07,0,0,0,746.73,705.82Z"/><path class="cls-33" d="M925.83,799.12H761.93v1.3h163.9v-1.3Z"/><path class="cls-33" d="M836.83,751.42a4.6,4.6,0,1,0-4.6-4.6A4.65,4.65,0,0,0,836.83,751.42Z"/><path class="cls-11" d="M838.53,746.82a4.54,4.54,0,0,0-3.1-4.3,3.65,3.65,0,0,1,1.5-.3,4.59,4.59,0,0,1,4.6,4.6,4.53,4.53,0,0,1-4.6,4.6,4,4,0,0,1-1.5-.3A4.54,4.54,0,0,0,838.53,746.82Z"/><path class="cls-33" d="M836.83,821.92a4.6,4.6,0,1,0-4.6-4.6A4.59,4.59,0,0,0,836.83,821.92Z"/><path class="cls-11" d="M838.53,817.42a4.54,4.54,0,0,0-3.1-4.3,3.65,3.65,0,0,1,1.5-.3,4.6,4.6,0,1,1,0,9.2,4,4,0,0,1-1.5-.3A4.54,4.54,0,0,0,838.53,817.42Z"/><path class="cls-33" d="M944.43,711.92l-9.4-6.1H753.43v2.8Z"/><path class="cls-32" d="M980.93,885.72l4.6,50.6a3,3,0,0,1-2.9,3.6,3,3,0,0,1-2.8-2l-13.2-52.2Z"/><path class="cls-33" d="M979.23,915.12l-5.5-1.3-7.1-28.1H981l4.6,50.6a2.91,2.91,0,0,1-1.8,3.3Z"/><path class="cls-32" d="M929.23,885.72l4.6,50.6a3,3,0,0,1-5.7,1.6l-13.2-52.2Z"/><path class="cls-33" d="M924.43,891.32l-8.2-1.6-1.4-4h14.4l4.6,50.6a2.91,2.91,0,0,1-1.8,3.3Z"/><path class="cls-32" d="M815.43,885.72l-4.6,50.6a3,3,0,0,0,5.7,1.6l13.2-52.2Z"/><path class="cls-33" d="M818,912.62l-4.9-1.2,2.4-25.7h14.4l-13.2,52.2a3,3,0,0,1-2.8,2h-.2Z"/><path class="cls-32" d="M762.43,885.72l-4.6,50.6a3.09,3.09,0,0,0,2.9,3.6,3,3,0,0,0,2.8-2l13.2-52.2Z"/><path class="cls-33" d="M768,890.12l-6.3-1.1.7-3.2h14.4L763.63,938a3,3,0,0,1-2.8,2h-.2Z"/><path class="cls-32" d="M845.93,679.62h-48.7v20.1h48.7Z"/><path class="cls-33" d="M797.23,679.62h116.2v20.2h-67.5V683h-48.7Z"/><path class="cls-33" d="M797.23,679.62h116.2v20.2h-67.5V683h-48.7Z"/><path class="cls-33" d="M845.93,696.42h-48.7v3.3h48.7Z"/><path class="cls-33" d="M845.93,696.42h-48.7v3.3h48.7Z"/><path class="cls-32" d="M885.73,686.62h-28.5v7.2h28.5Z"/><path class="cls-32" d="M892.83,689.72a5.9,5.9,0,1,1,5.9,5.9A6,6,0,0,1,892.83,689.72Zm2.1,0a4,4,0,0,0,3.9,3.9,3.9,3.9,0,0,0,0-7.8A3.84,3.84,0,0,0,894.93,689.72Z"/><path class="cls-32" d="M854.33,662.82h-39.2v16.9h39.2Z"/><path class="cls-33" d="M815.13,662.82h93.6v16.8h-54.4v-14.2h-39.2Z"/><path class="cls-33" d="M855.13,676.32h-40v3.3h40Z"/><path class="cls-33" d="M815.13,662.82h93.6v16.8h-54.4v-14.2h-39.2Z"/><path class="cls-33" d="M854.33,676.32h-39.2v3.3h39.2Z"/><path class="cls-32" d="M886.43,668.42h-22.9v5.8h22.9Z"/><path class="cls-32" d="M892.13,670.92a4.8,4.8,0,0,1,9.6,0,4.74,4.74,0,0,1-4.8,4.8A4.94,4.94,0,0,1,892.13,670.92Zm1.7,0a3.12,3.12,0,0,0,3.1,3.1,3.15,3.15,0,1,0,0-6.3A3.08,3.08,0,0,0,893.83,670.92Z"/><path class="cls-11" d="M908.73,678.52h-93.6v1.1h93.6Z"/><path class="cls-21" d="M1125.63,277.12v63.8a5.16,5.16,0,0,1-5.2,5.2h-83a5.16,5.16,0,0,1-5.2-5.2v-53.5a5.16,5.16,0,0,1,5.2-5.2h30a8.15,8.15,0,0,0,5.4-2.6l4.8-5.2a8.26,8.26,0,0,1,5.9-2.6h36.8A5.33,5.33,0,0,1,1125.63,277.12Z"/><path class="cls-32" d="M1121.63,277.12v63.8a5.16,5.16,0,0,1-5.2,5.2h-83a5.16,5.16,0,0,1-5.2-5.2v-53.5a5.16,5.16,0,0,1,5.2-5.2h30.1a8.15,8.15,0,0,0,5.4-2.6l4.8-5.2a8.26,8.26,0,0,1,5.9-2.6h36.8A5.38,5.38,0,0,1,1121.63,277.12Z"/><path class="cls-16" d="M1125.63,277.12v5.2h-58.2a7.73,7.73,0,0,0,5.4-2.6l4.8-5.2a8.26,8.26,0,0,1,5.9-2.6h36.8A5.19,5.19,0,0,1,1125.63,277.12Z"/><path class="cls-20" d="M1121.63,277.12v5.2h-58.2a7.73,7.73,0,0,0,5.4-2.6l4.8-5.2a8.26,8.26,0,0,1,5.9-2.6h36.8A5.25,5.25,0,0,1,1121.63,277.12Z"/><path class="cls-1" d="M1100,805s-2.1-22,14.6-35.6,42.5-8.9,42.5-8.9S1148.53,806.42,1100,805Z"/><path class="cls-10" d="M1100,805s-2.1-22,14.6-35.6,42.5-8.9,42.5-8.9S1148.53,806.42,1100,805Z"/><path class="cls-1" d="M1100,805s18.5-34.3,57.2-44.5C1157.13,760.52,1100.93,750.42,1100,805Z"/><path class="cls-1" d="M1100.43,770.92s-9-2.8-12.5-18S1092,721,1092,721s13.4,10.8,14.5,27.8S1100.43,770.92,1100.43,770.92Z"/><path class="cls-1" d="M1067.23,835.22s-10,1.9-20.5-10.2-10.7-31.2-10.7-31.2,17.9,3.1,26.9,18.2S1067.23,835.22,1067.23,835.22Z"/><path class="cls-12" d="M1079.23,882l-2.9-161.5,2.9-11.2,2.7,172.7Z"/><path class="cls-12" d="M1072.33,882l-6.3-74.1-2.5,1.7,6.4,73.3Z"/><path class="cls-12" d="M1097.73,882.52l2.7-126.1,2.7,1.8-2.4,123Z"/><path class="cls-1" d="M1097.73,841.72a52.61,52.61,0,0,1-19.3-26.4c-6-18-5.4-29.3-5.4-29.3s21.6,9.7,27.5,25.6S1097.73,841.72,1097.73,841.72Z"/><path class="cls-1" d="M1077.13,727.82a34.84,34.84,0,0,1-.2-23.8c4.5-12.8,26.5-20.2,26.5-20.2S1094.93,713.82,1077.13,727.82Z"/><path class="cls-1" d="M1077.13,727.82s-.6-14.4,5.8-25.8,20.4-18.1,20.4-18.1S1064.33,693.52,1077.13,727.82Z"/><path class="cls-1" d="M1073,786s20.7,17.6,26.6,55.9C1099.63,841.82,1118.53,809.72,1073,786Z"/><path class="cls-10" d="M1100.43,770.92s-9-2.8-12.5-18S1092,721,1092,721s13.4,10.8,14.5,27.8S1100.43,770.92,1100.43,770.92Z"/><path class="cls-10" d="M1067.23,835.22s-10,1.9-20.5-10.2-10.7-31.2-10.7-31.2,17.9,3.1,26.9,18.2S1067.23,835.22,1067.23,835.22Z"/><path class="cls-10" d="M1097.73,841.72a52.61,52.61,0,0,1-19.3-26.4c-6-18-5.4-29.3-5.4-29.3s21.6,9.7,27.5,25.6S1097.73,841.72,1097.73,841.72Z"/><path class="cls-10" d="M1077.13,727.82a34.84,34.84,0,0,1-.2-23.8c4.5-12.8,26.5-20.2,26.5-20.2S1094.93,713.82,1077.13,727.82Z"/><path class="cls-1" d="M1069.73,872.42s-5.8-19.1,6.5-34,35.9-15.4,35.9-15.4S1112.83,865.12,1069.73,872.42Z"/><path class="cls-10" d="M1069.73,872.42s-5.8-19.1,6.5-34,35.9-15.4,35.9-15.4S1112.83,865.12,1069.73,872.42Z"/><path class="cls-1" d="M1069.73,872.42s3.4-25.2,42.5-49.4C1112.23,823,1060.23,823.62,1069.73,872.42Z"/><path class="cls-1" d="M1102.93,770.42a35.36,35.36,0,0,1-8.6-22.2c-.3-13.6,17.8-28.2,17.8-28.2S1114.63,751.12,1102.93,770.42Z"/><path class="cls-1" d="M1102.93,770.42s-11.4-29.5,9.2-50.4C1112.13,720,1076.33,743.52,1102.93,770.42Z"/><path class="cls-10" d="M1102.93,770.42s-4.8-8.3-5-21.8,14.2-28.5,14.2-28.5S1114.63,751.12,1102.93,770.42Z"/><path class="cls-1" d="M1080.83,783.22s-9.4-.8-16.2-14.8-3-32-3-32,15.4,7.5,20.2,24S1080.83,783.22,1080.83,783.22Z"/><path class="cls-10" d="M1080.83,783.22s-9.4-.8-16.2-14.8-3-32-3-32,15.4,7.5,20.2,24S1080.83,783.22,1080.83,783.22Z"/><path class="cls-1" d="M1065.23,824.72a35.22,35.22,0,0,1-11-21.1c-1.8-13.5,14.5-30,14.5-30S1074.63,804.22,1065.23,824.72Z"/><path class="cls-10" d="M1065.23,824.72a35.22,35.22,0,0,1-11-21.1c-1.8-13.5,14.5-30,14.5-30S1074.63,804.22,1065.23,824.72Z"/><path class="cls-1" d="M1065.23,824.72s-11.7-23.6,3.5-51.1C1068.73,773.62,1038.13,798.92,1065.23,824.72Z"/><path class="cls-34" d="M1044.43,880.92s1.6,43.5,14.3,59.6h55.6c12.7-16.2,14.3-59.6,14.3-59.6Z"/><path class="cls-16" d="M1059.53,881.22c3.8,3.4,8.4,6.9,13.3,8.4,5.5,1.7,11.2,0,16.7-.8,6.1-.9,12.3.8,18.3-1.1,3.7-1.1,9.4-2.7,10.6-6.8.2-.5-.7-.8-.8-.2-.8,2.8-3.8,3.9-6.3,4.9a34.41,34.41,0,0,1-7.1,2.2c-5.1.8-10.2-.4-15.4.4-5.4.8-10.9,2.4-16.2.6-4.9-1.6-8.6-5.2-13-7.8C1059.53,880.92,1059.43,881.12,1059.53,881.22Z"/><path class="cls-16" d="M1050.13,921.32c4.8.8,7.2,4.7,10.7,7.6a17.21,17.21,0,0,0,9.2,3.6c8.4.9,21.3-2.2,25,8.1.2.4.8.3.7-.2-2.8-8.9-13.7-8.4-21.1-8.4-5.7,0-10.8-.8-15-4.9-2.8-2.6-5.4-5.7-9.5-5.9Z"/><path class="cls-16" d="M1050.13,880.92c6,4.8,8.6,11.8,13,17.9a25.24,25.24,0,0,0,17.3,10.2c4,.6,8,.1,12.1.4,5.1.3,8.5,2.8,12.1,6.1,2.5,2.2,5.1,4.6,8.5,5.3,3.9.8,6.8-2,10.5-2.7.5-.1.3-.9-.2-.8a21.46,21.46,0,0,0-4.8,1.8,8.61,8.61,0,0,1-8.1-.1c-3.3-1.8-5.7-4.7-8.7-7-6.5-4.9-14.1-2.6-21.6-3.8-8.2-1.3-14.1-5.8-18.4-12.7-3.3-5.3-6.1-11.4-11.5-14.8C1050.13,880.72,1050,880.92,1050.13,880.92Z"/><path class="cls-16" d="M1046.73,903.92h79.6l1-7.3h-81.5Z"/></svg>