<svg width="346" height="335" viewBox="0 0 346 335" fill="none" xmlns="http://www.w3.org/2000/svg">
<g clip-path="url(#clip0)">
<path d="M171.694 334.331C170.902 334.331 170.15 334.331 169.358 334.331L169.398 331.97C170.981 332.009 172.565 332.009 174.148 331.97L174.188 334.331C173.356 334.331 172.525 334.331 171.694 334.331ZM164.568 334.174C162.984 334.095 161.361 334.016 159.778 333.898L159.976 331.537C161.559 331.655 163.143 331.734 164.687 331.813L164.568 334.174ZM178.978 334.174L178.859 331.813C180.443 331.734 182.026 331.655 183.57 331.537L183.768 333.898C182.184 333.977 180.601 334.095 178.978 334.174ZM154.987 333.465C153.404 333.308 151.781 333.111 150.197 332.875L150.514 330.553C152.058 330.75 153.641 330.947 155.225 331.144L154.987 333.465ZM188.558 333.426L188.321 331.065C189.904 330.907 191.488 330.711 193.032 330.475L193.348 332.796C191.765 333.072 190.181 333.269 188.558 333.426ZM145.447 332.127C143.863 331.852 142.28 331.576 140.736 331.262L141.211 328.94C142.755 329.255 144.299 329.53 145.882 329.806L145.447 332.127ZM198.099 332.088L197.703 329.766C199.247 329.491 200.83 329.215 202.374 328.901L202.849 331.222C201.266 331.537 199.682 331.852 198.099 332.088ZM136.025 330.238C134.481 329.884 132.897 329.491 131.353 329.058L131.987 326.776C133.491 327.169 135.035 327.563 136.579 327.917L136.025 330.238ZM207.521 330.199L206.967 327.917C208.511 327.563 210.055 327.169 211.559 326.776L212.192 329.058C210.648 329.412 209.065 329.845 207.521 330.199ZM126.722 327.72C125.178 327.248 123.634 326.776 122.129 326.264L122.882 324.021C124.386 324.533 125.89 325.005 127.395 325.477L126.722 327.72ZM216.824 327.681L216.151 325.438C217.655 324.965 219.16 324.493 220.664 323.982L221.416 326.225C219.872 326.736 218.328 327.248 216.824 327.681ZM117.616 324.651C116.112 324.1 114.608 323.509 113.143 322.919L114.053 320.715C115.518 321.306 116.983 321.896 118.487 322.447L117.616 324.651ZM225.929 324.611L225.098 322.408C226.563 321.857 228.067 321.266 229.492 320.676L230.403 322.88C228.898 323.47 227.394 324.06 225.929 324.611ZM108.669 321.03C107.205 320.401 105.74 319.692 104.315 319.023L105.344 316.898C106.769 317.567 108.194 318.236 109.659 318.905L108.669 321.03ZM234.797 320.991L233.807 318.827C235.233 318.197 236.697 317.528 238.083 316.859L239.112 318.984C237.727 319.692 236.262 320.361 234.797 320.991ZM99.9996 316.859C98.5744 316.111 97.1492 315.364 95.7636 314.577L96.9513 312.53C98.3369 313.317 99.7225 314.065 101.108 314.773L99.9996 316.859ZM243.427 316.859L242.319 314.773C243.704 314.065 245.09 313.278 246.476 312.53L247.624 314.577C246.278 315.324 244.852 316.111 243.427 316.859ZM251.78 312.137L250.553 310.13C251.899 309.343 253.245 308.477 254.552 307.651L255.858 309.618C254.512 310.484 253.166 311.35 251.78 312.137ZM91.6069 312.137C90.2213 311.31 88.8753 310.445 87.5293 309.579L88.8357 307.611C90.1421 308.477 91.4881 309.303 92.8341 310.13L91.6069 312.137ZM259.856 306.942L258.51 305.014C259.817 304.109 261.084 303.204 262.35 302.259L263.776 304.148C262.469 305.093 261.163 306.037 259.856 306.942ZM83.5309 306.903C82.2245 305.998 80.9181 305.053 79.6117 304.109L81.0369 302.22C82.3037 303.165 83.6101 304.07 84.8769 304.975L83.5309 306.903ZM267.576 301.276L266.111 299.426C267.339 298.442 268.566 297.459 269.793 296.435L271.337 298.246C270.07 299.269 268.803 300.292 267.576 301.276ZM75.8112 301.236C74.5444 300.253 73.3172 299.229 72.09 298.206L73.6339 296.396C74.8215 297.419 76.0884 298.403 77.3156 299.387L75.8112 301.236ZM274.9 295.098L273.316 293.327C274.504 292.304 275.652 291.202 276.8 290.139L278.423 291.831C277.275 292.973 276.087 294.035 274.9 295.098ZM68.4479 295.058C67.2602 293.996 66.0726 292.894 64.9245 291.792L66.5476 290.1C67.6957 291.162 68.8437 292.264 70.0314 293.287L68.4479 295.058ZM281.867 288.526L280.165 286.873C281.274 285.771 282.382 284.63 283.451 283.449L285.193 285.063C284.084 286.204 282.976 287.385 281.867 288.526ZM61.4804 288.447C60.3719 287.306 59.2238 286.165 58.155 284.984L59.8968 283.371C60.9657 284.512 62.0742 285.653 63.1826 286.794L61.4804 288.447ZM288.399 281.482L286.618 279.947C287.647 278.767 288.677 277.547 289.666 276.366L291.487 277.861C290.498 279.081 289.468 280.301 288.399 281.482ZM54.9879 281.443C53.9586 280.262 52.8897 279.003 51.9 277.783L53.7211 276.287C54.7108 277.507 55.7401 278.727 56.7694 279.868L54.9879 281.443ZM294.496 274.084L292.596 272.628C293.546 271.368 294.496 270.109 295.406 268.85L297.346 270.227C296.436 271.526 295.486 272.825 294.496 274.084ZM48.8913 274.044C47.9016 272.785 46.9515 271.487 46.041 270.227L47.9808 268.85C48.8913 270.109 49.8415 271.368 50.7916 272.628L48.8913 274.044ZM300.117 266.331L298.138 265.033C299.009 263.734 299.88 262.396 300.711 261.098L302.73 262.357C301.899 263.656 300.988 264.994 300.117 266.331ZM43.2698 266.292C42.3989 264.994 41.4884 263.616 40.657 262.278L42.676 261.019C43.5074 262.357 44.3783 263.656 45.2492 264.954L43.2698 266.292ZM305.224 258.225L303.166 257.045C303.958 255.707 304.749 254.329 305.501 252.952L307.6 254.093C306.847 255.431 306.056 256.848 305.224 258.225ZM38.163 258.186C37.3712 256.808 36.5794 255.431 35.7877 254.014L37.8858 252.873C38.638 254.251 39.4298 255.628 40.2215 256.966L38.163 258.186ZM33.5707 249.843C32.8582 248.427 32.1456 246.971 31.4726 245.554L33.6103 244.57C34.2833 245.987 34.9563 247.403 35.6689 248.781L33.5707 249.843ZM309.856 249.804L307.718 248.741C308.431 247.364 309.104 245.908 309.777 244.491L311.915 245.475C311.281 246.931 310.569 248.387 309.856 249.804ZM29.5328 241.186C28.8993 239.73 28.3055 238.234 27.7117 236.778L29.9286 235.913C30.4829 237.369 31.1163 238.825 31.7101 240.241L29.5328 241.186ZM313.934 241.107L311.756 240.163C312.39 238.707 312.984 237.251 313.577 235.795L315.794 236.66C315.161 238.156 314.567 239.651 313.934 241.107ZM26.0094 232.292C25.4552 230.797 24.9405 229.262 24.4655 227.767L26.722 227.059C27.1971 228.554 27.7117 230.049 28.2263 231.505L26.0094 232.292ZM317.457 232.214L315.201 231.427C315.715 229.971 316.23 228.436 316.705 226.941L318.961 227.649C318.486 229.184 317.972 230.679 317.457 232.214ZM23.0799 223.202C22.6444 221.667 22.209 220.133 21.8131 218.598L24.1092 218.008C24.5051 219.503 24.9009 221.038 25.3364 222.533L23.0799 223.202ZM320.387 223.084L318.09 222.415C318.526 220.92 318.922 219.385 319.318 217.89L321.614 218.48C321.258 220.015 320.822 221.549 320.387 223.084ZM20.7046 213.915C20.3483 212.38 20.0316 210.806 19.7545 209.232L22.0902 208.799C22.3673 210.334 22.684 211.869 23.0403 213.404L20.7046 213.915ZM322.762 213.797L320.426 213.286C320.782 211.751 321.099 210.216 321.376 208.681L323.712 209.114C323.435 210.688 323.079 212.262 322.762 213.797ZM18.9231 204.549C18.6856 202.975 18.4481 201.401 18.2501 199.827L20.6254 199.552C20.8234 201.087 21.0609 202.661 21.2984 204.195L18.9231 204.549ZM324.543 204.431L322.208 204.077C322.445 202.543 322.683 200.969 322.881 199.434L325.256 199.709C324.979 201.244 324.781 202.857 324.543 204.431ZM17.7355 195.066C17.5771 193.492 17.4584 191.878 17.3792 190.304L19.7545 190.147C19.8337 191.721 19.992 193.295 20.1108 194.83L17.7355 195.066ZM325.691 194.908L323.316 194.672C323.474 193.138 323.593 191.563 323.672 189.989L326.048 190.147C325.968 191.76 325.85 193.374 325.691 194.908ZM17.1417 185.503C17.1021 183.929 17.0625 182.316 17.0625 180.742H19.4378C19.4378 182.316 19.4774 183.89 19.517 185.464L17.1417 185.503ZM326.285 185.385L323.91 185.307C323.95 183.732 323.989 182.158 323.989 180.584V180.348H326.364V180.584C326.364 182.198 326.325 183.811 326.285 185.385ZM19.517 176.02L17.1417 175.941C17.1813 174.367 17.2604 172.753 17.3396 171.179L19.7149 171.337C19.6357 172.871 19.5566 174.446 19.517 176.02ZM323.91 175.665C323.87 174.091 323.791 172.517 323.672 170.943L326.048 170.786C326.166 172.36 326.206 173.973 326.285 175.547L323.91 175.665ZM20.0712 166.615L17.6959 166.418C17.8543 164.844 18.0126 163.23 18.2106 161.656L20.5858 161.932C20.3879 163.506 20.2295 165.08 20.0712 166.615ZM323.316 166.26C323.158 164.686 322.999 163.112 322.801 161.578L325.177 161.302C325.375 162.876 325.533 164.49 325.691 166.064L323.316 166.26ZM21.2193 157.288L18.8836 156.934C19.1211 155.36 19.3982 153.786 19.6753 152.212L22.011 152.645C21.7339 154.179 21.4568 155.754 21.2193 157.288ZM322.128 156.934C321.891 155.399 321.614 153.825 321.337 152.291L323.672 151.858C323.949 153.392 324.227 155.006 324.504 156.58L322.128 156.934ZM22.9611 148.041L20.6254 147.529C20.9817 145.994 21.338 144.42 21.7339 142.886L24.03 143.476C23.6737 144.971 23.3174 146.506 22.9611 148.041ZM320.387 147.686C320.03 146.152 319.674 144.617 319.278 143.122L321.574 142.531C321.97 144.066 322.326 145.64 322.683 147.175L320.387 147.686ZM25.2968 138.911L23.0007 138.281C23.4362 136.747 23.9112 135.212 24.3863 133.717L26.6428 134.425C26.1678 135.881 25.7323 137.416 25.2968 138.911ZM318.051 138.557C317.615 137.062 317.14 135.527 316.665 134.071L318.922 133.362C319.397 134.858 319.872 136.393 320.347 137.927L318.051 138.557ZM28.1868 129.939L25.9302 129.152C26.4845 127.657 27.0387 126.161 27.6325 124.666L29.8495 125.532C29.2556 126.948 28.7014 128.444 28.1868 129.939ZM315.121 129.585C314.607 128.129 314.013 126.633 313.459 125.177L315.676 124.312C316.269 125.768 316.824 127.302 317.378 128.798L315.121 129.585ZM31.6309 121.124L29.4536 120.18C30.087 118.724 30.76 117.228 31.433 115.812L33.5707 116.795C32.8977 118.251 32.2643 119.707 31.6309 121.124ZM311.677 120.849C311.044 119.432 310.41 117.976 309.737 116.559L311.875 115.576C312.548 116.992 313.221 118.488 313.855 119.944L311.677 120.849ZM35.6293 112.585L33.4916 111.522C34.2041 110.106 34.9563 108.689 35.7085 107.272L37.8067 108.414C37.0941 109.791 36.3419 111.168 35.6293 112.585ZM307.679 112.349C306.966 110.971 306.214 109.555 305.462 108.177L307.56 107.036C308.312 108.414 309.064 109.83 309.777 111.247L307.679 112.349ZM40.182 104.282L38.1234 103.101C38.9151 101.724 39.7861 100.346 40.6174 99.0085L42.6364 100.268C41.8051 101.606 40.9737 102.944 40.182 104.282ZM303.126 104.085C302.334 102.747 301.503 101.37 300.672 100.071L302.691 98.8118C303.522 100.15 304.393 101.527 305.185 102.904L303.126 104.085ZM45.2096 96.2933L43.2302 94.9947C44.1012 93.6961 45.0513 92.3581 45.9618 91.0595L47.9016 92.4368C46.9911 93.6961 46.0806 95.034 45.2096 96.2933ZM298.098 96.1359C297.228 94.8373 296.317 93.5387 295.406 92.2794L297.346 90.9021C298.257 92.2007 299.207 93.4993 300.078 94.8373L298.098 96.1359ZM50.752 88.6591L48.8517 87.2424C49.8415 85.9832 50.8312 84.7239 51.8209 83.504L53.6419 84.9994C52.6918 86.1799 51.7021 87.3998 50.752 88.6591ZM292.556 88.5017C291.606 87.2818 290.616 86.0225 289.627 84.8026L291.448 83.3073C292.437 84.5271 293.467 85.7864 294.417 87.0457L292.556 88.5017ZM56.7298 81.379L54.9483 79.8443C55.9776 78.6638 57.0861 77.4439 58.155 76.3027L59.8968 77.9161C58.828 79.0179 57.7591 80.1985 56.7298 81.379ZM286.578 81.2216C285.549 80.0411 284.48 78.8605 283.411 77.7193L285.153 76.1059C286.222 77.2865 287.331 78.467 288.36 79.6476L286.578 81.2216ZM63.1431 74.4531L61.4408 72.8004C62.5492 71.6592 63.6973 70.5573 64.8849 69.4555L66.508 71.1476C65.3996 72.2101 64.2515 73.3513 63.1431 74.4531ZM280.165 74.3351C279.057 73.2332 277.909 72.092 276.8 71.0296L278.423 69.3374C279.571 70.4393 280.719 71.5411 281.867 72.6823L280.165 74.3351ZM69.9918 67.9601L68.4083 66.1893C69.5959 65.1268 70.8231 64.0643 72.0504 63.0412L73.5943 64.8514C72.3671 65.8745 71.1794 66.8976 69.9918 67.9601ZM273.277 67.8421C272.089 66.7796 270.901 65.7564 269.714 64.7727L271.258 62.9625C272.485 63.9856 273.712 65.0481 274.9 66.1106L273.277 67.8421ZM77.2364 61.8606L75.7717 60.0111C77.0385 59.0273 78.3053 58.0435 79.5721 57.0991L80.9973 58.988C79.7305 59.9324 78.4637 60.9162 77.2364 61.8606ZM266.032 61.7819C264.805 60.7981 263.538 59.8537 262.271 58.9093L263.696 57.0204C264.963 57.9648 266.27 58.9486 267.536 59.9324L266.032 61.7819ZM84.8373 56.2727L83.4913 54.3445C84.7977 53.4394 86.1437 52.5343 87.4897 51.6686L88.7962 53.6362C87.4502 54.5019 86.1042 55.3676 84.8373 56.2727ZM258.431 56.1547C257.125 55.2496 255.818 54.3838 254.512 53.5181L255.818 51.5505C257.164 52.4163 258.51 53.3213 259.817 54.2264L258.431 56.1547ZM92.755 51.157L91.5277 49.1501C92.8737 48.3237 94.2989 47.5367 95.6845 46.7496L96.8721 48.7959C95.4865 49.5436 94.101 50.3306 92.755 51.157ZM250.474 51.0389C249.128 50.2126 247.742 49.4255 246.396 48.6779L247.544 46.6316C248.93 47.4186 250.355 48.2056 251.701 49.032L250.474 51.0389ZM100.989 46.5135L99.8808 44.4279C101.306 43.6802 102.731 42.9719 104.156 42.2635L105.186 44.3885C103.8 45.0969 102.375 45.8052 100.989 46.5135ZM242.2 46.3955C240.814 45.6871 239.389 44.9395 237.964 44.2705L238.993 42.1455C240.419 42.8538 241.883 43.5621 243.309 44.3098L242.2 46.3955ZM109.501 42.421L108.511 40.2566C109.976 39.627 111.441 38.958 112.905 38.3677L113.816 40.5321C112.351 41.1617 110.926 41.7913 109.501 42.421ZM233.689 42.3029C232.263 41.6733 230.799 41.0436 229.334 40.4534L230.244 38.2497C231.709 38.84 233.214 39.4696 234.678 40.1386L233.689 42.3029ZM118.21 38.84L117.379 36.6363C118.883 36.0853 120.387 35.5344 121.892 35.0229L122.644 37.2659C121.219 37.7381 119.714 38.289 118.21 38.84ZM224.86 38.7219C223.396 38.171 221.891 37.6594 220.387 37.1478L221.139 34.9048C222.644 35.4164 224.187 35.9673 225.692 36.5182L224.86 38.7219ZM127.197 35.8099L126.484 33.5668C128.028 33.0946 129.572 32.6618 131.116 32.2289L131.749 34.5113C130.245 34.9048 128.701 35.3377 127.197 35.8099ZM215.874 35.6918C214.37 35.259 212.826 34.7867 211.321 34.3932L211.955 32.1108C213.499 32.5044 215.043 32.9766 216.587 33.4094L215.874 35.6918ZM136.341 33.3307L135.787 31.0483C137.331 30.6942 138.915 30.34 140.498 30.0252L140.973 32.3469C139.429 32.6224 137.846 32.9766 136.341 33.3307ZM206.729 33.252C205.185 32.8979 203.641 32.5437 202.097 32.2289L202.572 29.9071C204.156 30.222 205.739 30.5761 207.283 30.9303L206.729 33.252ZM145.605 31.4419L145.209 29.1201C146.793 28.8447 148.376 28.6085 149.96 28.3724L150.276 30.6942C148.733 30.9303 147.149 31.2057 145.605 31.4419ZM197.465 31.4025C195.922 31.127 194.338 30.8909 192.794 30.6942L193.111 28.3724C194.694 28.6085 196.278 28.8447 197.861 29.1201L197.465 31.4025ZM154.987 30.1433L154.71 27.7822C156.294 27.6248 157.917 27.4673 159.501 27.3493L159.698 29.7104C158.115 29.8284 156.531 29.9858 154.987 30.1433ZM188.083 30.1039C186.539 29.9465 184.916 29.7891 183.372 29.671L183.57 27.3099C185.154 27.428 186.777 27.5854 188.36 27.7428L188.083 30.1039ZM164.409 29.3956L164.291 27.0345C165.874 26.9558 167.497 26.9164 169.081 26.8771L169.12 29.2382C167.576 29.2775 165.993 29.3169 164.409 29.3956ZM178.622 29.3956C177.038 29.3169 175.455 29.2775 173.871 29.2382L173.911 26.8771C175.494 26.9164 177.117 26.9558 178.701 27.0345L178.622 29.3956Z" fill="#B9C3FF"/>
<path d="M313.142 277.783C329.54 277.783 342.833 264.569 342.833 248.269C342.833 231.969 329.54 218.755 313.142 218.755C296.744 218.755 283.451 231.969 283.451 248.269C283.451 264.569 296.744 277.783 313.142 277.783Z" fill="white"/>
<path d="M328.66 261.452L316.586 249.45L317.101 248.82C318.724 246.498 319.674 243.704 319.674 240.674C319.674 232.804 313.221 226.39 305.303 226.39C297.386 226.39 290.933 232.804 290.933 240.674C290.933 248.545 297.386 254.959 305.303 254.959C308.866 254.959 312.113 253.66 314.646 251.535L326.681 263.498C326.958 263.774 327.314 263.931 327.71 263.931C328.067 263.931 328.463 263.774 328.74 263.498C329.215 262.908 329.215 262.003 328.66 261.452ZM294.021 240.674C294.021 234.496 299.088 229.459 305.303 229.459C311.519 229.459 316.586 234.496 316.586 240.674C316.586 246.852 311.519 251.889 305.303 251.889C299.049 251.85 294.021 246.852 294.021 240.674Z" fill="#FDE99D"/>
<path d="M327.631 264.679C327.037 264.679 326.483 264.443 326.048 264.01L314.527 252.558C311.875 254.605 308.629 255.707 305.264 255.707C296.911 255.707 290.102 248.938 290.102 240.635C290.102 232.332 296.911 225.563 305.264 225.563C313.617 225.563 320.426 232.332 320.426 240.635C320.426 243.704 319.476 246.695 317.734 249.214L317.655 249.332L329.254 260.862C329.69 261.294 329.927 261.845 329.927 262.436C329.927 263.026 329.69 263.577 329.254 264.01C328.819 264.443 328.225 264.679 327.631 264.679ZM314.646 250.433L327.196 262.908C327.433 263.144 327.869 263.144 328.106 262.908C328.225 262.79 328.304 262.632 328.304 262.436C328.304 262.278 328.225 262.121 328.106 261.963L315.517 249.489L316.467 248.308C318.051 246.026 318.882 243.389 318.882 240.635C318.882 233.197 312.786 227.137 305.303 227.137C297.821 227.137 291.725 233.197 291.725 240.635C291.725 248.072 297.821 254.132 305.303 254.132C308.51 254.132 311.677 252.991 314.132 250.906L314.646 250.433ZM305.264 252.637C298.613 252.637 293.19 247.246 293.19 240.635C293.19 234.024 298.613 228.633 305.264 228.633C311.915 228.633 317.338 234.024 317.338 240.635C317.338 247.285 311.915 252.637 305.264 252.637ZM305.264 230.246C299.484 230.246 294.773 234.929 294.773 240.674C294.773 246.42 299.484 251.102 305.264 251.102C311.044 251.102 315.755 246.42 315.755 240.674C315.755 234.929 311.044 230.246 305.264 230.246Z" fill="#3E3465"/>
<path d="M309.975 275.422C293.15 275.422 279.492 261.845 279.492 245.121C279.492 228.397 293.15 214.82 309.975 214.82C326.8 214.82 340.458 228.397 340.458 245.121C340.458 261.845 326.8 275.422 309.975 275.422ZM309.975 216.394C294.021 216.394 281.076 229.262 281.076 245.121C281.076 260.98 294.021 273.848 309.975 273.848C325.929 273.848 338.874 260.98 338.874 245.121C338.874 229.302 325.929 216.394 309.975 216.394Z" fill="#3E3465"/>
<path d="M33.6499 155.793C50.0478 155.793 63.3409 142.579 63.3409 126.279C63.3409 109.979 50.0478 96.7655 33.6499 96.7655C17.2519 96.7655 3.9588 109.979 3.9588 126.279C3.9588 142.579 17.2519 155.793 33.6499 155.793Z" fill="white"/>
<path d="M27.3949 135.173H27.8304C28.3846 135.842 29.216 136.235 30.1661 136.235H44.8929V117.11H35.0354H34.9958H35.0354L35.1938 116.166C35.5501 114.513 35.8668 112.821 36.2627 111.168C36.6585 109.515 37.0148 107.823 36.8565 106.131C36.7773 105.462 36.6981 104.518 36.1439 104.085C35.8272 103.809 35.4313 103.731 35.0354 103.691C34.6396 103.691 34.2041 103.731 33.8478 103.888C31.9871 104.793 32.1059 107.509 31.8684 109.122C31.5121 111.483 30.6412 113.608 29.2556 115.497C28.6617 116.284 27.9492 117.15 27.6325 118.055C27.5137 118.409 27.3949 118.999 27.2762 119.589H14.0142C14.0142 119.589 12.1139 122.541 10.6492 127.263C9.14482 132.064 8.90729 135.094 8.90729 135.094H27.3949V135.173Z" fill="#FEDAC6"/>
<path d="M40.4986 120.219V119.157C40.4986 118.055 41.4091 117.15 42.5176 117.15H49.4851C50.6727 117.15 51.6228 118.094 51.6228 119.275V119.944C51.6228 121.203 50.5936 122.226 49.3267 122.226H42.5572C41.4091 122.226 40.4986 121.321 40.4986 120.219ZM42.5968 127.184H50.0789C51.1082 127.184 51.9396 126.358 51.9396 125.335V124.154C51.9396 123.092 51.0686 122.226 49.9997 122.226H42.5968C41.4487 122.226 40.4986 123.17 40.4986 124.312V125.138C40.4986 126.24 41.4487 127.184 42.5968 127.184ZM42.5968 132.221H49.5643C50.6331 132.221 51.5041 131.356 51.5041 130.293V129.073C51.5041 128.011 50.6331 127.184 49.6039 127.184H42.6364C41.4883 127.184 40.5382 128.129 40.5382 129.27V130.136C40.4986 131.277 41.4487 132.221 42.5968 132.221ZM43.0718 136.235H48.6933C49.683 136.235 50.4748 135.448 50.4748 134.464V133.992C50.4748 133.008 49.683 132.221 48.6933 132.221H43.0322C42.0029 132.221 41.132 133.048 41.132 134.11V134.386C41.1716 135.409 42.0425 136.235 43.0718 136.235Z" fill="#FEDAC6"/>
<path d="M48.5746 136.865H43.1906C41.7258 136.865 40.5778 135.684 40.5778 134.268C40.5778 133.599 40.8549 132.93 41.2904 132.457C40.459 131.946 39.9048 131.001 39.9048 130.018V129.467C39.9048 128.601 40.3007 127.775 41.0133 127.224C40.3403 126.712 39.9048 125.886 39.9048 124.981V124.469C39.9048 123.603 40.3007 122.777 40.9737 122.265C40.3007 121.754 39.9048 120.927 39.9048 120.062V119.314C39.9048 117.779 41.1716 116.52 42.7155 116.52H49.3663C50.9499 116.52 52.2563 117.819 52.2563 119.393V119.747C52.2563 120.613 51.9 121.4 51.2666 121.99C52.0583 122.462 52.573 123.328 52.573 124.272V125.177C52.573 126.082 52.0979 126.909 51.3853 127.342C51.8604 127.814 52.1375 128.483 52.1375 129.191V130.136C52.1375 131.198 51.5437 132.103 50.5936 132.536C50.9499 132.969 51.1082 133.52 51.1082 134.071V134.307C51.1082 135.724 49.9602 136.865 48.5746 136.865ZM43.1906 132.851C42.3988 132.851 41.7654 133.481 41.7654 134.268C41.7654 135.055 42.3988 135.684 43.1906 135.684H48.5746C49.2872 135.684 49.881 135.094 49.881 134.386V134.15C49.881 133.441 49.2872 132.89 48.6142 132.89H43.1906V132.851ZM42.7551 127.775C41.8446 127.775 41.0924 128.522 41.0924 129.427V129.978C41.0924 130.883 41.8446 131.631 42.7551 131.631H49.4059C50.1977 131.631 50.8707 130.962 50.8707 130.175V129.231C50.8707 128.444 50.2373 127.775 49.4059 127.775H42.7551ZM42.7551 122.816C41.8446 122.816 41.132 123.525 41.132 124.43V124.941C41.132 125.846 41.8446 126.555 42.7551 126.555H49.9206C50.6728 126.555 51.3062 125.925 51.3062 125.177V124.272C51.3062 123.446 50.6332 122.816 49.8414 122.816H42.7551ZM42.676 117.74C41.805 117.74 41.0924 118.448 41.0924 119.314V120.062C41.0924 120.927 41.805 121.636 42.676 121.636H49.1288C50.1581 121.636 50.9895 120.809 50.9895 119.786V119.432C50.9895 118.488 50.2373 117.74 49.2872 117.74H42.676Z" fill="#3E3465"/>
<path d="M44.8533 136.471H30.1265C29.1764 136.471 28.3055 136.038 27.7117 135.409H9.02607C8.9073 135.409 8.82812 135.33 8.82812 135.212C8.82812 135.094 8.9073 135.015 9.02607 135.015H27.3554C27.0387 134.504 26.8407 133.913 26.8407 133.284V129.349C26.8407 129.231 26.9199 129.152 27.0387 129.152C27.1574 129.152 27.2366 129.231 27.2366 129.349V133.284C27.2366 134.818 28.5034 136.078 30.0473 136.078H44.7741C44.8929 136.078 44.9721 136.156 44.9721 136.274C45.0512 136.353 44.9721 136.471 44.8533 136.471ZM32.2643 128.168C32.1851 128.168 32.1059 128.129 32.0663 128.05C32.0268 127.932 32.0663 127.814 32.1851 127.775C32.7393 127.538 33.0956 127.342 33.2936 127.224L33.3728 127.184C36.9753 125.059 35.075 119.629 35.0354 119.589C34.9959 119.471 35.0355 119.353 35.1542 119.314C35.273 119.275 35.3917 119.314 35.4313 119.432C35.4709 119.471 37.4899 125.217 33.5707 127.538L33.4915 127.578C33.2936 127.696 32.8977 127.932 32.3435 128.168C32.3039 128.168 32.3039 128.168 32.2643 128.168ZM26.8011 122.816C26.6428 122.816 26.5636 122.698 26.6032 122.58C26.6032 122.501 26.7615 121.163 26.9991 119.865H14.1725C14.0538 119.865 13.9746 119.786 13.9746 119.668C13.9746 119.55 14.0538 119.471 14.1725 119.471H27.0782C27.197 118.92 27.2762 118.448 27.3949 118.094C27.6721 117.307 28.1867 116.599 28.7014 115.89C28.8201 115.733 28.9389 115.576 29.0181 115.457C30.3641 113.608 31.235 111.483 31.5913 109.161C31.6309 108.846 31.6705 108.532 31.7101 108.177C31.8684 106.564 32.0663 104.518 33.6895 103.77C34.0457 103.613 34.4812 103.534 34.9959 103.534C35.4709 103.573 35.9064 103.691 36.2231 103.967C36.8169 104.478 36.9357 105.423 37.0149 106.131C37.1732 107.941 36.8169 109.712 36.421 111.247C36.0252 112.86 35.3522 116.166 35.3522 116.166L35.2334 116.913H42.9531C43.0718 116.913 43.151 116.992 43.151 117.11C43.151 117.228 43.0718 117.307 42.9531 117.307H34.7583L34.7979 117.071L34.9959 116.087C34.9959 116.048 35.6689 112.782 36.0647 111.129C36.421 109.633 36.8169 107.863 36.6586 106.17C36.5794 105.502 36.5002 104.636 36.0252 104.242C35.7084 103.967 35.3126 103.927 35.0354 103.888C34.6 103.888 34.2437 103.927 33.927 104.085C32.5018 104.754 32.3435 106.643 32.1851 108.177C32.1455 108.532 32.1059 108.886 32.0663 109.161C31.7101 111.562 30.7995 113.726 29.4139 115.654C29.2952 115.812 29.1764 115.969 29.0576 116.087C28.543 116.756 28.0284 117.425 27.7908 118.173C27.3949 119.353 26.9991 122.541 26.9991 122.58C26.9991 122.738 26.9199 122.816 26.8011 122.816Z" fill="#3E3465"/>
<path d="M44.8533 136.865H30.1265C29.1368 136.865 28.2263 136.471 27.5533 135.802H9.02607C8.70937 135.802 8.43225 135.527 8.43225 135.212C8.43225 134.897 8.70937 134.622 9.02607 134.622H26.722C26.5636 134.189 26.4448 133.756 26.4448 133.284V129.349C26.4448 129.034 26.722 128.758 27.0387 128.758C27.3554 128.758 27.6325 129.034 27.6325 129.349V133.284C27.6325 134.622 28.7014 135.684 30.0474 135.684H44.7741C45.0908 135.684 45.368 135.96 45.368 136.274C45.4471 136.589 45.17 136.865 44.8533 136.865ZM32.2643 128.562C32.0268 128.562 31.7892 128.404 31.7101 128.168C31.5913 127.853 31.7496 127.499 32.0268 127.381C32.5414 127.184 32.8581 126.988 33.0561 126.83L33.1352 126.791C36.421 124.823 34.6792 119.707 34.6396 119.668C34.6 119.511 34.6 119.353 34.6792 119.196C34.7583 119.039 34.8771 118.92 35.0355 118.881C35.3522 118.763 35.7085 118.92 35.8272 119.235C35.8668 119.314 38.0046 125.335 33.8082 127.814L33.729 127.853C33.5311 127.971 33.0956 128.247 32.5018 128.483C32.4226 128.522 32.3435 128.562 32.2643 128.562ZM26.8011 123.21H26.722C26.5636 123.21 26.4053 123.131 26.3261 122.974C26.2073 122.856 26.1677 122.698 26.2073 122.541C26.2073 122.541 26.3261 121.439 26.524 120.298H14.1725C13.8558 120.298 13.5787 120.022 13.5787 119.707C13.5787 119.393 13.8558 119.117 14.1725 119.117H26.7615C26.8407 118.645 26.9595 118.291 27.0387 118.015C27.3158 117.15 27.87 116.402 28.4242 115.694C28.543 115.536 28.6618 115.418 28.7409 115.261C30.0474 113.451 30.9183 111.404 31.235 109.122C31.2746 108.846 31.3142 108.532 31.3538 108.177C31.5121 106.525 31.7496 104.282 33.5707 103.416C34.0062 103.219 34.5208 103.101 35.075 103.14C35.6293 103.18 36.1439 103.337 36.5398 103.652C37.292 104.242 37.3712 105.305 37.4503 106.092C37.6483 107.941 37.2524 109.791 36.8565 111.326C36.4606 112.86 35.8668 115.89 35.7876 116.245L35.748 116.52H42.9927C43.3094 116.52 43.5865 116.795 43.5865 117.11C43.5865 117.425 43.3094 117.701 42.9927 117.701H34.2833L34.402 116.992L34.6 116.008C34.6 115.969 35.273 112.664 35.6689 111.05C36.0252 109.594 36.3815 107.863 36.2231 106.249C36.1835 105.659 36.1043 104.872 35.748 104.596C35.5105 104.4 35.2334 104.36 34.9959 104.36C34.6396 104.36 34.3229 104.4 34.0853 104.518C32.8581 105.108 32.6998 106.879 32.5414 108.296C32.5018 108.65 32.4622 109.004 32.4226 109.319C32.0268 111.798 31.1162 114.041 29.6911 115.969C29.5723 116.126 29.4535 116.284 29.3348 116.441C28.8597 117.071 28.3451 117.74 28.1471 118.409C27.7512 119.55 27.395 122.738 27.395 122.738C27.395 122.974 27.1178 123.21 26.8011 123.21Z" fill="#3E3465"/>
<path d="M30.4828 153.432C13.6579 153.432 0 139.855 0 123.131C0 106.407 13.6579 92.8303 30.4828 92.8303C47.3078 92.8303 60.9657 106.407 60.9657 123.131C60.9657 139.855 47.3078 153.432 30.4828 153.432ZM30.4828 94.4044C14.5288 94.4044 1.58352 107.272 1.58352 123.131C1.58352 138.99 14.5288 151.858 30.4828 151.858C46.4368 151.858 59.3821 138.99 59.3821 123.131C59.3821 107.312 46.4368 94.4044 30.4828 94.4044Z" fill="#3E3465"/>
<path d="M172.05 62.9626C188.448 62.9626 201.741 49.7488 201.741 33.4489C201.741 17.1489 188.448 3.93518 172.05 3.93518C155.652 3.93518 142.359 17.1489 142.359 33.4489C142.359 49.7488 155.652 62.9626 172.05 62.9626Z" fill="white"/>
<path d="M189.35 17.5508H149.089V43.0506H189.35V17.5508Z" fill="#FF9490"/>
<path d="M189.35 43.8377H149.089C148.653 43.8377 148.297 43.4835 148.297 43.0507V17.5508C148.297 17.118 148.653 16.7638 149.089 16.7638H189.35C189.785 16.7638 190.142 17.118 190.142 17.5508V43.0507C190.142 43.4835 189.785 43.8377 189.35 43.8377ZM149.881 42.2636H188.558V18.3379H149.881V42.2636Z" fill="#3E3465"/>
<path d="M149.603 39.5877C149.366 39.5877 149.128 39.4697 148.97 39.3122C148.693 38.9581 148.732 38.4859 149.089 38.2104L162.351 27.5461C162.707 27.2707 163.182 27.31 163.459 27.6642C163.736 28.0183 163.697 28.4906 163.341 28.766L150.118 39.4303C149.96 39.5484 149.801 39.5877 149.603 39.5877Z" fill="#3E3465"/>
<path d="M188.954 39.5877C188.796 39.5877 188.598 39.5484 188.439 39.4303L175.217 28.766C174.861 28.4906 174.821 27.979 175.098 27.6642C175.375 27.31 175.89 27.2707 176.207 27.5461L189.429 38.2104C189.785 38.4859 189.825 38.9974 189.548 39.3122C189.389 39.509 189.152 39.5877 188.954 39.5877Z" fill="#3E3465"/>
<path d="M169.239 33.6456C169.081 33.6456 168.883 33.6062 168.764 33.4882L149.722 18.81C149.366 18.5346 149.326 18.0624 149.564 17.7082C149.841 17.354 150.316 17.3147 150.672 17.5508L169.239 31.8748L187.687 17.6689C188.043 17.3934 188.518 17.4721 188.796 17.8263C189.073 18.1804 188.994 18.6526 188.637 18.9281L169.714 33.5275C169.556 33.6062 169.397 33.6456 169.239 33.6456Z" fill="#3E3465"/>
<path d="M168.883 60.6014C152.058 60.6014 138.4 47.0251 138.4 30.3007C138.4 13.5763 152.058 0 168.883 0C185.708 0 199.366 13.5763 199.366 30.3007C199.366 47.0251 185.668 60.6014 168.883 60.6014ZM168.883 1.57406C152.929 1.57406 139.984 14.442 139.984 30.3007C139.984 46.1594 152.929 59.0274 168.883 59.0274C184.837 59.0274 197.782 46.1594 197.782 30.3007C197.782 14.442 184.797 1.57406 168.883 1.57406Z" fill="#3E3465"/>
<path d="M316.309 155.793C332.707 155.793 346 142.579 346 126.279C346 109.979 332.707 96.7655 316.309 96.7655C299.911 96.7655 286.618 109.979 286.618 126.279C286.618 142.579 299.911 155.793 316.309 155.793Z" fill="white"/>
<path d="M332.54 117.228C332.303 117.228 332.105 117.149 331.946 116.953C331.55 116.52 331.115 116.048 330.64 115.654C330.363 115.418 330.284 115.024 330.442 114.71L331.313 112.939C331.511 112.545 331.986 112.388 332.382 112.585C332.778 112.781 332.936 113.254 332.738 113.647L332.105 114.867C332.461 115.221 332.817 115.575 333.134 115.93C333.411 116.244 333.371 116.756 333.055 117.031C332.896 117.149 332.738 117.228 332.54 117.228Z" fill="#3E3465"/>
<path d="M313.538 135.999H313.498C312.192 135.92 310.885 135.802 309.619 135.566C309.183 135.487 308.906 135.094 308.985 134.661C309.064 134.228 309.46 133.953 309.896 134.031C311.083 134.228 312.35 134.386 313.577 134.464C314.013 134.504 314.369 134.858 314.33 135.291C314.33 135.684 313.973 135.999 313.538 135.999ZM317.378 135.96C316.982 135.96 316.626 135.645 316.586 135.212C316.546 134.779 316.863 134.386 317.338 134.386C318.605 134.307 319.832 134.11 321.02 133.874C321.455 133.795 321.851 134.071 321.97 134.504C322.049 134.937 321.772 135.33 321.337 135.448C320.07 135.684 318.763 135.881 317.457 135.96C317.378 135.96 317.378 135.96 317.378 135.96ZM306.056 134.661C305.976 134.661 305.897 134.661 305.818 134.622C304.551 134.189 303.324 133.677 302.176 133.087C301.78 132.89 301.622 132.418 301.859 132.025C302.057 131.631 302.532 131.474 302.928 131.71C303.957 132.261 305.105 132.733 306.333 133.126C306.729 133.244 306.966 133.717 306.847 134.11C306.689 134.464 306.412 134.661 306.056 134.661ZM324.82 134.464C324.504 134.464 324.187 134.268 324.068 133.953C323.91 133.559 324.147 133.087 324.543 132.93C325.731 132.497 326.879 131.985 327.869 131.395C328.264 131.198 328.74 131.316 328.938 131.71C329.135 132.103 329.017 132.575 328.621 132.772C327.512 133.402 326.325 133.953 325.018 134.386C324.979 134.425 324.9 134.464 324.82 134.464ZM299.365 131.119C299.167 131.119 299.009 131.041 298.851 130.923C297.742 130.018 296.832 129.034 296.119 127.971C295.881 127.617 295.961 127.106 296.357 126.869C296.713 126.633 297.227 126.712 297.465 127.106C298.098 128.05 298.89 128.916 299.88 129.703C300.197 129.978 300.276 130.49 299.999 130.805C299.84 131.041 299.603 131.119 299.365 131.119ZM331.352 130.687C331.154 130.687 330.917 130.608 330.759 130.411C330.481 130.096 330.481 129.585 330.798 129.309C331.748 128.444 332.5 127.538 333.055 126.594C333.292 126.2 333.767 126.082 334.124 126.319C334.519 126.555 334.638 127.027 334.401 127.381C333.767 128.483 332.896 129.545 331.827 130.49C331.748 130.608 331.55 130.687 331.352 130.687ZM295.367 124.863C295.011 124.863 294.654 124.587 294.575 124.233C294.456 123.682 294.417 123.131 294.417 122.58C294.417 121.754 294.535 120.927 294.733 120.14C294.852 119.707 295.288 119.471 295.723 119.589C296.159 119.707 296.396 120.14 296.277 120.573C296.079 121.242 296 121.911 296 122.58C296 123.052 296.04 123.525 296.119 123.957C296.198 124.39 295.921 124.784 295.486 124.863C295.446 124.863 295.406 124.863 295.367 124.863ZM334.955 124.194C334.915 124.194 334.915 124.194 334.876 124.194C334.44 124.154 334.124 123.761 334.163 123.328C334.203 123.092 334.203 122.816 334.203 122.541C334.203 121.675 334.044 120.77 333.728 119.944C333.569 119.55 333.807 119.078 334.203 118.92C334.599 118.763 335.074 118.999 335.232 119.393C335.588 120.416 335.786 121.478 335.786 122.541C335.786 122.856 335.786 123.17 335.747 123.485C335.707 123.879 335.351 124.194 334.955 124.194ZM297.227 117.74C297.069 117.74 296.911 117.701 296.752 117.582C296.396 117.307 296.357 116.835 296.594 116.481C297.346 115.458 298.336 114.552 299.444 113.687C299.801 113.411 300.276 113.49 300.553 113.844C300.83 114.198 300.751 114.67 300.395 114.946C299.365 115.694 298.534 116.559 297.821 117.425C297.703 117.661 297.465 117.74 297.227 117.74ZM303.205 113.136C302.928 113.136 302.611 112.978 302.493 112.703C302.295 112.309 302.453 111.837 302.849 111.64C303.997 111.089 305.224 110.617 306.531 110.224C306.966 110.106 307.402 110.342 307.52 110.735C307.639 111.168 307.402 111.601 307.006 111.719C305.778 112.073 304.63 112.506 303.562 113.018C303.443 113.136 303.324 113.136 303.205 113.136ZM325.493 111.798C325.177 111.798 324.86 111.601 324.741 111.247C324.622 110.853 324.82 110.381 325.256 110.263L328.858 109.083C329.294 108.965 329.729 109.161 329.848 109.594C329.967 109.988 329.769 110.46 329.333 110.578L325.731 111.758C325.652 111.798 325.573 111.798 325.493 111.798ZM321.851 111.365C321.812 111.365 321.732 111.365 321.653 111.326C320.466 111.05 319.238 110.853 318.011 110.735C317.576 110.696 317.259 110.302 317.299 109.87C317.338 109.437 317.734 109.122 318.17 109.161C319.476 109.279 320.782 109.515 322.049 109.791C322.485 109.87 322.722 110.302 322.643 110.735C322.524 111.129 322.208 111.365 321.851 111.365ZM310.489 110.971C310.094 110.971 309.777 110.696 309.698 110.302C309.619 109.87 309.935 109.476 310.371 109.397C311.638 109.201 312.944 109.083 314.25 109.043C314.686 109.043 315.042 109.358 315.082 109.791C315.082 110.224 314.765 110.578 314.33 110.617C313.063 110.657 311.835 110.775 310.648 110.932C310.569 110.971 310.529 110.971 310.489 110.971Z" fill="#3E3465"/>
<path d="M333.767 110.538C333.648 110.538 333.53 110.499 333.411 110.46C333.015 110.263 332.857 109.791 333.055 109.397L333.094 109.319L333.015 109.358C332.58 109.476 332.144 109.279 332.025 108.846C331.907 108.453 332.105 107.981 332.54 107.863L334.401 107.233C334.717 107.115 335.034 107.233 335.232 107.469C335.43 107.705 335.47 108.059 335.351 108.335L334.48 110.106C334.361 110.381 334.084 110.538 333.767 110.538Z" fill="#3E3465"/>
<path d="M294.496 132.418C292.081 130.293 290.656 127.696 290.656 124.902C290.656 117.858 299.563 112.191 310.569 112.191C321.574 112.191 330.482 117.897 330.482 124.902C330.482 131.946 321.574 137.612 310.569 137.612C307.164 137.612 303.957 137.061 301.147 136.117L291.012 139.462L294.496 132.418Z" fill="#16F0CA"/>
<path d="M290.972 140.249C290.735 140.249 290.537 140.17 290.379 139.973C290.181 139.737 290.141 139.383 290.26 139.108L293.506 132.615C291.091 130.372 289.824 127.696 289.824 124.902C289.824 117.464 299.088 111.404 310.529 111.404C321.97 111.404 331.234 117.464 331.234 124.902C331.234 132.339 321.97 138.399 310.529 138.399C307.243 138.399 303.997 137.888 301.107 136.943L291.21 140.21C291.17 140.21 291.052 140.249 290.972 140.249ZM310.529 112.978C299.999 112.978 291.408 118.33 291.408 124.902C291.408 127.381 292.635 129.781 294.971 131.828C295.248 132.064 295.327 132.457 295.169 132.772L292.556 138.124L300.87 135.369C301.028 135.33 301.226 135.33 301.384 135.369C304.195 136.314 307.362 136.825 310.529 136.825C321.06 136.825 329.65 131.474 329.65 124.902C329.65 118.33 321.06 112.978 310.529 112.978Z" fill="#3E3465"/>
<path d="M315.321 122.305H301.703C301.267 122.305 300.911 121.95 300.911 121.518C300.911 121.085 301.267 120.73 301.703 120.73H315.321C315.756 120.73 316.113 121.085 316.113 121.518C316.113 121.95 315.756 122.305 315.321 122.305Z" fill="#3E3465"/>
<path d="M319.357 125.728H301.661C301.226 125.728 300.87 125.374 300.87 124.941C300.87 124.508 301.226 124.154 301.661 124.154H319.357C319.793 124.154 320.149 124.508 320.149 124.941C320.149 125.374 319.793 125.728 319.357 125.728Z" fill="#3E3465"/>
<path d="M317.694 129.191H301.701C301.265 129.191 300.909 128.837 300.909 128.404C300.909 127.971 301.265 127.617 301.701 127.617H317.694C318.13 127.617 318.486 127.971 318.486 128.404C318.486 128.876 318.13 129.191 317.694 129.191Z" fill="#3E3465"/>
<path d="M313.142 153.432C296.317 153.432 282.659 139.855 282.659 123.131C282.659 106.407 296.317 92.8303 313.142 92.8303C329.967 92.8303 343.625 106.407 343.625 123.131C343.625 139.855 329.967 153.432 313.142 153.432ZM313.142 94.4044C297.188 94.4044 284.243 107.272 284.243 123.131C284.243 138.99 297.188 151.858 313.142 151.858C329.096 151.858 342.041 138.99 342.041 123.131C342.041 107.312 329.096 94.4044 313.142 94.4044Z" fill="#3E3465"/>
<path d="M36.8169 277.783C53.2149 277.783 66.508 264.569 66.508 248.269C66.508 231.969 53.2149 218.755 36.8169 218.755C20.419 218.755 7.12585 231.969 7.12585 248.269C7.12585 264.569 20.419 277.783 36.8169 277.783Z" fill="white"/>
<path d="M13.9746 265.466C13.9746 265.466 14.8455 264.6 15.7957 264.049C15.8748 264.01 15.9936 263.931 16.0728 263.892C18.8439 262.475 22.2485 261.412 25.376 261.373C26.4449 261.373 27.5533 261.334 28.6222 261.294C28.8993 261.294 29.1764 261.255 29.4536 261.255C30.1266 261.216 30.76 261.216 31.433 261.176C33.254 261.137 35.0355 261.058 36.8565 261.255C37.8067 261.373 38.7172 261.491 39.6673 261.609C40.5382 261.727 41.5279 261.963 42.3989 261.963C46.0014 261.963 50.6728 263.656 53.4835 266.568C53.9586 267.079 44.695 273.848 34.2833 274.398C29.3348 274.635 21.2192 272.392 20.9817 271.605C20.9817 271.605 20.5462 270.621 20.3879 270.345L19.2002 270.621L13.9746 265.466Z" fill="#6579F4"/>
<path d="M20.9421 272.234C20.665 272.234 20.3879 272.077 20.2295 271.801L19.992 271.29L19.3982 271.408C19.1211 271.447 18.844 271.368 18.6856 271.211L13.4204 266.017C13.1037 265.702 13.1037 265.23 13.4204 264.915C13.46 264.875 14.3705 263.97 15.3998 263.38C15.3998 263.38 15.4394 263.38 15.4394 263.341C15.5186 263.301 15.6373 263.223 15.7561 263.183C15.7957 263.183 15.8353 263.144 15.8749 263.144C17.8147 262.199 21.4964 260.625 25.4156 260.586C26.6032 260.586 27.6721 260.547 28.6618 260.507L29.4932 260.468C30.1662 260.429 30.7996 260.429 31.4726 260.389H31.9476C33.6103 260.35 35.3126 260.311 37.0149 260.507L39.8257 260.862C40.1424 260.901 40.4591 260.94 40.7362 261.019C41.33 261.098 41.9238 261.216 42.4385 261.216C46.516 261.216 51.3458 263.223 54.117 266.056C54.4337 266.371 54.3941 266.882 54.117 267.158C53.8003 267.473 53.2856 267.433 53.0085 267.158C50.5144 264.6 46.1598 262.79 42.4781 262.79C41.8051 262.79 41.1321 262.672 40.4987 262.554C40.2215 262.514 39.9048 262.475 39.6277 262.436L36.817 262.081C35.2334 261.885 33.6103 261.924 31.9872 261.963H31.5122C30.8392 261.963 30.2057 262.003 29.5327 262.042L28.7014 262.081C27.7117 262.121 26.6428 262.16 25.4156 262.16C22.7632 262.199 19.4774 263.065 16.4687 264.6C16.4291 264.6 16.3895 264.639 16.3499 264.639C16.3103 264.679 16.2707 264.679 16.1916 264.718C16.1916 264.718 16.152 264.718 16.152 264.757C15.7957 264.954 15.3998 265.269 15.1227 265.505L19.4774 269.794L20.2691 269.637C20.6254 269.558 20.9817 269.716 21.1401 270.07L21.6547 271.132C21.8527 271.526 21.6943 271.998 21.2984 272.195C21.1797 272.195 21.0609 272.234 20.9421 272.234Z" fill="#3E3465"/>
<path d="M32.6602 274.438L33.3727 271.408L35.1938 271.526L35.4313 274.398L32.6602 274.438Z" fill="#FFF0A9"/>
<path d="M31.7497 275.028C31.6705 275.028 31.6309 275.028 31.5517 274.989C31.1162 274.871 30.8787 274.438 30.9579 274.044L31.8684 270.503C31.9476 270.149 32.3039 269.873 32.6998 269.912L34.5208 270.03C34.9167 270.07 35.2334 270.345 35.273 270.739L35.5897 274.162C35.6293 274.595 35.3126 274.989 34.8771 275.028C34.4417 275.067 34.0458 274.753 34.0062 274.32L33.7687 271.565L33.254 271.526L32.5018 274.438C32.4227 274.792 32.106 275.028 31.7497 275.028Z" fill="#3E3465"/>
<path d="M35.0751 270.424L33.8083 270.345C33.1353 270.306 32.6206 269.755 32.6602 269.047L32.779 267.197C32.8186 266.528 33.3728 266.017 34.0854 266.056L35.3522 266.135C36.0252 266.174 36.5399 266.725 36.5003 267.433L36.3815 269.283C36.3023 269.952 35.7481 270.463 35.0751 270.424Z" fill="#FFF0A9"/>
<path d="M34.4021 270.503C34.3625 270.503 34.3229 270.503 34.2833 270.503L33.0165 270.424C31.908 270.345 31.0371 269.401 31.1163 268.299L31.235 266.449C31.3142 265.348 32.2643 264.482 33.3728 264.561L34.6396 264.639C35.1938 264.679 35.6689 264.915 36.0252 265.308C36.3815 265.702 36.5794 266.213 36.5398 266.764L36.4211 268.614C36.3815 269.676 35.471 270.503 34.4021 270.503ZM34.4021 268.929C34.5208 268.929 34.6396 268.889 34.7188 268.811C34.798 268.732 34.8375 268.614 34.8771 268.496L34.9959 266.646C34.9959 266.528 34.9563 266.41 34.8771 266.331C34.798 266.253 34.6792 266.213 34.5604 266.174L33.2936 266.095C33.0561 266.095 32.8581 266.253 32.8581 266.489L32.7394 268.338C32.7394 268.456 32.779 268.574 32.8581 268.653C32.9373 268.732 33.0561 268.771 33.1749 268.811L34.4021 268.929Z" fill="#3E3465"/>
<path d="M20.2692 261.255L30.3641 264.915C31.2746 265.23 32.2248 264.797 32.5811 263.892L33.2145 262.2C33.5312 261.294 33.0957 260.35 32.1852 259.996L22.0902 256.336C21.1797 256.021 20.2296 256.454 19.8733 257.359L19.2399 259.051C18.9232 259.956 19.3982 260.94 20.2692 261.255Z" fill="#6579F4"/>
<path d="M30.9579 265.82C30.6808 265.82 30.3641 265.78 30.087 265.662L19.992 262.003C18.6856 261.53 18.0126 260.074 18.4877 258.815L19.1211 257.123C19.5961 255.824 21.0609 255.155 22.3277 255.628L32.4227 259.287C33.7291 259.76 34.4021 261.216 33.927 262.475L33.2936 264.167C33.0561 264.797 32.6206 265.308 31.9872 265.584C31.6705 265.741 31.3142 265.82 30.9579 265.82ZM20.5462 260.547L30.6412 264.206C30.8787 264.285 31.1163 264.285 31.3538 264.167C31.5913 264.049 31.7497 263.892 31.8289 263.655L32.4623 261.963C32.6206 261.491 32.3831 260.94 31.908 260.783L21.8131 257.123C21.338 256.966 20.7838 257.202 20.6254 257.674L19.992 259.366C19.8337 259.838 20.0712 260.35 20.5462 260.547Z" fill="#3E3465"/>
<path d="M48.8517 261.176L37.4504 265.308C36.5398 265.623 35.5897 265.19 35.2334 264.285L34.6 262.593C34.2833 261.688 34.7188 260.744 35.6293 260.389L47.0307 256.257C47.9412 255.943 48.8913 256.375 49.2476 257.281L49.881 258.973C50.1977 259.838 49.7622 260.822 48.8517 261.176Z" fill="#6579F4"/>
<path d="M36.8566 266.213C35.8273 266.213 34.8772 265.584 34.4813 264.561L33.8479 262.868C33.6103 262.239 33.6499 261.57 33.927 260.98C34.2042 260.389 34.7188 259.917 35.3522 259.681L46.7536 255.549C48.06 255.077 49.4852 255.746 49.9602 257.044L50.5936 258.737C50.8311 259.366 50.7916 260.035 50.5144 260.625C50.2373 261.216 49.7227 261.688 49.0893 261.924L37.6879 266.056C37.4504 266.135 37.1337 266.213 36.8566 266.213ZM47.6641 256.966C47.5453 256.966 47.4662 256.966 47.3474 257.005L35.946 261.137C35.7085 261.216 35.5106 261.373 35.4314 261.609C35.3126 261.845 35.3126 262.081 35.3918 262.318L36.0252 264.01C36.1836 264.482 36.7378 264.718 37.2128 264.561L48.6142 260.429C48.8517 260.35 49.0497 260.193 49.1289 259.956C49.2476 259.72 49.2476 259.484 49.1684 259.248L48.535 257.556C48.3767 257.202 48.0204 256.966 47.6641 256.966Z" fill="#3E3465"/>
<path d="M30.8391 257.871L39.3902 257.635C43.8636 257.517 47.4265 253.778 47.3078 249.332L47.0307 239.494C46.9119 235.047 43.151 231.505 38.6776 231.623L30.1266 231.859C25.6531 231.978 22.0902 235.716 22.2089 240.163L22.4861 250.001C22.6048 254.487 26.3657 257.989 30.8391 257.871Z" fill="white"/>
<path d="M30.6016 258.658C25.7718 258.658 21.813 254.841 21.6943 250.04L21.4171 240.202C21.2984 235.322 25.178 231.23 30.0869 231.072L38.638 230.836C41.0133 230.758 43.2698 231.623 45.0117 233.276C46.7535 234.89 47.7432 237.093 47.7828 239.494L48.0599 249.332C48.1391 251.693 47.2682 253.936 45.6055 255.667C43.9824 257.399 41.7654 258.382 39.3506 258.422L30.8787 258.658C30.7995 258.658 30.7204 258.658 30.6016 258.658ZM38.8755 232.45C38.7963 232.45 38.7567 232.45 38.6776 232.45L30.1265 232.686C26.0885 232.804 22.8819 236.149 23.0007 240.202L23.2778 250.04C23.3966 254.054 26.7615 257.241 30.8391 257.123L39.3902 256.887C41.3696 256.848 43.1906 256.021 44.5366 254.605C45.8826 253.188 46.5952 251.338 46.5556 249.371L46.2785 239.533C46.2389 237.565 45.4075 235.755 43.9824 234.417C42.5572 233.158 40.7757 232.45 38.8755 232.45Z" fill="#3E3465"/>
<path d="M34.6 254.054C34.5604 254.054 34.5604 254.054 34.5208 254.054C33.1352 254.014 31.8684 253.463 30.9183 252.48C29.9682 251.496 29.4536 250.197 29.4536 248.82C29.4536 248.387 29.8494 248.033 30.2453 248.033C30.6808 248.033 31.0371 248.387 31.0371 248.82C31.0371 249.764 31.3934 250.67 32.0268 251.338C32.6998 252.007 33.5707 252.401 34.5208 252.401C36.5002 252.44 38.1233 250.866 38.1629 248.899C38.1629 248.466 38.5192 248.151 38.9547 248.112C39.3902 248.112 39.7465 248.466 39.7465 248.899C39.7069 251.811 37.4108 254.054 34.6 254.054Z" fill="#3E3465"/>
<path d="M22.6048 229.734C20.6254 229.892 18.646 230.285 16.7457 230.915L14.8455 231.545C14.8455 231.545 17.6563 226.626 19.8732 225.17C23.5945 222.651 28.3847 222.533 32.6998 223.005C36.0647 223.359 39.3506 224.107 42.676 224.658C45.0117 225.052 48.0599 225.603 48.7329 228.318C49.208 230.285 48.8121 232.332 48.5746 234.299C48.2975 236.424 47.8224 238.51 47.4265 240.596C46.7931 236.7 44.022 233.512 40.3798 232.804C37.094 232.174 33.8082 233.748 31.7101 236.542L27.7908 234.457C25.5343 234.457 18.6064 236.306 18.6064 236.306L25.6531 229.734C24.7425 229.616 23.7133 229.656 22.6048 229.734Z" fill="white"/>
<path d="M23.9904 230.836C22.011 230.994 20.0316 231.387 18.1314 232.017L16.2311 232.646C16.2311 232.646 19.0419 227.727 21.2588 226.271C24.9801 223.753 29.7703 223.635 34.0854 224.107C37.4504 224.461 40.7362 225.209 44.0616 225.76C46.3973 226.153 49.4456 226.704 50.1185 229.42C50.5936 231.387 50.1977 233.434 49.9602 235.401C49.6831 237.526 49.208 239.612 48.8121 241.697C48.1787 237.802 45.4076 234.614 41.7655 233.906C38.4797 233.276 35.1938 234.85 33.0957 237.644L29.1764 235.558C26.9199 235.558 19.992 237.408 19.992 237.408L27.0387 230.836C26.0886 230.718 25.0593 230.758 23.9904 230.836Z" fill="#535151"/>
<path d="M47.2682 241.304C46.8723 241.304 46.5556 241.028 46.4764 240.635C45.8826 236.936 43.4282 234.181 40.2215 233.591C37.3316 233.04 34.3229 234.378 32.3435 237.054C32.0664 237.408 31.5913 237.487 31.235 237.211C30.8787 236.936 30.7996 236.464 31.0767 236.109C33.4124 232.961 37.0149 231.387 40.4986 232.056C44.3783 232.804 47.3474 236.07 48.0204 240.399C48.0996 240.832 47.7829 241.225 47.3474 241.304C47.3474 241.304 47.3078 241.304 47.2682 241.304Z" fill="#3E3465"/>
<path d="M47.5453 241.382C47.5057 241.382 47.4266 241.382 47.387 241.382C46.9515 241.304 46.6744 240.871 46.7536 240.477C47.1494 238.392 47.5057 236.306 47.7829 234.22C47.8224 233.984 47.862 233.748 47.862 233.512C48.0996 231.82 48.3371 230.089 47.9412 228.475C47.4662 226.429 45.2096 225.878 42.5176 225.445C41.4488 225.248 40.3403 225.052 39.2714 224.855C37.0941 224.461 34.8375 224.028 32.581 223.792C29.1369 223.438 24.0696 223.241 20.2691 225.839C19.1211 226.626 17.6563 228.554 16.627 230.167C18.5668 229.538 20.5462 229.144 22.4861 228.987C25.2968 228.751 27.9888 228.79 30.1266 231.663C30.7996 232.568 31.1559 233.473 31.4726 234.339C31.7101 234.968 31.9476 235.558 32.3039 236.188C32.5414 236.582 32.3831 237.054 32.0268 237.251C31.6309 237.447 31.1558 237.329 30.9579 236.975C30.5224 236.227 30.2849 235.558 30.0078 234.889C29.6911 234.102 29.414 233.355 28.8597 232.607C27.3554 230.561 25.6531 230.325 22.6048 230.561C20.7046 230.718 18.8044 231.112 16.9437 231.702L15.0435 232.332C14.7268 232.45 14.3705 232.332 14.1726 232.095C13.9746 231.859 13.935 231.505 14.0934 231.19C14.2121 230.994 17.0229 226.114 19.3586 224.54C23.5945 221.667 29.0181 221.864 32.7394 222.258C35.0355 222.494 37.3316 222.927 39.5485 223.32C40.6174 223.517 41.6863 223.714 42.7552 223.91C45.0909 224.304 48.6538 224.894 49.4456 228.16C49.881 230.049 49.6435 231.938 49.406 233.748C49.3664 233.984 49.3268 234.22 49.3268 234.417C49.0497 236.542 48.6934 238.667 48.2975 240.792C48.2579 241.107 47.9412 241.382 47.5453 241.382Z" fill="#3E3465"/>
<path d="M18.6064 237.132C18.3293 237.132 18.0522 236.975 17.9334 236.739C17.7751 236.424 17.8147 236.031 18.0918 235.795L24.1488 230.089C24.4655 229.774 24.9801 229.813 25.2572 230.128C25.5739 230.443 25.5344 230.954 25.2177 231.23L21.3776 234.811C23.5945 234.299 26.4053 233.67 27.7909 233.67C28.2263 233.67 28.5826 234.024 28.5826 234.457C28.5826 234.889 28.2263 235.244 27.7909 235.244C26.0094 235.244 20.7046 236.542 18.844 237.054C18.7252 237.093 18.6856 237.132 18.6064 237.132Z" fill="#3E3465"/>
<path d="M33.6499 275.422C16.8249 275.422 3.16705 261.845 3.16705 245.121C3.16705 228.397 16.8249 214.82 33.6499 214.82C50.4748 214.82 64.1327 228.397 64.1327 245.121C64.1327 261.845 50.4748 275.422 33.6499 275.422ZM33.6499 216.394C17.6959 216.394 4.75058 229.262 4.75058 245.121C4.75058 260.98 17.6959 273.848 33.6499 273.848C49.6039 273.848 62.5492 260.98 62.5492 245.121C62.5492 229.302 49.6039 216.394 33.6499 216.394Z" fill="#3E3465"/>
<path d="M94.0218 281.521C94.4177 282.111 94.774 282.702 95.0907 283.292C96.4367 285.771 97.3076 288.486 97.8618 291.241C98.7724 295.845 98.8515 300.607 98.8911 305.289C98.9307 312.097 99.0099 325.516 99.0495 332.363C99.0495 332.363 194.378 334.213 194.813 334.213L194.734 295.884C198.811 292.303 201.424 286.952 201.424 280.97C201.424 280.616 201.424 280.262 201.424 279.908C201.424 271.565 201.464 263.262 201.424 254.919C201.424 251.614 201.622 251.22 198.891 249.764C196.713 248.584 194.338 247.679 192.042 246.774C187.252 244.845 182.303 243.232 177.315 241.973C175.534 241.501 173.752 241.107 171.971 240.714C153.76 236.896 134.758 237.172 116.745 241.815C110.372 243.468 103.958 245.711 98.9703 250.158C98.4161 250.63 97.9014 251.142 97.4264 251.693C94.2593 255.156 92.5174 259.524 92.1216 264.128C92.0424 265.151 91.9632 266.213 92.0424 267.236C92.1216 268.142 91.7653 269.086 91.5673 269.952C91.1714 271.998 90.8943 274.123 91.211 276.209C91.4486 277.704 91.8049 278.609 92.755 279.75C93.1904 280.301 93.6259 280.892 94.0218 281.521Z" fill="#FFE6D9"/>
<path d="M194.813 335C194.378 335 194.021 334.646 194.021 334.213L193.942 295.884C193.942 295.648 194.021 295.452 194.219 295.294C198.297 291.713 200.633 286.479 200.633 280.97V279.908C200.633 277.114 200.633 274.359 200.633 271.565C200.633 266.095 200.633 260.468 200.633 254.919V254.29C200.633 251.653 200.633 251.614 198.495 250.473C196.634 249.489 194.576 248.663 192.596 247.876L191.725 247.521C186.975 245.632 182.066 244.019 177.078 242.72C175.336 242.248 173.515 241.855 171.773 241.461C153.562 237.644 134.6 237.998 116.904 242.563C111.124 244.058 104.552 246.183 99.485 250.748C98.9703 251.22 98.4557 251.732 97.9806 252.244C95.0511 255.431 93.2696 259.602 92.9133 264.206C92.8341 265.111 92.755 266.213 92.8341 267.197C92.8737 267.945 92.7154 268.692 92.5174 269.401C92.4383 269.637 92.3987 269.912 92.3591 270.148C92.0424 271.801 91.6861 273.966 92.0028 276.13C92.2007 277.507 92.557 278.255 93.3884 279.278C93.8634 279.868 94.3385 280.459 94.7344 281.128C95.1303 281.718 95.4866 282.347 95.8428 282.977C97.1097 285.378 98.0598 288.093 98.6932 291.123C99.6433 295.845 99.6829 300.646 99.7225 305.329C99.7621 308.752 99.8017 313.868 99.8017 318.944C99.8412 323.981 99.8412 329.018 99.8808 332.403C99.8808 332.836 99.5245 333.19 99.0891 333.19C98.6536 333.19 98.2973 332.836 98.2973 332.403C98.2577 329.018 98.2577 323.981 98.2181 318.944C98.1785 313.868 98.139 308.752 98.139 305.329C98.0994 300.725 98.0598 295.963 97.1492 291.438C96.5554 288.565 95.6845 285.968 94.4573 283.725C94.1406 283.134 93.7843 282.544 93.428 281.993C93.0321 281.403 92.5966 280.813 92.1612 280.301C91.1319 279.081 90.6964 278.058 90.4589 276.366C90.1026 274.005 90.4589 271.644 90.8152 269.873C90.8547 269.598 90.9339 269.322 91.0131 269.047C91.1714 268.417 91.3298 267.866 91.2902 267.355C91.211 266.253 91.2902 265.111 91.3694 264.128C91.7653 259.13 93.6655 254.683 96.8721 251.22C97.3868 250.669 97.9014 250.158 98.4952 249.646C103.84 244.845 110.649 242.642 116.587 241.107C134.52 236.503 153.76 236.109 172.169 240.005C173.95 240.399 175.771 240.792 177.553 241.264C182.58 242.563 187.568 244.176 192.359 246.105L193.23 246.459C195.249 247.246 197.347 248.072 199.287 249.135C202.137 250.669 202.256 251.338 202.256 254.369V254.998C202.295 260.547 202.256 266.213 202.256 271.644C202.256 274.398 202.256 277.192 202.256 279.947V281.01C202.256 286.873 199.841 292.421 195.565 296.278L195.644 334.252C195.605 334.646 195.249 335 194.813 335Z" fill="#3E3465"/>
<path d="M204.275 128.247C198.455 121.085 199.603 110.578 206.848 104.832L256.927 64.8119C264.092 59.0666 274.583 60.2078 280.363 67.3304L280.442 67.4485C286.222 74.6105 285.074 85.0386 277.908 90.784L227.83 130.805C220.625 136.589 210.094 135.448 204.275 128.247Z" fill="#FFE6D9"/>
<path d="M217.378 135.251C212.232 135.251 207.165 133.008 203.681 128.758C197.624 121.242 198.811 110.263 206.373 104.242L256.452 64.2217C260.094 61.3097 264.646 59.9718 269.278 60.4833C273.91 60.9949 278.067 63.2379 280.996 66.8583L281.076 66.9763C284.005 70.5967 285.351 75.1221 284.836 79.7656C284.322 84.3697 282.065 88.541 278.423 91.453L228.344 131.434C225.098 133.992 221.218 135.251 217.378 135.251ZM204.908 127.775C210.411 134.582 220.506 135.684 227.354 130.214L277.433 90.1938C280.759 87.5572 282.817 83.7795 283.292 79.5688C283.767 75.3582 282.54 71.2657 279.888 67.9601L279.809 67.8421C277.156 64.5365 273.356 62.4903 269.16 62.0574C264.963 61.5852 260.806 62.8051 257.481 65.4416L207.323 105.462C200.474 110.932 199.366 120.967 204.908 127.775Z" fill="#3E3465"/>
<path d="M216.943 284.079H123.515C115.162 284.079 108.432 277.35 108.432 269.086V84.0155C108.432 75.7124 115.201 69.0226 123.515 69.0226H216.943C225.296 69.0226 232.026 75.7517 232.026 84.0155V269.086C232.026 277.389 225.296 284.079 216.943 284.079Z" fill="white"/>
<path d="M216.705 68.7472H123.752C115.281 68.7472 108.392 75.5944 108.392 84.0156V268.732C108.392 277.153 115.281 284 123.752 284H216.705C225.177 284 232.065 277.153 232.065 268.732V83.9763C232.026 75.555 225.177 68.7472 216.705 68.7472ZM225.177 263.301H115.241V94.6799H225.177V263.301Z" fill="white"/>
<path d="M216.705 284.748H123.752C114.845 284.748 107.6 277.547 107.6 268.693V83.9762C107.6 75.1221 114.845 67.9208 123.752 67.9208H216.705C225.613 67.9208 232.857 75.1221 232.857 83.9762V268.693C232.818 277.547 225.613 284.748 216.705 284.748ZM123.752 69.5342C115.716 69.5342 109.184 76.0272 109.184 84.0156V268.732C109.184 276.72 115.716 283.213 123.752 283.213H216.705C224.742 283.213 231.274 276.72 231.274 268.732V83.9762C231.274 75.9878 224.742 69.4948 216.705 69.4948H123.752V69.5342ZM225.177 264.088H115.241C114.806 264.088 114.449 263.734 114.449 263.301V94.6799C114.449 94.247 114.806 93.8928 115.241 93.8928H225.177C225.613 93.8928 225.969 94.247 225.969 94.6799V263.301C225.969 263.734 225.613 264.088 225.177 264.088ZM116.033 262.514H224.385V95.4669H116.033V262.514Z" fill="#3E3465"/>
<path d="M180.68 84.7238H159.698C157.996 84.7238 156.65 83.3465 156.65 81.6938C156.65 80.0017 158.036 78.6637 159.698 78.6637H180.68C182.382 78.6637 183.728 80.041 183.728 81.6938C183.768 83.3859 182.382 84.7238 180.68 84.7238ZM159.698 80.1984C158.867 80.1984 158.234 80.8674 158.234 81.6544C158.234 82.4415 158.907 83.1104 159.698 83.1104H180.68C181.511 83.1104 182.145 82.4415 182.145 81.6544C182.145 80.8674 181.472 80.1984 180.68 80.1984H159.698Z" fill="#3E3465"/>
<path d="M178.503 279.436H162.43C159.382 279.436 156.888 276.956 156.888 273.926C156.888 270.896 159.382 268.417 162.43 268.417H178.503C181.551 268.417 184.045 270.896 184.045 273.926C184.045 276.956 181.551 279.436 178.503 279.436ZM162.43 270.031C160.253 270.031 158.471 271.801 158.471 273.966C158.471 276.13 160.253 277.901 162.43 277.901H178.503C180.68 277.901 182.462 276.13 182.462 273.966C182.462 271.801 180.68 270.031 178.503 270.031H162.43Z" fill="#3E3465"/>
<path d="M172.802 213.679C196.721 213.679 216.111 194.405 216.111 170.629C216.111 146.852 196.721 127.578 172.802 127.578C148.883 127.578 129.493 146.852 129.493 170.629C129.493 194.405 148.883 213.679 172.802 213.679Z" fill="#D5D4EA"/>
<path d="M169.912 211.633C145.605 211.633 125.811 191.957 125.811 167.795C125.811 143.633 145.605 123.957 169.912 123.957C194.219 123.957 214.013 143.633 214.013 167.795C214.013 191.957 194.219 211.633 169.912 211.633ZM169.912 125.492C146.476 125.492 127.394 144.46 127.394 167.756C127.394 191.052 146.476 210.019 169.912 210.019C193.348 210.019 212.43 191.052 212.43 167.756C212.43 144.46 193.348 125.492 169.912 125.492Z" fill="#3E3465"/>
<path d="M182.026 251.26C179.611 251.26 177.671 249.332 177.671 246.931C177.671 244.531 179.611 242.603 182.026 242.603C184.441 242.603 186.381 244.531 186.381 246.931C186.42 249.292 184.441 251.26 182.026 251.26ZM182.026 244.137C180.482 244.137 179.255 245.357 179.255 246.892C179.255 248.427 180.482 249.646 182.026 249.646C183.57 249.646 184.797 248.427 184.797 246.892C184.837 245.397 183.57 244.137 182.026 244.137Z" fill="#3E3465"/>
<path d="M173.141 249.511C174.574 247.869 174.396 245.384 172.745 243.96C171.094 242.536 168.593 242.712 167.161 244.353C165.728 245.995 165.905 248.48 167.557 249.904C169.208 251.328 171.708 251.152 173.141 249.511Z" fill="#3E3465"/>
<path d="M158.273 251.26C155.858 251.26 153.919 249.332 153.919 246.931C153.919 244.531 155.858 242.603 158.273 242.603C160.688 242.603 162.628 244.531 162.628 246.931C162.628 249.292 160.688 251.26 158.273 251.26ZM158.273 244.137C156.729 244.137 155.502 245.357 155.502 246.892C155.502 248.427 156.729 249.646 158.273 249.646C159.817 249.646 161.044 248.427 161.044 246.892C161.044 245.397 159.817 244.137 158.273 244.137Z" fill="#3E3465"/>
<path d="M164.37 180.112C164.053 180.112 163.697 179.994 163.459 179.719L151.86 168.189C151.345 167.677 151.345 166.89 151.86 166.378C152.375 165.867 153.166 165.867 153.681 166.378L164.37 177.003L185.945 155.557C186.46 155.045 187.252 155.045 187.766 155.557C188.281 156.068 188.281 156.855 187.766 157.367L165.28 179.719C165.003 179.994 164.687 180.112 164.37 180.112Z" fill="#3E3465"/>
<path d="M152.493 291.595C152.691 289.588 152.889 287.581 153.087 285.574C153.444 282.19 153.8 278.845 154.235 275.5C155.502 265.308 153.8 256.415 147.505 247.915C140.815 238.903 130.76 233.197 121.654 226.94C117.497 224.068 113.024 220.251 108.273 217.811V167.165C108.273 158.272 101.029 151.071 92.0819 151.071H91.9236C83.0163 151.071 75.7716 158.272 75.7716 167.126V226.94C75.4945 229.459 75.93 231.938 76.0883 234.417C76.2071 236.503 76.405 238.549 76.603 240.595C76.8009 242.799 77.078 244.963 77.3947 247.128C78.0282 251.378 78.8199 255.588 79.6513 259.799C81.1952 267.709 87.3314 273.966 92.5966 279.672C97.5451 285.023 98.614 295.294 98.8911 303.125L152.493 291.595Z" fill="#FFE6D9"/>
<path d="M98.8515 303.952C98.416 303.952 98.0597 303.597 98.0597 303.204C97.6639 291.753 95.6845 284.276 91.9632 280.262L91.1714 279.396C86.1041 273.926 80.3639 267.748 78.8595 260.035C78.0677 256.021 77.2364 251.693 76.603 247.325C76.2467 244.964 76.0092 242.799 75.8112 240.753L75.6925 239.494C75.5341 237.88 75.3757 236.228 75.2966 234.535C75.257 233.827 75.1778 233.119 75.1382 232.41C74.9799 230.64 74.7819 228.829 74.9799 226.98V167.165C74.9799 157.878 82.5808 150.323 91.9236 150.323H92.0819C101.425 150.323 109.065 157.878 109.065 167.205V217.339C112.272 218.992 115.281 221.274 118.171 223.438C119.516 224.461 120.823 225.406 122.09 226.311C123.713 227.413 125.376 228.554 126.999 229.616C134.639 234.693 142.557 239.966 148.099 247.482C154.156 255.628 156.333 264.6 154.987 275.618C154.592 278.688 154.235 281.993 153.879 285.692C153.681 287.699 153.483 289.706 153.285 291.713C153.246 292.146 152.85 292.461 152.414 292.422C151.979 292.382 151.662 291.989 151.702 291.556C151.9 289.549 152.098 287.542 152.295 285.535C152.691 281.836 153.048 278.53 153.444 275.422C154.75 264.797 152.652 256.218 146.872 248.426C141.448 241.146 133.689 235.952 126.167 230.954C124.544 229.853 122.842 228.751 121.219 227.61C119.912 226.704 118.606 225.76 117.26 224.737C114.251 222.494 111.163 220.211 107.957 218.559C107.68 218.441 107.521 218.165 107.521 217.85V167.165C107.521 158.744 100.633 151.858 92.1215 151.858H91.9632C83.4913 151.858 76.603 158.705 76.603 167.126V226.941C76.603 226.98 76.603 226.98 76.603 227.019C76.405 228.751 76.603 230.482 76.7613 232.174C76.8405 232.883 76.8801 233.63 76.9593 234.339C77.078 235.991 77.1968 237.644 77.3552 239.258L77.4739 240.517C77.6719 242.563 77.9094 244.688 78.2657 247.01C78.8991 251.378 79.7304 255.628 80.5222 259.642C81.9474 266.922 87.5293 272.943 92.4382 278.255L93.2696 279.121C98.5348 284.827 99.5245 295.53 99.762 303.086C99.6433 303.558 99.3266 303.912 98.8515 303.952Z" fill="#3E3465"/>
<path d="M201.899 172.832C196.159 166.063 197.03 155.95 203.879 150.244L235.866 123.524C242.635 117.858 252.73 118.724 258.431 125.453L258.589 125.649C264.251 132.379 263.38 142.374 256.65 148.001L224.623 174.76C217.814 180.466 207.64 179.6 201.899 172.832Z" fill="#FFE6D9"/>
<path d="M214.251 179.325C209.421 179.325 204.631 177.279 201.266 173.344C195.248 166.26 196.199 155.596 203.324 149.654L235.312 122.934C242.398 116.992 253.047 117.937 259.025 124.981L259.183 125.177C262.073 128.601 263.419 132.89 263.063 137.337C262.667 141.784 260.569 145.797 257.164 148.67L225.138 175.429C221.97 178.026 218.091 179.325 214.251 179.325ZM202.493 172.32C207.917 178.774 217.616 179.6 224.108 174.17L256.135 147.411C259.223 144.814 261.123 141.193 261.479 137.179C261.836 133.166 260.569 129.27 257.956 126.161L257.798 125.964C252.374 119.589 242.754 118.763 236.341 124.115L204.354 150.834C197.901 156.226 197.07 165.867 202.493 172.32Z" fill="#3E3465"/>
<path d="M215.241 242.012C210.609 236.503 211.321 228.318 216.824 223.714L243.071 201.795C248.574 197.191 256.768 197.899 261.361 203.369L261.479 203.487C266.111 208.957 265.399 217.102 259.896 221.707L233.689 243.586C228.146 248.23 219.912 247.521 215.241 242.012Z" fill="#FFE6D9"/>
<path d="M225.296 247.443C221.337 247.443 217.418 245.79 214.686 242.524C212.311 239.69 211.163 236.149 211.48 232.45C211.796 228.79 213.538 225.445 216.389 223.084L242.636 201.165C245.446 198.804 249.009 197.702 252.691 198.017C256.373 198.332 259.698 200.063 262.034 202.857L262.152 202.975C264.528 205.769 265.676 209.35 265.32 212.971C265.003 216.63 263.261 219.936 260.45 222.297L234.243 244.216C231.59 246.38 228.423 247.443 225.296 247.443ZM251.424 199.552C248.574 199.552 245.803 200.536 243.586 202.385L217.378 224.304C214.884 226.39 213.34 229.341 213.063 232.607C212.786 235.873 213.776 239.021 215.914 241.501C220.268 246.656 228.028 247.325 233.214 242.996L259.421 221.077C261.915 218.991 263.459 216.04 263.736 212.813C264.013 209.586 263.023 206.438 260.925 203.959L260.806 203.841C258.708 201.362 255.779 199.827 252.533 199.552C252.137 199.552 251.78 199.552 251.424 199.552Z" fill="#3E3465"/>
<path d="M206.571 211.003C200.712 204.077 201.622 193.767 208.59 187.982L237.964 163.427C244.852 157.682 255.145 158.547 260.925 165.395L261.084 165.591C266.863 172.438 265.992 182.67 259.104 188.455L229.73 213.01C222.762 218.795 212.39 217.89 206.571 211.003Z" fill="#FFE6D9"/>
<path d="M219.16 217.614C218.645 217.614 218.17 217.575 217.655 217.535C213.063 217.142 208.906 214.978 205.937 211.475C199.841 204.235 200.751 193.413 208.035 187.353L237.41 162.797C244.615 156.777 255.422 157.682 261.519 164.883L261.677 165.08C267.734 172.242 266.824 183.024 259.579 189.045L230.205 213.6C227.117 216.198 223.237 217.614 219.16 217.614ZM207.165 210.492C209.857 213.679 213.617 215.607 217.814 215.961C221.97 216.316 226.048 215.056 229.255 212.38L258.629 187.825C265.201 182.355 266.032 172.596 260.529 166.064L260.371 165.867C254.868 159.374 245.05 158.508 238.518 163.978L209.144 188.533C202.454 194.082 201.622 203.92 207.165 210.492Z" fill="#3E3465"/>
<path d="M224.148 243.783C223.95 243.783 223.792 243.783 223.594 243.783C221.218 243.626 219.041 242.563 217.457 240.792C214.172 237.133 214.528 231.505 218.21 228.239L223.475 223.596C225.256 222.021 227.552 221.234 229.928 221.392C232.303 221.549 234.48 222.572 236.064 224.343L236.103 224.383C237.687 226.153 238.479 228.436 238.32 230.797C238.162 233.158 237.133 235.322 235.351 236.896L230.086 241.54C228.423 242.996 226.325 243.783 224.148 243.783ZM229.334 222.966C227.552 222.966 225.85 223.596 224.504 224.815L219.239 229.42C216.191 232.095 215.914 236.739 218.606 239.73C219.912 241.186 221.693 242.051 223.673 242.17C225.652 242.288 227.513 241.658 228.978 240.359L234.243 235.716C237.252 233.04 237.529 228.436 234.876 225.445L234.837 225.406C233.53 223.95 231.749 223.084 229.809 222.966C229.651 222.966 229.492 222.966 229.334 222.966Z" fill="#3E3465"/>
<path d="M216.864 212.656C216.626 212.656 216.428 212.656 216.191 212.617C213.34 212.459 210.727 211.2 208.867 209.075C206.967 206.95 206.017 204.235 206.214 201.401C206.373 198.568 207.64 195.971 209.777 194.121L216.151 188.533C218.289 186.644 221.02 185.739 223.831 185.897C226.681 186.054 229.255 187.313 231.155 189.438L231.195 189.478C235.074 193.846 234.678 200.536 230.284 204.392L223.95 209.98C221.971 211.751 219.476 212.656 216.864 212.656ZM223.198 187.471C220.981 187.471 218.883 188.258 217.22 189.714L210.846 195.302C209.025 196.915 207.956 199.119 207.798 201.519C207.64 203.92 208.471 206.242 210.054 208.052C211.678 209.862 213.895 210.924 216.309 211.082C218.724 211.239 221.06 210.413 222.881 208.839L229.215 203.251C232.936 199.945 233.293 194.279 229.967 190.54L229.928 190.501C228.344 188.691 226.127 187.628 223.712 187.51C223.554 187.471 223.356 187.471 223.198 187.471Z" fill="#3E3465"/>
<path d="M211.836 174.564C211.598 174.564 211.4 174.564 211.163 174.524C208.313 174.367 205.7 173.108 203.839 170.983C201.939 168.858 200.989 166.142 201.187 163.309C201.345 160.476 202.612 157.878 204.75 156.029L211.123 150.441C215.518 146.585 222.248 146.978 226.127 151.346L226.167 151.385C228.067 153.51 228.978 156.226 228.819 159.02C228.661 161.853 227.394 164.411 225.256 166.3L218.922 171.888C216.943 173.619 214.449 174.564 211.836 174.564ZM218.17 149.339C215.953 149.339 213.855 150.126 212.192 151.582L205.819 157.17C203.997 158.784 202.929 160.987 202.77 163.388C202.612 165.788 203.443 168.11 205.027 169.92C206.65 171.73 208.867 172.793 211.282 172.95C213.697 173.108 216.032 172.281 217.853 170.707L224.187 165.119C226.008 163.545 227.077 161.341 227.236 158.941C227.394 156.54 226.563 154.219 224.979 152.448L224.94 152.409C223.356 150.598 221.139 149.536 218.724 149.418C218.526 149.339 218.328 149.339 218.17 149.339Z" fill="#3E3465"/>
<circle cx="340.511" cy="14.5114" r="4.5" transform="rotate(-165 340.511 14.5114)" fill="white"/>
</g>
<defs>
<clipPath id="clip0">
<rect width="346" height="335" fill="white"/>
</clipPath>
</defs>
</svg>
