<svg width="462" height="634" viewBox="0 0 462 634" fill="none" xmlns="http://www.w3.org/2000/svg">
<path fill-rule="evenodd" clip-rule="evenodd" d="M215.974 461.164C203.079 453.718 192.605 459.764 192.605 474.656C192.605 489.547 203.079 507.684 215.974 515.13C228.87 522.575 239.343 516.53 239.343 501.638C239.343 486.747 228.87 468.61 215.974 461.164Z" fill="#24E1C8" fill-opacity="0.899"/>
<path fill-rule="evenodd" clip-rule="evenodd" d="M232.259 516.894C236.628 514.511 239.343 509.221 239.343 501.638C239.343 486.747 228.87 468.61 215.974 461.164C209.388 457.361 203.43 457.078 199.181 459.696L81.21 527.84L81.213 527.843C77.153 530.356 74.656 535.52 74.656 542.793C74.656 557.684 85.126 575.822 98.025 583.267C104.331 586.91 110.058 587.324 114.264 585.055L114.268 585.051C114.454 584.951 114.637 584.846 114.818 584.736L232.262 516.897L232.259 516.894Z" fill="#24E1C8" fill-opacity="0.899"/>
<path fill-rule="evenodd" clip-rule="evenodd" d="M232.259 516.894C236.628 514.511 239.343 509.221 239.343 501.638C239.343 486.747 228.87 468.61 215.974 461.164C209.388 457.361 203.43 457.078 199.181 459.696L81.21 527.84L81.213 527.843C77.153 530.356 74.656 535.52 74.656 542.793C74.656 557.684 85.126 575.822 98.025 583.267C104.331 586.91 110.058 587.324 114.264 585.055L114.268 585.051C114.454 584.951 114.637 584.846 114.818 584.736L232.262 516.897L232.259 516.894Z" fill="url(#paint0_linear)"/>
<path fill-rule="evenodd" clip-rule="evenodd" d="M98.025 529.302C85.126 521.856 74.656 527.902 74.656 542.793C74.656 557.684 85.126 575.822 98.025 583.267C110.921 590.713 121.391 584.667 121.391 569.776C121.391 554.884 110.921 536.747 98.025 529.302Z" fill="#4FFCE7" fill-opacity="0.75"/>
<path fill-rule="evenodd" clip-rule="evenodd" d="M98.025 529.302C85.126 521.856 74.656 527.902 74.656 542.793C74.656 557.684 85.126 575.822 98.025 583.267C110.921 590.713 121.391 584.667 121.391 569.776C121.391 554.884 110.921 536.747 98.025 529.302Z" fill="url(#paint1_linear)"/>
<path fill-rule="evenodd" clip-rule="evenodd" d="M182.194 57.4009C176.591 54.1649 172.04 56.7919 172.04 63.2649C172.04 69.7369 176.591 77.6219 182.194 80.8579C187.8 84.0939 192.352 81.4669 192.352 74.9949C192.352 68.5189 187.8 60.6369 182.194 57.4009Z" fill="#24E1C8" fill-opacity="0.899"/>
<path fill-rule="evenodd" clip-rule="evenodd" d="M189.272 81.6228C191.173 80.5878 192.352 78.2888 192.352 74.9948C192.352 68.5188 187.8 60.6368 182.194 57.4008C179.332 55.7468 176.744 55.6268 174.898 56.7628L68.0804 118.448L68.0836 118.451C66.3191 119.542 65.2317 121.785 65.2317 124.946C65.2317 131.418 69.7831 139.304 75.3891 142.54C78.1301 144.122 80.6211 144.301 82.4471 143.315C82.5291 143.272 82.6101 143.223 82.6881 143.178L189.275 81.6228H189.272Z" fill="#24E1C8" fill-opacity="0.899"/>
<path fill-rule="evenodd" clip-rule="evenodd" d="M189.272 81.6228C191.173 80.5878 192.352 78.2888 192.352 74.9948C192.352 68.5188 187.8 60.6368 182.194 57.4008C179.332 55.7468 176.744 55.6268 174.898 56.7628L68.0804 118.448L68.0836 118.451C66.3191 119.542 65.2317 121.785 65.2317 124.946C65.2317 131.418 69.7831 139.304 75.3891 142.54C78.1301 144.122 80.6211 144.301 82.4471 143.315C82.5291 143.272 82.6101 143.223 82.6881 143.178L189.275 81.6228H189.272Z" fill="url(#paint2_linear)"/>
<path fill-rule="evenodd" clip-rule="evenodd" d="M75.3891 119.083C69.7826 115.847 65.2312 118.474 65.2312 124.946C65.2312 131.418 69.7826 139.304 75.3891 142.54C80.9951 145.776 85.5461 143.149 85.5461 136.676C85.5461 130.201 80.9951 122.319 75.3891 119.083Z" fill="#4FFCE7" fill-opacity="0.75"/>
<path fill-rule="evenodd" clip-rule="evenodd" d="M75.3891 119.083C69.7826 115.847 65.2312 118.474 65.2312 124.946C65.2312 131.418 69.7826 139.304 75.3891 142.54C80.9951 145.776 85.5461 143.149 85.5461 136.676C85.5461 130.201 80.9951 122.319 75.3891 119.083Z" fill="url(#paint3_linear)"/>
<path fill-rule="evenodd" clip-rule="evenodd" d="M182.194 57.4009C176.591 54.1649 172.04 56.7919 172.04 63.2649C172.04 69.7369 176.591 77.6219 182.194 80.8579C187.8 84.0939 192.352 81.4669 192.352 74.9949C192.352 68.5189 187.8 60.6369 182.194 57.4009Z" fill="#24E1C8" fill-opacity="0.899"/>
<path fill-rule="evenodd" clip-rule="evenodd" d="M189.272 81.6228C191.173 80.5878 192.352 78.2888 192.352 74.9948C192.352 68.5188 187.8 60.6368 182.194 57.4008C179.332 55.7468 176.744 55.6268 174.898 56.7628L68.0804 118.448L68.0836 118.451C66.3191 119.542 65.2317 121.785 65.2317 124.946C65.2317 131.418 69.7831 139.304 75.3891 142.54C78.1301 144.122 80.6211 144.301 82.4471 143.315C82.5291 143.272 82.6101 143.223 82.6881 143.178L189.275 81.6228H189.272Z" fill="#24E1C8" fill-opacity="0.899"/>
<path fill-rule="evenodd" clip-rule="evenodd" d="M189.272 81.6228C191.173 80.5878 192.352 78.2888 192.352 74.9948C192.352 68.5188 187.8 60.6368 182.194 57.4008C179.332 55.7468 176.744 55.6268 174.898 56.7628L68.0804 118.448L68.0836 118.451C66.3191 119.542 65.2317 121.785 65.2317 124.946C65.2317 131.418 69.7831 139.304 75.3891 142.54C78.1301 144.122 80.6211 144.301 82.4471 143.315C82.5291 143.272 82.6101 143.223 82.6881 143.178L189.275 81.6228H189.272Z" fill="url(#paint4_linear)"/>
<path fill-rule="evenodd" clip-rule="evenodd" d="M75.3891 119.083C69.7826 115.847 65.2312 118.474 65.2312 124.946C65.2312 131.419 69.7826 139.304 75.3891 142.54C80.9951 145.776 85.5461 143.149 85.5461 136.677C85.5461 130.201 80.9951 122.319 75.3891 119.083Z" fill="#4FFCE7" fill-opacity="0.75"/>
<path fill-rule="evenodd" clip-rule="evenodd" d="M75.3891 119.083C69.7826 115.847 65.2312 118.474 65.2312 124.946C65.2312 131.419 69.7826 139.304 75.3891 142.54C80.9951 145.776 85.5461 143.149 85.5461 136.677C85.5461 130.201 80.9951 122.319 75.3891 119.083Z" fill="url(#paint5_linear)"/>
<path d="M62.6924 385.766C59.1503 385.766 56.2788 382.894 56.2788 379.352C56.2788 375.809 59.1503 372.938 62.6924 372.938C66.2346 372.938 69.1061 375.809 69.1061 379.352C69.1061 382.894 66.2346 385.766 62.6924 385.766Z" fill="#FFCE2D"/>
<path d="M412.148 144.548C405.878 144.548 400.795 139.466 400.795 133.196C400.795 126.926 405.878 121.843 412.148 121.843C418.417 121.843 423.5 126.926 423.5 133.196C423.5 139.466 418.417 144.548 412.148 144.548Z" fill="#FF70E9"/>
<path d="M423.461 499.893C415.589 499.893 409.208 493.512 409.208 485.64C409.208 477.768 415.589 471.387 423.461 471.387C431.333 471.387 437.714 477.768 437.714 485.64C437.714 493.512 431.333 499.893 423.461 499.893Z" fill="#6A7AFF"/>
<path fill-rule="evenodd" clip-rule="evenodd" d="M454.389 372.265L461.737 384.988L449.014 392.333L441.669 379.61L454.389 372.265ZM58.4823 490.485L57.5186 508.124L74.2401 498.471L58.4823 490.485Z" stroke="#17122C" stroke-width="0.23" stroke-miterlimit="1.5" stroke-linecap="round" stroke-linejoin="round"/>
<path d="M178.928 611.045C177.463 607.418 174.064 604.719 170.861 604.931C167.657 605.142 165.499 607.486 163.275 611.165C161.097 614.766 158.805 617.156 155.53 617.156C152.219 617.156 149.321 614.704 147.733 611.045" stroke="#0C071A" stroke-width="0.23" stroke-miterlimit="1.5" stroke-linecap="round" stroke-linejoin="round"/>
<path d="M267.433 15.1818C264.121 15.1818 261.436 12.4969 261.436 9.18489C261.436 5.87289 264.121 3.18799 267.433 3.18799C270.745 3.18799 273.43 5.87289 273.43 9.18489C273.43 12.4969 270.745 15.1818 267.433 15.1818Z" stroke="#0C071A" stroke-width="0.23" stroke-miterlimit="1.5" stroke-linecap="round" stroke-linejoin="round"/>
<path d="M46.0711 178.87C47.3854 181.318 47.6952 184.181 46.9349 186.853C46.1747 189.525 44.4041 191.797 41.9981 193.186C39.5922 194.576 36.7399 194.974 34.0455 194.297C31.351 193.619 29.0259 191.92 27.5627 189.558" stroke="#0C071A" stroke-width="0.23" stroke-miterlimit="1.5" stroke-linecap="round" stroke-linejoin="round"/>
<path fill-rule="evenodd" clip-rule="evenodd" d="M343.225 626.011C343.225 626.011 367.148 623.638 367.148 600.308V151.815C367.148 130.361 354.086 105.399 337.993 96.1108L176.451 2.84287C163.855 -4.43023 148.859 4.02797 142.43 8.47187C137.435 11.9197 132.181 20.0918 132.181 29.7768V475.593C132.181 497.045 143.849 520.381 159.938 529.67L321.963 623.218C329.252 627.424 337.43 626.883 343.225 626.011Z" fill="#DCDCE9"/>
<path fill-rule="evenodd" clip-rule="evenodd" d="M343.225 626.011C343.225 626.011 367.148 623.638 367.148 600.308V151.815C367.148 130.361 354.086 105.399 337.993 96.1108L176.451 2.84287C163.855 -4.43023 148.859 4.02797 142.43 8.47187C137.435 11.9197 132.181 20.0918 132.181 29.7768V475.593C132.181 497.045 143.849 520.381 159.938 529.67L321.963 623.218C329.252 627.424 337.43 626.883 343.225 626.011Z" fill="url(#paint6_linear)"/>
<path fill-rule="evenodd" clip-rule="evenodd" d="M349.619 160.599C349.619 139.864 336.99 115.736 321.438 106.757L164.05 15.8888C148.498 6.90934 135.869 16.4548 135.869 37.1938V473.975C135.869 494.714 148.498 518.841 164.05 527.82L321.438 618.689C336.99 627.668 349.619 618.122 349.619 597.384V160.599Z" fill="#0B0618"/>
<path fill-rule="evenodd" clip-rule="evenodd" d="M316.2 117.152L162.55 28.4447C150.442 21.4517 140.613 28.8847 140.613 45.0297V478.1C140.613 494.245 150.442 513.026 162.55 520.016L316.2 608.726C328.308 615.716 338.137 608.287 338.137 592.142V159.072C338.137 142.927 328.308 124.145 316.2 117.152Z" fill="url(#paint7_linear)"/>
<path fill-rule="evenodd" clip-rule="evenodd" d="M302.249 125.207L148.602 36.4968C136.491 29.5068 126.662 36.9388 126.662 53.0838V486.154C126.662 502.296 136.491 521.081 148.602 528.071L302.249 616.781C314.357 623.771 324.189 616.338 324.189 600.193V167.126C324.189 150.982 314.357 132.197 302.249 125.207Z" stroke="#A8A8FA" stroke-opacity="0.5" stroke-width="0.28" stroke-miterlimit="1.5" stroke-linecap="round" stroke-linejoin="round"/>
<path fill-rule="evenodd" clip-rule="evenodd" d="M282.048 136.992L128.398 48.2819C122.743 45.0169 117.586 44.8989 113.695 47.3439C113.188 47.6599 109.883 49.4569 108.854 50.2779C105.022 53.3319 102.665 59.1489 102.665 67.0609V500.128C102.665 516.272 112.494 535.058 124.602 542.047L278.252 630.757C284.643 634.446 290.396 634.117 294.407 630.614C300.189 628.684 303.985 622.013 303.985 611.979V178.909C303.985 162.764 294.156 143.982 282.048 136.992Z" fill="#477BFC"/>
<path fill-rule="evenodd" clip-rule="evenodd" d="M282.048 136.992L128.398 48.2818C116.29 41.2918 106.461 48.7248 106.461 64.8698V497.937C106.461 514.081 116.29 532.866 128.398 539.856L282.048 628.563C294.156 635.556 303.985 628.124 303.985 611.979V178.909C303.985 162.764 294.156 143.982 282.048 136.992Z" fill="url(#paint8_linear)"/>
<path fill-rule="evenodd" clip-rule="evenodd" d="M278.252 139.183L124.602 50.4727C112.494 43.4827 102.665 50.9157 102.665 67.0607V500.127C102.665 516.272 112.494 535.057 124.602 542.047L278.252 630.757C290.36 637.747 300.192 630.315 300.192 614.17V181.103C300.192 164.958 290.36 146.173 278.252 139.183Z" fill="#631AFF"/>
<path fill-rule="evenodd" clip-rule="evenodd" d="M174.836 550.107C174.836 548.225 175.982 547.356 177.395 548.173L225.461 575.925C226.871 576.738 228.017 578.93 228.017 580.811C228.017 582.696 226.871 583.562 225.461 582.745L177.395 554.997C175.982 554.18 174.836 551.989 174.836 550.107Z" fill="white" fill-opacity="0.5"/>
<path fill-rule="evenodd" clip-rule="evenodd" d="M204.544 109.003L204.548 107.887C204.548 105.901 203.154 103.485 201.435 102.492C199.713 101.499 198.319 102.306 198.316 104.292V105.406L198.209 105.344C197.379 104.865 196.705 105.253 196.705 106.21L196.701 111.907C196.701 112.864 197.372 114.03 198.202 114.509L204.645 118.23C205.475 118.708 206.149 118.318 206.149 117.361L206.153 111.666C206.125 111.145 205.975 110.638 205.714 110.186C205.454 109.733 205.089 109.35 204.652 109.065L204.544 109.003ZM199.7 106.207L199.703 105.09C199.703 103.986 200.478 103.54 201.432 104.094C202.389 104.644 203.161 105.985 203.161 107.089V108.202L199.7 106.207Z" fill="#E6E7EE"/>
<path fill-rule="evenodd" clip-rule="evenodd" d="M277.093 530.357C277.093 516.585 268.707 500.567 258.38 494.603L151.347 432.807C141.02 426.846 132.637 433.185 132.637 446.953C132.637 460.721 141.02 476.742 151.347 482.704L258.38 544.499C268.707 550.463 277.093 544.125 277.093 530.357Z" fill="url(#paint9_linear)"/>
<path fill-rule="evenodd" clip-rule="evenodd" d="M252.194 527.84C252.194 523.796 249.733 519.095 246.702 517.344L113.23 440.286C110.199 438.534 107.738 440.396 107.738 444.437V479.689C107.738 483.729 110.199 488.434 113.23 490.182L246.702 567.243C249.733 568.991 252.194 567.132 252.194 563.089V527.84Z" fill="#A2C5FD" fill-opacity="0.75"/>
<path fill-rule="evenodd" clip-rule="evenodd" d="M249.156 529.971C249.156 525.719 246.568 520.774 243.381 518.931L110.479 442.202C107.288 440.36 104.7 442.319 104.7 446.568V481.062C104.7 485.31 107.288 490.259 110.479 492.098L243.381 568.831C246.568 570.67 249.156 568.714 249.156 564.462V529.971Z" fill="white" fill-opacity="0.75"/>
<path fill-rule="evenodd" clip-rule="evenodd" d="M290.363 332.757C290.363 325.933 286.212 317.999 281.094 315.046L125.92 225.454C120.806 222.501 116.651 225.639 116.651 232.463V358.672C116.651 365.492 120.806 373.43 125.92 376.382L281.094 465.975C286.212 468.928 290.363 465.789 290.363 458.965V332.757Z" fill="url(#paint10_linear)"/>
<path fill-rule="evenodd" clip-rule="evenodd" d="M267.69 345.849C267.69 339.028 263.536 331.091 258.422 328.138L103.244 238.546C98.1301 235.593 93.9751 238.731 93.9751 245.555V371.764C93.9751 378.584 98.1301 386.522 103.244 389.474L258.422 479.067C263.536 482.02 267.69 478.881 267.69 472.057V345.849Z" fill="#A2C5FD" fill-opacity="0.75"/>
<path fill-rule="evenodd" clip-rule="evenodd" d="M264.383 347.151C264.383 340.327 260.229 332.393 255.114 329.437L99.94 239.848C94.822 236.895 90.668 240.033 90.668 246.857V373.066C90.668 379.887 94.822 387.824 99.94 390.777L255.114 480.369C260.229 483.322 264.383 480.183 264.383 473.36V347.151Z" fill="white" fill-opacity="0.75"/>
<path fill-rule="evenodd" clip-rule="evenodd" d="M264.383 347.151C264.383 340.327 260.229 332.393 255.114 329.437L99.94 239.848C94.822 236.895 90.668 240.033 90.668 246.857V373.066C90.668 379.887 94.822 387.824 99.94 390.777L255.114 480.369C260.229 483.322 264.383 480.183 264.383 473.36V347.151Z" fill="url(#paint11_linear)"/>
<path fill-rule="evenodd" clip-rule="evenodd" d="M127.503 312.866C127.503 310.626 128.867 309.594 130.547 310.564L224.505 364.855C226.188 365.825 227.552 368.436 227.552 370.68C227.552 372.923 226.188 373.955 224.505 372.985L130.547 318.69C128.867 317.72 127.503 315.109 127.503 312.866ZM127.503 333.865C127.503 331.622 128.867 330.59 130.547 331.56L224.505 385.851C226.188 386.824 227.552 389.432 227.552 391.675C227.552 393.918 226.188 394.951 224.505 393.98L130.547 339.686C128.867 338.716 127.503 336.105 127.503 333.865ZM162.732 375.202C162.732 372.959 164.099 371.927 165.779 372.897L224.505 406.827C226.188 407.797 227.552 410.408 227.552 412.651C227.552 414.895 226.188 415.927 224.505 414.953L165.779 381.026C164.099 380.053 162.732 377.442 162.732 375.202Z" fill="white"/>
<path fill-rule="evenodd" clip-rule="evenodd" d="M266.353 214.018L264.165 215.291L276.211 236.176L264.178 243.117L266.372 246.919L280.599 238.712L266.353 214.018ZM140.382 141.283L142.569 145.089L130.524 152.04L142.556 172.899L140.362 174.165L126.135 149.5L140.382 141.283Z" fill="#1418A5" fill-opacity="0.5"/>
<path fill-rule="evenodd" clip-rule="evenodd" d="M258.136 218.761L255.948 220.034L267.994 240.919L255.961 247.86L258.155 251.666L272.382 243.455L258.136 218.761ZM132.165 146.027L134.352 149.833L122.306 156.784L134.339 177.642L132.145 178.909L117.918 154.244L132.165 146.027Z" fill="white"/>
<path fill-rule="evenodd" clip-rule="evenodd" d="M199.947 144.164C179.198 132.184 162.35 141.908 162.35 165.87C162.35 189.828 179.198 219.005 199.947 230.986C220.695 242.967 237.543 233.239 237.543 209.281C237.543 185.322 220.695 156.142 199.947 144.164Z" fill="url(#paint12_linear)"/>
<path fill-rule="evenodd" clip-rule="evenodd" d="M180.244 155.539C159.492 143.558 142.647 153.286 142.647 177.245C142.647 201.203 159.492 230.383 180.244 242.361C200.992 254.342 217.837 244.614 217.837 220.656C217.837 196.697 200.992 167.52 180.244 155.539Z" fill="#A2C5FD" fill-opacity="0.75"/>
<path fill-rule="evenodd" clip-rule="evenodd" d="M177.287 157.246C156.539 145.265 139.694 154.993 139.694 178.951C139.694 202.909 156.539 232.086 177.287 244.067C198.039 256.048 214.884 246.32 214.884 222.362C214.884 198.403 198.039 169.223 177.287 157.246Z" fill="white" fill-opacity="0.75"/>
<path fill-rule="evenodd" clip-rule="evenodd" d="M191.192 229.052C189.327 221.125 183.779 212.947 177.235 209.167C170.756 205.429 165.261 207.125 163.337 212.754L191.192 229.052ZM177.235 187.041C172.957 184.574 169.487 186.579 169.487 191.515C169.487 196.453 172.957 202.467 177.235 204.934C181.51 207.402 184.98 205.397 184.98 200.461C184.98 195.522 181.51 189.512 177.235 187.041Z" stroke="#0E16F6" stroke-opacity="0.75" stroke-width="0.28" stroke-miterlimit="1.5" stroke-linecap="round" stroke-linejoin="round"/>
<path fill-rule="evenodd" clip-rule="evenodd" d="M263.8 138.835L266.844 140.59V153.554L263.8 151.795V138.835Z" fill="#477BFC"/>
<path fill-rule="evenodd" clip-rule="evenodd" d="M268.364 144.513L271.408 146.271V156.191L268.364 154.433V144.513ZM272.763 149.982L275.804 151.74V158.73L272.763 156.972V149.982ZM276.819 155.032L279.86 156.79V161.074L276.819 159.316V155.032Z" fill="white"/>
<path fill-rule="evenodd" clip-rule="evenodd" d="M122.501 63.4788C122.501 62.2418 123.253 61.6728 124.181 62.2058L136.904 69.5638C137.829 70.1008 138.584 71.5398 138.584 72.7778V77.2608C138.584 78.4978 137.829 79.0678 136.904 78.5338L124.181 71.1758C123.253 70.6418 122.501 69.1998 122.501 67.9618V63.4788Z" fill="#477BFC"/>
<path fill-rule="evenodd" clip-rule="evenodd" d="M121.577 64.4531C121.577 64.0461 121.824 63.8601 122.127 64.0361L126.069 66.3151C126.375 66.4911 126.62 66.9631 126.62 67.3671V68.8381C126.62 69.2421 126.375 69.4311 126.069 69.2551L122.127 66.9761C121.824 66.8001 121.577 66.3281 121.577 65.9211V64.4531Z" fill="#477BFC"/>
<path fill-rule="evenodd" clip-rule="evenodd" d="M123.4 64.4984C123.4 63.5344 123.986 63.0914 124.706 63.5084L136.423 70.2834C137.142 70.7004 137.728 71.8204 137.728 72.7804V76.2704C137.728 77.2314 137.142 77.6734 136.423 77.2574L124.706 70.4824C123.986 70.0654 123.4 68.9454 123.4 67.9854V64.4984Z" fill="white"/>
<path fill-rule="evenodd" clip-rule="evenodd" d="M356.642 274.544C356.642 271.565 358.455 268.101 360.689 266.811C362.922 265.519 364.735 266.89 364.735 269.868V306.95C364.735 309.926 362.922 313.393 360.689 314.683C358.455 315.972 356.642 314.601 356.642 311.622V274.544ZM356.642 218.283C356.642 215.307 358.455 211.84 360.689 210.55C362.922 209.261 364.735 210.632 364.735 213.611V250.689C364.735 253.668 362.922 257.132 360.689 258.422C358.455 259.714 356.642 258.343 356.642 255.365V218.283Z" stroke="white" stroke-width="0.23" stroke-miterlimit="1.5" stroke-linecap="round" stroke-linejoin="round"/>
<path d="M62.8257 72.67C54.2418 72.67 47.2832 65.712 47.2832 57.128C47.2832 48.544 54.2418 41.585 62.8257 41.585C71.4095 41.585 78.368 48.544 78.368 57.128C78.368 65.712 71.4095 72.67 62.8257 72.67Z" fill="#DBDBE9"/>
<path d="M62.8257 72.67C54.2418 72.67 47.2832 65.712 47.2832 57.128C47.2832 48.544 54.2418 41.585 62.8257 41.585C71.4095 41.585 78.368 48.544 78.368 57.128C78.368 65.712 71.4095 72.67 62.8257 72.67Z" fill="url(#paint13_linear)"/>
<path fill-rule="evenodd" clip-rule="evenodd" d="M393.238 306.283C388.784 303.711 385.167 305.798 385.167 310.941C385.167 316.082 388.784 322.343 393.238 324.915C397.689 327.487 401.306 325.4 401.306 320.256C401.306 315.115 397.689 308.855 393.238 306.283Z" fill="#24E1C8" fill-opacity="0.899"/>
<path fill-rule="evenodd" clip-rule="evenodd" d="M398.861 325.523C400.368 324.699 401.306 322.873 401.306 320.255C401.306 315.114 397.689 308.854 393.238 306.282C390.962 304.97 388.905 304.872 387.44 305.774L339.751 333.32C338.351 334.189 337.488 335.97 337.488 338.483C337.488 343.624 341.102 349.885 345.556 352.457C347.734 353.713 349.71 353.857 351.162 353.072H351.165L351.354 352.961L398.861 325.523Z" fill="#7252FF" fill-opacity="0.899"/>
<path fill-rule="evenodd" clip-rule="evenodd" d="M398.861 325.523C400.368 324.699 401.306 322.873 401.306 320.255C401.306 315.114 397.689 308.854 393.238 306.282C390.962 304.97 388.905 304.872 387.44 305.774L339.751 333.32C338.351 334.189 337.488 335.97 337.488 338.483C337.488 343.624 341.102 349.885 345.556 352.457C347.734 353.713 349.71 353.857 351.162 353.072H351.165L351.354 352.961L398.861 325.523Z" fill="url(#paint14_linear)"/>
<path fill-rule="evenodd" clip-rule="evenodd" d="M345.556 333.826C341.102 331.254 337.489 333.341 337.489 338.485C337.489 343.625 341.102 349.886 345.556 352.458C350.01 355.027 353.624 352.94 353.624 347.799C353.624 342.658 350.01 336.395 345.556 333.826Z" fill="#74B0FF" fill-opacity="0.75"/>
<path fill-rule="evenodd" clip-rule="evenodd" d="M345.556 333.826C341.102 331.254 337.489 333.341 337.489 338.485C337.489 343.625 341.102 349.886 345.556 352.458C350.01 355.027 353.624 352.94 353.624 347.799C353.624 342.658 350.01 336.395 345.556 333.826Z" fill="url(#paint15_linear)"/>
<path d="M78 395.385C119.421 395.385 153 361.806 153 320.385C153 278.963 119.421 245.385 78 245.385C36.5786 245.385 3 278.963 3 320.385C3 361.806 36.5786 395.385 78 395.385Z" fill="white" stroke="#E6E6E6" stroke-width="5"/>
<path d="M91.305 327.459H78.708V329.345H78.709V337.5C78.709 340.981 81.531 343.804 85.013 343.804C88.494 343.804 91.317 340.981 91.317 337.5C91.317 330.482 91.305 327.721 91.305 327.459Z" fill="#72BE4F"/>
<path d="M64.1167 327.459C64.1167 331.705 64.1167 330.9 64.1167 337.5C64.1167 340.981 66.939 343.804 70.4205 343.804C73.902 343.804 76.724 340.981 76.724 337.5C76.724 337.188 76.714 327.771 76.714 327.459H64.1167Z" fill="#72BE4F"/>
<path d="M82.609 337.5V329.345H82.608V327.459H78.708V329.345H78.709V337.5C78.709 340.981 81.531 343.804 85.013 343.804C85.694 343.804 86.349 343.694 86.963 343.495C84.436 342.673 82.609 340.3 82.609 337.5Z" fill="#66AF3F"/>
<path d="M68.0167 337.5C68.0167 326.932 68.0167 334.078 68.0167 327.459H64.1167C64.1167 331.705 64.1167 330.9 64.1167 337.5C64.1167 340.981 66.939 343.804 70.4205 343.804C71.1012 343.804 71.7563 343.694 72.3705 343.495C69.8436 342.673 68.0167 340.3 68.0167 337.5Z" fill="#66AF3F"/>
<path d="M69.5086 283.541C68.987 283.541 68.4823 283.261 68.2184 282.77L64.1219 275.13C63.7402 274.419 64.0077 273.532 64.7195 273.15C65.4314 272.769 66.3178 273.036 66.6997 273.748L70.7962 281.387C71.1779 282.099 70.9104 282.985 70.1986 283.367C69.9786 283.485 69.742 283.541 69.5086 283.541Z" fill="#66AF3F"/>
<path d="M85.355 283.369C84.643 282.987 84.376 282.102 84.758 281.39L88.857 273.752C89.239 273.041 90.125 272.772 90.837 273.154C91.549 273.536 91.816 274.424 91.434 275.136L87.335 282.773C86.953 283.485 86.066 283.751 85.355 283.369Z" fill="#72BE4F"/>
<path d="M102.228 293.622C98.9509 293.622 96.2939 296.278 96.2939 299.555C96.2939 301.733 96.2939 314.758 96.2939 316.819C96.2939 320.097 98.9509 322.753 102.228 322.753C105.505 322.753 108.161 320.096 108.161 316.819C108.161 314.758 108.161 301.733 108.161 299.555C108.161 296.278 105.505 293.622 102.228 293.622Z" fill="#72BE4F"/>
<path d="M53.2047 293.622C49.9276 293.622 47.271 296.278 47.271 299.555C47.271 301.617 47.271 314.642 47.271 316.819C47.271 320.097 49.9276 322.753 53.2047 322.753C56.4819 322.753 59.1385 320.096 59.1385 316.819C59.1385 314.642 59.1385 301.617 59.1385 299.555C59.1385 296.278 56.4819 293.622 53.2047 293.622Z" fill="#72BE4F"/>
<path d="M39.8911 367.928C43.63 367.928 43.5698 367.99 43.5698 367.795C43.5698 353.109 43.6364 353.815 43.4414 353.815H36.5129C32.4875 353.815 29.0974 357.261 29.4865 361.531C29.8132 365.118 32.9733 367.928 36.6807 367.928H38.3328C38.4673 367.928 38.4192 368.019 38.4192 364.191C38.4192 364.149 38.3856 364.116 38.3445 364.116H36.6109C33.7276 364.116 32.2477 360.849 34.0581 358.753C34.676 358.038 35.5709 357.628 36.5129 357.628H39.348C39.5737 357.628 39.7571 357.811 39.7571 358.037C39.7573 368.498 39.6956 367.928 39.8911 367.928Z" fill="#D6D6D8"/>
<path d="M58.8995 367.929C59.0893 367.929 59.0213 368.157 59.0213 360.872C59.0213 356.841 55.5686 353.455 51.305 353.846C47.7177 354.173 44.9077 357.333 44.9077 361.04C44.9077 368.186 44.8473 367.929 45.0163 367.929C48.7934 367.929 48.7202 367.987 48.7202 367.792V360.97C48.7202 359.193 50.0983 357.629 51.9565 357.629C53.7709 357.629 55.2087 359.098 55.2087 360.872V367.729C55.2089 368.002 55.254 367.929 58.8995 367.929Z" fill="#D6D6D8"/>
<path d="M67.4158 367.928C71.4414 367.928 74.831 364.482 74.442 360.212C74.115 356.625 70.9549 353.814 67.2475 353.814H60.4196C60.3863 353.814 60.3591 353.842 60.3591 353.875V357.513C60.3591 357.576 60.41 357.627 60.4728 357.627H67.3174C68.9713 357.627 70.3929 358.812 70.6238 360.383C70.9168 362.372 69.3775 364.115 67.4158 364.115C60.0933 364.115 60.3591 364.046 60.3591 364.279V367.764C60.3591 367.997 60.0997 367.928 67.4158 367.928Z" fill="#D6D6D8"/>
<path d="M89.923 367.907C89.923 365.573 90.097 364.27 88.613 362.363C91.627 358.795 89.079 353.816 84.666 353.816C84.593 353.816 75.81 353.79 75.81 353.862C75.81 353.904 75.795 357.628 75.837 357.628H84.763C85.35 357.628 85.878 357.994 86.044 358.519C86.328 359.412 85.666 360.254 84.798 360.254H75.87C75.837 360.254 75.81 360.281 75.81 360.314V363.987C75.81 364.03 75.846 364.066 75.89 364.066H84.154C85.233 364.066 86.111 364.944 86.111 366.023V367.924C86.144 367.924 89.923 367.941 89.923 367.907Z" fill="#D6D6D8"/>
<path d="M99.0421 353.851C98.8021 353.827 98.5631 353.815 98.3251 353.815C96.4551 353.815 94.6661 354.549 93.3311 355.883C89.1381 360.076 91.6961 367.302 97.5951 367.891C102.057 368.337 105.783 364.602 105.338 360.149C105.007 356.831 102.359 354.183 99.0421 353.851ZM101.517 361.419C101.089 364.01 97.8831 365.022 96.0251 363.164C94.1521 361.291 95.2081 358.095 97.7691 357.672C99.9871 357.306 101.883 359.202 101.517 361.419Z" fill="#D6D6D8"/>
<path d="M106.792 367.927H110.446C110.49 367.927 110.525 367.892 110.525 367.849V353.928C110.525 353.865 110.474 353.814 110.411 353.814H106.765C106.736 353.814 106.712 353.838 106.712 353.866V367.848C106.713 367.892 106.748 367.927 106.792 367.927Z" fill="#C2C2C4"/>
<path d="M112.001 367.928H118.92C122.945 367.928 126.335 364.483 125.946 360.213C125.619 356.625 122.458 353.815 118.751 353.815C111.725 353.815 111.863 353.724 111.863 354.039C111.863 357.581 111.793 357.627 112.063 357.627H118.821C121.704 357.627 123.185 360.894 121.375 362.99C120.757 363.705 119.862 364.116 118.92 364.116H112.007C111.808 364.116 111.863 364.043 111.863 367.79C111.863 367.867 111.925 367.928 112.001 367.928Z" fill="#D6D6D8"/>
<path d="M33.3014 361.533C32.9156 357.294 36.2724 353.818 40.3277 353.818H36.5129C32.4875 353.818 29.0974 357.263 29.4865 361.533C29.8132 365.121 32.9733 367.931 36.6807 367.931H38.3328C38.451 367.931 38.4192 367.752 38.4192 367.628C35.6704 366.811 33.5649 364.426 33.3014 361.533Z" fill="#C2C2C4"/>
<path d="M53.8851 354.077C49.2547 352.772 44.9079 356.389 44.9079 361.039C44.9079 368.185 44.8476 367.928 45.0165 367.928C48.7936 367.928 48.7205 367.986 48.7205 367.791C48.7205 360.233 48.7169 361.003 48.7286 360.786C48.8379 357.624 50.9855 354.906 53.8851 354.077Z" fill="#C2C2C4"/>
<path d="M64.1737 364.279C64.1737 364.189 64.2471 364.116 64.3372 364.116C60.2948 364.116 60.3591 364.054 60.3591 364.279C60.3591 367.955 60.2971 367.928 60.5231 367.928H64.3377C64.1119 367.928 64.1737 367.954 64.1737 364.279Z" fill="#C2C2C4"/>
<path d="M60.4726 357.626H64.2872C64.2246 357.626 64.1735 357.576 64.1735 357.513V353.875C64.1735 353.841 64.2007 353.814 64.234 353.814H60.4194C60.386 353.814 60.3589 353.841 60.3589 353.875V357.513C60.3591 357.575 60.41 357.626 60.4726 357.626Z" fill="#C2C2C4"/>
<path d="M79.6521 357.626C79.6101 357.626 79.6251 353.903 79.6251 353.861C79.6251 353.835 79.6461 353.814 79.6721 353.814H75.8571C75.8311 353.814 75.8101 353.835 75.8101 353.861V357.6C75.8101 357.641 79.6101 357.626 79.6521 357.626Z" fill="#C2C2C4"/>
<path d="M79.6251 363.986V360.313C79.6251 360.28 79.6521 360.253 79.6851 360.253H75.8701C75.8371 360.253 75.8101 360.28 75.8101 360.313V363.986C75.8101 364.03 75.8461 364.066 75.8901 364.066H79.7041C79.6611 364.066 79.6251 364.03 79.6251 363.986Z" fill="#C2C2C4"/>
<path d="M100.237 354.077C99.8511 353.968 99.4511 353.891 99.0421 353.85C98.8021 353.827 98.5631 353.815 98.3251 353.815C96.4551 353.815 94.6661 354.548 93.3311 355.883C88.2781 360.936 93.1521 369.634 100.213 367.665C93.3061 365.723 93.4231 355.978 100.237 354.077Z" fill="#C2C2C4"/>
<path d="M115.878 357.628C115.608 357.628 115.677 357.582 115.677 354.039C115.677 353.916 115.778 353.815 115.902 353.815C111.929 353.815 111.863 353.732 111.863 354.039V357.427C111.863 357.703 111.881 357.628 115.878 357.628Z" fill="#C2C2C4"/>
<path d="M115.678 367.79C115.678 364.042 115.623 364.116 115.822 364.116H112.007C111.808 364.116 111.863 364.043 111.863 367.79C111.863 367.866 111.925 367.928 112.001 367.928H115.815C115.74 367.928 115.678 367.866 115.678 367.79Z" fill="#C2C2C4"/>
<path d="M63.7676 327.654C64.24 327.654 92.143 327.654 91.665 327.654C93.468 327.654 94.929 326.193 94.929 324.39V297.357C94.929 297.091 94.714 296.876 94.448 296.876H60.9885C60.7206 296.876 60.5037 297.093 60.5037 297.361V324.39C60.5037 326.192 61.965 327.654 63.7676 327.654Z" fill="#72BE4F"/>
<path d="M77.693 278.767C68.1994 278.767 60.5037 286.009 60.5037 294.942C60.5037 294.944 60.5037 294.946 60.5037 294.948C60.5039 295.26 60.7425 295.511 61.0315 295.511H94.354C94.643 295.511 94.881 295.26 94.881 294.948C94.881 294.946 94.881 294.944 94.881 294.942C94.881 286.009 87.186 278.767 77.693 278.767Z" fill="#72BE4F"/>
<path d="M100.194 316.82C100.194 314.758 100.194 301.733 100.194 299.556C100.194 296.962 101.859 294.758 104.178 293.952C100.318 292.609 96.2939 295.483 96.2939 299.556C96.2939 301.733 96.2939 314.758 96.2939 316.82C96.2939 320.097 98.9509 322.754 102.228 322.754C102.911 322.754 103.567 322.637 104.178 322.424C101.859 321.617 100.194 319.414 100.194 316.82Z" fill="#66AF3F"/>
<path d="M51.171 316.82C51.171 314.642 51.171 301.617 51.171 299.556C51.171 296.962 52.8358 294.758 55.1548 293.951C54.5438 293.739 53.8881 293.622 53.2047 293.622C49.9276 293.622 47.271 296.279 47.271 299.556C47.271 301.617 47.271 314.642 47.271 316.82C47.271 320.097 49.9276 322.753 53.2047 322.753C53.8881 322.753 54.5438 322.636 55.1548 322.424C52.8358 321.617 51.171 319.413 51.171 316.82Z" fill="#66AF3F"/>
<path d="M64.4037 324.39V297.362C64.4037 297.094 64.6209 296.877 64.8885 296.877H60.9885C60.7206 296.877 60.5037 297.094 60.5037 297.362V324.39C60.5037 326.193 61.965 327.654 63.7676 327.654C65.3317 327.654 66.1128 327.654 67.6676 327.654C65.8649 327.654 64.4037 326.193 64.4037 324.39Z" fill="#66AF3F"/>
<path d="M64.4037 294.948C64.3986 286.58 71.1245 279.777 79.643 278.872C69.3846 277.781 60.5037 285.328 60.5037 294.942C60.5037 294.944 60.5037 294.946 60.5037 294.948C60.5039 295.26 60.7425 295.511 61.0315 295.511H64.9315C64.6425 295.511 64.4039 295.26 64.4037 294.948Z" fill="#66AF3F"/>
<path d="M69.9909 289.821C71.0576 289.821 71.9224 288.957 71.9224 287.89C71.9224 286.823 71.0576 285.958 69.9909 285.958C68.9241 285.958 68.0593 286.823 68.0593 287.89C68.0593 288.957 68.9241 289.821 69.9909 289.821Z" fill="#D6D6D8"/>
<path d="M85.442 289.821C86.509 289.821 87.373 288.956 87.373 287.89C87.373 286.823 86.509 285.958 85.442 285.958C84.375 285.958 83.51 286.823 83.51 287.89C83.51 288.956 84.375 289.821 85.442 289.821Z" fill="#D6D6D8"/>
<defs>
<linearGradient id="paint0_linear" x1="274.04" y1="554.265" x2="220.892" y2="459.644" gradientUnits="userSpaceOnUse">
<stop stop-color="#593AF6" stop-opacity="0.899"/>
<stop offset="1" stop-color="#593AF6" stop-opacity="0"/>
</linearGradient>
<linearGradient id="paint1_linear" x1="59.1446" y1="501.04" x2="97.992" y2="591.718" gradientUnits="userSpaceOnUse">
<stop stop-color="#BAFFF7"/>
<stop offset="1" stop-color="#BAFFF7" stop-opacity="0"/>
</linearGradient>
<linearGradient id="paint2_linear" x1="151.883" y1="129.95" x2="128.783" y2="88.8248" gradientUnits="userSpaceOnUse">
<stop stop-color="#593AF6" stop-opacity="0.899"/>
<stop offset="1" stop-color="#593AF6" stop-opacity="0"/>
</linearGradient>
<linearGradient id="paint3_linear" x1="58.5059" y1="106.812" x2="75.3901" y2="146.223" gradientUnits="userSpaceOnUse">
<stop stop-color="#BAFFF7"/>
<stop offset="1" stop-color="#BAFFF7" stop-opacity="0"/>
</linearGradient>
<linearGradient id="paint4_linear" x1="151.883" y1="129.95" x2="128.783" y2="88.8248" gradientUnits="userSpaceOnUse">
<stop stop-color="#593AF6" stop-opacity="0.899"/>
<stop offset="1" stop-color="#593AF6" stop-opacity="0"/>
</linearGradient>
<linearGradient id="paint5_linear" x1="58.5059" y1="106.812" x2="75.3901" y2="146.224" gradientUnits="userSpaceOnUse">
<stop stop-color="#BAFFF7"/>
<stop offset="1" stop-color="#BAFFF7" stop-opacity="0"/>
</linearGradient>
<linearGradient id="paint6_linear" x1="237.806" y1="646.658" x2="393.234" y2="138.595" gradientUnits="userSpaceOnUse">
<stop stop-color="#CBCDE4"/>
<stop offset="1" stop-color="#CBCDE4" stop-opacity="0"/>
</linearGradient>
<linearGradient id="paint7_linear" x1="152.987" y1="-73.89" x2="311.488" y2="647.137" gradientUnits="userSpaceOnUse">
<stop stop-color="#5D2FF9" stop-opacity="0.5"/>
<stop offset="1" stop-color="#5D2FF9" stop-opacity="0"/>
</linearGradient>
<linearGradient id="paint8_linear" x1="241.908" y1="502.333" x2="183.273" y2="174.25" gradientUnits="userSpaceOnUse">
<stop stop-color="#6DFFE1"/>
<stop offset="1" stop-color="#6DFFE1" stop-opacity="0"/>
</linearGradient>
<linearGradient id="paint9_linear" x1="275.788" y1="606.766" x2="75.6939" y2="325.747" gradientUnits="userSpaceOnUse">
<stop stop-color="#380DAF" stop-opacity="0.347"/>
<stop offset="1" stop-color="#380DAF" stop-opacity="0"/>
</linearGradient>
<linearGradient id="paint10_linear" x1="276.384" y1="501.735" x2="105.974" y2="163.31" gradientUnits="userSpaceOnUse">
<stop stop-color="#0E0EC6" stop-opacity="0.355"/>
<stop offset="1" stop-color="#0E0EC6" stop-opacity="0"/>
</linearGradient>
<linearGradient id="paint11_linear" x1="241.237" y1="496.914" x2="132.181" y2="245.264" gradientUnits="userSpaceOnUse">
<stop stop-color="#A2EBFF" stop-opacity="0.75"/>
<stop offset="1" stop-color="#A2EBFF" stop-opacity="0"/>
</linearGradient>
<linearGradient id="paint12_linear" x1="244.911" y1="256.947" x2="111.469" y2="93.081" gradientUnits="userSpaceOnUse">
<stop stop-color="#380DAF" stop-opacity="0.347"/>
<stop offset="1" stop-color="#380DAF" stop-opacity="0"/>
</linearGradient>
<linearGradient id="paint13_linear" x1="49.4525" y1="33.87" x2="74.669" y2="81.917" gradientUnits="userSpaceOnUse">
<stop stop-color="white" stop-opacity="0.5"/>
<stop offset="1" stop-color="white" stop-opacity="0"/>
</linearGradient>
<linearGradient id="paint14_linear" x1="423.992" y1="332.217" x2="405.642" y2="299.549" gradientUnits="userSpaceOnUse">
<stop stop-color="#35FFD7" stop-opacity="0.899"/>
<stop offset="1" stop-color="#35FFD7" stop-opacity="0"/>
</linearGradient>
<linearGradient id="paint15_linear" x1="349.821" y1="313.861" x2="363.233" y2="345.168" gradientUnits="userSpaceOnUse">
<stop stop-color="white" stop-opacity="0.5"/>
<stop offset="1" stop-color="white" stop-opacity="0"/>
</linearGradient>
</defs>
</svg>
