<svg id="Layer_1" data-name="Layer 1" xmlns="http://www.w3.org/2000/svg" viewBox="0 0 1280 1024"><defs><style>.cls-1{fill:#dcdcdc;}.cls-2{fill:#58119d;}.cls-3{fill:#f3f3f3;}.cls-10,.cls-17,.cls-4,.cls-5,.cls-6{fill:#fff;}.cls-14,.cls-4{opacity:0.2;}.cls-11,.cls-14,.cls-17,.cls-19,.cls-4,.cls-5,.cls-6,.cls-8,.cls-9{isolation:isolate;}.cls-5{opacity:0.7;}.cls-6{opacity:0.9;}.cls-7{fill:#fc9d9d;}.cls-8{opacity:0.15;}.cls-9{fill:#f4f4f4;opacity:0.5;}.cls-11,.cls-16{fill:#61656d;}.cls-11{opacity:0.3;}.cls-12{fill:#3f4249;}.cls-13{fill:#21252b;}.cls-15{fill:#f59696;}.cls-17{opacity:0.8;}.cls-18{fill:#fb9c9c;}.cls-19{opacity:0.6;}.cls-20{fill:#fa9b9b;}</style></defs><path class="cls-1" d="M812.19,140.86,680.64,167.75a11.46,11.46,0,0,0-8.6,7.62L629.55,302.74a11.49,11.49,0,0,0,2.3,11.26l89.06,100.48a11.55,11.55,0,0,0,10.9,3.64l131.52-26.89a11.5,11.5,0,0,0,8.6-7.62l42.49-127.37a11.48,11.48,0,0,0-2.3-11.26l-89-100.48a11.49,11.49,0,0,0-10.9-3.64Z"/><path class="cls-2" d="M745.09,283.74l-6.76,2.56-19.16,9.8c-.11.17-8,2.31-5.77,12.67.35,1.59.71,3.22,1.09,4.86,5.49,23.83,2.78,29.35,6.11,44.45,4.73,21.53,25.7,18.84,35.48,40.73,16.63,37.24,13.2,64.22,13.2,64.22L891,421.79s0-.91-1.73-4.32a149.2,149.2,0,0,0-9-14.69c-11.63-17.24-23.39-72-23.39-72l-5.32-35.86c-3.33-22.46-47.42-31.08-47.42-31.08Z"/><path class="cls-3" d="M746,339.09a1.49,1.49,0,0,0,.86-.09,1.51,1.51,0,0,0,.89-1.39,1.48,1.48,0,0,0-.94-1.35,1.46,1.46,0,0,0-.85-.07,1.48,1.48,0,0,0-1.15,1.18,1.42,1.42,0,0,0,0,.58,1.44,1.44,0,0,0,.65.94,1.47,1.47,0,0,0,.54.2Z"/><path class="cls-3" d="M819.78,319.35a1.49,1.49,0,0,0,.86-.09,1.51,1.51,0,0,0,.89-1.39,1.56,1.56,0,0,0-.26-.81,1.49,1.49,0,0,0-.68-.54,1.46,1.46,0,0,0-.85-.07,1.48,1.48,0,0,0-1.15,1.18,1.42,1.42,0,0,0,0,.58,1.44,1.44,0,0,0,.65.94,1.47,1.47,0,0,0,.54.2Z"/><path class="cls-3" d="M822.4,292.22a1.49,1.49,0,0,0,.86-.09,1.53,1.53,0,0,0,.65-.56,1.48,1.48,0,0,0-1.56-2.25,1.52,1.52,0,0,0-.75.42,1.5,1.5,0,0,0-.39.76,1.42,1.42,0,0,0,0,.58,1.45,1.45,0,0,0,.23.54,1.34,1.34,0,0,0,.42.4,1.47,1.47,0,0,0,.54.2Z"/><path class="cls-3" d="M718.27,306.46a1.58,1.58,0,0,0,.86-.1,1.53,1.53,0,0,0,.65-.56,1.49,1.49,0,0,0-.7-2.18,1.57,1.57,0,0,0-.86-.07,1.52,1.52,0,0,0-.75.42,1.49,1.49,0,0,0-.39.77,1.42,1.42,0,0,0,0,.58,1.48,1.48,0,0,0,.23.53,1.34,1.34,0,0,0,.42.4,1.69,1.69,0,0,0,.54.21Z"/><path class="cls-3" d="M750.91,366.88a1.49,1.49,0,0,0,.86-.09,1.53,1.53,0,0,0,.65-.56,1.48,1.48,0,0,0,.24-.82,1.48,1.48,0,0,0-.94-1.36,1.46,1.46,0,0,0-.85-.07,1.48,1.48,0,0,0-1.15,1.18,1.42,1.42,0,0,0,0,.58,1.45,1.45,0,0,0,.23.54,1.34,1.34,0,0,0,.42.4,1.47,1.47,0,0,0,.54.2Z"/><path class="cls-3" d="M731,353a1.58,1.58,0,0,0,.86-.1,1.53,1.53,0,0,0,.65-.56,1.49,1.49,0,0,0-.7-2.18A1.57,1.57,0,0,0,731,350a1.52,1.52,0,0,0-.75.42,1.49,1.49,0,0,0-.39.77,1.42,1.42,0,0,0,0,.58,1.48,1.48,0,0,0,.23.53,1.34,1.34,0,0,0,.42.4,1.69,1.69,0,0,0,.54.21Z"/><path class="cls-3" d="M768.92,336.13a1.49,1.49,0,0,0,.86-.09,1.53,1.53,0,0,0,.65-.56,1.49,1.49,0,0,0-.7-2.18,1.46,1.46,0,0,0-.85-.07,1.48,1.48,0,0,0-1.15,1.18,1.42,1.42,0,0,0,0,.58,1.45,1.45,0,0,0,.23.54,1.34,1.34,0,0,0,.42.4,1.47,1.47,0,0,0,.54.2Z"/><path class="cls-3" d="M828.21,339.09a1.49,1.49,0,0,0,.86-.09,1.51,1.51,0,0,0,.89-1.39,1.52,1.52,0,0,0-.94-1.35,1.46,1.46,0,0,0-.85-.07,1.48,1.48,0,0,0-1.15,1.18,1.42,1.42,0,0,0,0,.58,1.44,1.44,0,0,0,.65.94,1.47,1.47,0,0,0,.54.2Z"/><path class="cls-3" d="M817.61,357.71a1.45,1.45,0,0,0,.85-.09,1.5,1.5,0,0,0,.66-.56,1.49,1.49,0,0,0-.7-2.18,1.57,1.57,0,0,0-.86-.07,1.52,1.52,0,0,0-.75.42,1.5,1.5,0,0,0-.39.76,1.44,1.44,0,0,0,.23,1.12,1.34,1.34,0,0,0,.42.4,1.47,1.47,0,0,0,.54.2Z"/><path class="cls-3" d="M770.18,377.47a1.49,1.49,0,0,0,.86-.09,1.53,1.53,0,0,0,.65-.56,1.48,1.48,0,0,0-1.56-2.25,1.52,1.52,0,0,0-.75.42,1.5,1.5,0,0,0-.39.76,1.42,1.42,0,0,0,0,.58,1.45,1.45,0,0,0,.23.54,1.34,1.34,0,0,0,.42.4,1.47,1.47,0,0,0,.54.2Z"/><path class="cls-3" d="M800.59,304.13a1.58,1.58,0,0,0,.86-.1,1.53,1.53,0,0,0,.65-.56,1.49,1.49,0,0,0-.7-2.18,1.54,1.54,0,0,0-.85-.07,1.51,1.51,0,0,0-.76.42,1.49,1.49,0,0,0-.39.77,1.42,1.42,0,0,0,0,.58,1.48,1.48,0,0,0,.23.53,1.34,1.34,0,0,0,.42.4,1.69,1.69,0,0,0,.54.21Z"/><path class="cls-3" d="M823.88,275a1.49,1.49,0,0,0,.86-.09,1.51,1.51,0,0,0,.89-1.39,1.48,1.48,0,0,0-.27-.81,1.42,1.42,0,0,0-.67-.54,1.46,1.46,0,0,0-.85-.07,1.48,1.48,0,0,0-1.15,1.18,1.42,1.42,0,0,0,0,.58,1.52,1.52,0,0,0,.23.54,1.43,1.43,0,0,0,1,.6Z"/><path class="cls-3" d="M750.42,302.63a1.49,1.49,0,0,0,.86-.09,1.53,1.53,0,0,0,.65-.56,1.49,1.49,0,0,0-.7-2.18,1.46,1.46,0,0,0-.85-.07,1.48,1.48,0,0,0-1.15,1.18,1.42,1.42,0,0,0,0,.58,1.45,1.45,0,0,0,.23.54,1.34,1.34,0,0,0,.42.4,1.47,1.47,0,0,0,.54.2Z"/><path class="cls-3" d="M796.33,357.1a1.49,1.49,0,0,0,.86-.09,1.51,1.51,0,0,0,.89-1.39,1.56,1.56,0,0,0-.26-.81,1.49,1.49,0,0,0-.68-.54,1.46,1.46,0,0,0-.85-.07,1.48,1.48,0,0,0-1.15,1.18,1.42,1.42,0,0,0,0,.58,1.44,1.44,0,0,0,.65.94,1.47,1.47,0,0,0,.54.2Z"/><path class="cls-3" d="M773.65,359.2a1.58,1.58,0,0,0,.86-.1,1.53,1.53,0,0,0,.65-.56,1.49,1.49,0,0,0-.7-2.18,1.57,1.57,0,0,0-.86-.07,1.52,1.52,0,0,0-.75.42,1.49,1.49,0,0,0-.39.77,1.42,1.42,0,0,0,0,.58,1.3,1.3,0,0,0,.22.53,1.49,1.49,0,0,0,.42.41A1.59,1.59,0,0,0,773.65,359.2Z"/><path class="cls-3" d="M787.33,324.6a1.49,1.49,0,0,0,.86-.09,1.51,1.51,0,0,0,.89-1.39,1.56,1.56,0,0,0-.26-.81,1.49,1.49,0,0,0-.68-.54,1.46,1.46,0,0,0-.85-.07,1.48,1.48,0,0,0-1.15,1.18,1.42,1.42,0,0,0,0,.58,1.44,1.44,0,0,0,.65.94,1.47,1.47,0,0,0,.54.2Z"/><path class="cls-3" d="M806.09,335.14a1.49,1.49,0,0,0,.86-.09,1.53,1.53,0,0,0,.65-.56,1.49,1.49,0,0,0-.7-2.18,1.46,1.46,0,0,0-.85-.07,1.48,1.48,0,0,0-1.15,1.18,1.42,1.42,0,0,0,0,.58,1.45,1.45,0,0,0,.23.54,1.34,1.34,0,0,0,.42.4,1.47,1.47,0,0,0,.54.2Z"/><path class="cls-3" d="M767.44,315.81a1.49,1.49,0,0,0,.86-.09,1.53,1.53,0,0,0,.65-.56,1.48,1.48,0,0,0-1.56-2.25,1.52,1.52,0,0,0-.75.42,1.5,1.5,0,0,0-.39.76,1.42,1.42,0,0,0,0,.58,1.45,1.45,0,0,0,.23.54,1.34,1.34,0,0,0,.42.4,1.47,1.47,0,0,0,.54.2Z"/><path class="cls-3" d="M778.72,301.92a1.49,1.49,0,0,0,.86-.09,1.51,1.51,0,0,0,.89-1.39,1.49,1.49,0,0,0-1.8-1.42,1.52,1.52,0,0,0-.75.42,1.5,1.5,0,0,0-.39.76,1.42,1.42,0,0,0,0,.58,1.44,1.44,0,0,0,.65.94,1.47,1.47,0,0,0,.54.2Z"/><path class="cls-3" d="M805.65,283.3a1.49,1.49,0,0,0,.86-.09,1.53,1.53,0,0,0,.65-.56,1.48,1.48,0,0,0-1.56-2.25,1.52,1.52,0,0,0-.75.42,1.5,1.5,0,0,0-.39.76,1.42,1.42,0,0,0,0,.58,1.45,1.45,0,0,0,.23.54,1.34,1.34,0,0,0,.42.4A1.47,1.47,0,0,0,805.65,283.3Z"/><path class="cls-2" d="M529.48,386.36H942.15a5.32,5.32,0,0,1,5.19,4.14,5.27,5.27,0,0,1,0,2.37L890,645.65a5.35,5.35,0,0,1-5.19,4.14H472.16a5.58,5.58,0,0,1-2.31-.53,5.35,5.35,0,0,1-2.88-3.62,5.37,5.37,0,0,1,0-2.36L524.33,390.5a5.32,5.32,0,0,1,1.86-3A5.25,5.25,0,0,1,529.48,386.36Z"/><path class="cls-4" d="M529.48,386.36H942.15a5.32,5.32,0,0,1,5.19,4.14,5.27,5.27,0,0,1,0,2.37L890,645.65a5.35,5.35,0,0,1-5.19,4.14H472.16a5.58,5.58,0,0,1-2.31-.53,5.35,5.35,0,0,1-2.88-3.62,5.37,5.37,0,0,1,0-2.36L524.33,390.5a5.32,5.32,0,0,1,1.86-3A5.25,5.25,0,0,1,529.48,386.36Z"/><path class="cls-2" d="M520.16,386.36H932.83A5.32,5.32,0,0,1,938,390.5a5.27,5.27,0,0,1,0,2.37L880.7,645.65a5.35,5.35,0,0,1-5.19,4.14H462.85a5.58,5.58,0,0,1-2.31-.53,5.35,5.35,0,0,1-2.88-3.62,5.37,5.37,0,0,1,0-2.36L515,390.5a5.32,5.32,0,0,1,5.18-4.14Z"/><path class="cls-5" d="M520.16,386.36H932.83A5.32,5.32,0,0,1,938,390.5a5.27,5.27,0,0,1,0,2.37L880.7,645.65a5.35,5.35,0,0,1-5.19,4.14H462.85a5.58,5.58,0,0,1-2.31-.53,5.35,5.35,0,0,1-2.88-3.62,5.37,5.37,0,0,1,0-2.36L515,390.5a5.32,5.32,0,0,1,5.18-4.14Z"/><path class="cls-2" d="M614.33,435.38h-80.9a5.28,5.28,0,0,1-5.25-5.25l5.22-20.19a5.26,5.26,0,0,1,5.25-5.25h80.9a5.26,5.26,0,0,1,5.25,5.25l-5.22,20.19a5.2,5.2,0,0,1-1.54,3.7,5.27,5.27,0,0,1-3.71,1.55ZM538.64,406a3.93,3.93,0,0,0-3.92,3.92l-5.22,20.19a3.94,3.94,0,0,0,3.92,3.92h80.91a3.94,3.94,0,0,0,2.77-1.16,3.88,3.88,0,0,0,1.15-2.76L623.47,410a3.93,3.93,0,0,0-3.92-3.92Z"/><path class="cls-2" d="M727.83,435.38h-80.9a5.28,5.28,0,0,1-5.25-5.25l5.22-20.19a5.26,5.26,0,0,1,5.25-5.25h80.9a5.26,5.26,0,0,1,5.25,5.25l-5.22,20.19a5.28,5.28,0,0,1-5.25,5.25ZM652.14,406a3.93,3.93,0,0,0-3.92,3.92L643,430.14a3.94,3.94,0,0,0,3.92,3.92h80.9a3.94,3.94,0,0,0,3.92-3.92L737,410a3.93,3.93,0,0,0-1.15-2.77A3.89,3.89,0,0,0,733,406Z"/><path class="cls-2" d="M717,476.3H600.33a4.08,4.08,0,0,1-4.08-4.08h0a4.1,4.1,0,0,1,4.08-4.08H717a4.08,4.08,0,0,1,4.08,4.08h0a4.08,4.08,0,0,1-1.19,2.89,4.14,4.14,0,0,1-1.33.89,3.94,3.94,0,0,1-1.56.3Z"/><path class="cls-2" d="M649.09,507.5H596.51a4.08,4.08,0,0,1-2.88-1.19,4.08,4.08,0,0,1-1.2-2.89,4.08,4.08,0,0,1,4.08-4.08h52.58a4.08,4.08,0,0,1,2.89,1.2,4.09,4.09,0,0,1,0,5.77,4,4,0,0,1-2.89,1.19Z"/><path class="cls-6" d="M717,476.3H600.33a4.08,4.08,0,0,1-4.08-4.08h0a4.1,4.1,0,0,1,4.08-4.08H717a4.08,4.08,0,0,1,4.08,4.08h0a4.08,4.08,0,0,1-1.19,2.89,4.14,4.14,0,0,1-1.33.89,3.94,3.94,0,0,1-1.56.3Z"/><path class="cls-6" d="M649.09,507.5H596.51a4.08,4.08,0,0,1-2.88-1.19,4.08,4.08,0,0,1-1.2-2.89,4.08,4.08,0,0,1,4.08-4.08h52.58a4.08,4.08,0,0,1,2.89,1.2,4.09,4.09,0,0,1,0,5.77,4,4,0,0,1-2.89,1.19Z"/><path class="cls-2" d="M751.24,476.3h-14a4.08,4.08,0,0,1,0-8.16h14a4.08,4.08,0,0,1,4.08,4.08h0a4.06,4.06,0,0,1-4.08,4.08Z"/><path class="cls-2" d="M574.6,480.59H564a3,3,0,0,1-3-2.31,3,3,0,0,1,0-1.33l2.12-10.7a3.07,3.07,0,0,1,3-2.47h10.58a3.3,3.3,0,0,1,1.31.3,2.91,2.91,0,0,1,1.05.82,3,3,0,0,1,.64,2.54l-2.12,10.7a3.1,3.1,0,0,1-1.06,1.76,3,3,0,0,1-1.95.69Z"/><path class="cls-6" d="M574.6,480.59H564a3,3,0,0,1-3-2.31,3,3,0,0,1,0-1.33l2.12-10.7a3.07,3.07,0,0,1,3-2.47h10.58a3.3,3.3,0,0,1,1.31.3,2.91,2.91,0,0,1,1.05.82,3,3,0,0,1,.64,2.54l-2.12,10.7a3.1,3.1,0,0,1-1.06,1.76,3,3,0,0,1-1.95.69Z"/><path class="cls-2" d="M569,510.84H558.45a3,3,0,0,1-3-2.31,3,3,0,0,1,0-1.33l2.12-10.7a3.07,3.07,0,0,1,3-2.47h10.58a3.3,3.3,0,0,1,1.31.3,2.91,2.91,0,0,1,1,.82,3,3,0,0,1,.64,2.54L572,508.39a3.05,3.05,0,0,1-3,2.45Z"/><path class="cls-1" d="M183,670.49a125.24,125.24,0,1,1,13.15,47,125.23,125.23,0,0,1-13.15-47Z"/><path class="cls-7" d="M434,604.61l18.09-2.13a3,3,0,0,1,1.59.23,3.12,3.12,0,0,1,1.84,2.5,3.11,3.11,0,0,1-.25,1.59l-2,4.39a6.84,6.84,0,0,1-1.56,2.2,7.08,7.08,0,0,1-2.3,1.44l-23.65,8.8,9.54-20.51"/><path class="cls-8" d="M434,604.61l18.09-2.13a3,3,0,0,1,1.59.23,3.12,3.12,0,0,1,1.84,2.5,3.11,3.11,0,0,1-.25,1.59l-2,4.39a6.84,6.84,0,0,1-1.56,2.2,7.08,7.08,0,0,1-2.3,1.44l-23.65,8.8"/><path class="cls-2" d="M509.41,714.91l-86-47.6a4.28,4.28,0,0,1-1.25-1.07,4,4,0,0,1-.74-1.48,4.12,4.12,0,0,1-.11-1.64,4.23,4.23,0,0,1,.55-1.55l66.57-111.74a4.08,4.08,0,0,1,5.42-1.55l87.54,45.12a4.09,4.09,0,0,1,1.3,1,4.36,4.36,0,0,1,.77,1.48,4.18,4.18,0,0,1-.42,3.24L515,713.41a4.15,4.15,0,0,1-5.56,1.5Z"/><path class="cls-9" d="M509.41,714.91l-86-47.6a4.28,4.28,0,0,1-1.25-1.07,4,4,0,0,1-.74-1.48,4.12,4.12,0,0,1-.11-1.64,4.23,4.23,0,0,1,.55-1.55l66.57-111.74a4.08,4.08,0,0,1,5.42-1.55l87.54,45.12a4.09,4.09,0,0,1,1.3,1,4.36,4.36,0,0,1,.77,1.48,4.18,4.18,0,0,1-.42,3.24L515,713.41a4.15,4.15,0,0,1-5.56,1.5Z"/><path class="cls-10" d="M505.06,712.62l-86-47.6a4.11,4.11,0,0,1-1.25-1.06,4,4,0,0,1-.74-1.48,4.12,4.12,0,0,1-.11-1.64,4.34,4.34,0,0,1,.55-1.56l66.57-111.74A4.11,4.11,0,0,1,489.5,546L577,591.11a4.27,4.27,0,0,1,1.3,1,4.36,4.36,0,0,1,.77,1.48,4,4,0,0,1,.12,1.66,4,4,0,0,1-.54,1.57L510.62,711.13a4.14,4.14,0,0,1-5.56,1.49Z"/><path class="cls-7" d="M411.41,626.71l11.73-19.92a12.61,12.61,0,0,1,7.14-5.66l20.65-6.46a2.62,2.62,0,0,1,3.24,1.52,2.62,2.62,0,0,1-1.29,3.33L436,608l-7.69,15a1.73,1.73,0,0,0-.16,1.14,1.71,1.71,0,0,0,.58,1,1.73,1.73,0,0,0,1.07.41,1.65,1.65,0,0,0,1.09-.34l7.73-5.7a6,6,0,0,1,8.07.95,1.49,1.49,0,0,1,0,1.92l-27.86,33.17-28.6-8.78Z"/><path class="cls-11" d="M445.88,654l-.24-.06L433,647a.64.64,0,0,1-.15-.13.76.76,0,0,1-.09-.18.5.5,0,0,1,0-.21.4.4,0,0,1,.07-.19l7.59-12.06a.51.51,0,0,1,.3-.22.46.46,0,0,1,.36,0L453.72,641a.37.37,0,0,1,.15.13.38.38,0,0,1,.09.18.44.44,0,0,1,0,.2.5.5,0,0,1-.08.2l-7.57,12.06a.45.45,0,0,1-.19.17A.58.58,0,0,1,445.88,654ZM434,646.31l11.75,6.44,7.06-11.22L441,635.09Z"/><path class="cls-11" d="M457.17,636l-.24-.06-12.6-6.92a.64.64,0,0,1-.15-.13.76.76,0,0,1-.09-.18.5.5,0,0,1,0-.21.4.4,0,0,1,.07-.19l7.6-12.06a.49.49,0,0,1,.66-.17L465,623a.37.37,0,0,1,.15.13.31.31,0,0,1,.09.18.44.44,0,0,1,0,.2.5.5,0,0,1-.08.2l-7.59,12.06a.55.55,0,0,1-.19.18.65.65,0,0,1-.27,0Zm-11.93-7.6L457,634.87l7.05-11.22-11.72-6.44Z"/><path class="cls-2" d="M441.67,648l-.7-5.66a.59.59,0,0,1,.13-.41.55.55,0,0,1,.36-.22l1.49-.18a.6.6,0,0,1,.41.12.59.59,0,0,1,.22.37l.45,3.64,8.79-1.1a.6.6,0,0,1,.41.12.59.59,0,0,1,.22.37l.18,1.49a.62.62,0,0,1-.12.41.64.64,0,0,1-.37.22l-10.81,1.34a.82.82,0,0,1-.22,0,.68.68,0,0,1-.21-.1.49.49,0,0,1-.14-.18.58.58,0,0,1-.07-.21"/><path class="cls-2" d="M453.1,630l-.7-5.66a.58.58,0,0,1,.13-.4.61.61,0,0,1,.36-.23l1.49-.18a.61.61,0,0,1,.41.13.55.55,0,0,1,.22.36l.45,3.64,8.79-1.1a.61.61,0,0,1,.41.13.55.55,0,0,1,.22.36l.18,1.49a.59.59,0,0,1-.12.41.55.55,0,0,1-.37.22l-10.83,1.34a.54.54,0,0,1-.42-.12.57.57,0,0,1-.22-.39"/><path class="cls-11" d="M493.38,677.56,454,655.69a1,1,0,0,1-.5-.64,1,1,0,0,1,.09-.81h0a1.11,1.11,0,0,1,.64-.5,1.09,1.09,0,0,1,.81.09l39.36,21.87a1,1,0,0,1,.5.65,1,1,0,0,1-.09.8h0a1,1,0,0,1-.64.5A1,1,0,0,1,493.38,677.56Z"/><path class="cls-11" d="M477.73,663,456.6,651.3a1,1,0,0,1-.5-.64,1,1,0,0,1,.09-.81,1.11,1.11,0,0,1,.64-.5,1.09,1.09,0,0,1,.81.09l21.13,11.72a1.05,1.05,0,0,1,.41,1.45h0a1,1,0,0,1-.27.32,1.27,1.27,0,0,1-.37.18,1,1,0,0,1-.42,0,1.14,1.14,0,0,1-.39-.14Z"/><path class="cls-11" d="M504.42,658.44l-39.36-21.87a1.08,1.08,0,0,1-.41-1.45h0a1.11,1.11,0,0,1,.64-.5,1.09,1.09,0,0,1,.81.09l39.36,21.87a1.06,1.06,0,0,1-.23,1.95A1,1,0,0,1,504.42,658.44Z"/><path class="cls-11" d="M488.77,643.88l-21.13-11.72a1.07,1.07,0,0,1-.5-.64,1,1,0,0,1,.09-.81h0a1.11,1.11,0,0,1,.64-.5,1.09,1.09,0,0,1,.81.09L489.81,642a1.07,1.07,0,1,1-1,1.86Z"/><path d="M528.4,658.62a.38.38,0,0,1-.25-.07c-2.8-1.64-6.19-1.92-9.17-2.16s-5.47-.45-6.25-2.1.54-7.47,2.8-16.71c2.83-11.53,6.71-27.33,3-29.33-2.19-1.16-7.63,1.91-11.61,4.15-1.56.88-2.91,1.64-4,2.11h-.1a5.15,5.15,0,0,1-4.78-.34,5.82,5.82,0,0,1-2.8-4.45c-.32-3.39.34-8.2,1-12.86.87-6.34,1.85-13.53-.34-14.7-2.49-1.31-9.9,4.9-14.33,8.62-1.6,1.35-3,2.51-3.87,3.1-3.86,2.63-8.82,1.2-9,1.14a.34.34,0,0,1-.18-.09.47.47,0,0,1-.13-.15.51.51,0,0,1-.05-.4.55.55,0,0,1,.25-.31A.53.53,0,0,1,469,594s4.72,1.35,8.19-1c.83-.57,2.2-1.72,3.79-3,6.51-5.46,12.59-10.25,15.44-8.73s1.9,8.09.86,15.72c-.63,4.6-1.28,9.35-1,12.62a4.83,4.83,0,0,0,.72,2.12,4.68,4.68,0,0,0,1.59,1.57,4.3,4.3,0,0,0,1.9.61,4.25,4.25,0,0,0,2-.32h.1c1-.45,2.4-1.24,3.87-2.07,4.42-2.49,9.91-5.59,12.59-4.16,4.42,2.37.76,17.28-2.48,30.45-1.75,7.16-3.57,14.56-2.87,16,.53,1.12,2.8,1.31,5.43,1.52,2.94.24,6.6.54,9.59,2.3a.51.51,0,0,1,.21.25.47.47,0,0,1,0,.31.5.5,0,0,1-.18.27.45.45,0,0,1-.3.1Z"/><path class="cls-2" d="M496,583.2a1.5,1.5,0,1,0-1.5-1.5A1.5,1.5,0,0,0,496,583.2Z"/><path class="cls-2" d="M508.05,612.63a1.5,1.5,0,1,0-1.5-1.5A1.5,1.5,0,0,0,508.05,612.63Z"/><path class="cls-2" d="M522.69,657.82a1.5,1.5,0,1,0-1.5-1.5A1.5,1.5,0,0,0,522.69,657.82Z"/><path d="M554.48,571.3l-8.2-4.51a12.1,12.1,0,0,0,1.43-4.51,12.29,12.29,0,0,0-.41-4.71,12.1,12.1,0,0,0-2.19-4.19,12,12,0,0,0-3.62-3,12.14,12.14,0,0,0-4.51-1.42,12.11,12.11,0,0,0-12,6.21l-8.2-4.51a2.13,2.13,0,0,0-.75-.24,2.07,2.07,0,0,0-.78.07,2,2,0,0,0-.69.36,2.09,2.09,0,0,0-.51.6l-10,18.29a2.06,2.06,0,0,0-.24.75,2,2,0,0,0,.43,1.48,1.81,1.81,0,0,0,.6.5l37.65,20.69a2,2,0,0,0,.75.24,2,2,0,0,0,.78-.06,2,2,0,0,0,.7-.36,2,2,0,0,0,.5-.61L555.32,574a1.82,1.82,0,0,0,.23-.75,1.92,1.92,0,0,0-.08-.79,1.85,1.85,0,0,0-.37-.69,2,2,0,0,0-.62-.5Zm-15.15-8.38a4.17,4.17,0,0,1-1.73,1.7,4.22,4.22,0,0,1-2.39.44,4.15,4.15,0,0,1-3.55-3,4.24,4.24,0,0,1,0-2.42,4.12,4.12,0,0,1,1.38-2,4.19,4.19,0,0,1,2.25-.91,4.17,4.17,0,0,1,4.37,3,4.19,4.19,0,0,1-.35,3.18Z"/><path class="cls-10" d="M511.83,565.16l33,18.14a1.81,1.81,0,0,1,.6.5,2,2,0,0,1,.37.7,2,2,0,0,1-.18,1.53l-1.49,2.7a2.22,2.22,0,0,1-.5.6,2.12,2.12,0,0,1-.7.36,2.05,2.05,0,0,1-.78.07,2.2,2.2,0,0,1-.75-.24l-33-18.14a2,2,0,0,1-.6-.51,1.8,1.8,0,0,1-.36-.7,1.86,1.86,0,0,1-.07-.78,2,2,0,0,1,.24-.74l1.49-2.7a2,2,0,0,1,.51-.61,2,2,0,0,1,.69-.36,2.06,2.06,0,0,1,.78-.06A1.79,1.79,0,0,1,511.83,565.16Z"/><path class="cls-2" d="M363.93,659l40.17-25.41,17.71,18.32L376,710.84Z"/><path class="cls-7" d="M526,664.6l-15.28-6.3a2.77,2.77,0,0,0-1.45-.18,2.68,2.68,0,0,0-1.34.57,2.73,2.73,0,0,0-.88,1.16,2.87,2.87,0,0,0-.17,1.45l.62,4.32a6.21,6.21,0,0,0,.83,2.32,6,6,0,0,0,1.65,1.81l18.5,13.49L525.21,663"/><path class="cls-8" d="M526,664.6l-15.28-6.3a2.77,2.77,0,0,0-1.45-.18,2.68,2.68,0,0,0-1.34.57,2.73,2.73,0,0,0-.88,1.16,2.87,2.87,0,0,0-.17,1.45l.62,4.32a6.21,6.21,0,0,0,.83,2.32,6,6,0,0,0,1.65,1.81l18.5,13.49L525.21,663"/><path class="cls-7" d="M533,683.59l-3.61-8.9a2,2,0,0,1,0-1.39,109,109,0,0,0,3-11.25,1.94,1.94,0,0,0-.23-1.35,2,2,0,0,0-1.05-.89c-3.89-1.47-14.34-5.37-15.44-5.3a2.46,2.46,0,0,0-1.52.63,2.37,2.37,0,0,0-.76,1.46c-.63,4.83,8.57,7.64,8.57,7.64l-7.57,11.93a1.52,1.52,0,0,1-.93.49,1.58,1.58,0,0,1-1.73-2l2.59-8.32a5.39,5.39,0,0,0-3.21-6.64,1.4,1.4,0,0,0-1.65.56L489.22,694l16,21.93,27.32-30.16a1.9,1.9,0,0,0,.52-1A2,2,0,0,0,533,683.59Z"/><path class="cls-12" d="M504.16,641.74a.45.45,0,0,0-.22.23.44.44,0,0,0,0,.32l.58,1.33.81-.32-.58-1.33a.6.6,0,0,0-.09-.15.46.46,0,0,0-.15-.09.29.29,0,0,0-.18,0,.47.47,0,0,0-.17,0Z"/><path d="M504.16,641.74a.45.45,0,0,0-.22.23.44.44,0,0,0,0,.32l.58,1.33.81-.32-.58-1.33a.6.6,0,0,0-.09-.15.46.46,0,0,0-.15-.09.29.29,0,0,0-.18,0,.47.47,0,0,0-.17,0Z"/><path class="cls-12" d="M513.55,654.62l-1.66.72,23.63,54.15,1.29-.56a.45.45,0,0,0,.22-.23.37.37,0,0,0,0-.31Z"/><path class="cls-12" d="M511.13,655.65l-4,1.72,23.46,53.77a.45.45,0,0,0,.23.22.37.37,0,0,0,.31,0l3.58-1.55Z"/><path d="M513.55,654.62l-1.66.72,23.63,54.15,1.29-.56a.45.45,0,0,0,.22-.23.37.37,0,0,0,0-.31Z"/><path d="M511.13,655.65l-4,1.72,23.46,53.77a.45.45,0,0,0,.23.22.37.37,0,0,0,.31,0l3.58-1.55Z"/><path class="cls-12" d="M537.52,714.3l-3,1.29a.7.7,0,0,1-.25,0,.75.75,0,0,1-.26,0,1.07,1.07,0,0,1-.22-.15.55.55,0,0,1-.14-.22l-1.8-4.14,4.17-1.81,1.8,4.15a.72.72,0,0,1,0,.5.67.67,0,0,1-.33.37Z"/><path class="cls-12" d="M513.55,654.61l-6.37,2.76-1.85-4.23c-.76-1.76-2.34-9.32-.58-10.08s6.19,5.56,6.95,7.32Z"/><path class="cls-12" d="M526.13,700.74l3.31,7.64-3.89-1.59-.64-1.48-2.67-6.16-8.16-18.85-1.4-3.24.6-.26a1.81,1.81,0,0,1,1.21-.12,1.78,1.78,0,0,1,1,.7,1.73,1.73,0,0,1,.31,1.17,1.75,1.75,0,0,1-.52,1.09L524,699.85Z"/><path class="cls-7" d="M489.24,694l20.18-33.74a1.37,1.37,0,0,1,.72-.58,1.41,1.41,0,0,1,.93,0,5.42,5.42,0,0,1,2.95,2.68,5.33,5.33,0,0,1,.31,4l-2.59,8.32Z"/><path class="cls-7" d="M426.33,511l4.4,29.55a4.12,4.12,0,0,0,.87,2,4.07,4.07,0,0,0,1.73,1.28l3.42,1.34a5.61,5.61,0,0,1,2.67,2.21,5.54,5.54,0,0,1,.84,3.36v.11a5.75,5.75,0,0,1-1.4,3.37,5.67,5.67,0,0,1-3.14,1.83c-2,.4-3.85.81-3.85.81L428.23,573a15.89,15.89,0,0,1-18.16,12.18l-8.29-1.39L374.2,615.48,347.65,569.3l14.87-22.17L377,502.3Z"/><path class="cls-13" d="M356.44,500.31c5-9.42,11.3-12.61,20.95-11.83a4.34,4.34,0,0,0,3.76-2.33c2-3.23,6.9-8.74,17.3-8.07A17.54,17.54,0,0,1,413,486.79a5,5,0,0,0,6.2,1.9,14.24,14.24,0,0,1,14,1.44c10.74,7.06,5.9,25.7-5.71,27.18l-9.28.77a3.62,3.62,0,0,0-3.32,3.23,13.23,13.23,0,0,1-1.44,4.7A13.39,13.39,0,0,1,400,533a2.24,2.24,0,0,0-.89.1,2.32,2.32,0,0,0-.77.46,2.12,2.12,0,0,0-.52.73,2.16,2.16,0,0,0-.18.88v10.41a2.84,2.84,0,0,1-.42,1.52,2.88,2.88,0,0,1-1.18,1.06,2.74,2.74,0,0,1-1.1.23,3,3,0,0,1-1.1-.24,2.83,2.83,0,0,1-.9-.67,2.72,2.72,0,0,1-.55-1l-2.16-6.9a6.3,6.3,0,0,0-2-3,6.41,6.41,0,0,0-3.31-1.4l-2.72-.32c-2.71,3.91-5.22,8.29-7.54,11.68a25.92,25.92,0,0,1-5.53,6.15c-3.93,2.93-7.09,1.89-9-2.15,0,0-11.82-26.16-5.76-45.4a29.91,29.91,0,0,1,2.06-4.92"/><path class="cls-8" d="M369.15,552.79l7.67,1c.25.15.53.29.81.44,2.65,1.38,7.06,3.2,10.71,2.26A1,1,0,0,0,389,556a1,1,0,0,0,.11-.76,1,1,0,0,0-1.23-.71,6.77,6.77,0,0,1-1.85.19l-11.3-8a26.12,26.12,0,0,1-5.53,6.15"/><path class="cls-2" d="M434.13,534.27l-45.82,3.2.17,2.31,45.82-3.2Z"/><path class="cls-7" d="M386.49,534s-3.24-7-10.45-3c-8.25,4.57-4.75,24,9.93,23.75,7.7-.12,5.73-4.36,3.9-10.14Z"/><path class="cls-14" d="M376.08,536.05a5.43,5.43,0,0,1,4.1-1.46,5.35,5.35,0,0,1,3.57,2.38,10.78,10.78,0,0,1,1.93,5.2l.29,1.7a.81.81,0,0,1,0,.38.74.74,0,0,1-.15.34.92.92,0,0,1-.27.25,1.09,1.09,0,0,1-.36.12.94.94,0,0,1-.37,0,.92.92,0,0,1-.32-.18,1.09,1.09,0,0,1-.23-.3,1,1,0,0,1-.08-.37l-.29-1.7a10.42,10.42,0,0,0-1.59-4.33,3.68,3.68,0,0,0-1-1.07,3.88,3.88,0,0,0-1.34-.61,3.8,3.8,0,0,0-1.49.25,3.92,3.92,0,0,0-1.26.82.85.85,0,0,1-.31.17,1,1,0,0,1-.34,0,.75.75,0,0,1-.33-.1.73.73,0,0,1-.27-.22.94.94,0,0,1-.17-.31,1,1,0,0,1,0-.34,1,1,0,0,1,.1-.34,1.13,1.13,0,0,1,.22-.27"/><path class="cls-2" d="M433,546.74a1.12,1.12,0,0,1-.55-.38,1.14,1.14,0,0,1-.25-.62l-2.8-21a1.13,1.13,0,0,1,.23-.85,1.16,1.16,0,0,1,.77-.45,1.13,1.13,0,0,1,.45,0,1.2,1.2,0,0,1,.41.2,1.17,1.17,0,0,1,.29.34,1.14,1.14,0,0,1,.14.43l2.8,21a1.14,1.14,0,0,1-.23.86,1.13,1.13,0,0,1-.77.44,1.35,1.35,0,0,1-.49,0"/><path class="cls-14" d="M424,562.88a13.9,13.9,0,0,0,6.18,1.62l.41-2.28a12.53,12.53,0,0,1-7.51-2.77,1.12,1.12,0,0,0-.83-.29,1.09,1.09,0,0,0-.79.38,1.12,1.12,0,0,0-.29.83,1.17,1.17,0,0,0,.38.8,12,12,0,0,0,2.45,1.71"/><path class="cls-2" d="M400.82,631l-8.7-9.73.64-12.85-40.37-47.31L341.7,571.37a53.14,53.14,0,0,0-50.13,33.42S237,750.54,237.85,766a129.32,129.32,0,0,0,71.85,20.15s10.43-.57,15.14-1.16c2.33-.29,12.19-2.22,12.79-2.36A128.33,128.33,0,0,0,360.2,775l2.59-61.88,50.12-44.68-.12-6.9a47.11,47.11,0,0,0-12-30.54Z"/><path class="cls-4" d="M361.77,735.86c-40.64-18.44-80.68-102.66-80.68-102.66l-11.84,34s32.38,71.56,91.29,99Z"/><path class="cls-8" d="M390.48,621.22,355,583.4a1.36,1.36,0,0,1-.24-.38,1.1,1.1,0,0,1-.07-.44,1.13,1.13,0,0,1,.1-.44,1.18,1.18,0,0,1,.26-.37,1.14,1.14,0,0,1,.38-.23,1.16,1.16,0,0,1,.45-.08,1.34,1.34,0,0,1,.44.1,1.14,1.14,0,0,1,.36.26l35.5,37.82-.05,1.63a1.32,1.32,0,0,1-.57.31,1.38,1.38,0,0,1-.64,0Z"/><path class="cls-14" d="M401.75,583.79l-6.1-1.25a1.76,1.76,0,0,0-1,.1,1.67,1.67,0,0,0-1,1.71,1.65,1.65,0,0,0,.42.95L397.2,589Z"/><path class="cls-2" d="M356.91,701.13l13.92,75.79a27.88,27.88,0,0,0,43.72,13.14l90.7-74.18-16-22-69.12,36.65-7.75-69.46Z"/><path class="cls-8" d="M420.13,730.52l1.14,8.83a2.73,2.73,0,0,0,.65,1.42,2.65,2.65,0,0,0,1.33.82,2.71,2.71,0,0,0,1.57-.06,2.78,2.78,0,0,0,1.26-.93l16.51-22.4Z"/><path class="cls-8" d="M360.18,775l3-73.62a1.52,1.52,0,0,0-.44-1.06,1.5,1.5,0,0,0-2.12,0,1.52,1.52,0,0,0-.44,1.06l-14.46,79s5.84-1.94,7.77-2.66C355.18,777.13,360.18,775,360.18,775Z"/><path class="cls-10" d="M747.6,252.52c2.1-.3,3.68-1.49,3.51-2.66s-2-1.9-4.11-1.6-3.68,1.48-3.51,2.66S745.49,252.81,747.6,252.52Z"/><path class="cls-13" d="M787.64,196.48A21.64,21.64,0,1,0,766,174.84,21.64,21.64,0,0,0,787.64,196.48Z"/><path class="cls-2" d="M779.83,168.48a21.62,21.62,0,0,0-13.34,1.82,3.6,3.6,0,0,1-.15.63,21.49,21.49,0,0,0-.08,7.2,21.63,21.63,0,0,1,24.63,18.06,21.47,21.47,0,0,0,6.21-1.94,3.18,3.18,0,0,1,.14-.61,21.63,21.63,0,0,0-17.41-25.16Z"/><path class="cls-13" d="M760.74,269.89a12.18,12.18,0,1,0-12.18-12.18A12.18,12.18,0,0,0,760.74,269.89Z"/><path class="cls-15" d="M778,219.62,790,260a7.4,7.4,0,0,0,1.36,2.59,7.5,7.5,0,0,0,2.25,1.87,7.68,7.68,0,0,0,2.8.87,7.34,7.34,0,0,0,2.91-.28l4.83-1.22S793.83,282.2,767,288.67c-14,3.36-28.58-2.32-28.58-2.32l7.84-4s.57-.68.89-6.66a51,51,0,0,0-.31-8.47c-1.66-11.41-6.71-45.28-6.71-45.28Z"/><path class="cls-15" d="M758,260.3l2-.39a25.91,25.91,0,0,0,19.95-20.77,26.07,26.07,0,0,0-.21-10.11l-7.87-35.52a8.67,8.67,0,0,0-1.35-3.1,8.77,8.77,0,0,0-2.45-2.33,8.53,8.53,0,0,0-3.16-1.22,8.74,8.74,0,0,0-3.38.09l-33.26,7.27a11.26,11.26,0,0,0-8.54,13.4l7.33,33A26.11,26.11,0,0,0,758,260.3Z"/><path class="cls-13" d="M749.18,229.82a2.81,2.81,0,1,0-2.81-2.81A2.81,2.81,0,0,0,749.18,229.82Z"/><path class="cls-10" d="M747.92,227.37a.58.58,0,1,0-.58-.58A.58.58,0,0,0,747.92,227.37Z"/><path class="cls-13" d="M728.06,235.44a2.81,2.81,0,1,0-2.81-2.81A2.81,2.81,0,0,0,728.06,235.44Z"/><path class="cls-10" d="M726.76,232.87a.58.58,0,1,0-.58-.58A.58.58,0,0,0,726.76,232.87Z"/><path class="cls-8" d="M743.38,240l3.7-.62a.8.8,0,0,0,.56-.31.83.83,0,0,0,.17-.61.78.78,0,0,0-.31-.55.84.84,0,0,0-.61-.18l-3.7.62a1.56,1.56,0,0,1-.68,0,1.8,1.8,0,0,1-.62-.27,1.69,1.69,0,0,1-.46-.5,1.77,1.77,0,0,1-.24-.64,1.93,1.93,0,0,1,.31-1.28,1.88,1.88,0,0,1,1.07-.78.71.71,0,0,0,.31-.1.72.72,0,0,0,.25-.21.87.87,0,0,0,.17-.61.67.67,0,0,0-.1-.3.72.72,0,0,0-.21-.25.73.73,0,0,0-.29-.15.85.85,0,0,0-.32,0,3.43,3.43,0,0,0-2.73,3.87,3,3,0,0,0,1.16,2.37A3,3,0,0,0,742,240,3.07,3.07,0,0,0,743.38,240Z"/><path class="cls-8" d="M745.71,260a28.68,28.68,0,0,0,13.81.08l3-.81a3.83,3.83,0,0,0,1.1-.41l.22-.06c.53-.27,1.1-.41,1.75-.71.22-.06.42-.24.65-.3a26.72,26.72,0,0,0,8-5.51.76.76,0,0,1,1.26.48.73.73,0,0,1-.13.52,29.62,29.62,0,0,1-10.52,6.8,23,23,0,0,1-12,8A24.42,24.42,0,0,1,747,269Z"/><path class="cls-13" d="M773.21,192.41c-.85-7.73-2.83-2.1-7.28-6.12s-25-.46-25-.46c-3.59,2.37-12.62,6.54-9.64,13.07,11.94,26.12,45,15,45,15Z"/><path class="cls-13" d="M795,190.77c-1-11.13-10.82-17-18.34-18.42-4.7-.86-8.48-.89-14.54-.48-56.7,3.81-45.37,43.22-45.37,43.22l21.51-20.22,37.65,17.06s11.76,3.52,9,12.69c-2.39,7.89-10.34,9.16-10.34,9.16a36,36,0,0,0,10.8,10.71S798.76,228.75,795,190.77Z"/><path class="cls-13" d="M716.71,215.08c-7.92-26,16.44-25.89,16.44-25.89,2.5,0,.41-.42,1.37,3.65,2.82,12-2.1,18.24-10.3,20.35C722.2,213.72,716.71,215.08,716.71,215.08Z"/><path class="cls-15" d="M772.72,234.11s12.38-1.23,12.81-13.69-15-12.12-14.89.44l.72,13.61Z"/><path class="cls-8" d="M780.61,214.71a4.8,4.8,0,0,0-3.83-.32,4.4,4.4,0,0,0-1.56,1.14,4.47,4.47,0,0,0-1,1.7,9.16,9.16,0,0,0-.5,5l.22,1.27c.12.94,1.83,1,1.64-.19l-.13-1.41a8.56,8.56,0,0,1,.36-4.08,3.37,3.37,0,0,1,1.64-2,3.44,3.44,0,0,1,2.61.26.91.91,0,0,0,.63,0,.88.88,0,0,0,.47-.4.94.94,0,0,0-.13-.59.87.87,0,0,0-.47-.37Z"/><path class="cls-2" d="M775.25,231.61a2.47,2.47,0,1,0-2.47-2.47A2.46,2.46,0,0,0,775.25,231.61Z"/><path class="cls-8" d="M774.81,231.5a2.7,2.7,0,0,0,1-.37,2.56,2.56,0,0,0,.77-.73,2.66,2.66,0,0,0,.43-2,2.72,2.72,0,0,0-.71-1.27,2.67,2.67,0,0,1,1.44,1.79,2.39,2.39,0,0,1,0,1,2.43,2.43,0,0,1-1.08,1.55,2.71,2.71,0,0,1-.91.34,2.07,2.07,0,0,1-1.5-.21A.91.91,0,0,1,774.81,231.5Z"/><path class="cls-13" d="M770.72,221.19c.37-.57.13-5.34,2.36-7.58l-2-1.74s-2,5.44-1.91,8.93a.82.82,0,0,0,.21.46,1,1,0,0,0,.43.27.89.89,0,0,0,.51,0,.87.87,0,0,0,.4-.31Z"/><path class="cls-10" d="M746.86,244.47l1,.9a4.93,4.93,0,0,0,2.25,1,5.14,5.14,0,0,0,4.57-1.43,5.23,5.23,0,0,0,1.25-2.13l.43-1.55c.09-.33-.15-.64-.47-.51l-8.91,3a.36.36,0,0,0-.18.12.41.41,0,0,0-.07.41.4.4,0,0,0,.13.16Z"/><path class="cls-7" d="M584,459.3l16.52,3.27a2.75,2.75,0,0,0,1.48-.1,2.81,2.81,0,0,0,1.23-.83,2.83,2.83,0,0,0,.53-2.82l-1.47-4.23a6.39,6.39,0,0,0-1.28-2.14,6.57,6.57,0,0,0-2-1.5l-21.16-9.82,7.32,19.59"/><path class="cls-8" d="M584,459.3l16.52,3.27a2.75,2.75,0,0,0,1.48-.1,2.81,2.81,0,0,0,1.23-.83,2.83,2.83,0,0,0,.53-2.82l-1.47-4.23a6.39,6.39,0,0,0-1.28-2.14,6.57,6.57,0,0,0-2-1.5l-21.16-9.82,7.32,19.59"/><path class="cls-7" d="M573.33,441.65l5.37,8.18a2.09,2.09,0,0,1,.33,1.35A111.46,111.46,0,0,0,578.3,463a2.09,2.09,0,0,0,1.73,2c4.18.7,15.4,2.52,16.48,2.24a2.4,2.4,0,0,0,1.8-2.51c-.33-4.95-10.08-5.94-10.08-5.94l5.17-13.41a1.61,1.61,0,0,1,2.77-.06,1.59,1.59,0,0,1,.23,1.06l-.94,8.83a5.51,5.51,0,0,0,4.52,6,1.37,1.37,0,0,0,.93-.16,1.41,1.41,0,0,0,.61-.73l11.67-35.41-20-13-19.86,27.52a2.08,2.08,0,0,0-.32,1.11,2,2,0,0,0,.32,1.1Z"/><path class="cls-12" d="M610.42,477.77a.34.34,0,0,0,.12-.12.39.39,0,0,0,.06-.15.48.48,0,0,0,0-.17.46.46,0,0,0-.07-.16l-.84-1.21-.71.49.84,1.21a.43.43,0,0,0,.28.18A.41.41,0,0,0,610.42,477.77Z"/><path d="M610.42,477.77a.34.34,0,0,0,.12-.12.39.39,0,0,0,.06-.15.48.48,0,0,0,0-.17.46.46,0,0,0-.07-.16l-.84-1.21-.71.49.84,1.21a.43.43,0,0,0,.28.18A.41.41,0,0,0,610.42,477.77Z"/><path class="cls-12" d="M598.49,466.77l1.52-1L565.67,416.3l-1.17.81a.44.44,0,0,0-.17.27.42.42,0,0,0,.06.31Z"/><path class="cls-12" d="M600.7,465.24l3.62-2.5-34.1-49.08a.41.41,0,0,0-.27-.17.43.43,0,0,0-.31.06l-3.31,2.26Z"/><path d="M598.49,466.77l1.52-1L565.67,416.3l-1.17.81a.44.44,0,0,0-.17.27.42.42,0,0,0,.06.31Z"/><path d="M600.7,465.24l3.62-2.5-34.1-49.08a.41.41,0,0,0-.27-.17.43.43,0,0,0-.31.06l-3.31,2.26Z"/><path class="cls-12" d="M562.71,411.91l2.69-1.86a.72.72,0,0,1,.24-.1.82.82,0,0,1,.27,0,.72.72,0,0,1,.24.1.66.66,0,0,1,.19.18L569,414l-3.8,2.63-2.62-3.79a.67.67,0,0,1-.11-.5.77.77,0,0,1,.28-.44Z"/><path class="cls-12" d="M598.49,466.78l5.82-4,2.67,3.87c1.11,1.61,4.19,8.85,2.58,10s-7.29-4.33-8.4-5.93Z"/><path class="cls-12" d="M576.78,423.17l-4.82-7,4.2.82.93,1.35L581,424l11.88,17.2,2,3-.55.38a1.79,1.79,0,0,1-2.5-.46,1.84,1.84,0,0,1-.3-1,1.89,1.89,0,0,1,.3-1l-12.75-18.46Z"/><path class="cls-7" d="M613.18,425l-11.67,35.41a1.39,1.39,0,0,1-.61.72,1.43,1.43,0,0,1-.93.17,5.56,5.56,0,0,1-3.44-2.11,5.5,5.5,0,0,1-1.08-3.89l.94-8.83Z"/><path class="cls-2" d="M737.42,333.87l-70.5,30.3L613.19,425l-20-13,53.09-74a36.43,36.43,0,0,1,13-11.22l79.05-40.43Z"/><path class="cls-8" d="M714.49,313.69s4.07,15.17,4,28.3l-8.1,3.48a71.91,71.91,0,0,0,3.15-11.22,79.14,79.14,0,0,0,.9-20.56Z"/><path class="cls-3" d="M616.63,390.46a1.49,1.49,0,0,0,.86-.09,1.53,1.53,0,0,0,.65-.56,1.49,1.49,0,0,0-.7-2.18,1.54,1.54,0,0,0-.85-.07,1.48,1.48,0,0,0-1.15,1.18,1.44,1.44,0,0,0,.23,1.12,1.34,1.34,0,0,0,.42.4,1.47,1.47,0,0,0,.54.2Z"/><path class="cls-3" d="M643.78,360.38a1.49,1.49,0,0,0,.86-.09,1.53,1.53,0,0,0,.65-.56,1.48,1.48,0,0,0,.24-.82,1.48,1.48,0,0,0-.94-1.36,1.46,1.46,0,0,0-.85-.07,1.48,1.48,0,0,0-1.15,1.18,1.42,1.42,0,0,0,0,.58,1.45,1.45,0,0,0,.23.54,1.34,1.34,0,0,0,.42.4,1.47,1.47,0,0,0,.54.2Z"/><path class="cls-3" d="M671.1,332.39a1.49,1.49,0,0,0,.86-.09,1.53,1.53,0,0,0,.65-.56,1.48,1.48,0,0,0-1.56-2.25,1.52,1.52,0,0,0-.75.42,1.5,1.5,0,0,0-.39.76,1.42,1.42,0,0,0,0,.58,1.45,1.45,0,0,0,.23.54,1.34,1.34,0,0,0,.42.4,1.47,1.47,0,0,0,.54.2Z"/><path class="cls-3" d="M734.41,307.93a1.49,1.49,0,0,0,.86-.09,1.51,1.51,0,0,0,.89-1.39,1.48,1.48,0,0,0-.94-1.35,1.46,1.46,0,0,0-.85-.07,1.48,1.48,0,0,0-1.15,1.18,1.42,1.42,0,0,0,0,.58,1.44,1.44,0,0,0,.65.94,1.47,1.47,0,0,0,.54.2Z"/><path class="cls-3" d="M639.19,385.6a1.49,1.49,0,0,0,.86-.09,1.51,1.51,0,0,0,.89-1.39,1.48,1.48,0,0,0-.27-.81,1.42,1.42,0,0,0-.67-.54,1.48,1.48,0,0,0-.86-.07,1.52,1.52,0,0,0-.75.42,1.5,1.5,0,0,0-.39.76,1.42,1.42,0,0,0,0,.58,1.44,1.44,0,0,0,.65.94,1.47,1.47,0,0,0,.54.2Z"/><path class="cls-3" d="M699,341.52a1.49,1.49,0,0,0,.86-.09,1.51,1.51,0,0,0,.89-1.39,1.56,1.56,0,0,0-.26-.81,1.49,1.49,0,0,0-.68-.54,1.46,1.46,0,0,0-.85-.07,1.48,1.48,0,0,0-1.15,1.18,1.42,1.42,0,0,0,0,.58,1.52,1.52,0,0,0,.23.54,1.43,1.43,0,0,0,1,.6Z"/><path class="cls-3" d="M724.33,328a1.49,1.49,0,0,0,.86-.09,1.51,1.51,0,0,0,.89-1.39,1.56,1.56,0,0,0-.26-.81,1.49,1.49,0,0,0-.68-.54,1.46,1.46,0,0,0-.85-.07,1.48,1.48,0,0,0-1.15,1.18,1.42,1.42,0,0,0,0,.58,1.52,1.52,0,0,0,.23.54,1.43,1.43,0,0,0,1,.6Z"/><path class="cls-3" d="M695.33,322.73a1.49,1.49,0,0,0,.86-.09,1.53,1.53,0,0,0,.65-.56,1.49,1.49,0,0,0,.24-.83,1.48,1.48,0,0,0-.94-1.35,1.46,1.46,0,0,0-.85-.07,1.48,1.48,0,0,0-1.15,1.18,1.42,1.42,0,0,0,0,.58,1.45,1.45,0,0,0,.23.54,1.34,1.34,0,0,0,.42.4,1.47,1.47,0,0,0,.54.2Z"/><path class="cls-3" d="M618.15,411a1.49,1.49,0,0,0,.86-.09,1.53,1.53,0,0,0,.65-.56,1.48,1.48,0,0,0-1.56-2.25,1.52,1.52,0,0,0-.75.42,1.5,1.5,0,0,0-.39.76,1.42,1.42,0,0,0,0,.58,1.45,1.45,0,0,0,.23.54,1.34,1.34,0,0,0,.42.4,1.47,1.47,0,0,0,.54.2Z"/><path class="cls-3" d="M664,355a1.49,1.49,0,0,0,.86-.09,1.51,1.51,0,0,0,.89-1.39,1.49,1.49,0,0,0-1.8-1.42,1.52,1.52,0,0,0-.75.42,1.5,1.5,0,0,0-.39.76,1.42,1.42,0,0,0,0,.58,1.44,1.44,0,0,0,.65.94,1.47,1.47,0,0,0,.54.2Z"/><path class="cls-10" d="M717.38,232.3A11.31,11.31,0,1,0,737,222.72a9.93,9.93,0,0,1,5.46-1.33,13,13,0,0,0,0,3.74,11.3,11.3,0,0,0,8.77,9,11.33,11.33,0,1,0-8.49-14.29,10.42,10.42,0,0,0-6.8,1.69,11.35,11.35,0,0,0-18.52,10.76Zm26.34-7.39a9.8,9.8,0,1,1,11.4,7.85,9.88,9.88,0,0,1-11.4-7.84ZM718.87,232a9.79,9.79,0,1,1,4.08,6.29,9.74,9.74,0,0,1-4.08-6.29Z"/><path class="cls-8" d="M403.33,634.12s9,14.53,9.4,29.33L421.8,652l-17.71-18.33Z"/><path class="cls-1" d="M960.93,646.56l-227,146.3a11,11,0,0,0,2.48,19.68l227,75.65a11,11,0,0,0,14.48-10.44V655.81a11,11,0,0,0-5.73-9.67,11.11,11.11,0,0,0-5.67-1.33,10.89,10.89,0,0,0-5.56,1.75Z"/><path class="cls-16" d="M815.21,504.16h-4.08a.5.5,0,0,1-.35-.14.49.49,0,0,1-.15-.36.47.47,0,0,1,.15-.35.51.51,0,0,1,.35-.15h4a.51.51,0,0,1,.37.15.48.48,0,0,1,.16.35.4.4,0,0,1,0,.19.54.54,0,0,1-.1.16.42.42,0,0,1-.15.11.37.37,0,0,1-.18,0Zm-8.09,0h-4a.5.5,0,0,1-.35-.14.49.49,0,0,1-.15-.36.47.47,0,0,1,.15-.35.51.51,0,0,1,.35-.15h4a.55.55,0,0,1,.36.15.5.5,0,0,1,.14.35.52.52,0,0,1-.14.36A.54.54,0,0,1,807.12,504.16Zm-8,0h-4a.5.5,0,0,1-.35-.14.49.49,0,0,1-.15-.36.47.47,0,0,1,.15-.35.51.51,0,0,1,.35-.15h4a.55.55,0,0,1,.36.15.5.5,0,0,1,.14.35.52.52,0,0,1-.14.36A.54.54,0,0,1,799.12,504.16Zm-8,0h-4a.5.5,0,0,1-.35-.14.49.49,0,0,1-.15-.36.47.47,0,0,1,.15-.35.51.51,0,0,1,.35-.15h4a.55.55,0,0,1,.36.15.5.5,0,0,1,.14.35.52.52,0,0,1-.14.36A.54.54,0,0,1,791.12,504.16Zm-8,0h-4a.5.5,0,0,1-.35-.14.49.49,0,0,1-.15-.36.47.47,0,0,1,.15-.35.51.51,0,0,1,.35-.15h4a.55.55,0,0,1,.36.15.5.5,0,0,1,.14.35.52.52,0,0,1-.14.36A.54.54,0,0,1,783.12,504.16Zm-8,0H775a7.74,7.74,0,0,1-4-1.08.44.44,0,0,1-.15-.12.48.48,0,0,1-.08-.18.46.46,0,0,1,0-.2.56.56,0,0,1,.07-.18.47.47,0,0,1,.13-.15.61.61,0,0,1,.18-.09.67.67,0,0,1,.2,0,.55.55,0,0,1,.18.06,6.71,6.71,0,0,0,3.44.94h.14a.55.55,0,0,1,.36.15.5.5,0,0,1,.14.35.52.52,0,0,1-.14.36A.54.54,0,0,1,775.12,504.16Zm44-1.12a.47.47,0,0,1-.3-.1.51.51,0,0,1-.18-.25.58.58,0,0,1,0-.32.55.55,0,0,1,.2-.25,6.74,6.74,0,0,0,2.46-2.75.51.51,0,0,1,.29-.25.55.55,0,0,1,.38,0,.57.57,0,0,1,.26.29.5.5,0,0,1,0,.38,7.62,7.62,0,0,1-2.83,3.15.56.56,0,0,1-.17.09.41.41,0,0,1-.19,0Zm-50.69-2.74a.48.48,0,0,1-.26-.07.5.5,0,0,1-.18-.2,7.74,7.74,0,0,1-.87-3.56v-.59a.51.51,0,0,1,.54-.46.54.54,0,0,1,.34.18.48.48,0,0,1,.12.36v.51a6.67,6.67,0,0,0,.76,3.1.7.7,0,0,1,.06.19.58.58,0,0,1,0,.19.37.37,0,0,1-.1.17.44.44,0,0,1-.15.12.48.48,0,0,1-.24.06Zm54.25-4h-.1a.49.49,0,0,1-.32-.21.55.55,0,0,1-.08-.38l.8-3.94a.48.48,0,0,1,.08-.18.62.62,0,0,1,.14-.14.58.58,0,0,1,.18-.08h.2a.64.64,0,0,1,.19.08.93.93,0,0,1,.14.14.62.62,0,0,1,.07.19.61.61,0,0,1,0,.19l-.8,3.93a.48.48,0,0,1-.19.25.48.48,0,0,1-.31.07Zm-54.3-3.79h0a.45.45,0,0,1-.18-.07.57.57,0,0,1-.14-.13.45.45,0,0,1-.07-.18.67.67,0,0,1,0-.2l.8-3.94a.67.67,0,0,1,.07-.18.93.93,0,0,1,.14-.14.62.62,0,0,1,.19-.07.61.61,0,0,1,.19,0,.49.49,0,0,1,.18.08.47.47,0,0,1,.14.14.48.48,0,0,1,.07.18.41.41,0,0,1,0,.19l-.8,3.93a.49.49,0,0,1-.54.31Zm55.89-4.21h-.1a.4.4,0,0,1-.18-.07.47.47,0,0,1-.14-.14.36.36,0,0,1-.07-.18.67.67,0,0,1,0-.2l.8-3.93a.67.67,0,0,1,.07-.18.62.62,0,0,1,.14-.14.48.48,0,0,1,.18-.07h.19a.49.49,0,0,1,.18.08.4.4,0,0,1,.15.14.48.48,0,0,1,.07.18.61.61,0,0,1,0,.19l-.8,3.93a.54.54,0,0,1-.17.29.46.46,0,0,1-.32.1ZM770,484.52h-.1a.45.45,0,0,1-.18-.07.62.62,0,0,1-.14-.14.56.56,0,0,1-.07-.18.67.67,0,0,1,0-.2l.8-3.93a.67.67,0,0,1,.07-.18.93.93,0,0,1,.14-.14.71.71,0,0,1,.18-.08.67.67,0,0,1,.2,0,.55.55,0,0,1,.32.22.48.48,0,0,1,.07.37l-.8,3.94a.47.47,0,0,1-.16.31.45.45,0,0,1-.33.12Zm55.89-4.09h-.1a.45.45,0,0,1-.31-.21.51.51,0,0,1-.08-.38l.8-3.94a.48.48,0,0,1,.08-.18.35.35,0,0,1,.14-.13.49.49,0,0,1,.18-.08h.19a.55.55,0,0,1,.32.22.48.48,0,0,1,.07.37l-.8,3.94a.47.47,0,0,1-.16.31.45.45,0,0,1-.33.12Zm-54.29-3.78h-.1a.45.45,0,0,1-.18-.07.62.62,0,0,1-.14-.14.56.56,0,0,1-.07-.18.67.67,0,0,1,0-.2l.79-3.94a.53.53,0,0,1,.22-.31.54.54,0,0,1,.37-.08.49.49,0,0,1,.18.08.47.47,0,0,1,.14.14.48.48,0,0,1,.07.18.41.41,0,0,1,0,.19l-.79,3.94a.53.53,0,0,1-.17.31.47.47,0,0,1-.32.12Zm55.89-4.09h-.13a.45.45,0,0,1-.18-.07.62.62,0,0,1-.14-.14.56.56,0,0,1-.07-.18.67.67,0,0,1,0-.2l.79-3.94a.53.53,0,0,1,.22-.31.54.54,0,0,1,.37-.08.49.49,0,0,1,.18.08.47.47,0,0,1,.14.14.36.36,0,0,1,.07.18.41.41,0,0,1,0,.19l-.79,3.94a.54.54,0,0,1-.15.3.51.51,0,0,1-.31.13Zm-54.3-3.78h-.1a.45.45,0,0,1-.31-.21.51.51,0,0,1-.08-.38l.8-3.94a.67.67,0,0,1,.07-.18l.14-.14a.62.62,0,0,1,.19-.07h.19a.49.49,0,0,1,.18.08.47.47,0,0,1,.14.14.36.36,0,0,1,.07.18.41.41,0,0,1,0,.19l-.8,3.93a.47.47,0,0,1-.16.31.51.51,0,0,1-.33.13Zm55.89-4.1H829a.4.4,0,0,1-.18-.07.47.47,0,0,1-.14-.14.36.36,0,0,1-.07-.18.67.67,0,0,1,0-.2l.8-3.93a.67.67,0,0,1,.07-.18.93.93,0,0,1,.14-.14.62.62,0,0,1,.19-.07H830a.49.49,0,0,1,.18.08.47.47,0,0,1,.14.14.36.36,0,0,1,.07.18.41.41,0,0,1,0,.19l-.8,3.93a.52.52,0,0,1-.16.31.5.5,0,0,1-.33.12Zm-54.29-3.78h-.1a.4.4,0,0,1-.18-.07.38.38,0,0,1-.14-.14.37.37,0,0,1-.08-.18.67.67,0,0,1,0-.2l.8-3.93a.48.48,0,0,1,.08-.18.35.35,0,0,1,.14-.13.49.49,0,0,1,.18-.08h.19a.49.49,0,0,1,.18.08.32.32,0,0,1,.14.14.49.49,0,0,1,.08.18.41.41,0,0,1,0,.19l-.79,3.93a.52.52,0,0,1-.16.31.5.5,0,0,1-.33.12Zm55.83-4.1a.45.45,0,0,1-.19-.05.44.44,0,0,1-.15-.12.59.59,0,0,1-.1-.17.65.65,0,0,1,0-.2v-.48a6.71,6.71,0,0,0-.77-3.13.53.53,0,0,1,0-.35.49.49,0,0,1,.24-.27.53.53,0,0,1,.35,0,.5.5,0,0,1,.29.2,7.52,7.52,0,0,1,.89,3.59,5.23,5.23,0,0,1,0,.56.52.52,0,0,1,0,.21.48.48,0,0,1-.12.16.45.45,0,0,1-.17.11.5.5,0,0,1-.21,0Zm-54-3.7a.44.44,0,0,1-.22-.05.49.49,0,0,1-.25-.28.58.58,0,0,1,0-.39,7.77,7.77,0,0,1,2.84-3.15.67.67,0,0,1,.18-.07.44.44,0,0,1,.2,0,.37.37,0,0,1,.18.08.57.57,0,0,1,.13.14.51.51,0,0,1,.06.38.5.5,0,0,1-.22.31,6.6,6.6,0,0,0-2.47,2.74.5.5,0,0,1-.46.32Zm50.46-3.05a.38.38,0,0,1-.25-.07,6.73,6.73,0,0,0-3.42-.93h-.17a.5.5,0,0,1-.35-.14.49.49,0,0,1-.15-.36.47.47,0,0,1,.15-.35.51.51,0,0,1,.35-.15h.12a7.72,7.72,0,0,1,3.92,1.07.51.51,0,0,1,.21.25.47.47,0,0,1,0,.31.5.5,0,0,1-.18.27.45.45,0,0,1-.3.1Zm-7.85-1h-4a.5.5,0,0,1-.35-.14.49.49,0,0,1-.15-.36.47.47,0,0,1,.15-.35.51.51,0,0,1,.35-.15h4a.55.55,0,0,1,.36.15.5.5,0,0,1,.14.35.52.52,0,0,1-.14.36A.54.54,0,0,1,819.2,449.05Zm-8,0h-4a.5.5,0,0,1-.35-.14.49.49,0,0,1-.15-.36.47.47,0,0,1,.15-.35.51.51,0,0,1,.35-.15h4a.55.55,0,0,1,.36.15.5.5,0,0,1,.14.35.52.52,0,0,1-.14.36A.54.54,0,0,1,811.2,449.05Zm-8,0h-4a.5.5,0,0,1-.35-.14.49.49,0,0,1-.15-.36.47.47,0,0,1,.15-.35.51.51,0,0,1,.35-.15h4a.55.55,0,0,1,.36.15.5.5,0,0,1,.14.35.52.52,0,0,1-.14.36A.54.54,0,0,1,803.2,449.05Zm-8,0h-4a.5.5,0,0,1-.35-.14.49.49,0,0,1-.15-.36.47.47,0,0,1,.15-.35.51.51,0,0,1,.35-.15h4a.55.55,0,0,1,.36.15.5.5,0,0,1,.14.35.52.52,0,0,1-.14.36A.54.54,0,0,1,795.2,449.05Zm-8,0h-4a.4.4,0,0,1-.19,0,.39.39,0,0,1-.17-.11.48.48,0,0,1-.12-.16.65.65,0,0,1,0-.2.43.43,0,0,1,0-.19.54.54,0,0,1,.1-.16.57.57,0,0,1,.16-.11.65.65,0,0,1,.19,0h4a.55.55,0,0,1,.36.15.5.5,0,0,1,.14.35.52.52,0,0,1-.14.36.54.54,0,0,1-.36.14Z"/><path class="cls-16" d="M794.77,590.58a.5.5,0,0,1-.35-.14.49.49,0,0,1-.15-.36.49.49,0,0,1,.15-.35.51.51,0,0,1,.35-.15h4a.51.51,0,0,1,.37.15.48.48,0,0,1,.16.35.58.58,0,0,1,0,.19.48.48,0,0,1-.1.17.91.91,0,0,1-.16.11.58.58,0,0,1-.19,0v0Zm-4,0h-4a.5.5,0,0,1-.35-.14.49.49,0,0,1-.15-.36.49.49,0,0,1,.15-.35.51.51,0,0,1,.35-.15h4a.51.51,0,0,1,.35.15.49.49,0,0,1,.15.35.49.49,0,0,1-.15.36A.5.5,0,0,1,790.77,590.58Zm-8,0h-4a.5.5,0,0,1-.35-.14.49.49,0,0,1-.15-.36.49.49,0,0,1,.15-.35.51.51,0,0,1,.35-.15h4a.51.51,0,0,1,.35.15.49.49,0,0,1,.15.35.49.49,0,0,1-.15.36A.5.5,0,0,1,782.77,590.58Zm-8,0h-4a.5.5,0,0,1-.35-.14.49.49,0,0,1-.15-.36.49.49,0,0,1,.15-.35.51.51,0,0,1,.35-.15h4a.51.51,0,0,1,.35.15.49.49,0,0,1,.15.35.49.49,0,0,1-.15.36A.5.5,0,0,1,774.77,590.58Zm-8,0h-4a.5.5,0,0,1-.35-.14.49.49,0,0,1-.15-.36.49.49,0,0,1,.15-.35.51.51,0,0,1,.35-.15h4a.51.51,0,0,1,.35.15.49.49,0,0,1,.15.35.49.49,0,0,1-.15.36A.5.5,0,0,1,766.77,590.58Zm-8,0h-.14a7.74,7.74,0,0,1-4-1.08.44.44,0,0,1-.15-.12.48.48,0,0,1-.08-.18.46.46,0,0,1,0-.2.4.4,0,0,1,.07-.18.47.47,0,0,1,.13-.15.51.51,0,0,1,.18-.09h.2l.18.06a6.62,6.62,0,0,0,3.44.94h.14a.51.51,0,0,1,.35.15.49.49,0,0,1,.15.35.49.49,0,0,1-.15.36A.5.5,0,0,1,758.77,590.58Zm44-1.12a.47.47,0,0,1-.3-.1.51.51,0,0,1-.18-.25.58.58,0,0,1,0-.32.55.55,0,0,1,.2-.25,6.74,6.74,0,0,0,2.46-2.75.51.51,0,0,1,.29-.25.55.55,0,0,1,.38,0,.57.57,0,0,1,.26.29.5.5,0,0,1,0,.38,7.71,7.71,0,0,1-2.83,3.16.42.42,0,0,1-.18.08.45.45,0,0,1-.2,0Zm-50.58-2.78a.48.48,0,0,1-.26-.07.5.5,0,0,1-.18-.2,7.74,7.74,0,0,1-.87-3.56v-.59a.45.45,0,0,1,0-.19.44.44,0,0,1,.12-.15.42.42,0,0,1,.17-.1.71.71,0,0,1,.2,0,.6.6,0,0,1,.19.06.44.44,0,0,1,.15.12.42.42,0,0,1,.1.17.41.41,0,0,1,0,.19,4.34,4.34,0,0,0,0,.51,6.67,6.67,0,0,0,.76,3.1.5.5,0,0,1,0,.38.53.53,0,0,1-.6.35Zm54.24-4h-.1a.45.45,0,0,1-.31-.21.51.51,0,0,1-.08-.38l.8-3.94a.55.55,0,0,1,.22-.32.56.56,0,0,1,.38-.08.57.57,0,0,1,.33.22.51.51,0,0,1,.07.38l-.8,3.94a.37.37,0,0,1-.08.18.47.47,0,0,1-.15.13l-.18.06a.44.44,0,0,1-.2,0Zm-54.29-3.79H752a.4.4,0,0,1-.18-.07.38.38,0,0,1-.14-.14.36.36,0,0,1-.07-.18.67.67,0,0,1,0-.2l.68-4a.67.67,0,0,1,.07-.18l.14-.14a.62.62,0,0,1,.19-.07h.19a.49.49,0,0,1,.18.08.47.47,0,0,1,.14.14.56.56,0,0,1,.07.18.61.61,0,0,1,0,.19l-.8,3.93a.48.48,0,0,1-.17.3.47.47,0,0,1-.32.12ZM808,574.81h-.1a.45.45,0,0,1-.18-.07.62.62,0,0,1-.14-.14.56.56,0,0,1-.07-.18.67.67,0,0,1,0-.2l.79-3.94a.48.48,0,0,1,.08-.18.47.47,0,0,1,.14-.14.58.58,0,0,1,.18-.08h.2a.64.64,0,0,1,.19.08.93.93,0,0,1,.14.14.62.62,0,0,1,.07.19.61.61,0,0,1,0,.19l-.79,3.93a.51.51,0,0,1-.09.18.5.5,0,0,1-.15.14.6.6,0,0,1-.19.06.46.46,0,0,1-.2,0ZM753.73,571h-.1a.45.45,0,0,1-.18-.07.62.62,0,0,1-.14-.14.56.56,0,0,1-.07-.18.67.67,0,0,1,0-.2l.8-3.94a.48.48,0,0,1,.08-.18.35.35,0,0,1,.14-.13.49.49,0,0,1,.18-.08h.19a.55.55,0,0,1,.32.22.49.49,0,0,1,.07.37l-.8,3.94a.37.37,0,0,1-.08.18.47.47,0,0,1-.15.13l-.18.06a.44.44,0,0,1-.2,0Zm55.89-4.09h-.1a.45.45,0,0,1-.18-.07.62.62,0,0,1-.14-.14.56.56,0,0,1-.07-.18.67.67,0,0,1,0-.2l.8-3.93a.55.55,0,0,1,.22-.32.56.56,0,0,1,.38-.08.57.57,0,0,1,.33.22.51.51,0,0,1,.07.38l-.8,3.93a.51.51,0,0,1-.09.18.37.37,0,0,1-.15.13.33.33,0,0,1-.19.06.46.46,0,0,1-.2,0Zm-54.29-3.78h-.1a.45.45,0,0,1-.18-.07.62.62,0,0,1-.14-.14.56.56,0,0,1-.07-.18.67.67,0,0,1,0-.2l.79-3.94a.53.53,0,0,1,.22-.31.54.54,0,0,1,.37-.08.49.49,0,0,1,.18.08.32.32,0,0,1,.14.14.49.49,0,0,1,.08.18.41.41,0,0,1,0,.19l-.79,3.94a.5.5,0,0,1-.23.3.46.46,0,0,1-.38.05Zm55.89-4.09h-.1a.45.45,0,0,1-.18-.07.62.62,0,0,1-.14-.14.56.56,0,0,1-.07-.18.67.67,0,0,1,0-.2l.79-3.94a.53.53,0,0,1,.22-.31.54.54,0,0,1,.37-.08.49.49,0,0,1,.18.08.47.47,0,0,1,.14.14.56.56,0,0,1,.07.18.61.61,0,0,1,0,.19l-.79,3.94a.52.52,0,0,1-.23.31.5.5,0,0,1-.38,0Zm-54.3-3.79h-.1a.45.45,0,0,1-.18-.07.62.62,0,0,1-.14-.14.56.56,0,0,1-.07-.18.67.67,0,0,1,0-.2l.8-3.93a.67.67,0,0,1,.07-.18l.14-.14a.62.62,0,0,1,.19-.07h.19a.49.49,0,0,1,.18.08.47.47,0,0,1,.14.14.56.56,0,0,1,.07.18.61.61,0,0,1,0,.19l-.8,3.93a.52.52,0,0,1-.23.31.5.5,0,0,1-.38,0Zm55.89-4.08h-.1a.45.45,0,0,1-.18-.07.62.62,0,0,1-.14-.14.56.56,0,0,1-.07-.18.67.67,0,0,1,0-.2l.8-3.94a.48.48,0,0,1,.08-.18.35.35,0,0,1,.14-.13.49.49,0,0,1,.18-.08h.19a.49.49,0,0,1,.18.08.47.47,0,0,1,.14.14.56.56,0,0,1,.07.18.61.61,0,0,1,0,.19l-.8,3.94a.5.5,0,0,1-.23.3.46.46,0,0,1-.38,0Zm-54.29-3.79h-.19a.4.4,0,0,1-.18-.07.38.38,0,0,1-.14-.14.36.36,0,0,1-.07-.18.67.67,0,0,1,0-.2l.79-3.94a.56.56,0,0,1,.22-.31.54.54,0,0,1,.37-.08.49.49,0,0,1,.18.08.47.47,0,0,1,.14.14.56.56,0,0,1,.07.18.61.61,0,0,1,0,.19l-.79,3.94a.49.49,0,0,1-.52.35Zm55.71-4.1a.65.65,0,0,1-.19,0,.44.44,0,0,1-.15-.12.59.59,0,0,1-.1-.17.65.65,0,0,1,0-.2v-.49a6.7,6.7,0,0,0-.77-3.12.37.37,0,0,1,0-.18.44.44,0,0,1,0-.2.4.4,0,0,1,.09-.17.64.64,0,0,1,.15-.13.59.59,0,0,1,.19-.05.4.4,0,0,1,.19,0,.51.51,0,0,1,.18.09.57.57,0,0,1,.12.15,7.74,7.74,0,0,1,.88,3.59,5.23,5.23,0,0,1,0,.56.46.46,0,0,1,0,.2.57.57,0,0,1-.12.15.59.59,0,0,1-.17.1.45.45,0,0,1-.2,0Zm-54-3.7a.35.35,0,0,1-.22-.06.33.33,0,0,1-.15-.11.42.42,0,0,1-.1-.17.64.64,0,0,1,0-.2.67.67,0,0,1,0-.19,7.75,7.75,0,0,1,2.84-3.14.67.67,0,0,1,.18-.07.44.44,0,0,1,.2,0,.42.42,0,0,1,.18.08.57.57,0,0,1,.13.14.51.51,0,0,1,.06.38.5.5,0,0,1-.22.31,6.89,6.89,0,0,0-2.48,2.74.58.58,0,0,1-.19.19.47.47,0,0,1-.26,0Zm50.46-3a.38.38,0,0,1-.25-.07,6.73,6.73,0,0,0-3.42-.93h-.16a.5.5,0,0,1-.35-.14.49.49,0,0,1-.15-.36.49.49,0,0,1,.15-.35.51.51,0,0,1,.35-.15H807a7.76,7.76,0,0,1,3.93,1.07.56.56,0,0,1,.23.31.48.48,0,0,1-.06.37.41.41,0,0,1-.2.14.4.4,0,0,1-.24,0Zm-7.85-1h-4a.5.5,0,0,1-.35-.14.49.49,0,0,1-.15-.36.49.49,0,0,1,.15-.35.51.51,0,0,1,.35-.15h4a.51.51,0,0,1,.35.15.49.49,0,0,1,.15.35.49.49,0,0,1-.15.36A.5.5,0,0,1,802.84,535.6Zm-8,0h-4a.5.5,0,0,1-.35-.14.49.49,0,0,1-.15-.36.49.49,0,0,1,.15-.35.51.51,0,0,1,.35-.15h4a.51.51,0,0,1,.35.15.49.49,0,0,1,.15.35.49.49,0,0,1-.15.36A.5.5,0,0,1,794.84,535.6Zm-8,0h-4a.5.5,0,0,1-.35-.14.49.49,0,0,1-.15-.36.49.49,0,0,1,.15-.35.51.51,0,0,1,.35-.15h4a.51.51,0,0,1,.35.15.49.49,0,0,1,.15.35.49.49,0,0,1-.15.36A.5.5,0,0,1,786.84,535.6Zm-8,0h-4a.5.5,0,0,1-.35-.14.49.49,0,0,1-.15-.36.49.49,0,0,1,.15-.35.51.51,0,0,1,.35-.15h4a.51.51,0,0,1,.35.15.49.49,0,0,1,.15.35.49.49,0,0,1-.15.36A.5.5,0,0,1,778.84,535.6Zm-8,0h-4a.4.4,0,0,1-.19,0,.45.45,0,0,1-.17-.11.46.46,0,0,1-.11-.16.45.45,0,0,1,0-.2.49.49,0,0,1,0-.2.48.48,0,0,1,.12-.16.58.58,0,0,1,.18-.11l.21,0h3.94a.51.51,0,0,1,.35.15.49.49,0,0,1,.15.35.49.49,0,0,1-.15.36.5.5,0,0,1-.35.14Z"/><path class="cls-2" d="M850.72,504.75l-40,13.43a3.12,3.12,0,0,1-3.94-2l-13.43-40a3.14,3.14,0,0,1,2-3.94l40-13.43a3.14,3.14,0,0,1,3.94,2l13.43,40a3.17,3.17,0,0,1-.2,2.38,3.11,3.11,0,0,1-1.8,1.56Z"/><path class="cls-2" d="M850.72,504.75l-40,13.43a3.12,3.12,0,0,1-3.94-2l-13.43-40a3.14,3.14,0,0,1,2-3.94l40-13.43a3.14,3.14,0,0,1,3.94,2l13.43,40a3.17,3.17,0,0,1-.2,2.38,3.11,3.11,0,0,1-1.8,1.56Z"/><path class="cls-10" d="M856.62,508.21,808.13,524.5a3.75,3.75,0,0,1-2.88-.2,3.82,3.82,0,0,1-1.9-2.18l-16.29-48.49a3.8,3.8,0,0,1,2.38-4.78l48.49-16.29a3.8,3.8,0,0,1,4.78,2.38L859,503.43a3.86,3.86,0,0,1-2.38,4.78Z"/><path class="cls-2" d="M850.72,504.75l-40,13.43a3.12,3.12,0,0,1-3.94-2l-13.43-40a3.14,3.14,0,0,1,2-3.94l40-13.43a3.14,3.14,0,0,1,3.94,2l13.43,40a3.17,3.17,0,0,1-.2,2.38,3.11,3.11,0,0,1-1.8,1.56Z"/><path class="cls-17" d="M820.33,481a4.29,4.29,0,0,0,2.92-3.77,4.32,4.32,0,0,0-.56-2.43,4.32,4.32,0,0,0-4.27-2.12,4.36,4.36,0,0,0-2.27,1,4.32,4.32,0,0,0-1.32,2.11,4.23,4.23,0,0,0,.07,2.49,4.3,4.3,0,0,0,5.43,2.7Z"/><path class="cls-17" d="M806.82,516.3l-3.7-11,11.63-16.76a1.78,1.78,0,0,1,.93-.67,1.81,1.81,0,0,1,1.15,0l7,2.91,8-12.21a1.83,1.83,0,0,1,1-.7,1.77,1.77,0,0,1,1.18,0l12.74,5.3,6,17.75a3.15,3.15,0,0,1-.18,2.39,3.1,3.1,0,0,1-1.82,1.55L810.78,518.3a3.24,3.24,0,0,1-2.37-.22,3.3,3.3,0,0,1-1.59-1.78Z"/><path class="cls-18" d="M793.17,617.82l7.43-79,5.53-18.63c.27-.69,3.26-9.24,4.44-13.48a2.86,2.86,0,0,0-.11-1.89,2.93,2.93,0,0,0-1.27-1.42h0a2.89,2.89,0,0,0-3.83,1L802.42,509a2.36,2.36,0,0,1-1,.55,2.35,2.35,0,0,1-2.14-.49,2.45,2.45,0,0,1-.65-.93l-6.3-19.5-1.74.31a3.48,3.48,0,0,0-2.88,3.35l-.07,1.5a2.38,2.38,0,0,1-.52,1,2.33,2.33,0,0,1-.92.66l-1.11.41c-1.6.68-2.28,2.58-2.35,4.33l.06,1.62a1.88,1.88,0,0,1-.4,1.16,1.9,1.9,0,0,1-1,.64h0a3.2,3.2,0,0,0-2.15,1.15,3.15,3.15,0,0,0-.72,2.32l-.14,3.13-.12.13a5,5,0,0,0-2,2.36,4.86,4.86,0,0,0-.2,3.08L782.22,542l-20.6,77a16,16,0,0,0,1.15,11.3l37.09,74.08L837.76,675Z"/><path class="cls-2" d="M909.89,767.38l32.39,38.42,26.65-29.43L935.54,720,888,706.69l-31.64-8-41.53-53.18L782.75,670.2,822,748.49l5.13,94.27L948.46,883.2l-13.34-85.89Z"/><path class="cls-15" d="M902.43,651.38,906.89,688a6.82,6.82,0,0,0,5.59,5.84l3.17,11.34s-43-2-44.91-2.87l-7.29-1.78c2.59-1,5.1-5.86,5.17-8.54l.71-44.06Z"/><path class="cls-15" d="M867.22,684.93l1.67.5a22.67,22.67,0,0,0,28-15.61l8.68-30.65a7.75,7.75,0,0,0,.24-2.95,7.62,7.62,0,0,0-2.84-5.07,7.48,7.48,0,0,0-2.64-1.33l-28.66-8.21a9.8,9.8,0,0,0-7.47.87,9.85,9.85,0,0,0-2.92,2.49,9.74,9.74,0,0,0-1.75,3.42l-8.06,28.49a22.93,22.93,0,0,0,15.73,28"/><path class="cls-15" d="M853.75,649.3a43.49,43.49,0,0,0-5.28,5.66c-1.64,2.39,3.09,3.61,3.09,3.61Z"/><path class="cls-8" d="M907.68,668.13H904.2l3.69,7.36Z"/><path class="cls-8" d="M877,686.21s-4.87.41-8.26-.9l-.07,6.3Z"/><path class="cls-14" d="M850.84,665.55a10.86,10.86,0,0,0,7.8-3,.5.5,0,0,0,.14-.35.58.58,0,0,0-.15-.35.53.53,0,0,0-.34-.15.52.52,0,0,0-.36.12,10.41,10.41,0,0,1-7.18,2.72Z"/><path d="M882.74,649.91s7.59,20.83-4.41,34.14c-6.73,7.42-47.34,63.66,40.54,79.8a78.7,78.7,0,0,0,23.48.86c20.93-2.56,31.32-12.55,31.77-22.21,1.53-24.06-31.07-32.75-32.94-54.51-1.15-13.42,6.51-68.39-30.28-81.32-34.74-12.22-55,7.24-54.64,14.28S855.33,637.89,882.74,649.91Z"/><path class="cls-15" d="M880.64,663.16s9.78.4,11.49-9.27-10.32-11.08-11.65-1.28l-.65,10.69Z"/><path class="cls-10" d="M881,651.28l.3-1.39-26.37-8.44-.3,1.4Z"/><path class="cls-10" d="M853.18,649.59a.71.71,0,0,0,.36-.17.75.75,0,0,0,.21-.34l3.58-12.56a.63.63,0,0,0,0-.27.73.73,0,0,0-.27-.48,1,1,0,0,0-.25-.12.73.73,0,0,0-.54.07.71.71,0,0,0-.34.42L852.4,648.7a.88.88,0,0,0,0,.28.92.92,0,0,0,.08.27.91.91,0,0,0,.18.21.64.64,0,0,0,.25.12.81.81,0,0,0,.31,0"/><path d="M881.5,649.31a20.82,20.82,0,0,0-1.16,5.8,1.22,1.22,0,0,1-.42.81,1.24,1.24,0,0,1-.88.29h0a1.33,1.33,0,0,1-.81-.42,1.23,1.23,0,0,1-.29-.86l.62-8.56Z"/><path d="M889.9,648.77a3.16,3.16,0,0,0-1-.87,3.09,3.09,0,0,0-1.33-.31,3,3,0,0,0-1.33.31,3.1,3.1,0,0,0-1.06.87,6.67,6.67,0,0,0-1.59,3l-.32,1a.59.59,0,0,0,.1.39.54.54,0,0,0,.33.22.59.59,0,0,0,.39,0,.55.55,0,0,0,.26-.3l.32-1a6.61,6.61,0,0,1,1.31-2.52,1.93,1.93,0,0,1,.68-.62,1.88,1.88,0,0,1,.9-.23,1.91,1.91,0,0,1,1.57.85.36.36,0,0,0,.18.12.54.54,0,0,0,.21,0,.5.5,0,0,0,.21,0,.36.36,0,0,0,.18-.12.48.48,0,0,0,.12-.17.54.54,0,0,0,0-.22.54.54,0,0,0,0-.21.44.44,0,0,0-.12-.18"/><path class="cls-2" d="M886,659.3a1.89,1.89,0,0,0-.45-1,1.91,1.91,0,0,0-1-.6,1.94,1.94,0,0,0-1.12,0,1.9,1.9,0,0,0-1.32,1.69,1.93,1.93,0,0,0,2.16,2.05,1.94,1.94,0,0,0,1.29-.72,2,2,0,0,0,.39-1.43"/><path class="cls-8" d="M883.47,661.24a1.88,1.88,0,0,0,.81-.18,2,2,0,0,0,.68-.48,2.11,2.11,0,0,0,.44-.71,2.16,2.16,0,0,0,.13-.83,2.24,2.24,0,0,0-.41-1.07,2.19,2.19,0,0,1,.64.68,2,2,0,0,1,.29.87,2,2,0,0,1-.11.76,1.94,1.94,0,0,1-1,1.09,1.9,1.9,0,0,1-.75.15,1.55,1.55,0,0,1-1.15-.33,1.05,1.05,0,0,1,.47.06"/><path class="cls-8" d="M884.79,662.52s-1.78.45-2.38.54-2.58.2-2.58.2,2.49,3.37,5,4.07C884.79,667.31,884.93,663.86,884.79,662.52Z"/><path class="cls-18" d="M1068.33,732.39a1.84,1.84,0,0,0,.55-1.19,1.92,1.92,0,0,0-.4-1.26,1.67,1.67,0,0,0-2.3-.37l-10.24,8.09s7.64-7.72,11-11a2.15,2.15,0,0,0,.63-1.48,2.24,2.24,0,0,0-.56-1.52,1.94,1.94,0,0,0-2.52-.15L1053,733s5.79-7,8.31-10.09a1.74,1.74,0,0,0,.34-.61,1.79,1.79,0,0,0,.08-.69,1.93,1.93,0,0,0-.2-.67,1.82,1.82,0,0,0-2.89-.4L1044,735.69c-.37.52-1.34.37-.74-.59a28.35,28.35,0,0,0,2.3-4.53c.74-2.15.52-4.08-1.56-5.12a.65.65,0,0,0-.39,0,.59.59,0,0,0-.28.26l-6.68,8.31a35.54,35.54,0,0,0-3.64,6.83l-2.6,6.46-2.08,5.83-46.61,42.46L969,776.43,942.3,805.86l17.1,22.51a17.1,17.1,0,0,0,13,6.74,17,17,0,0,0,13.45-5.87l59.6-68.61,22.33-22.48a1.52,1.52,0,0,0,.38-.9,1.55,1.55,0,0,0-.23-1,1.41,1.41,0,0,0-.82-.52,1.39,1.39,0,0,0-1,.15l-6.46,5.12S1065.33,735.06,1068.33,732.39Z"/><path class="cls-8" d="M822,748.48l8.81,13.37,4.87,83.77-8.55-2.86Z"/><path class="cls-8" d="M856.33,698.73l-11.73-2.17-57.77-75.32,9.5-86.22s12.95-24.74,12.9-31.61l.53.44a2.69,2.69,0,0,1,.86,1.31,2.59,2.59,0,0,1,0,1.56l-10,32.11-7.43,79Z"/><path class="cls-8" d="M935.12,797.31,930.2,761l16.37,40.07-4.29,4.74Z"/><path class="cls-19" d="M854.15,841.85a1.12,1.12,0,0,1-.33.72,1.15,1.15,0,0,1-.72.33h-7.23a1.15,1.15,0,0,1-1-1,1.1,1.1,0,0,1,.33-.68,1.09,1.09,0,0,1,.67-.32h7.23C853.75,840.8,854.33,841.31,854.15,841.85Z"/><path class="cls-19" d="M865.55,751.55a1.11,1.11,0,0,1-.34.69,1.05,1.05,0,0,1-.71.31h-7.23a1.09,1.09,0,0,1-.71-.31,1.11,1.11,0,0,1-.34-.69,1.16,1.16,0,0,1,.34-.69,1.2,1.2,0,0,1,.71-.31h7.23A.9.9,0,0,1,865.55,751.55Z"/><path class="cls-19" d="M846.23,768a1.15,1.15,0,0,1-.31.71,1.14,1.14,0,0,1-.69.34H838a1.14,1.14,0,0,1-.69-.34A1.15,1.15,0,0,1,837,768h0a1.1,1.1,0,0,1,.33-.67A1.15,1.15,0,0,1,838,767h7.23A.91.91,0,0,1,846.23,768Z"/><path class="cls-19" d="M910.56,775.43a1.16,1.16,0,0,1-.34.7,1.13,1.13,0,0,1-.71.3h-7.18a1.13,1.13,0,0,1-.71-.3,1.16,1.16,0,0,1-.34-.7h0a1.16,1.16,0,0,1,.34-.69,1.2,1.2,0,0,1,.71-.31h7.23A.89.89,0,0,1,910.56,775.43Z"/><path class="cls-19" d="M926.17,809.38a1.14,1.14,0,0,1-.32.68,1.11,1.11,0,0,1-.68.32h-7.23a1.11,1.11,0,0,1-.68-.32,1.14,1.14,0,0,1-.32-.68h0a1.15,1.15,0,0,1,1-1h7.23C925.77,808.3,926.33,808.86,926.17,809.38Z"/><path class="cls-19" d="M897,854a1.14,1.14,0,0,1-.32.68,1.11,1.11,0,0,1-.68.32h-7.23a1.09,1.09,0,0,1-.71-.31,1.11,1.11,0,0,1-.34-.69h0a1.17,1.17,0,0,1,.33-.72,1.15,1.15,0,0,1,.72-.33H896C896.55,853,897.08,853.51,897,854Z"/><path class="cls-19" d="M854.15,711.58a1.12,1.12,0,0,1-.33.72,1.15,1.15,0,0,1-.72.33h-7.23a1.15,1.15,0,0,1-1-1h0a1.1,1.1,0,0,1,.33-.68,1.09,1.09,0,0,1,.67-.32h7.23C853.75,710.53,854.33,711.05,854.15,711.58Z"/><path class="cls-19" d="M811,694.68a1.14,1.14,0,0,1-.32.67,1.15,1.15,0,0,1-.68.33h-7.23a1.15,1.15,0,0,1-.67-.33,1.1,1.1,0,0,1-.33-.67h0a1.1,1.1,0,0,1,.33-.68,1.09,1.09,0,0,1,.67-.32H810A.89.89,0,0,1,811,694.68Z"/><path class="cls-19" d="M828.45,718.92a1.14,1.14,0,0,1-.32.67,1.15,1.15,0,0,1-.68.33h-7.23a1.2,1.2,0,0,1-.71-.31,1.16,1.16,0,0,1-.34-.69h0a1.17,1.17,0,0,1,.33-.73,1.09,1.09,0,0,1,.72-.32h7.23C828.05,717.87,828.58,718.4,828.45,718.92Z"/><path class="cls-19" d="M821.59,674.44a1.12,1.12,0,0,1-1,1h-7.26a1.09,1.09,0,0,1-.72-.32,1.17,1.17,0,0,1-.33-.73h0a1.12,1.12,0,0,1,.35-.69,1.15,1.15,0,0,1,.7-.31h7.23A.9.9,0,0,1,821.59,674.44Z"/><path class="cls-19" d="M891.85,815.64a1.13,1.13,0,0,1-.79,0,1.15,1.15,0,0,1-.59-.54l-2.81-6.66a1.19,1.19,0,0,1,0-.79,1.17,1.17,0,0,1,.53-.59h0a1.19,1.19,0,0,1,.79,0,1.1,1.1,0,0,1,.59.53l2.81,6.66a1,1,0,0,1,.1.41,1,1,0,0,1-.07.41.89.89,0,0,1-.23.34,1,1,0,0,1-.36.22Z"/><path class="cls-19" d="M881,764.51a1.16,1.16,0,0,1-.05-.8,1.12,1.12,0,0,1,.48-.63l6.36-3.43a1.11,1.11,0,0,1,1.43.43,1.08,1.08,0,0,1,.06.79,1.2,1.2,0,0,1-.49.64l-6.36,3.43a1.07,1.07,0,0,1-.39.14,1.18,1.18,0,0,1-.42,0,1,1,0,0,1-.37-.2,1.15,1.15,0,0,1-.25-.33Z"/><path class="cls-19" d="M868.65,792a1.13,1.13,0,0,1,0-.79,1.18,1.18,0,0,1,.48-.64l6.36-3.43a1.16,1.16,0,0,1,.8-.05,1.12,1.12,0,0,1,.63.48,1.11,1.11,0,0,1,.06.8,1.14,1.14,0,0,1-.49.63l-6.36,3.43a.8.8,0,0,1-.39.14,1,1,0,0,1-.42,0,1,1,0,0,1-.37-.2,1.07,1.07,0,0,1-.25-.34Z"/><path class="cls-19" d="M797.14,679.08a1.12,1.12,0,0,1-1-1.12l.46-7.22a1.14,1.14,0,0,1,1.12-1h0a1.12,1.12,0,0,1,.72.37,1.16,1.16,0,0,1,.28.75l-.46,7.22C798.21,678.75,797.66,679.24,797.14,679.08Z"/><path class="cls-19" d="M837.46,737.69a1.16,1.16,0,0,1-.05-.8,1.12,1.12,0,0,1,.48-.63l6.36-3.43a1.11,1.11,0,0,1,1.43.43h0a1.08,1.08,0,0,1,.06.79,1.2,1.2,0,0,1-.49.64l-6.36,3.43a.9.9,0,0,1-.39.13,1,1,0,0,1-.42,0,1.11,1.11,0,0,1-.37-.2,1.15,1.15,0,0,1-.25-.33Z"/><path class="cls-19" d="M915.75,862a1.15,1.15,0,0,1,.43-1.43l6.36-3.43a1.14,1.14,0,0,1,1.43.43h0a1.16,1.16,0,0,1,0,.8,1.08,1.08,0,0,1-.48.63l-6.36,3.43a.8.8,0,0,1-.39.14,1,1,0,0,1-.42,0,1,1,0,0,1-.37-.2A1.07,1.07,0,0,1,915.75,862Z"/><path class="cls-19" d="M876.69,828.52a1.11,1.11,0,0,1,.11.78,1.16,1.16,0,0,1-.43.67l-6.09,3.9a1.12,1.12,0,0,1-.78.11,1.17,1.17,0,0,1-.67-.43,1.14,1.14,0,0,1-.11-.79,1.1,1.1,0,0,1,.43-.66l6.09-3.9a1,1,0,0,1,.8-.17,1.17,1.17,0,0,1,.38.17A1,1,0,0,1,876.69,828.52Z"/><path class="cls-19" d="M849,815.3a1.09,1.09,0,0,1-.79.12,1.19,1.19,0,0,1-.67-.43l-4-6.06a1.14,1.14,0,0,1,.31-1.46h0a1.14,1.14,0,0,1,.79-.11,1.11,1.11,0,0,1,.67.42l4,6.06a1.13,1.13,0,0,1,.17.39,1,1,0,0,1,0,.41,1,1,0,0,1-.17.39,1,1,0,0,1-.31.27Z"/><path class="cls-19" d="M828,698.59a1.14,1.14,0,0,1-.79.11,1.17,1.17,0,0,1-.67-.42l-4-6.06a1.2,1.2,0,0,1-.12-.79,1.12,1.12,0,0,1,.43-.67h0a1.13,1.13,0,0,1,1.46.31l4,6.06a.86.86,0,0,1,.16.38.89.89,0,0,1,0,.43,1,1,0,0,1-.18.38A1.09,1.09,0,0,1,828,698.59Z"/><path class="cls-19" d="M951.52,779.3a1.09,1.09,0,0,1-.79.12,1.16,1.16,0,0,1-.67-.43l-4-6.06a1.14,1.14,0,0,1,.31-1.46,1.16,1.16,0,0,1,1.46.31l4,6.06a1.13,1.13,0,0,1,.17.39,1,1,0,0,1,0,.41,1.13,1.13,0,0,1-.17.39,1,1,0,0,1-.31.27Z"/><path class="cls-19" d="M914.68,840.64a1.09,1.09,0,0,1-.79.12,1.16,1.16,0,0,1-.67-.43l-4-6.06a1.14,1.14,0,0,1,.31-1.46h0a1.16,1.16,0,0,1,1.46.31l4,6.06a1.13,1.13,0,0,1,.17.39,1,1,0,0,1,0,.41,1,1,0,0,1-.17.38.92.92,0,0,1-.31.28Z"/><path class="cls-2" d="M941.33,551.92h89.28a3.21,3.21,0,0,1,3.2,3.2v35.26a3.25,3.25,0,0,1-.24,1.23,3.18,3.18,0,0,1-.7,1,3.16,3.16,0,0,1-2.26.93H960l-18.65,14.08a2,2,0,0,1-1,.36,2.09,2.09,0,0,1-1-.21,2,2,0,0,1-1.1-1.72v-51a3.21,3.21,0,0,1,3.2-3.2"/><path class="cls-10" d="M1001.5,572.31a6.71,6.71,0,0,0,4.14,6.19,6.7,6.7,0,0,0,9.13-4.89,6.66,6.66,0,0,0-.38-3.87,6.79,6.79,0,0,0-2.47-3,6.7,6.7,0,0,0-10.42,5.58Z"/><path class="cls-10" d="M980.24,572.31a6.71,6.71,0,0,0,4.14,6.19,6.7,6.7,0,0,0,9.13-4.89,6.66,6.66,0,0,0-.38-3.87,6.79,6.79,0,0,0-2.47-3,6.7,6.7,0,0,0-10.42,5.58Z"/><path class="cls-10" d="M959,572.31a6.71,6.71,0,0,0,4.14,6.19,6.7,6.7,0,0,0,9.13-4.89,6.66,6.66,0,0,0-.38-3.87,6.68,6.68,0,0,0-6.19-4.13,6.69,6.69,0,0,0-6.7,6.7"/><path class="cls-2" d="M874.53,227.55a25.4,25.4,0,1,1,9.73-1.93,25.17,25.17,0,0,1-9.73,1.93Z"/><path class="cls-10" d="M866.57,205.3a2.62,2.62,0,0,0,1-.18,2.43,2.43,0,0,0,.88-.57l8.19,4.77c0,.17-.08.33-.08.5a3.1,3.1,0,0,0,.91,2.19,3.12,3.12,0,0,0,5.06-3.38,3,3,0,0,0-1.68-1.69,3.07,3.07,0,0,0-1.2-.21,2.81,2.81,0,0,0-1,.19,2.68,2.68,0,0,0-.89.56l-8.19-4.77c0-.17.08-.33.08-.5a1.08,1.08,0,0,0-.08-.5l8.19-4.77a3,3,0,0,0,1.92.75,3.07,3.07,0,0,0,3.09-3.09,3.05,3.05,0,0,0-.21-1.19,3,3,0,0,0-1.68-1.69,3.13,3.13,0,0,0-4.29,2.88,1.17,1.17,0,0,0,.08.5l-8.19,4.77a3,3,0,0,0-5,2.34,3.1,3.1,0,0,0,.91,2.19,3.07,3.07,0,0,0,2.18.9Z"/><path class="cls-2" d="M854.18,267.57,898.08,332a17.56,17.56,0,0,1-7.9,26.17l-52.85,20.1L827,361.55l38.88-20.69L835.54,307.2l-31.45-43.39L830.16,258a23.09,23.09,0,0,1,24,9.53Z"/><path d="M738.33,286.3a52.31,52.31,0,0,0,37.13-.31c19.83-7.82,28.63-22.22,28.63-22.22l6.68-1.48S796.77,284.53,774,291c-26.11,7.44-41-2-41-2Z"/><path class="cls-20" d="M791.78,372.11,827,361.56l10.34,16.74s-11.65,4.76-15.91,6.24c-7.23,2.52-14-5.89-14-5.89Z"/><path class="cls-20" d="M790,375.05c-.91.41-.82.61-1.8,3l-7.6,18.58a2.38,2.38,0,0,0,0,1.78,2.32,2.32,0,0,0,1.22,1.28h0a2.34,2.34,0,0,0,1.78.09,2.36,2.36,0,0,0,1.35-1.17l8.18-15.56-3.5,13.82a2.32,2.32,0,0,0,0,1.11,2.27,2.27,0,0,0,.49,1,2.31,2.31,0,0,0,.9.65,2.26,2.26,0,0,0,1.09.15h0a2.23,2.23,0,0,0,1.21-.46,2.29,2.29,0,0,0,.79-1L799.93,382l-4.44,12.3a2.12,2.12,0,0,0-.1,1.06,2.09,2.09,0,0,0,1.25,1.62,2,2,0,0,0,1,.17h0a2,2,0,0,0,1-.33,2.08,2.08,0,0,0,.73-.8L807,381.63l-5.11,9.8a2,2,0,0,0-.23.85,1.93,1.93,0,0,0,.19.86,1.85,1.85,0,0,0,.56.68,1.76,1.76,0,0,0,.81.34h0a2,2,0,0,0,1-.07,1.89,1.89,0,0,0,.81-.52l7-7.88,5.36-5.72Z"/><path class="cls-8" d="M807.77,381.6a.58.58,0,0,0-.41,0,.59.59,0,0,0-.32.26l-4.1,7.71-1,1.94a1.85,1.85,0,0,0-.22,1,1.74,1.74,0,0,0,.37,1L808,382.3a.58.58,0,0,0,0-.39.55.55,0,0,0-.25-.31Z"/><path class="cls-8" d="M800.83,382.3a.5.5,0,0,0,0-.21.54.54,0,0,0,0-.21.46.46,0,0,0-.13-.18.42.42,0,0,0-.18-.11.83.83,0,0,0-.22,0,.58.58,0,0,0-.21.07.43.43,0,0,0-.16.14.5.5,0,0,0-.1.19l-2,5.69,2-5.71-2.34,6.61-2.12,6.14a2.34,2.34,0,0,0,0,.95,2.2,2.2,0,0,0,.45.82.24.24,0,0,0,.06-.11Z"/><path class="cls-20" d="M789,376.1l1.36-2.79A2.35,2.35,0,0,1,792.9,372l23.07,4.2a2.3,2.3,0,0,1,1.07.5,2.3,2.3,0,0,1,.82,2.12,2.23,2.23,0,0,1-.46,1.08l-.07.09Z"/><path class="cls-8" d="M837.32,378.3l28.85-11,6.25,19H867.3L862.64,372Z"/><path class="cls-8" d="M827,361.55l38.87-20.69L831.19,301.2l.92-.73,39.32,42.28-39,19.24-2,1-2,1Z"/><path class="cls-8" d="M827,361.55l10.33,16.75-15.43,6.08a9.09,9.09,0,0,1-7-.11l-1.13-.49,5.18-.45,14.93-6.22-9.27-14.81Z"/><path class="cls-3" d="M843.15,365.4a1.49,1.49,0,0,0,.86-.09,1.53,1.53,0,0,0,.65-.56,1.48,1.48,0,0,0-1.56-2.25,1.52,1.52,0,0,0-.75.42,1.5,1.5,0,0,0-.39.76,1.42,1.42,0,0,0,0,.58,1.45,1.45,0,0,0,.23.54,1.34,1.34,0,0,0,.42.4,1.47,1.47,0,0,0,.54.2Z"/><path class="cls-3" d="M846.11,341.52a1.45,1.45,0,0,0,.85-.09,1.5,1.5,0,0,0,.66-.56,1.52,1.52,0,0,0,.24-.83,1.48,1.48,0,0,0-.27-.81,1.42,1.42,0,0,0-.67-.54,1.48,1.48,0,0,0-.86-.07,1.52,1.52,0,0,0-.75.42,1.5,1.5,0,0,0-.39.76,1.42,1.42,0,0,0,0,.58,1.52,1.52,0,0,0,.23.54,1.43,1.43,0,0,0,1,.6Z"/><path class="cls-3" d="M863.76,291.18a1.49,1.49,0,0,0,.86-.09,1.51,1.51,0,0,0,.89-1.39,1.49,1.49,0,0,0-1.8-1.42,1.52,1.52,0,0,0-.75.42,1.5,1.5,0,0,0-.39.76,1.42,1.42,0,0,0,0,.58,1.44,1.44,0,0,0,.65.94,1.47,1.47,0,0,0,.54.2Z"/><path class="cls-3" d="M863.76,318.68a1.49,1.49,0,0,0,.86-.09,1.51,1.51,0,0,0,.89-1.39,1.49,1.49,0,0,0-1.8-1.42,1.52,1.52,0,0,0-.75.42,1.5,1.5,0,0,0-.39.76,1.42,1.42,0,0,0,0,.58,1.44,1.44,0,0,0,.65.94,1.47,1.47,0,0,0,.54.2Z"/><path class="cls-3" d="M877.23,337.62a1.58,1.58,0,0,0,.86-.1,1.53,1.53,0,0,0,.65-.56,1.49,1.49,0,0,0-.7-2.18,1.57,1.57,0,0,0-.86-.07,1.52,1.52,0,0,0-.75.42,1.49,1.49,0,0,0-.39.77,1.42,1.42,0,0,0,0,.58,1.48,1.48,0,0,0,.23.53,1.34,1.34,0,0,0,.42.4,1.69,1.69,0,0,0,.54.21Z"/><path class="cls-3" d="M875.75,357.71a1.49,1.49,0,0,0,.86-.09,1.53,1.53,0,0,0,.65-.56,1.49,1.49,0,0,0-.7-2.18,1.54,1.54,0,0,0-.85-.07,1.48,1.48,0,0,0-1.15,1.18,1.44,1.44,0,0,0,.23,1.12,1.34,1.34,0,0,0,.42.4,1.47,1.47,0,0,0,.54.2Z"/><path class="cls-3" d="M859.33,365.4a1.49,1.49,0,0,0,.86-.09,1.53,1.53,0,0,0,.65-.56,1.49,1.49,0,0,0,.24-.83,1.48,1.48,0,0,0-.94-1.35,1.46,1.46,0,0,0-.85-.07,1.48,1.48,0,0,0-1.15,1.18,1.42,1.42,0,0,0,0,.58,1.45,1.45,0,0,0,.23.54,1.34,1.34,0,0,0,.42.4,1.47,1.47,0,0,0,.54.2Z"/><path class="cls-3" d="M877.23,317.21a1.58,1.58,0,0,0,.86-.1,1.53,1.53,0,0,0,.65-.56,1.49,1.49,0,0,0-.7-2.18,1.57,1.57,0,0,0-.86-.07,1.52,1.52,0,0,0-.75.42,1.49,1.49,0,0,0-.39.77,1.42,1.42,0,0,0,0,.58,1.48,1.48,0,0,0,.23.53,1.34,1.34,0,0,0,.42.4,1.69,1.69,0,0,0,.54.21Z"/><path class="cls-3" d="M863.76,354.42a1.49,1.49,0,0,0,.86-.09,1.51,1.51,0,0,0,.89-1.39,1.49,1.49,0,0,0-1.8-1.42,1.52,1.52,0,0,0-.75.42,1.5,1.5,0,0,0-.39.76,1.42,1.42,0,0,0,0,.58,1.44,1.44,0,0,0,.65.94,1.47,1.47,0,0,0,.54.2Z"/><path class="cls-3" d="M890.67,341.52a1.49,1.49,0,0,0,.86-.09,1.51,1.51,0,0,0,.89-1.39,1.48,1.48,0,0,0-.27-.81,1.42,1.42,0,0,0-.67-.54,1.46,1.46,0,0,0-.85-.07,1.48,1.48,0,0,0-1.15,1.18,1.42,1.42,0,0,0,0,.58,1.52,1.52,0,0,0,.23.54,1.43,1.43,0,0,0,1,.6Z"/><path class="cls-3" d="M843.15,301.92a1.49,1.49,0,0,0,.86-.09,1.51,1.51,0,0,0,.89-1.39,1.49,1.49,0,0,0-1.8-1.42,1.52,1.52,0,0,0-.75.42,1.5,1.5,0,0,0-.39.76,1.42,1.42,0,0,0,0,.58,1.44,1.44,0,0,0,.65.94,1.47,1.47,0,0,0,.54.2Z"/><path class="cls-3" d="M843.15,273.55a1.58,1.58,0,0,0,.86-.1,1.53,1.53,0,0,0,.65-.56,1.49,1.49,0,0,0-.7-2.18,1.57,1.57,0,0,0-.86-.07,1.52,1.52,0,0,0-.75.42,1.49,1.49,0,0,0-.39.77,1.42,1.42,0,0,0,0,.58,1.48,1.48,0,0,0,.23.53,1.34,1.34,0,0,0,.42.4,1.69,1.69,0,0,0,.54.21Z"/><path class="cls-3" d="M850.43,381.48a1.49,1.49,0,0,0,.86-.09,1.53,1.53,0,0,0,.65-.56,1.48,1.48,0,0,0-1.56-2.25,1.52,1.52,0,0,0-.75.42,1.5,1.5,0,0,0-.39.76,1.42,1.42,0,0,0,0,.58,1.45,1.45,0,0,0,.23.54,1.34,1.34,0,0,0,.42.4,1.47,1.47,0,0,0,.54.2Z"/><path class="cls-2" d="M528.79,801.44H498.33a3,3,0,0,1-2.11-.81,3,3,0,0,1-.94-2.06V767.11a3,3,0,0,1,3.05-2.87h30.48a3,3,0,0,1,2.08.84,3,3,0,0,1,.92,2v31.46a3,3,0,0,1-3,2.87Z"/><path class="cls-10" d="M510.2,790.24l-6.26-6.12a.93.93,0,0,1-.23-.62.89.89,0,0,1,.23-.61l1.61-1.64a.91.91,0,0,1,1.23,0l4,3.94,9.48-9.74a.91.91,0,0,1,1.23,0l1.64,1.61a.9.9,0,0,1,.24.61.94.94,0,0,1-.24.62l-11.71,12a1,1,0,0,1-.29.19.93.93,0,0,1-.33.07,1,1,0,0,1-.34-.07,1,1,0,0,1-.29-.19"/><path d="M827,361.56l3.19-1.7,10.71,17-3.58,1.46Z"/><path d="M593.24,411.93l19.94,13,2.81-3.17-20.57-12.89Z"/></svg>