<svg id="Layer_1" data-name="Layer 1" xmlns="http://www.w3.org/2000/svg" viewBox="0 0 1280 1024"><defs><style>.cls-1{fill:#b2b6bb;}.cls-15,.cls-18,.cls-19,.cls-2{fill:#fff;}.cls-3{fill:#61656d;}.cls-4{fill:#58119d;}.cls-5{fill:#dadddf;}.cls-6{fill:#868a91;}.cls-11,.cls-15,.cls-16,.cls-7{opacity:0.2;}.cls-10,.cls-11,.cls-13,.cls-15,.cls-18,.cls-19,.cls-22,.cls-7{isolation:isolate;}.cls-8{fill:#fc9d9d;}.cls-9{fill:#25282f;}.cls-10,.cls-24{opacity:0.15;}.cls-11{fill:none;stroke:#000;stroke-linecap:round;stroke-miterlimit:10;stroke-width:1.05px;}.cls-12{fill:#21252b;}.cls-13,.cls-14,.cls-19{opacity:0.3;}.cls-17,.cls-18{opacity:0.4;}.cls-20{fill:#3f4249;}.cls-21{fill:#f99a9a;}.cls-22{opacity:0.6;}.cls-23{fill:#c46f69;}.cls-25{fill:#f2f8fc;}.cls-26{fill:#231f20;}.cls-27{fill:#956363;}</style></defs><path class="cls-1" d="M61.54,793.33h1156l-32.63,120.33H71.54Z"/><path class="cls-2" d="M1050,122.23H286.5V665.3H1050Z"/><path class="cls-3" d="M1071.53,122.23H265v13h806.56Z"/><path class="cls-3" d="M1071.53,658.15H265v7.15h806.56Z"/><path class="cls-4" d="M469.3,251.89A107.66,107.66,0,1,0,577,359.55H469.3Z"/><path class="cls-5" d="M668.65,242.32H488.16v23H668.65Z"/><path class="cls-5" d="M668.65,276.42H488.16v23H668.65Z"/><path class="cls-5" d="M668.65,310.51H488.16v23H668.65Z"/><path class="cls-4" d="M553.65,242.32H488.16v23h65.49Z"/><path class="cls-4" d="M592.65,276.42H488.16v23H592.65Z"/><path class="cls-4" d="M528.65,310.51H488.16v23h40.49Z"/><path class="cls-6" d="M982.64,242.33H716.89V259.5H982.64Z"/><path class="cls-6" d="M982.64,275.19H716.89v4.87H982.64Z"/><path class="cls-1" d="M982.64,293.87H716.89v4.87H982.64Z"/><path class="cls-6" d="M982.64,312.55H716.89v4.87H982.64Z"/><path class="cls-1" d="M982.64,331.23H716.89v4.87H982.64Z"/><path class="cls-6" d="M982.64,349.91H716.89v4.87H982.64Z"/><path class="cls-6" d="M982.64,368.59H716.89v4.87H982.64Z"/><path class="cls-1" d="M982.64,387.27H716.89v4.87H982.64Z"/><path class="cls-6" d="M982.64,406H716.89v4.87H982.64Z"/><path class="cls-1" d="M982.64,424.63H716.89v4.87H982.64Z"/><path class="cls-6" d="M982.64,443.31H716.89v4.87H982.64Z"/><path class="cls-6" d="M982.86,178.33h-629v19.85h629Z"/><path class="cls-4" d="M982.65,501.49c-10.4-.29-20.79-.19-31.15.52-67.37,4.66-125.12,34.52-173.36,67-10.43,7-21.69,14.59-36.17,16-17.49,1.73-33.78-6.06-46.81-14.21-22.76-14.24-47.41-32.29-78.07-29.82-21.93,1.76-38.55,13.73-54.61,24.07s-37,20.33-58.46,16.86c-19.14-3.1-33.33-13.79-49.07-21.85-35.44-18.16-76.4-1.25-101.3,15.22V641h629Z"/><path class="cls-7" d="M982.65,511.49c-10.4-.29-20.79-.19-31.15.52-67.37,4.66-125.12,34.52-173.36,67-10.43,7-21.69,14.59-36.17,16-17.49,1.73-33.78-6.06-46.81-14.21-22.76-14.24-47.41-32.29-78.07-29.82-21.93,1.76-38.55,13.73-54.61,24.07s-37,20.33-58.46,16.86c-19.14-3.1-33.33-13.79-49.07-21.85-35.44-18.16-76.4-1.25-101.3,15.22V641h629Z"/><path class="cls-1" d="M982.65,541.62c-10.4-.29-20.79-.19-31.15.52-67.37,4.66-125.12,34.52-173.36,67-10.43,7-21.69,14.59-36.17,16-17.49,1.73-33.78-6.06-46.81-14.21-22.76-14.31-47.37-32.31-78.07-29.87-21.93,1.76-38.55,13.73-54.61,24.07S525.48,625.47,504,622c-19.14-3.1-33.33-13.79-49.07-21.85-35.44-18.16-76.4-1.24-101.3,15.22V641h629Z"/><path class="cls-6" d="M429.93,525.21H385.07v3.55h44.86Z"/><path class="cls-6" d="M426.27,533.3h-41.2v3.55h41.2Z"/><path class="cls-6" d="M676.91,510h35.53v-3.55H676.91Z"/><path class="cls-6" d="M667.58,518.11h44.86v-3.55H667.58Z"/><path class="cls-6" d="M891.28,484.92H846.42v3.55h44.86Z"/><path class="cls-6" d="M891.27,493H861.05v3.55h30.22Z"/><path class="cls-6" d="M448.23,555.1l-15.71-18,.68-.28,15.72,18Z"/><path class="cls-6" d="M647.46,536.36l15.72-18-.69-.28-15.71,18Z"/><path class="cls-6" d="M844.28,516.87l15.71-18-.68-.28-15.72,18Z"/><path class="cls-8" d="M1102.6,783.76h-22.28l-4.12-37.69,26.33.07Z"/><path class="cls-7" d="M1102.56,757.12v3.07h-17.49a4.14,4.14,0,0,0-3.94,2.86,4.36,4.36,0,0,0-.17,1.72l1.46,13.4h-2.73l-2.3-21Z"/><path class="cls-9" d="M1100.31,769.46l-.68-.58c-5-4.38-13.74-4.33-18.65.19l-.38.39a5.81,5.81,0,0,0-1.4,1.86,5.71,5.71,0,0,0-.53,2.26V776a11.75,11.75,0,0,1-.74,4.19l-2.3,6.64a14.44,14.44,0,0,0-.89,5v.83c0,1.3,1.34,2.32,2.9,2.32h26.67c1.64,0,2.9-1,2.9-2.32v-.32a15.24,15.24,0,0,0-1.12-5.74l-2.67-6.51a12.35,12.35,0,0,1-1-4.64l-.08-1.87a6.12,6.12,0,0,0-2-4.16Z"/><path class="cls-8" d="M896.22,357.92l-10.38-3.23-13.3,1.52a1.65,1.65,0,0,0-.68.22,1.62,1.62,0,0,0-.5.51,1.6,1.6,0,0,0-.22.68,1.52,1.52,0,0,0,.11.7c.48,2.16,13.06.43,14.51.82l7.16,3.74-7.16-3.74-11,1.25c-2,.24-1.21,3,.58,2.72,12.52-.57,10.48-.61,21.41,5.11l-10.41-5.35c-.6.34-13,1.92-7.43,3.66,10.72-1.21,9.64-.43,19.15,3.67Z"/><path class="cls-10" d="M896.22,357.92l-10.38-3.23-13.3,1.52a1.65,1.65,0,0,0-.68.22,1.62,1.62,0,0,0-.5.51,1.6,1.6,0,0,0-.22.68,1.52,1.52,0,0,0,.11.7c.48,2.16,13.06.43,14.51.82l7.16,3.74-7.16-3.74-11,1.25c-2,.24-1.21,3,.58,2.72,12.52-.57,10.48-.61,21.41,5.11l-10.41-5.35c-.6.34-13,1.92-7.43,3.66,10.72-1.21,9.64-.43,19.15,3.67Z"/><path class="cls-8" d="M897.24,355.45l13.55,11.17A6.29,6.29,0,0,0,913.5,368l29.67,6.43-6.61,17.87-23.13-8.79c-6.28-.68-13.23.2-18.28-4.71h-.07c-1.38-1.78-10.29-2.22-11.21-4.19,1.13-5.88,13,.89,11.77-6.52-.67-1.07-2.77-9.63-4.28-9.85-.62-.79-17.36-6.52-16-8.37C876.3,346.9,895.32,355.29,897.24,355.45Z"/><path class="cls-10" d="M943,374.8c-9.92,17.1-12.73,10.07-28.19,5.73-5.92-1.37-11.58,1.82-20-2,0,0,.22.18.27.17,5.06,4.91,12,4,18.29,4.7l23.12,8.8Z"/><path class="cls-8" d="M1015.79,757.36l-1.49,21.91-43.42,2,14.44-14.57c2.75-2,4.44-6.32,5-9.62Z"/><path class="cls-7" d="M1000.27,761a10.88,10.88,0,0,0-9.66,5.87,10.56,10.56,0,0,1-3,3.67L977.26,781l-6.39.3,14.44-14.57c2.75-2,4.44-6.32,5-9.62l25.47.26-.26,3.81Z"/><path class="cls-9" d="M1015.19,770s-9.84,6.15-20.89.83a6.56,6.56,0,0,0-2.22-6.22c-1.84-1.44-5.56-1.91-6.57-.59s-2.58,3.54-5.22,6.74c-3.67,4.42-8.63,9.53-12.47,10.33-7,1.47-21.24-5.71-22.22,9.32,0,0,13.88,5.22,26.8,3.92a107.24,107.24,0,0,0,24.65-5.89v6h20.11S1021.72,777.53,1015.19,770Z"/><path d="M1018.63,784.88a54.05,54.05,0,0,1-1.48,9.62h-20.1v-6a107.84,107.84,0,0,1-24.66,5.89c-12.92,1.3-26.79-3.91-26.79-3.91a17.46,17.46,0,0,1,.53-3.44,44.35,44.35,0,0,0,32.65,3c7.38-2.15,13.33-3.63,18.54-5.12C997.32,784.84,1014.6,784.46,1018.63,784.88Z"/><path d="M965.54,781.33s14.32,3.44,22-2.43c5.67-4.34,8.56-6.87,6.27-12.06-3.26-5.51-8.26-3.51-8.26-3.51S975.54,780.33,965.54,781.33Z"/><path class="cls-2" d="M1064.79,470.62c-10.68-94.55,8.55-152.31,15.34-172.23l-10.76-2.89-35.56.3-4.5,1.6c-.92,17.71-13.58,97.06-25.79,173.14h61.27Z"/><path class="cls-4" d="M1102.15,448.26l-104.88,1.68-10,307.9h29.1l26.91-252.46a3.2,3.2,0,0,1,3.15-2.86h0a3.14,3.14,0,0,1,2.19.78,3.18,3.18,0,0,1,1.05,2.08L1075,757.84h29.1Z"/><path class="cls-4" d="M1104.71,751.54h-31.49l.57,6.3h31Z"/><path class="cls-4" d="M990.4,751.47H1018l-.71,6.37H990.08Z"/><path class="cls-4" d="M986.78,751.47h3.61l-.38,6.37h-3.48Z"/><path class="cls-7" d="M1031.17,512.27l-22.63,245.06,7.83.34,26.89-252.29a3.2,3.2,0,0,1,2.26-2.72v-.33A9.69,9.69,0,0,0,1044,502a11.35,11.35,0,0,0-12.86,10.27Z"/><path class="cls-7" d="M1090.49,522.3l8.11,235.54H1104l-1.89-309.58-14,.22,1.51,44.44"/><path class="cls-8" d="M1034.46,254.12s31.14-19.54,32.36,4.35l.45,6.18,2.14,31.28a3.53,3.53,0,0,1-.84,2.37L1047,310.62a1.42,1.42,0,0,1-.89.25,1.45,1.45,0,0,1-.87-.32l-9.75-11.37a3.57,3.57,0,0,1-1.22-3.13h0l2-18.54a23.66,23.66,0,0,1-.61-5.5C1035.3,262.62,1034.46,254.12,1034.46,254.12Z"/><path class="cls-8" d="M1049.44,226c-19.9.36-21.47,16.27-22,26.67-.78,14.15,1.32,31.57,15.92,33.49,21.61,2.88,26.11-29.77,26.11-29.77l.36-3.38c1.13-10.66-1.25-22.65-13.35-26.11a20.75,20.75,0,0,0-7-.9Z"/><path class="cls-7" d="M1067.3,264.54a3.17,3.17,0,0,1-1.23-.12,3.23,3.23,0,0,1-1.09-.6l2.56,5.44Z"/><path class="cls-8" d="M1066.85,251.55a4.5,4.5,0,0,1,1-1.66,4.37,4.37,0,0,1,1.61-1.07,4.42,4.42,0,0,1,3.78.25c5.45,2.4,4.32,14.73-4.88,15.45-4.8.4-3.84-2.4-3-6.16Z"/><path class="cls-7" d="M1073.49,252.27a3.5,3.5,0,0,0-2.64-.72,3.12,3.12,0,0,0-1.22.61,3.31,3.31,0,0,0-.86,1.07,6.59,6.59,0,0,0-.88,3.36l-.08,1a.52.52,0,0,0,0,.21.57.57,0,0,0,.12.18.59.59,0,0,0,.19.13.57.57,0,0,0,.42,0,.59.59,0,0,0,.19-.13.57.57,0,0,0,.12-.18.52.52,0,0,0,0-.21l.08-1a6.79,6.79,0,0,1,.72-2.8,1.87,1.87,0,0,1,.53-.77,1.93,1.93,0,0,1,.84-.43,2,2,0,0,1,.93,0,1.86,1.86,0,0,1,.82.46.64.64,0,0,0,.43.07.61.61,0,0,0,.37-.23C1073.79,252.83,1073.73,252.51,1073.49,252.27Z"/><path class="cls-10" d="M1034.69,290.52l.76-7.48c2,2.06,7.71,5,14.2,3.51a15.81,15.81,0,0,0,8.31-5.19.64.64,0,0,1,.15-.13.35.35,0,0,1,.18-.05.41.41,0,0,1,.19,0,.56.56,0,0,1,.17.09.53.53,0,0,1,.12.14.33.33,0,0,1,.06.19.41.41,0,0,1,0,.19.56.56,0,0,1-.09.17,44.94,44.94,0,0,1-24,8.55Z"/><path class="cls-7" d="M1041.48,276.2c0,.08.08.08,0,0l3,.24a.74.74,0,0,0,.49-.18.68.68,0,0,0,.23-.46.63.63,0,0,0,0-.27.48.48,0,0,0-.13-.23.5.5,0,0,0-.22-.16.58.58,0,0,0-.26-.06l-3-.24a.65.65,0,0,0-.47.13.64.64,0,0,0-.25.43C1040.92,275.88,1041.16,276.2,1041.48,276.2Z"/><path class="cls-7" d="M1039.85,273.32a6.58,6.58,0,0,0,7.43-3.6.7.7,0,0,0,0-.47.73.73,0,0,0-.25-.41c-.27-.16-.54-.08-.75.24-.67,1.44-3,4.56-8.5,2.4a.59.59,0,0,0-.68.4.77.77,0,0,0,0,.45.74.74,0,0,0,.3.35,11.28,11.28,0,0,0,2.36.64Z"/><path d="M1047.88,258.91a2,2,0,1,0-2-2A2,2,0,0,0,1047.88,258.91Z"/><path class="cls-2" d="M1047,256.67a.4.4,0,1,0-.4-.4A.4.4,0,0,0,1047,256.67Z"/><path d="M1032,259a2,2,0,1,0-2-2A2,2,0,0,0,1032,259Z"/><path class="cls-2" d="M1031.15,256.75a.4.4,0,1,0-.4-.4A.4.4,0,0,0,1031.15,256.75Z"/><path class="cls-7" d="M1038.92,268.44l2.64.16a.59.59,0,0,0,.44-.15.58.58,0,0,0,.2-.41.59.59,0,0,0-.15-.44.58.58,0,0,0-.41-.2l-2.64-.16a1.19,1.19,0,0,1-.82-.41,1.2,1.2,0,0,1,1-2,.71.71,0,0,0,.42-.17.67.67,0,0,0,.22-.39c.08-.32-.24-.56-.56-.64a2.36,2.36,0,0,0-2,3.93,2.54,2.54,0,0,0,1.65.87Z"/><path class="cls-11" d="M1036.33,269.4a7.86,7.86,0,0,0-3.14,6.29"/><path class="cls-11" d="M1048.92,267.3a7.87,7.87,0,0,1,3.15,6.3"/><path class="cls-6" d="M1043.68,249.78c.2.47,1.94.17,4,.33s3.75.65,4,.21c.11-.21-.2-.65-.89-1.08a7,7,0,0,0-6.11-.41C1044,249.17,1043.6,249.56,1043.68,249.78Z"/><path class="cls-6" d="M1034.31,249.78c-.19.47-1.93.17-4,.33s-3.76.65-4,.21c-.11-.21.19-.65.89-1.08a7,7,0,0,1,6.1-.41C1034,249.17,1034.4,249.56,1034.31,249.78Z"/><path class="cls-12" d="M1104,491.28l-3.33-79.49,1.92-41.46,28.66-26.39-2.08-15.72c.22-10.84-9.34-20.84-19.25-23.13l-40-9.49c-5.56,17.47-19.75,87.7-17,168.21.64,19.23,15.55,34.49,33.51,34.49h11a6.66,6.66,0,0,0,2.6-.58,6.73,6.73,0,0,0,2.16-1.54,6.63,6.63,0,0,0,1.38-2.27,6.72,6.72,0,0,0,.38-2.63Z"/><path class="cls-12" d="M914.14,387.09l64.28,30.21a14.54,14.54,0,0,0,17.37-7.68l31.7-83.63L998,313.51,971.5,378.29l-54.09-12.67Z"/><path class="cls-13" d="M975.89,408.69c.26.09.53.16.8.23a12,12,0,0,0,9.72-2,12,12,0,0,0,4.93-8.6l6.19-45.67-2.69,58.73c0,.73-3.4,3.77-4,4.07a14.56,14.56,0,0,1-12.37,1.81l-64.28-30.21.4-3.76Z"/><path class="cls-12" d="M996.16,339.78l-2.88,155.84c.07.76,1.93,2.7,2.63,2.7h1.26c4.78,0,8.85-3.81,9.63-8.93,10.68-75.36,24-175.84,24.75-192.77l-19.49,5.44c-9.3,2.6-15.64,10.15-15.7,18.71C996.31,328.81,996.23,337.67,996.16,339.78Z"/><g class="cls-14"><path class="cls-13" d="M1102,396.33c-.28,0-.49-.32-.47-.72l2-37.58a.8.8,0,0,0-.29-.47.77.77,0,0,0-.53-.15h0a.53.53,0,0,0-.35.17.5.5,0,0,0-.13.37l-8.48,28.67a.56.56,0,0,1-.13.24.6.6,0,0,1-.47.23.76.76,0,0,1-.27,0l-18.72-7.42a.92.92,0,0,0-.57,0,.86.86,0,0,0-.43.37l-5.31,9.74a.4.4,0,0,0-.08.23.53.53,0,0,0,0,.25.74.74,0,0,0,.16.19.68.68,0,0,0,.24.08l33.59,5.76C1102.22,396.27,1102.31,396.33,1102,396.33Z"/></g><path class="cls-8" d="M1068.06,381.62l-7.12-7.39a3.07,3.07,0,0,0-2.52-.94l-6.82.63,5.67,5.39Z"/><path class="cls-10" d="M1068.06,381.62l-7.12-7.39a3.07,3.07,0,0,0-2.52-.94l-6.82.63,5.67,5.39Z"/><path class="cls-8" d="M1098.15,394.32l-24.06-9a4.31,4.31,0,0,1-.83-.42c-3.34-1.78-14.43-10-18.14-10.37l-19.33-3.81a1.58,1.58,0,0,0-1.18.23,1.66,1.66,0,0,0-.7,1,1.63,1.63,0,0,0,1.1,1.95l17.48,5.24-19.07-.88a1.75,1.75,0,0,0-1.83,1.6c-1.34,3,18.48,4.18,19.57,5-.45.19-17.84-3.67-17.58-2.55a1.7,1.7,0,0,0-.61.74,1.66,1.66,0,0,0-.13,1,1.78,1.78,0,0,0,.4.87,1.82,1.82,0,0,0,.81.53l15.67,4.5c-1.26.19-14.94-5.71-15.21-3-2.51,2.37,35.42,13.13,35.69,14l24.62,12.29Z"/><path class="cls-10" d="M1034.49,382.56c-2.8-2.93,15.66,2,15.64,1.48a.53.53,0,0,1,.31.17.61.61,0,0,1,.18.31.69.69,0,0,1,0,.35.56.56,0,0,1-.21.29.69.69,0,0,1-.46.11C1049.71,385.19,1034.65,382.73,1034.49,382.56Z"/><path class="cls-10" d="M1035.88,386.54c-2.55-3.25,13.92,3.19,14,2.74a.72.72,0,0,1,.29.2.69.69,0,0,1,.14.33.7.7,0,0,1-.06.35.78.78,0,0,1-.24.27.62.62,0,0,1-.23.07.65.65,0,0,1-.24,0C1049.39,390.42,1036,386.62,1035.88,386.54Z"/><path class="cls-10" d="M1034.47,386.91c-2.51,2.36,35.42,13.13,35.69,14l24.63,12.27,3.37-18.86c-2,2.7-4.16,13.61-9.45,11.22C1077,399.92,1047.17,390.62,1034.47,386.91Z"/><path class="cls-12" d="M1128.21,322.07l13.87,81.83c3.9,28.16-18,34.52-29.35,27.87a7.28,7.28,0,0,1-.92-.65l-45.27-28.79,8-21,31.73,11.16-10-61.43"/><path class="cls-13" d="M1142.15,415.56c-9.39,19.22-32.61,3.77-32.61,3.77l-41.14-21.88-1.86,4.88,45.25,28.79a7.28,7.28,0,0,0,.92.65C1122.27,437.38,1139.37,433.73,1142.15,415.56Z"/><path class="cls-13" d="M1106.24,392.33l5.65,2.38a.77.77,0,0,0,.52,0,.8.8,0,0,0,.42-.3.76.76,0,0,0,.13-.5.74.74,0,0,0-.22-.47l-7.2-6.15Z"/><path class="cls-13" d="M1097.46,498.3a6.61,6.61,0,0,0,4.73-2.13,6.87,6.87,0,0,0,1.38-2.25,6.67,6.67,0,0,0,.38-2.62l-2.71-64.68-11.2-7.84V498.3Z"/><path class="cls-4" d="M174,720.48s-12-14.06-.75-23c0,0,8.26-5,15-4.6,0,0-9.54,16-6.45,17.59s9.34-18.59,9.34-18.59S209.93,690.06,216,693c0,0-16.06,13.15-12.68,13.93S224,694.77,224,694.77s17.49,3,16.55,13.65-7,14-9.6,13.67-18.14-6.19-18.48-4,9,9.26,15.52,9.59c0,0-12.33,13.6-20.52,9.67s-8.9-10.14-14-12.48-9.47-2.32-7.36.06,11.35,4.69,14.27,9.85,5.54,8.66-2.94,7.38-22.25-7.48-22.86-14.58Z"/><path class="cls-15" d="M174,720.48s-12-14.06-.75-23c0,0,8.26-5,15-4.6,0,0-9.54,16-6.45,17.59s9.34-18.59,9.34-18.59S209.93,690.06,216,693c0,0-16.06,13.15-12.68,13.93S224,694.77,224,694.77s17.49,3,16.55,13.65-7,14-9.6,13.67-18.14-6.19-18.48-4,9,9.26,15.52,9.59c0,0-12.33,13.6-20.52,9.67s-8.9-10.14-14-12.48-9.47-2.32-7.36.06,11.35,4.69,14.27,9.85,5.54,8.66-2.94,7.38-22.25-7.48-22.86-14.58Z"/><path class="cls-4" d="M232,708.72s-47.49-1.83-58,11.76a34.32,34.32,0,0,1-9.46,13.27l-1.11,3s8.23-8.68,11.17-9.2C174.6,727.62,170,710.75,232,708.72Z"/><path class="cls-4" d="M164.54,733.75s-10.19,7.54-10.9,21l1.85.17s3.25-13.93,9.14-19.38S164.54,733.75,164.54,733.75Z"/><g class="cls-16"><path class="cls-15" d="M232,708.72s-47.49-1.83-58,11.76a34.32,34.32,0,0,1-9.46,13.27l-1.11,3s8.23-8.68,11.17-9.2C174.6,727.62,170,710.75,232,708.72Z"/><path class="cls-15" d="M164.54,733.75s-10.19,7.54-10.9,21l1.85.17s3.25-13.93,9.14-19.38S164.54,733.75,164.54,733.75Z"/></g><g class="cls-16"><path class="cls-7" d="M232,708.72s-47.49-1.83-58,11.76a34.32,34.32,0,0,1-9.46,13.27l-1.11,3s8.23-8.68,11.17-9.2C174.6,727.62,170,710.75,232,708.72Z"/><path class="cls-7" d="M164.54,733.75s-10.19,7.54-10.9,21l1.85.17s3.25-13.93,9.14-19.38S164.54,733.75,164.54,733.75Z"/></g><path class="cls-4" d="M131.88,702.8S151,692.07,142.1,677.51c0,0-7.15-8.94-14.82-11.24,0,0,4.09,21.71,0,22.23S124.47,664,124.47,664s-20.18-9.71-28.1-8.94c0,0,12.52,21.2,8.43,20.69s-18.14-22-18.14-22-20.7-3.83-24,8.43,2,18.47,5.13,19.19,22.74.51,22.23,3.07-13.8,6.64-21.21,4.34c0,0,8.18,20.18,18.91,19.16s14-7.66,20.69-8.17,11.5,1.27,8.18,3.06S102,703.39,96.66,708s-9.71,7.37.26,9.42,27.85.76,31.42-6.9Z"/><g class="cls-17"><path class="cls-18" d="M131.79,702.8S151,692.07,142,677.51c0,0-7.16-8.94-14.82-11.24,0,0,4.09,21.71,0,22.23S124.38,664,124.38,664s-20.19-9.71-28.11-8.94c0,0,12.52,21.2,8.43,20.69s-18.14-22-18.14-22-20.69-3.83-24,8.43,2,18.39,5.11,19.16,22.74.51,22.22,3.07S76.1,691,68.69,688.72c0,0,8.17,20.18,18.91,19.16s14-7.66,20.69-8.17,11.5,1.27,8.18,3.06-14.57.59-19.93,5.15-9.71,7.37.25,9.42,27.85.76,31.43-6.9Z"/></g><path class="cls-4" d="M72.79,666s53.66,17.37,59.79,36.79a40.66,40.66,0,0,0,5.11,18.65v3.84s-5.62-13-8.69-14.82C129,710.47,141,693.62,72.79,666Z"/><path class="cls-4" d="M137.68,721.45S146,734,141.24,749.31l-2.13-.57s2.06-16.84-2.27-25.32S137.68,721.45,137.68,721.45Z"/><g class="cls-16"><path class="cls-15" d="M72.79,666s53.66,17.37,59.79,36.79a40.66,40.66,0,0,0,5.11,18.65v3.84s-5.62-13-8.69-14.82C129,710.47,141,693.62,72.79,666Z"/><path class="cls-15" d="M137.68,721.45S146,734,141.24,749.31l-2.13-.57s2.06-16.84-2.27-25.32S137.68,721.45,137.68,721.45Z"/></g><g class="cls-16"><path class="cls-7" d="M72.79,666s53.66,17.37,59.79,36.79a40.66,40.66,0,0,0,5.11,18.65v3.84s-5.62-13-8.69-14.82C129,710.47,141,693.62,72.79,666Z"/><path class="cls-7" d="M137.68,721.45S146,734,141.24,749.31l-2.13-.57s2.06-16.84-2.27-25.32S137.68,721.45,137.68,721.45Z"/></g><path class="cls-4" d="M162.37,688s-25.26-14.14-13.48-33.38c0,0,9.43-11.79,19.54-14.82,0,0-5.39,28.63,0,29.3s3.7-32.33,3.7-32.33S198.74,624,209.18,625c0,0-16.5,28-11.11,27.28s23.91-29,23.91-29,27.28-5,31.66,11.11-2.7,24.25-6.74,25.26-30,.68-29.3,4,18.19,8.76,28,5.73c0,0-10.77,26.61-24.92,25.26s-18.52-10.1-27.28-10.78-15.16,1.69-10.78,4,19.2.78,26.27,6.79,12.8,9.72-.33,12.41-36.71,1-41.43-9.09Z"/><path class="cls-19" d="M162.37,688s-25.26-14.14-13.48-33.38c0,0,9.43-11.79,19.54-14.82,0,0-5.39,28.63,0,29.3s3.7-32.33,3.7-32.33S198.74,624,209.18,625c0,0-16.5,28-11.11,27.28s23.91-29,23.91-29,27.28-5,31.66,11.11-2.7,24.25-6.74,25.26-30,.68-29.3,4,18.19,8.76,28,5.73c0,0-10.77,26.61-24.92,25.26s-18.52-10.1-27.28-10.78-15.16,1.69-10.78,4,19.2.78,26.27,6.79,12.8,9.72-.33,12.41-36.71,1-41.43-9.09Z"/><path class="cls-4" d="M241.17,639.51s-70.72,22.9-78.8,48.49c0,0,.33,11.45-6.74,24.59v5s7.41-17.18,11.45-19.53C167.08,698.11,151.25,675.88,241.17,639.51Z"/><path class="cls-4" d="M155.63,712.62s-10.91,16.56-4.69,36.72l2.81-.75s-2.73-22.21,3-33.38S155.63,712.62,155.63,712.62Z"/><g class="cls-16"><path class="cls-15" d="M241.17,639.51s-70.72,22.9-78.8,48.49c0,0,.33,11.45-6.74,24.59v5s7.41-17.18,11.45-19.53C167.08,698.11,151.25,675.88,241.17,639.51Z"/><path class="cls-15" d="M155.63,712.62s-10.91,16.56-4.69,36.72l2.81-.75s-2.73-22.21,3-33.38S155.63,712.62,155.63,712.62Z"/></g><g class="cls-16"><path class="cls-7" d="M241.17,639.51s-70.72,22.9-78.8,48.49c0,0,.33,11.45-6.74,24.59v5s7.41-17.18,11.45-19.53C167.08,698.11,151.25,675.88,241.17,639.51Z"/><path class="cls-7" d="M155.63,712.62s-10.91,16.56-4.69,36.72l2.81-.75s-2.73-22.21,3-33.38S155.63,712.62,155.63,712.62Z"/></g><path class="cls-20" d="M161.51,793A49.47,49.47,0,0,0,211,743.56H112A49.49,49.49,0,0,0,161.51,793Z"/><path class="cls-13" d="M198.47,747h-86.4l.33-2h86.15v-1.51h12.29c0,27.32-22.15,49.79-49.47,49.79a13,13,0,0,1-3.11-.31C181.59,790.15,197.08,770.62,198.47,747Z"/><path class="cls-20" d="M210.75,742.33h-99a1.37,1.37,0,0,0-1.37,1.37h0a1.37,1.37,0,0,0,1.37,1.37h99a1.37,1.37,0,0,0,1.37-1.37h0A1.37,1.37,0,0,0,210.75,742.33Z"/><path class="cls-21" d="M190.18,790a2.35,2.35,0,0,0-.3-.33h0Z"/><path class="cls-21" d="M186.14,785.37a6.88,6.88,0,0,0-.1-1.23Z"/><path class="cls-21" d="M168,786l-.19-.88-.06.11v.06Z"/><path class="cls-10" d="M162.83,796l-.68,8.82Z"/><path class="cls-12" d="M190.68,788.56l-2.89-12.94a.83.83,0,0,0-.13-.32,1,1,0,0,0-.25-.25,1,1,0,0,0-.33-.13.83.83,0,0,0-.35,0,.9.9,0,0,0-.56.39,1,1,0,0,0-.13.68l1.11,4.89-1.32.29-17.94,4,.19.88c.07.21.16.49.27.85L186,783l1.56-.34L189,789a.94.94,0,0,0,.38.53l.23.11H190a.89.89,0,0,0,.54-.41.87.87,0,0,0,.1-.67Z"/><path class="cls-4" d="M213.19,858.36c-.16-4.33,2.24-8.94,4.71-11.64a17.81,17.81,0,0,1,4.32-3.36l-35.43-4.57c-1-1.23-3.28-6.93-5.32-6.83h-2.79l0,.4c-6.1-.23-28.57-.61-35.36-.44-4.11-1.38-5.72,5.32-7.31,7.68-4.06,1.09-39.46,6.83-41.8,8.7-7.29,1-20.92,50.8-20.92,50.8l1.26,15.09,20-.53s77-.2,102-.33c9.58.3,22.95.53,32-4Z"/><path class="cls-4" d="M171.42,831.92h-1.83l.16.41h9l-.05-.4h-7.25Z"/><path class="cls-4" d="M171.42,831.92h-1.83l.16.41h9l-.05-.4h-7.25Z"/><path class="cls-8" d="M185.79,781.14l-.85-9.86a9.33,9.33,0,0,1-2.74,1.61,7.08,7.08,0,0,1-.78.25,9.43,9.43,0,0,1-4.87,0,9.15,9.15,0,0,1-3.38-1.67,7.37,7.37,0,0,1-1.56,4.31,10.63,10.63,0,0,1-5.33,3.59l1.57,5.71Z"/><path class="cls-8" d="M190.79,791.33v-.11a3.92,3.92,0,0,0-.23-.6v-.1a2.62,2.62,0,0,0-.33-.53h0c-.1-.12-.21-.23-.31-.33h-.39l-.23-.11a.93.93,0,0,1-.38-.53l-.37-.16a3.73,3.73,0,0,1-2.4-3.29v-.14l-.1-1.23-.11-1.2-17.63,3.91c.29.91.74,2.33,1.45,4.59.92,3.13,1.91,5.47-1.52,5.82-.3,0-.6,0-.9,0a9,9,0,0,1-2.47-.35,7.5,7.5,0,0,1-2-1l-.68,8.82-17.84,5.78-1,21.28h35.36l-1.2-10.56-.08-.64,2.38-.69a11.51,11.51,0,0,0,8.28-12L187,795.62l1.3-.27a3.41,3.41,0,0,0,2.46-4Z"/><path class="cls-10" d="M171.42,831.33h7.25l-1.23-10.71-7.41-.15a3.1,3.1,0,0,0-2.62,1.3,3,3,0,0,0-.55,1.4,3.06,3.06,0,0,0,.17,1.5l2.53,6.71h1.83Z"/><path class="cls-8" d="M169.79,791.44c-.71-2.26-1.16-3.68-1.45-4.59-.11-.36-.2-.64-.27-.85l-.22-.71v-.06a4.4,4.4,0,0,0-.3-.52,4,4,0,0,0-3.1-1.91,4.93,4.93,0,0,0-2.54.67c-3.28,1.79-3.48,7.71-.49,11.19A7.49,7.49,0,0,0,162.9,796h0a6.49,6.49,0,0,0,1,.55A10.78,10.78,0,0,0,165,797a9,9,0,0,0,2.47.35c.3,0,.6,0,.9,0C171.66,796.91,170.67,794.62,169.79,791.44Z"/><path class="cls-10" d="M167.26,790.12a6.83,6.83,0,0,0-1.12-3.06,3.6,3.6,0,0,0-2-1.35,3,3,0,0,0-2.35.77,1,1,0,0,0-.17.44.9.9,0,0,0,.09.46c.17.29.47.27.76.1a1.93,1.93,0,0,1,.73-.48,1.84,1.84,0,0,1,.87-.09c.45,0,.78.39,1.27,1a5,5,0,0,1,.93,2.48l.22,1c0,.3.33.42.63.4s.43-.33.41-.63Z"/><path d="M185.93,759.33v-.53c0-6.83-5-12.37-11.07-12.37a9.49,9.49,0,0,0-2.48.33,13.45,13.45,0,0,0-22.23.72,13.37,13.37,0,0,0-9.41-3.79c-7.23,0-13.1,5.57-13.1,12.45a12,12,0,0,0,1.4,5.57c-5,1.16-8.72,4.67-8.72,8.82,0,3.61,2.79,6.74,6.86,8.25a6.85,6.85,0,0,0-3.28,5.76,7,7,0,0,0,5.58,6.72v.22a4.6,4.6,0,0,0,.6,2.26,4.66,4.66,0,0,0,1.62,1.68c3,12.1,12.62,15.23,12.62,15.23l17.8-5.83.68-8.82a7.79,7.79,0,0,1-1.48-1.33c-3-3.48-2.79-9.4.49-11.19a4.93,4.93,0,0,1,2.54-.67,4,4,0,0,1,1.78.58,3.91,3.91,0,0,1,1.32,1.33,2.7,2.7,0,0,1,.3.52l.06-.11-1.57-5.71a10.59,10.59,0,0,0,5.33-3.59,7.31,7.31,0,0,0,1.56-4.31,9.15,9.15,0,0,0,3.38,1.67,9.51,9.51,0,0,0,2.37.3h0a9.54,9.54,0,0,0,2.5-.34,6.46,6.46,0,0,0,.78-.25,9.33,9.33,0,0,0,2.74-1.61h0a8.44,8.44,0,0,0,3-6.47A8.34,8.34,0,0,0,185.93,759.33Z"/><path class="cls-10" d="M164.86,797a7.65,7.65,0,0,1-2-1l-.68,8.82,6.08-7.55c-.3,0-.6,0-.9,0A8.85,8.85,0,0,1,164.86,797Z"/><path class="cls-8" d="M234.13,822.22a13.84,13.84,0,0,0,3.12-2.25l-6.41,1.57,2-.4a11.18,11.18,0,0,0,1.29,1.08Z"/><path class="cls-8" d="M283.58,764.91s7.63,33.18-25,46.73l-3.67,1.54a24.34,24.34,0,0,0-2,3.28,10.13,10.13,0,0,1,.72,1s1.87,4.71-3.09,5.45v-.09a30.75,30.75,0,0,0-.75,3.8c1,.06,1.55.06,1.55.06,13.21.11,20.92-1.72,24.66-3q1.42-.52,2.76-1.14l-5.09-1.1-.38-5.17-5.39-4.7a.67.67,0,0,1-.17-.31.6.6,0,0,1,0-.35.58.58,0,0,1,.23-.26.57.57,0,0,1,.34-.08l4.62.26h3.59c7.45,0,12.4-4.47,14.45-13a6,6,0,0,1-3.51-1.83l.7-.79a5.28,5.28,0,0,0,3,1.65l.82-4v-.17a3.19,3.19,0,0,0,1.17-.32,3,3,0,0,0,.94-.75,3,3,0,0,0,.68-2.26,3,3,0,0,0-.52-1.51,3,3,0,0,0-1.22-1,3.81,3.81,0,0,1-1.19-1.07,4,4,0,0,1-.64-1.47l-.32-2.7a1.47,1.47,0,0,1-.62.17,1.31,1.31,0,0,1-.84-.42,1.3,1.3,0,0,1,0-1.75,1.31,1.31,0,0,1,.84-.42,1,1,0,0,1,.34,0l-.81-6.82-.1-.24-.76.45S286.2,764.93,283.58,764.91Z"/><path class="cls-20" d="M281.27,899.8c.7-.71,1.4-1.37,2.12-2l.13-.13-3.18-17.76a16.74,16.74,0,0,0-2.77,1.16,39.88,39.88,0,0,0-9.63,7.14,28.82,28.82,0,0,0-6.42,10.73,61.17,61.17,0,0,1-8.84,16.32h14.94c.48-.55.94-1.09,1.38-1.63C273.62,908,277.51,903.62,281.27,899.8Z"/><path class="cls-20" d="M220.55,896.28a45.92,45.92,0,0,0,8.07-5.06,11.4,11.4,0,0,0,4.17-9.6h0l-5.06-1.45c.47-2.18,1.36-6,2.48-9.65a15.48,15.48,0,0,0-.65-1.44,39.49,39.49,0,0,0-4.77,10.24l-2.24-.64a11.4,11.4,0,0,1,.14,2.26,8.56,8.56,0,0,1-2.48,6.35A27.73,27.73,0,0,1,213,892.7c-2.06,1.17-4.15,2.34-6.19,3.55l-.08-.49c1.48-.88,3-1.74,4.46-2.56l1.56-.89a27.92,27.92,0,0,0,7.07-5.33,7.95,7.95,0,0,0,2.35-6,10.18,10.18,0,0,0-.17-2.4l-10.19-3-2,7.89-.15.59-2.9,11.52,1.49,9.09a39.14,39.14,0,0,1,3.26-2.91A68.14,68.14,0,0,1,220.55,896.28Z"/><path class="cls-20" d="M285.31,907.62l-1.7-9.46c-.67.66-1.35,1.31-2,2-4.31,4.34-8.34,9-12.24,13.75-.38.46-.75.91-1.14,1.35h9l2.26-2.46A43.37,43.37,0,0,1,285.31,907.62Z"/><path class="cls-20" d="M221.58,902.27c3.53-1.75,7.22-3,10.79-4.52,5.81-2.54,9.54-6.87,10.54-13.62a54.93,54.93,0,0,0,.61-8v-1.51a13.74,13.74,0,0,1,.41-3.67,5.36,5.36,0,0,1,1.54-2.88,5.26,5.26,0,0,1,2.93-1.42,16,16,0,0,1,2.93-.2h1.38c7,0,12.52-5.9,13-13v-2a8.4,8.4,0,0,0-.12-1.21c-.76-5.06-2.63-9.69-4.54-14.35-.73-1.77-1.5-3.52-2.22-5.3a67.25,67.25,0,0,1-9.2,0v.16a67,67,0,0,1,2.14,7.21,12.26,12.26,0,0,1,.89,3.72,8.21,8.21,0,0,1-.19,2.75,17.67,17.67,0,0,1-.46,3.7c-1.22,13-14,18.6-9.31,36.41l-9.32-2.66a11.38,11.38,0,0,1-2.24,7.62,19,19,0,0,1-4.76,4.21c-2.83,1.75-5.78,3.28-8.67,4.89a40.14,40.14,0,0,0-9.3,6.87l1.16,7.1a31.2,31.2,0,0,1,12-10.29Z"/><path class="cls-20" d="M279.79,913.06l-2,2.15h8.89L285.39,908a42.29,42.29,0,0,0-5.6,5Z"/><path class="cls-20" d="M209.87,829.62a5.22,5.22,0,0,0,1.68,1.56,3.27,3.27,0,0,0,1.52.42,2.69,2.69,0,0,0,1.45-.5,2.63,2.63,0,0,0,.93-1.23,9,9,0,0,0,.75-5.13v-.22l-.69.13a21.37,21.37,0,0,0-6.34,1.84l.37-.08Z"/><path class="cls-20" d="M216.54,828.35a5.21,5.21,0,0,1-1.68,3.18,3.18,3.18,0,0,1-1.92.68,3.77,3.77,0,0,1-2.57-1.2c-.14-.14-.26-.29-.38-.43L211.17,841l.22.08a38.81,38.81,0,0,1,7.39-9,50.54,50.54,0,0,1,5.11-4v-.68c.07-1.36,0-2.72,0-4.06l-.39-.25-7.14,1.44.3-.06a10.61,10.61,0,0,1-.12,3.89Z"/><path class="cls-20" d="M267.61,887.82a40.1,40.1,0,0,1,9.74-7.23,17.08,17.08,0,0,1,2.9-1.21l-1.54-8.59c-.72.43-1.43.89-2.15,1.38A106.62,106.62,0,0,0,267,880l-1.39,1.22a39.45,39.45,0,0,0-10.3,14.48,34.48,34.48,0,0,1-6.27,10,25.36,25.36,0,0,1-9.95,6.5c-1.32.51-2.65.93-4,1.35a47.72,47.72,0,0,0-4.87,1.7h21.87a59.77,59.77,0,0,0,9-16.5,29.3,29.3,0,0,1,6.52-10.9Z"/><path class="cls-20" d="M292.53,915.21l-.23-.88S292.4,914.67,292.53,915.21Z"/><path class="cls-20" d="M238.93,911.73a25.31,25.31,0,0,0,9.77-6.39,34.31,34.31,0,0,0,6.18-9.88,40.42,40.42,0,0,1,10.42-14.64,124.71,124.71,0,0,1,11-9c.76-.53,1.54-1,2.33-1.5l-.88-4.88a1.09,1.09,0,0,1,.15-.75,1.08,1.08,0,0,1,.61-.46,1.13,1.13,0,0,1,.41-.05,1.09,1.09,0,0,1,.39.11,1.14,1.14,0,0,1,.31.27.94.94,0,0,1,.18.36l-.25-1,1.09-9.56c-.22.28-.43.59-.66.93a102.36,102.36,0,0,1-8.62,11.48,81,81,0,0,1-10.51,9.86,29.33,29.33,0,0,0-8.28,9.61c-1.26,2.5-2.35,5.11-3.68,7.57-2.69,4.93-6.29,8.67-11.51,10.47-3.53,1.21-7.18,2.07-10.7,3.41a21.51,21.51,0,0,0-10.28,7.54h12.7l.6-.28C232.71,913.62,235.86,912.89,238.93,911.73Z"/><path class="cls-20" d="M226.61,907.13c3.57-1.39,7.28-2.23,10.9-3.5a19,19,0,0,0,9.51-7.79,73.55,73.55,0,0,0,4.57-8.87,28.06,28.06,0,0,1,4.52-6.73c2.92-3.18,6.43-5.57,9.56-8.46a79,79,0,0,0,7.35-7.85c2.64-3.2,5-6.69,7.33-10.15.13-.17.41-.68.41-.68l3.36-29.42H284c-.67.35-1.34.68-2,1a24.18,24.18,0,0,1-1.81,12.14,2.62,2.62,0,0,1-.91,1.19,2.58,2.58,0,0,1-1.42.51,3.94,3.94,0,0,1-1.6-.43,14.17,14.17,0,0,1-5.86-5.77,21,21,0,0,1-1.49-3.1l.48-.1a18.38,18.38,0,0,0,1.44,3,13.41,13.41,0,0,0,5.66,5.6,3.25,3.25,0,0,0,1.39.38,2.28,2.28,0,0,0,1.21-.44,2.22,2.22,0,0,0,.75-1,17.72,17.72,0,0,0,1.66-6v-.16a18.51,18.51,0,0,0,.09-5.56,62.49,62.49,0,0,1-22.18,5.65c1.34,3.31,2.74,6.61,4,9.94a35.6,35.6,0,0,1,2.73,11.16V853c-.06,6.2-4.26,12-9.89,13.52-2,.59-4.11.38-6.18.52a7.2,7.2,0,0,0-4,1.15.43.43,0,0,1-.12.11,2.4,2.4,0,0,0-.24.22l-.15.17a7.39,7.39,0,0,0-1.36,3.65,19.47,19.47,0,0,0-.24,3.24v.55a43.88,43.88,0,0,1-.13,5,30.37,30.37,0,0,1-1.85,8.25c-1.9,4.49-5.35,7.14-9.47,9-4.5,2-9.22,3.42-13.5,6a28.33,28.33,0,0,0-8.38,7.57c-.33.44-.64.89-.94,1.35l.33,2h5.82a21.94,21.94,0,0,1,1.88-2.41A23.09,23.09,0,0,1,226.61,907.13Z"/><path class="cls-20" d="M232,865.82c-.71.89-1.38,1.81-2,2.77.2.38.38.78.56,1.18A33.44,33.44,0,0,1,232,865.82Z"/><path class="cls-20" d="M276,823.67a19.55,19.55,0,0,0,2.76-1.14Q277.44,823.15,276,823.67Z"/><path class="cls-20" d="M224.45,827.62c1.27-.85,2.49-1.57,3.64-2.21a36.08,36.08,0,0,1-3.67-1.86C224.48,824.93,224.51,826.29,224.45,827.62Z"/><path class="cls-20" d="M233.1,822.79l1-.57a11.41,11.41,0,0,1-1.33-1.08l-2,.4h-.2C231.45,822,232.27,822.42,233.1,822.79Z"/><path class="cls-20" d="M297,901.33l-.11-.91a12.41,12.41,0,0,0-1.37-5.2,3.46,3.46,0,0,0-1.07-1.15,2.48,2.48,0,0,0-1-.28,2.43,2.43,0,0,0-1.06.19,20.87,20.87,0,0,0-4.69,2.13l4.61,18.21.23.88h6.65l-.15-.68C298.15,910.05,297.57,905.55,297,901.33Z"/><path class="cls-20" d="M313.12,890l-4.55-36.74v.1l-5.55,2a44.37,44.37,0,0,0-13.74,7.87,37.94,37.94,0,0,0-7.49,9.42l2,8.06c.51-.74,1-1.51,1.51-2.28a61,61,0,0,1,5.06-7,24.85,24.85,0,0,1,15.53-8.74c1.26-.19,2.53-.31,3.78-.4l.08.58c-.69,0-1.37.1-2.06.16a24.52,24.52,0,0,0-16.54,8.26c-2.79,3.06-4.9,6.62-7.21,10l1.68,6.64a59.86,59.86,0,0,0,4.12-5l.19-.27c.59-.81,1.18-1.63,1.79-2.44a26.61,26.61,0,0,1,7.23-7,10.86,10.86,0,0,1,8.8-1.43,5.08,5.08,0,0,1,1.46.61c1.65,1,2.28,2.8,1.88,5.1-.57,3.23-2,6.19-3.15,9.2a40.93,40.93,0,0,0-3,19.16,57.55,57.55,0,0,0,1.81,9.29h7.7a30,30,0,0,1-3.8-13.2A26,26,0,0,1,313.12,890Z"/><path class="cls-20" d="M306.68,838.75c.06.28.12.57.17.86A5.23,5.23,0,0,0,306.68,838.75Z"/><path class="cls-20" d="M304.52,898.74c.37-5,2-9.68,3.85-14.3a33,33,0,0,0,2.3-7.13,4,4,0,0,0-.17-2.44,4.06,4.06,0,0,0-1.57-1.88,5.37,5.37,0,0,0-.94-.44,8.87,8.87,0,0,0-2.94-.47c-3.17-.11-5.76,1.47-8.21,3.47a27.91,27.91,0,0,0-4.33,4.56c-.24.31-.48.64-.72,1-.66.92-1.35,1.86-2.08,2.81-.09.11-.17.23-.25.34a40.13,40.13,0,0,1-3.67,4.36l1.78,7a20.84,20.84,0,0,1,4.69-2.12,3.16,3.16,0,0,1,1.25-.2,3.05,3.05,0,0,1,1.22.34A3.86,3.86,0,0,1,296,895c1.17,1.9,1.26,4.14,1.54,6.29.54,4.41,1.13,8.82,2,13.16.05.27.11.54.17.8h6.67c-.47-1.79-.92-3.59-1.28-5.41A41.43,41.43,0,0,1,304.52,898.74Z"/><path class="cls-20" d="M329.84,908.85c-.08,0-.18-.1-.26-.16a11.11,11.11,0,0,1-5.14-6.13,7.73,7.73,0,0,1,.87-7.19,6.85,6.85,0,0,1,6.91-2.92,13,13,0,0,1,4.89,1.77,13.74,13.74,0,0,1,3.54,3.08l4.36-6.6-2.54,3.69-12.74-9.49a11.72,11.72,0,0,0-3.57.6,12.25,12.25,0,0,0-2.68,1.41l1.12-1.24c.41-.2.83-.39,1.25-.55l.39-.13a11.29,11.29,0,0,1,2.8-.6l-2-1.47-13,14.44-.79-6.31a29,29,0,0,0-1,2.84c-2,6.77-.95,13.09,1.8,19.11.34.75.71,1.49,1.09,2.21H325a28.16,28.16,0,0,1-3.69-3.3,18.24,18.24,0,0,1-4.14-7.87,16.15,16.15,0,0,1-.3-7.57A15.21,15.21,0,0,1,318,893l1.41-1.56c-.08.12-.16.23-.23.35a16.27,16.27,0,0,0-1.85,5,17.91,17.91,0,0,0,.8,8.77,20.3,20.3,0,0,0,7.74,9.72h3l3.41-5.16a18,18,0,0,1-2.36-1.2Z"/><path class="cls-20" d="M336.87,894.62a12.42,12.42,0,0,0-4.72-1.71,6.36,6.36,0,0,0-3.63.38,6.29,6.29,0,0,0-2.82,2.33,7.36,7.36,0,0,0-.82,6.8,10.8,10.8,0,0,0,4.94,5.88l.26.16a16.85,16.85,0,0,0,2.41,1.19l7.89-11.94a13.46,13.46,0,0,0-3.51-3.09Z"/><path class="cls-20" d="M280.79,853.1l-.14,1.23-1.09,9.56.25,1V865L281.6,872a37.28,37.28,0,0,1,7.37-9.12,45.34,45.34,0,0,1,13.89-8l5.66-2.08L307,840.45a4.86,4.86,0,0,0-.14-.85c-2-2.35-3.83-4.72-5.45-6.9a35.5,35.5,0,0,0-5.5-6.24c.45.17.9.35,1.32.55a42.82,42.82,0,0,1,4.55,5.42c1.58,2.1,3.19,4.19,4.88,6.19a17.31,17.31,0,0,0-12.77-12.85l-9.75-2.2v.07Zm9.2-27.48a17.27,17.27,0,0,0-2,4.94c-.18.54-.32,1.09-.5,1.62-.38,1.12-.72,2.23-1.05,3.34a58.82,58.82,0,0,1-2.1,6.34c-1.24,3-2,9.71-3.33,11.86l-.35.61.14-1.21c1.34-2.64,2-8.7,3-11.2,1.33-3.22,2.16-6.57,3.25-9.9.74-2.26,1.19-4.62,2.57-6.69a2.33,2.33,0,0,1,.27-.35l.51.12a5.21,5.21,0,0,0-.41.52Z"/><path class="cls-12" d="M301.79,832.47a42.82,42.82,0,0,0-4.55-5.42c-.42-.2-.87-.38-1.32-.55a35.5,35.5,0,0,1,5.5,6.24c1.62,2.18,3.44,4.55,5.45,6.9-.05-.29-.11-.58-.17-.86v-.08C305,836.62,303.36,834.62,301.79,832.47Z"/><path class="cls-12" d="M312.28,893.89a29,29,0,0,1,1-2.84h0l-.13-1.08a26,26,0,0,0-2.42,12,29.72,29.72,0,0,0,3.8,13.2h.67c-.38-.72-.75-1.46-1.09-2.21C311.33,907,310.28,900.62,312.28,893.89Z"/><path class="cls-12" d="M337.11,894.22a12.91,12.91,0,0,0-4.89-1.77,6.82,6.82,0,0,0-3.89.43,6.91,6.91,0,0,0-3,2.49,7.8,7.8,0,0,0-.87,7.19,11.15,11.15,0,0,0,5.14,6.13c.08.06.18.11.26.16a18.41,18.41,0,0,0,2.39,1.2h0l.26-.4a17.39,17.39,0,0,1-2.41-1.19l-.26-.16a10.8,10.8,0,0,1-4.94-5.88,7.45,7.45,0,0,1-.43-3.5,7.27,7.27,0,0,1,1.25-3.3,6.29,6.29,0,0,1,2.82-2.33,6.36,6.36,0,0,1,3.63-.38,12.42,12.42,0,0,1,4.72,1.71,13.3,13.3,0,0,1,3.51,3.09h0l.27-.41a13.74,13.74,0,0,0-3.54-3.08Z"/><path class="cls-12" d="M318.13,905.49a17.91,17.91,0,0,1-.8-8.77,16.27,16.27,0,0,1,1.85-5c.07-.12.15-.23.23-.35L318,893a15.21,15.21,0,0,0-1.09,3.49,16.15,16.15,0,0,0,.3,7.57,18.24,18.24,0,0,0,4.14,7.87,28.16,28.16,0,0,0,3.69,3.3h.83a20.3,20.3,0,0,1-7.74-9.72Z"/><path class="cls-12" d="M326.25,885l-.39.13c-.42.16-.84.35-1.25.55l-1.12,1.24a12.25,12.25,0,0,1,2.68-1.41,11.72,11.72,0,0,1,3.57-.6l-.68-.51a11.27,11.27,0,0,0-2.81.6Z"/><path class="cls-12" d="M302.87,855A45.34,45.34,0,0,0,289,863a37.28,37.28,0,0,0-7.37,9.12l.15.62a37.86,37.86,0,0,1,7.53-9.41A44.37,44.37,0,0,1,303,855.41l5.55-2V853Z"/><path class="cls-12" d="M291.17,871.29A24.52,24.52,0,0,1,307.71,863c.69-.06,1.37-.12,2.06-.16l-.08-.58c-1.25.09-2.52.21-3.78.4a24.81,24.81,0,0,0-15.53,8.74,61,61,0,0,0-5.06,7c-.49.77-1,1.54-1.51,2.28l.15.59C286.27,877.91,288.38,874.35,291.17,871.29Z"/><path class="cls-12" d="M289.62,825.3c-1.38,2.07-1.83,4.43-2.57,6.69-1.09,3.33-1.92,6.68-3.25,9.9-1,2.5-1.67,8.56-3,11.2l-.14,1.21.35-.61c1.3-2.15,2.09-8.82,3.33-11.86a58.82,58.82,0,0,0,2.1-6.34c.33-1.11.67-2.22,1.05-3.34.18-.53.32-1.08.5-1.62a17.56,17.56,0,0,1,2-4.94c.13-.18.27-.35.41-.51l-.51-.12A2.24,2.24,0,0,0,289.62,825.3Z"/><path class="cls-12" d="M297.5,901.25c-.28-2.15-.37-4.39-1.54-6.29a3.87,3.87,0,0,0-1.17-1.34,3.05,3.05,0,0,0-1.22-.34,3.16,3.16,0,0,0-1.25.2,20.84,20.84,0,0,0-4.69,2.12l.12.49a20.87,20.87,0,0,1,4.69-2.13,2.59,2.59,0,0,1,1.06-.19,2.48,2.48,0,0,1,1,.28,3.46,3.46,0,0,1,1.07,1.15,12.41,12.41,0,0,1,1.37,5.2l.11.91c.53,4.22,1.11,8.72,2,13.2l.15.68h.48c-.06-.26-.12-.53-.17-.8C298.63,910.07,298,905.62,297.5,901.25Z"/><path class="cls-12" d="M308,886.76c1.18-3,2.58-6,3.15-9.2.4-2.3-.23-4.09-1.88-5.1a5.08,5.08,0,0,0-1.46-.61,10.86,10.86,0,0,0-8.8,1.43,26.61,26.61,0,0,0-7.23,7c-.61.81-1.2,1.63-1.79,2.44l-.19.27q-2,2.58-4.12,5l.16.67a40.25,40.25,0,0,0,3.66-4.38c.08-.11.16-.23.25-.34.73-1,1.42-1.89,2.08-2.81l.72-1a27.91,27.91,0,0,1,4.33-4.56c2.45-2,5-3.58,8.21-3.47a8.87,8.87,0,0,1,2.94.47,5,5,0,0,1,.94.44,4,4,0,0,1,1.74,4.32,32.44,32.44,0,0,1-2.3,7.13c-1.84,4.62-3.48,9.31-3.85,14.3a41.86,41.86,0,0,0,.54,11.06c.36,1.82.81,3.62,1.28,5.41h.45a57.55,57.55,0,0,1-1.81-9.29,40.87,40.87,0,0,1,3-19.18Z"/><path class="cls-12" d="M215.45,829.86a2.63,2.63,0,0,1-.93,1.23,2.69,2.69,0,0,1-1.45.5,3.4,3.4,0,0,1-1.52-.42,5.22,5.22,0,0,1-1.68-1.56l.12,1c.12.14.24.29.38.43a3.77,3.77,0,0,0,2.57,1.2,3.18,3.18,0,0,0,1.92-.68,5.21,5.21,0,0,0,1.68-3.18,10.56,10.56,0,0,0,.14-4l-.3.06h-.21v.22a9,9,0,0,1-.72,5.2Z"/><path class="cls-12" d="M281.42,830.41v.16a18,18,0,0,1-1.66,6,2.2,2.2,0,0,1-.75,1,2.16,2.16,0,0,1-1.17.44,3.08,3.08,0,0,1-1.39-.38,13.41,13.41,0,0,1-5.66-5.6,18.38,18.38,0,0,1-1.44-3l-.48.1a21,21,0,0,0,1.49,3.1,14.17,14.17,0,0,0,5.86,5.77,3.89,3.89,0,0,0,1.6.43,2.66,2.66,0,0,0,2.33-1.7A24.18,24.18,0,0,0,282,824.59l-.43.21A18.52,18.52,0,0,1,281.42,830.41Z"/><path class="cls-12" d="M285.39,908l-.08-.45a43.47,43.47,0,0,0-5.85,5.16l-2.26,2.46h.59l2-2.15A42.29,42.29,0,0,1,285.39,908Z"/><path class="cls-12" d="M239.09,912.16a25.36,25.36,0,0,0,9.95-6.5,34.48,34.48,0,0,0,6.27-10,39.45,39.45,0,0,1,10.3-14.48L267,880a106.62,106.62,0,0,1,9.56-7.8,23.51,23.51,0,0,1,2.15-1.38l-.09-.5c-.79.47-1.57,1-2.33,1.5a124.71,124.71,0,0,0-11,9,40.42,40.42,0,0,0-10.42,14.64,34.31,34.31,0,0,1-6.18,9.88,25.31,25.31,0,0,1-9.77,6.39c-3.07,1.16-6.22,1.91-9.24,3.2l-.6.28h1.17c1.6-.66,3.25-1.19,4.87-1.7C236.44,913.09,237.79,912.67,239.09,912.16Z"/><path class="cls-12" d="M267.94,888.16a39.88,39.88,0,0,1,9.63-7.14,16.74,16.74,0,0,1,2.77-1.16l-.09-.48a17.08,17.08,0,0,0-2.9,1.21,40.1,40.1,0,0,0-9.74,7.23,29.5,29.5,0,0,0-6.53,10.89,59.77,59.77,0,0,1-9,16.5h.59a61.17,61.17,0,0,0,8.84-16.32,28.77,28.77,0,0,1,6.43-10.73Z"/><path class="cls-12" d="M281.59,900.11c.67-.67,1.35-1.32,2-2l-.09-.51-.13.13-2.12,2c-3.76,3.78-7.65,8.16-12.27,13.78-.44.54-.9,1.08-1.38,1.63h.59c.39-.44.76-.89,1.14-1.35C273.25,909.12,277.28,904.45,281.59,900.11Z"/><path class="cls-12" d="M261,835.84c1.91,4.66,3.78,9.29,4.54,14.35.06.4.09.81.12,1.21s0,.79,0,1.19v.82c-.46,7.14-6,13-13,13h-1.38a16,16,0,0,0-2.93.2,5.26,5.26,0,0,0-2.93,1.42,5.36,5.36,0,0,0-1.54,2.88,13.74,13.74,0,0,0-.41,3.67v1.55a54.93,54.93,0,0,1-.61,8c-1,6.75-4.73,11.08-10.54,13.62-3.57,1.53-7.26,2.77-10.79,4.52a31.11,31.11,0,0,0-12,10.21l.11.69c.3-.46.61-.91.94-1.35a28.33,28.33,0,0,1,8.38-7.57c4.28-2.59,9-4,13.5-6,4.12-1.81,7.57-4.46,9.47-9a30.74,30.74,0,0,0,1.85-8.25,43.88,43.88,0,0,0,.13-5v-.55a19.55,19.55,0,0,1,.24-3.24,7.21,7.21,0,0,1,1.36-3.65l.15-.17a1.7,1.7,0,0,1,.24-.22l.12-.11a7.17,7.17,0,0,1,4-1.15c2.07-.14,4.13.07,6.18-.52,5.63-1.55,9.83-7.32,9.89-13.52v-1.34a35.6,35.6,0,0,0-2.73-11.16c-1.3-3.33-2.7-6.63-4-9.94h-.54C259.51,832.32,260.28,834.07,261,835.84Z"/><path class="cls-12" d="M226.67,907.67c3.52-1.34,7.17-2.2,10.7-3.41,5.22-1.8,8.82-5.54,11.51-10.47,1.33-2.46,2.42-5.07,3.68-7.57a29.33,29.33,0,0,1,8.28-9.61,81,81,0,0,0,10.51-9.86A102.36,102.36,0,0,0,280,855.27c.23-.34.44-.65.66-.93l.14-1.23s-.28.51-.41.68c-2.36,3.46-4.69,7-7.33,10.15a80.23,80.23,0,0,1-7.35,7.85c-3.13,2.89-6.64,5.28-9.56,8.46A27.77,27.77,0,0,0,251.6,887a73.55,73.55,0,0,1-4.57,8.87,19,19,0,0,1-9.51,7.79c-3.62,1.27-7.33,2.11-10.9,3.5a23.23,23.23,0,0,0-9,5.67,21.94,21.94,0,0,0-1.88,2.41h.65A21.49,21.49,0,0,1,226.67,907.67Z"/><path class="cls-12" d="M211.17,841v.36l.18-.28Z"/><path class="cls-12" d="M224.42,823.62l-.51-.3a39.27,39.27,0,0,1,0,4.06v.68l.56-.37C224.51,826.29,224.48,824.93,224.42,823.62Z"/><path class="cls-12" d="M252.43,844.34a8.21,8.21,0,0,0,.19-2.75,12.26,12.26,0,0,0-.89-3.72,25.62,25.62,0,0,1,.7,6.47Z"/><path class="cls-12" d="M230.49,869.77c-.18-.4-.36-.8-.56-1.18l-.34.51a15.48,15.48,0,0,1,.65,1.44C230.32,870.28,230.41,870,230.49,869.77Z"/><path class="cls-12" d="M226.34,893.62a19.13,19.13,0,0,0,4.76-4.21,11.43,11.43,0,0,0,2.24-7.62l-.55-.17a11.42,11.42,0,0,1-4.2,9.57,45.92,45.92,0,0,1-8.07,5.06,68.71,68.71,0,0,0-9,5.56,39.14,39.14,0,0,0-3.26,2.91h0l.11.63a39.93,39.93,0,0,1,9.3-6.87C220.56,896.9,223.51,895.37,226.34,893.62Z"/><path class="cls-12" d="M219.88,887a27.74,27.74,0,0,1-7.07,5.33l-1.56.89c-1.47.82-3,1.68-4.46,2.56l.08.49c2-1.21,4.13-2.38,6.19-3.55a27.56,27.56,0,0,0,7.18-5.41,8.56,8.56,0,0,0,2.48-6.35,10.69,10.69,0,0,0-.14-2.26l-.52-.15a9.68,9.68,0,0,1,.17,2.4,8,8,0,0,1-2.35,6.05Z"/><path class="cls-20" d="M201.25,896.76a2.42,2.42,0,0,0-2.1.1,3.68,3.68,0,0,0-1.07,1.15,12.71,12.71,0,0,0-1.36,5.2l-.11.91c-.45,3.56-1,7.31-1.63,11.09h6.81l4.14-16.31a21.07,21.07,0,0,0-4.68-2.14Z"/><path class="cls-20" d="M181.36,896.68a26,26,0,0,0-1-2.85l-.78,6.31-1.42,15.07h1.63C182.37,909.37,183.3,903.24,181.36,896.68Z"/><path class="cls-20" d="M197.68,897.75a4,4,0,0,1,1.22-1.32,3,3,0,0,1,2.47-.14,20.28,20.28,0,0,1,4.7,2.12l.7-2.75,2.92-11.56c-2.32-3.4-4.42-7-7.22-10a24.51,24.51,0,0,0-16.54-8.27l-2.05-.16.07-.57c1.26.09,2.52.21,3.78.4a24.78,24.78,0,0,1,15.53,8.74,61.1,61.1,0,0,1,5.07,7c.49.78,1,1.55,1.51,2.3l2-7.89-4.23-1.21.47-3.62-2,3.27-2.41-.73a57.62,57.62,0,0,1,.23-7.66,44.56,44.56,0,0,0-13.31-7.51q-2.76-1.05-5.55-2v-.1l-4.55,36.74a25.49,25.49,0,0,1,2.42,12,29.21,29.21,0,0,1-2.42,10.41h7a47.71,47.71,0,0,0,1.11-6.5,40.91,40.91,0,0,0-3-19.16c-1.18-3-2.58-6-3.15-9.2-.4-2.3.23-4.1,1.88-5.1a5.26,5.26,0,0,1,1.47-.61,10.83,10.83,0,0,1,8.79,1.43,26,26,0,0,1,7.23,7c.61.81,1.21,1.63,1.79,2.44l.2.26q1.94,2.6,4.12,5l-.17.67a42.46,42.46,0,0,1-3.66-4.38c-.08-.11-.16-.23-.25-.34-.73-1-1.42-1.89-2.08-2.81l-.72-1a26.77,26.77,0,0,0-4.33-4.57c-2.44-2-5-3.57-8.21-3.46a9.17,9.17,0,0,0-2.94.46,4.2,4.2,0,0,0-.93.45,4,4,0,0,0-1.75,4.32,33.63,33.63,0,0,0,2.3,7.12c1.84,4.63,3.49,9.32,3.86,14.31a41,41,0,0,1-.55,11c-.17.89-.37,1.76-.58,2.63h6.51c.67-3.7,1.17-7.43,1.63-11.17C196.42,901.89,196.51,899.62,197.68,897.75Z"/><path class="cls-20" d="M190.79,857.74a45.87,45.87,0,0,1,13.2,7.39,61.62,61.62,0,0,1,5.4-20.33,1.46,1.46,0,0,0-.07-.19,63.59,63.59,0,0,1-2.1-6.34c-.33-1.11-.67-2.23-1.05-3.34-.17-.53-.32-1.08-.5-1.62a17.27,17.27,0,0,0-2-4.94c-.13-.18-.27-.35-.41-.51l.51-.12c.09.11.18.22.27.35,1.37,2.06,1.83,4.42,2.56,6.69,1,3.17,1.86,6.35,3.08,9.44.48-1,1-1.93,1.54-2.87V841L210,830.62l-.12-1-.36-3.21-.37.08-9.35,2.13a17.28,17.28,0,0,0-13.1,14.68l-1.58,12.32C187,856.35,188.88,857,190.79,857.74Z"/><path class="cls-12" d="M180.52,892.76l-.13,1.08a26,26,0,0,1,1,2.85c1.94,6.56,1,12.69-1.55,18.53h.71A29.21,29.21,0,0,0,183,904.81a25.45,25.45,0,0,0-2.45-12Z"/><path class="cls-12" d="M190.61,858.16a44.56,44.56,0,0,1,13.31,7.51,2,2,0,0,1,.05-.54,45.87,45.87,0,0,0-13.2-7.39c-1.89-.71-3.77-1.39-5.66-2.08v.46Z"/><path class="cls-12" d="M209.85,883.52c-.51-.75-1-1.52-1.51-2.3a59.92,59.92,0,0,0-5.07-7,24.78,24.78,0,0,0-15.53-8.74c-1.26-.19-2.52-.31-3.78-.4l-.07.57,2.05.16a24.49,24.49,0,0,1,16.54,8.27c2.8,3.06,4.9,6.62,7.22,10Z"/><path class="cls-12" d="M206.59,834.78c-.73-2.27-1.19-4.63-2.56-6.69-.09-.13-.18-.24-.27-.35l-.51.12c.14.16.28.33.41.51a17.27,17.27,0,0,1,2,4.94c.18.54.33,1.09.5,1.62.38,1.11.72,2.23,1.05,3.34a63.59,63.59,0,0,0,2.1,6.34,1.46,1.46,0,0,1,.07.19l.3-.58C208.45,841.13,207.63,838,206.59,834.78Z"/><path class="cls-12" d="M196.72,903.21a12.55,12.55,0,0,1,1.36-5.2,3.57,3.57,0,0,1,1.07-1.15,2.42,2.42,0,0,1,2.1-.1,21.22,21.22,0,0,1,4.7,2.14h0l.12-.49a20.28,20.28,0,0,0-4.7-2.12,3,3,0,0,0-2.47.14,4,4,0,0,0-1.22,1.32c-1.17,1.89-1.26,4.14-1.54,6.29q-.69,5.61-1.63,11.17H195c.68-3.78,1.18-7.53,1.63-11.09Z"/><path class="cls-12" d="M189.13,901.53c-.37-5-2-9.68-3.86-14.31a33.63,33.63,0,0,1-2.3-7.12,4,4,0,0,1,1.75-4.32,4.42,4.42,0,0,1,.93-.45,9.22,9.22,0,0,1,2.94-.46c3.18-.11,5.77,1.47,8.21,3.46a26.77,26.77,0,0,1,4.33,4.57c.24.31.48.64.72,1,.66.92,1.35,1.86,2.08,2.81.09.11.17.23.25.34a43.77,43.77,0,0,0,3.66,4.38l.17-.67c-1.45-1.6-2.83-3.27-4.12-5l-.2-.26c-.58-.81-1.18-1.63-1.79-2.44a26,26,0,0,0-7.23-7,10.82,10.82,0,0,0-4.24-1.66,10.93,10.93,0,0,0-4.55.23,5.38,5.38,0,0,0-1.47.61c-1.65,1-2.28,2.8-1.88,5.1.57,3.22,2,6.19,3.15,9.2a40.68,40.68,0,0,1,3,19.16,44.82,44.82,0,0,1-1.11,6.5H188c.21-.87.41-1.74.58-2.63a40.85,40.85,0,0,0,.52-11Z"/><path class="cls-20" d="M292.31,914.32l-4.61-18.21-.12-.49-1.78-7-.17-.67L284,881.31l-.15-.59-2-8.06-.16-.61L279.85,865v-.06a.82.82,0,0,0-.18-.36,1,1,0,0,0-.31-.27,1.09,1.09,0,0,0-.39-.11,1.13,1.13,0,0,0-.41.05,1.08,1.08,0,0,0-.61.46,1.09,1.09,0,0,0-.15.75l.88,4.88a18.13,18.13,0,0,1,2.25-1.12l.12.46a20.36,20.36,0,0,0-2.28,1.16l1.54,8.59a11.12,11.12,0,0,1,2.62-.49h.47l.13.51H283a12,12,0,0,0-2.58.49l3.18,17.76c1.21-1.18,2.46-2.39,3.63-3.65l.13.5c-1.18,1.27-2.42,2.47-3.67,3.66l1.7,9.46a47.23,47.23,0,0,1,4.42-3,1.93,1.93,0,0,0,.1.45,49,49,0,0,0-4.46,2.94l1.29,7.17h1.18a18.48,18.48,0,0,1,3.93-1.36c.05.19.09.38.14.58a19.49,19.49,0,0,0-2.57.78h3.17c-.13-.54-.21-.86-.22-.88Z"/><path class="cls-10" d="M292.31,914.32l-4.61-18.21-.12-.49-1.78-7-.17-.67L284,881.31l-.15-.59-2-8.06-.16-.61L279.85,865v-.06a.82.82,0,0,0-.18-.36,1,1,0,0,0-.31-.27,1.09,1.09,0,0,0-.39-.11,1.13,1.13,0,0,0-.41.05,1.08,1.08,0,0,0-.61.46,1.09,1.09,0,0,0-.15.75l.88,4.88a18.13,18.13,0,0,1,2.25-1.12l.12.46a20.36,20.36,0,0,0-2.28,1.16l1.54,8.59a11.12,11.12,0,0,1,2.62-.49h.47l.13.51H283a12,12,0,0,0-2.58.49l3.18,17.76c1.21-1.18,2.46-2.39,3.63-3.65l.13.5c-1.18,1.27-2.42,2.47-3.67,3.66l1.7,9.46a47.23,47.23,0,0,1,4.42-3,1.93,1.93,0,0,0,.1.45,49,49,0,0,0-4.46,2.94l1.29,7.17h1.18a18.48,18.48,0,0,1,3.93-1.36c.05.19.09.38.14.58a19.49,19.49,0,0,0-2.57.78h3.17c-.13-.54-.21-.86-.22-.88Z"/><path class="cls-12" d="M281.6,872.05l.16.61-.15-.62Z"/><path class="cls-10" d="M281.6,872.05l.16.61-.15-.62Z"/><path class="cls-12" d="M283.79,880.73l.15.59Z"/><path class="cls-10" d="M283.79,880.73l.15.59Z"/><path class="cls-12" d="M287.57,895.62l.12.49h0l-.12-.49Z"/><path class="cls-10" d="M287.57,895.62l.12.49h0l-.12-.49Z"/><path class="cls-12" d="M285.8,888.62h0l-.16-.67h0Z"/><path class="cls-10" d="M285.8,888.62h0l-.16-.67h0Z"/><path class="cls-12" d="M289.85,905.1a2.26,2.26,0,0,0-.1-.45,44.88,44.88,0,0,0-4.44,2.94l.08.45a49,49,0,0,1,4.46-2.94Z"/><path class="cls-10" d="M289.85,905.1a2.26,2.26,0,0,0-.1-.45,44.88,44.88,0,0,0-4.44,2.94l.08.45a49,49,0,0,1,4.46-2.94Z"/><path class="cls-12" d="M281,869.62l-.12-.46a18.85,18.85,0,0,0-2.25,1.12l.09.5a19.53,19.53,0,0,1,2.28-1.16Z"/><path class="cls-10" d="M281,869.62l-.12-.46a18.85,18.85,0,0,0-2.25,1.12l.09.5a19.53,19.53,0,0,1,2.28-1.16Z"/><path class="cls-12" d="M282.92,879.37h.55l-.13-.51h-.47a11.12,11.12,0,0,0-2.62.49l.09.48A11.94,11.94,0,0,1,282.92,879.37Z"/><path class="cls-10" d="M282.92,879.37h.55l-.13-.51h-.47a11.12,11.12,0,0,0-2.62.49l.09.48A11.94,11.94,0,0,1,282.92,879.37Z"/><path class="cls-12" d="M287.28,894.47l-.13-.5c-1.17,1.26-2.42,2.47-3.63,3.65l.09.51C284.86,896.94,286.1,895.74,287.28,894.47Z"/><path class="cls-10" d="M287.28,894.47l-.13-.5c-1.17,1.26-2.42,2.47-3.63,3.65l.09.51C284.86,896.94,286.1,895.74,287.28,894.47Z"/><path class="cls-12" d="M291.79,913.85a18.48,18.48,0,0,0-3.93,1.36h1.5a19.49,19.49,0,0,1,2.57-.78C291.88,914.23,291.84,914,291.79,913.85Z"/><path class="cls-10" d="M291.79,913.85a18.48,18.48,0,0,0-3.93,1.36h1.5a19.49,19.49,0,0,1,2.57-.78C291.88,914.23,291.84,914,291.79,913.85Z"/><path class="cls-22" d="M229.35,821.83l.56-.11.73-.15c-.36-.2-.71-.4-1.07-.62l-6.38,1.84.33.22,5.83-1.18Z"/><path class="cls-22" d="M284,823.62l-5.22-1.1,5.19,1.12Z"/><path class="cls-8" d="M276,823.67c-3.74,1.26-11.45,3.09-24.66,3,0,0-.57,0-1.55-.06a.54.54,0,0,1,0,.18C258.26,827.52,268.1,826.62,276,823.67Z"/><path class="cls-22" d="M276,823.67c-3.74,1.26-11.45,3.09-24.66,3,0,0-.57,0-1.55-.06a.54.54,0,0,1,0,.18C258.26,827.52,268.1,826.62,276,823.67Z"/><path class="cls-8" d="M278.79,822.51l5.15,1.13H284l-5.2-1.14Z"/><path class="cls-22" d="M278.79,822.51l5.15,1.13H284l-5.2-1.14Z"/><path class="cls-20" d="M229.69,824.56c1.24-.65,2.38-1.22,3.41-1.77-.83-.37-1.65-.77-2.46-1.21l-.73.15C229.79,822.67,229.79,823.62,229.69,824.56Z"/><path class="cls-22" d="M229.69,824.56c1.24-.65,2.38-1.22,3.41-1.77-.83-.37-1.65-.77-2.46-1.21l-.73.15C229.79,822.67,229.79,823.62,229.69,824.56Z"/><path class="cls-20" d="M223.91,823.27V823l.5-.1v.72a36.08,36.08,0,0,0,3.67,1.86l1.06-.58c.07-1,.13-2,.2-3L223.51,823Z"/><path class="cls-22" d="M223.91,823.27V823l.5-.1v.72a36.08,36.08,0,0,0,3.67,1.86l1.06-.58c.07-1,.13-2,.2-3L223.51,823Z"/><path class="cls-20" d="M278.79,822.53a19.55,19.55,0,0,1-2.76,1.14c-7.91,2.92-17.75,3.85-26.23,3.1a29,29,0,0,0-.19,3.73,67.25,67.25,0,0,0,9.2,0h.55a62.49,62.49,0,0,0,22.18-5.65h0l.43-.2c.68-.32,1.35-.65,2-1l-5.18-1.14Z"/><path class="cls-22" d="M278.79,822.53a19.55,19.55,0,0,1-2.76,1.14c-7.91,2.92-17.75,3.85-26.23,3.1a29,29,0,0,0-.19,3.73,67.25,67.25,0,0,0,9.2,0h.55a62.49,62.49,0,0,0,22.18-5.65h0l.43-.2c.68-.32,1.35-.65,2-1l-5.18-1.14Z"/><path class="cls-12" d="M281.51,824.83l.43-.21Z"/><path class="cls-22" d="M281.51,824.83l.43-.21Z"/><path class="cls-12" d="M224.4,822.85l-.5.1v.32l.51.3C224.41,823.33,224.41,823.09,224.4,822.85Z"/><path class="cls-22" d="M224.4,822.85l-.5.1v.32l.51.3C224.41,823.33,224.41,823.09,224.4,822.85Z"/><path class="cls-12" d="M229.91,821.73l-.56.11c-.07,1-.13,2-.2,3l.54-.29C229.79,823.62,229.79,822.67,229.91,821.73Z"/><path class="cls-22" d="M229.91,821.73l-.56.11c-.07,1-.13,2-.2,3l.54-.29C229.79,823.62,229.79,822.67,229.91,821.73Z"/><path class="cls-10" d="M273.35,816.23l.12.11-.43-5.52h-.1Z"/><path class="cls-8" d="M268,811.53l5.39,4.7-.41-5.41H273l-4.62-.26a.62.62,0,0,0-.32.09.67.67,0,0,0-.22.25.62.62,0,0,0,0,.33A.69.69,0,0,0,268,811.53Z"/><path class="cls-10" d="M268,811.53l5.39,4.7-.41-5.41H273l-4.62-.26a.62.62,0,0,0-.32.09.67.67,0,0,0-.22.25.62.62,0,0,0,0,.33A.69.69,0,0,0,268,811.53Z"/><path class="cls-12" d="M251.73,837.87a67,67,0,0,0-2.14-7.21h0a27.9,27.9,0,0,0,1.2,7.48A25.17,25.17,0,0,1,252,848a17.67,17.67,0,0,0,.46-3.7,25.62,25.62,0,0,0-.7-6.47Z"/><path d="M252.93,816.46a24.34,24.34,0,0,1,2-3.28l3.67-1.54c32.65-13.55,25-46.73,25-46.73,2.62,0,5.47,7.73,5.47,7.73l.76-.45,3.13-1.81c.07,0-4.59-16.28-19.29-23,5.55,1.94,11.57,5.86,16.94,13.42l1.09-.77c-9.59-13.52-21.47-15.77-29.33-15.47C230,741.8,214.84,781.27,237,807.78a10.19,10.19,0,0,1,2.1,4.08h.08S248.06,810.29,252.93,816.46Z"/><path d="M234.13,822.22l-1,.57c-1,.55-2.17,1.12-3.41,1.77l-.54.29-1.06.58c-1.15.64-2.37,1.36-3.64,2.21l-.56.37a50.54,50.54,0,0,0-5.11,4,39,39,0,0,0-7.39,9l-.18.28c-.55.94-1.06,1.9-1.54,2.87l-.3.58a61.62,61.62,0,0,0-5.4,20.33,2,2,0,0,1-.05.54,57.62,57.62,0,0,0-.23,7.66l2.41.73,2-3.27-.47,3.62,4.23,1.21,10.22,2.91.52.15,2.24.64A39.37,39.37,0,0,1,229.64,869l.34-.51c.62-1,1.29-1.88,2-2.77-.52,1.18-1,2.53-1.48,4-.08.26-.17.51-.25.77-1.12,3.61-2,7.47-2.48,9.65l5,1.44.52.15,9.32,2.66c-4.67-17.81,8.09-23.38,9.31-36.41a25.17,25.17,0,0,0-1.18-9.9,27.9,27.9,0,0,1-1.2-7.48v-.16a29,29,0,0,1,.19-3.73.54.54,0,0,0,0-.18,34.33,34.33,0,0,1,.72-3.77c-.37-.74-3.4-6.21-11.83-4.88a6.91,6.91,0,0,1-1.39,2,14.05,14.05,0,0,1-3.12,2.3Z"/><path class="cls-4" d="M250.52,822.82v.09c5-.74,3.09-5.45,3.09-5.45a10.13,10.13,0,0,0-.72-1c-4.87-6.17-13.73-4.6-13.73-4.6h-.08c-.41.06-2.32.49-2.69,3.4s1.85,2.75,2.21,2.68C247.12,816.62,250.15,822.08,250.52,822.82Z"/><path class="cls-10" d="M291.06,797.86h.08l.26-1h-.12l-.15.72A2.83,2.83,0,0,1,291.06,797.86Z"/><path class="cls-10" d="M291.06,797.86h.08l.26-1h-.12l-.15.72A2.83,2.83,0,0,1,291.06,797.86Z"/><path class="cls-8" d="M287.55,796a6,6,0,0,0,3.51,1.83,1.36,1.36,0,0,1,.07-.25l.15-.72a5.28,5.28,0,0,1-3-1.65Z"/><path class="cls-10" d="M287.55,796a6,6,0,0,0,3.51,1.83,1.36,1.36,0,0,1,.07-.25l.15-.72a5.28,5.28,0,0,1-3-1.65Z"/><path d="M290.72,779.25a1,1,0,0,0-.34,0,1.31,1.31,0,0,0-.84.42,1.28,1.28,0,0,0-.35.87,1.32,1.32,0,0,0,1.19,1.3,1.47,1.47,0,0,0,.62-.17,1.31,1.31,0,0,0,.66-1.28,1.31,1.31,0,0,0-.31-.69,1.27,1.27,0,0,0-.63-.4Z"/><path class="cls-2" d="M290.92,780.49a.25.25,0,0,0,.15,0,.23.23,0,0,0,.1-.12.26.26,0,0,0,0-.15.25.25,0,0,0-.08-.14A.22.22,0,0,0,291,780a.26.26,0,0,0-.15,0,.23.23,0,0,0-.12.1.27.27,0,0,0-.05.15.27.27,0,0,0,.27.27Z"/><path class="cls-22" d="M331.51,880.51l.42.32,5.56,4.19.25.19,4.93,3.72h0l.48.37L345,890.7l.07-.1-14.91-11.1Z"/><path class="cls-22" d="M327.08,882.92h0l3.09-3.43Z"/><path class="cls-20" d="M330.84,884.37a28.09,28.09,0,0,1,8.24,1.86l1.77,1.34a31.34,31.34,0,0,0-8.69-2.54,14.09,14.09,0,0,0-2.43-.13l12.74,9.49L345,890.7l-1.86-1.41-.48-.36-4.93-3.72.23.17-.48-.36-5.56-4.19-.42-.32-1.34-1-3.09,3.42,2,1.47a12.93,12.93,0,0,1,1.76,0Z"/><path class="cls-22" d="M330.84,884.37a28.09,28.09,0,0,1,8.24,1.86l1.77,1.34a31.34,31.34,0,0,0-8.69-2.54,14.09,14.09,0,0,0-2.43-.13l12.74,9.49L345,890.7l-1.86-1.41-.48-.36-4.93-3.72.23.17-.48-.36-5.56-4.19-.42-.32-1.34-1-3.09,3.42,2,1.47a12.93,12.93,0,0,1,1.76,0Z"/><path class="cls-12" d="M332.16,885a31.34,31.34,0,0,1,8.69,2.54l-1.77-1.34a28,28,0,0,0-8.24-1.86,10.7,10.7,0,0,0-1.79,0l.68.51a14,14,0,0,1,2.43.15Z"/><path class="cls-22" d="M332.16,885a31.34,31.34,0,0,1,8.69,2.54l-1.77-1.34a28,28,0,0,0-8.24-1.86,10.7,10.7,0,0,0-1.79,0l.68.51a14,14,0,0,1,2.43.15Z"/><path class="cls-12" d="M337.49,885l.48.36-.23-.17-.25-.19Z"/><path class="cls-22" d="M337.49,885l.48.36-.23-.17-.25-.19Z"/><path class="cls-12" d="M342.67,888.92l.48.36Z"/><path class="cls-22" d="M342.67,888.92l.48.36Z"/><path class="cls-12" d="M331.51,880.51h0l.42.32h0Z"/><path class="cls-22" d="M331.51,880.51h0l.42.32h0Z"/><path class="cls-21" d="M925.49,791.62a3.92,3.92,0,0,0-.23.6v0a3.92,3.92,0,0,1,.23-.6Z"/><path class="cls-21" d="M926.18,790.62a2.35,2.35,0,0,0-.3.33,2.42,2.42,0,0,1,.31-.33Z"/><path class="cls-4" d="M892.39,893.79V894L891,907.15l-.84,7.85h26.41l-5.8-5.1Z"/><path class="cls-4" d="M1047.06,911l-9.2-42.2a27.72,27.72,0,0,0-21.77-21.24L980,840.6l-3.34-6.32a2.49,2.49,0,0,0-2.25-1.36H934.64a2.48,2.48,0,0,0-1.09.37,2.41,2.41,0,0,0-.81.81l-3.43,5.65-35.44,4.57a17.33,17.33,0,0,1,9,15l3.84,3.94,15.06,15.44,14.7,15.06,16,16.43,2.17,2.22a14.55,14.55,0,0,1,1.94,2.55h91.34Z"/><path class="cls-21" d="M930,785.14a10.22,10.22,0,0,0-.11,1.23Z"/><path class="cls-21" d="M925.54,791.52a2.62,2.62,0,0,1,.33-.53,2.62,2.62,0,0,0-.33.53Z"/><path class="cls-21" d="M948.27,786.23v-.11l-.2.88.23-.71Z"/><path class="cls-8" d="M949.79,780.41c-4-1.24-6.8-4.29-6.89-7.9a9.35,9.35,0,0,1-11.77-.23l-.85,9.86,17.94,4Z"/><path class="cls-8" d="M971.71,811.62l-17.8-5.83-.69-8.82a7.77,7.77,0,0,1-4.49,1.32c-.3,0-.6,0-.9,0-3.43-.35-2.45-2.69-1.53-5.82.72-2.26,1.17-3.68,1.45-4.59l-17.63-3.91-.1,1.2-.11,1.23v.14a3.68,3.68,0,0,1-.71,2,3.72,3.72,0,0,1-1.7,1.28l-.37.16a.69.69,0,0,1-.14.3.76.76,0,0,1-.24.23.91.91,0,0,1-.48.15h-.07a2.42,2.42,0,0,0-.31.33h0a2.62,2.62,0,0,0-.33.53v.1a3.92,3.92,0,0,0-.23.6v.11a3.4,3.4,0,0,0,2.49,4l1.3.27L928.05,809a11.51,11.51,0,0,0,8.28,12l2.37.69-1.27,11.2h35.36Z"/><path class="cls-10" d="M948.73,798.31c-.3,0-.6,0-.9,0l6.08,7.55-.69-8.82A7.79,7.79,0,0,1,948.73,798.31Z"/><path class="cls-12" d="M926.26,790.62a.91.91,0,0,0,.48-.15.88.88,0,0,0,.24-.23.83.83,0,0,0,.14-.3h0l1.44-6.34-.85-.19.39-1.75.85.19,1.11-4.89a.91.91,0,0,0-.13-.68.9.9,0,0,0-.56-.39.85.85,0,0,0-.67.12.85.85,0,0,0-.25.25.71.71,0,0,0-.14.32l-2.94,13a.93.93,0,0,0,.69,1.07h.19Z"/><path class="cls-12" d="M927.72,783.41l.85.19,1.55.34,17.63,3.91L948,787l.2-.88-17.94-4-1.32-.29-.85-.19Z"/><g class="cls-16"><path class="cls-7" d="M1021.5,849.51l-123.09-1.19a.34.34,0,0,1-.35-.35.35.35,0,0,1,.1-.24.36.36,0,0,1,.25-.11h0l123.09,1.19a.31.31,0,0,1,.13,0,.26.26,0,0,1,.11.07.32.32,0,0,1,.08.12.51.51,0,0,1,0,.13.35.35,0,0,1-.1.24A.32.32,0,0,1,1021.5,849.51Z"/></g><g class="cls-16"><path class="cls-7" d="M1036.07,864.89,906.7,863.62a.31.31,0,0,1-.13,0,.26.26,0,0,1-.11-.07.32.32,0,0,1-.08-.12.51.51,0,0,1,0-.13.32.32,0,0,1,.11-.24.35.35,0,0,1,.24-.1l129.36,1.25a.34.34,0,0,1,.35.35.68.68,0,0,1,0,.14.44.44,0,0,1-.08.11.28.28,0,0,1-.11.08.35.35,0,0,1-.14,0Z"/></g><g class="cls-16"><path class="cls-7" d="M1040.19,880l-118.41-.92a.34.34,0,0,1-.35-.35.36.36,0,0,1,.11-.25.35.35,0,0,1,.24-.1h0l118.41.92a.36.36,0,0,1,.25.11.39.39,0,0,1,.1.25.32.32,0,0,1-.11.24.35.35,0,0,1-.24.1Z"/></g><g class="cls-16"><path class="cls-7" d="M1043.48,895l-107-.83a.32.32,0,0,1-.24-.11.35.35,0,0,1-.1-.24.34.34,0,0,1,0-.14.44.44,0,0,1,.19-.19.34.34,0,0,1,.14,0l107,.84a.35.35,0,0,1,.21.12.35.35,0,0,1,.08.22.36.36,0,0,1-.08.23.35.35,0,0,1-.21.12Z"/></g><g class="cls-16"><path class="cls-7" d="M910.73,910.25l-18.21-.14a.35.35,0,1,1,0-.7l18.22.14a.35.35,0,1,1,0,.7Z"/></g><g class="cls-16"><path class="cls-7" d="M1047.06,911.31l-94.57-.73a.36.36,0,0,1-.25-.11.39.39,0,0,1-.1-.25.32.32,0,0,1,.11-.24.35.35,0,0,1,.24-.1h0l94.57.74.14,0,.11.08a.44.44,0,0,1,.08.11.68.68,0,0,1,0,.14.32.32,0,0,1-.11.24A.35.35,0,0,1,1047.06,911.31Z"/></g><path class="cls-13" d="M892.51,909.76a5.72,5.72,0,0,0-1.55-2.61l-.84,7.85h2.77l-.16-3.9a5.6,5.6,0,0,0-.22-1.34Z"/><path class="cls-10" d="M937.34,833l1.28-11.2Z"/><path class="cls-10" d="M937.58,833.33h8.73l2.69-7.11a3.19,3.19,0,0,0,.18-1.5,3.14,3.14,0,0,0-1.71-2.39A3,3,0,0,0,946,822l-7.41.15-1.28,11.2Z"/><path class="cls-12" d="M977.43,793.33a6.25,6.25,0,0,1-2.14.4c-3.38,0-6.26-2.75-7.46-6.65-.43,0-.87.06-1.31.06-5.57,0-10.16-2.73-11-6.28a14.55,14.55,0,0,1-1.86.14,13.22,13.22,0,0,1-3.9-.59l-1.57,5.71v.11a4.12,4.12,0,0,1,1-1.44,3.94,3.94,0,0,1,1.55-.86,4,4,0,0,1,1.76-.11,3.94,3.94,0,0,1,1.65.65c3.75,2,3.47,9.48-1,12.52l.69,8.82,17.8,5.83s9.63-3.13,12.62-15.23a4.59,4.59,0,0,1-6.87-3.08Z"/><path class="cls-8" d="M954.22,784.47a3.94,3.94,0,0,0-1.65-.65,4.08,4.08,0,0,0-1.77.11,4,4,0,0,0-1.54.86,4.12,4.12,0,0,0-1,1.44v.06L948,787c-.06.21-.15.49-.27.85-.28.91-.73,2.33-1.45,4.59-.92,3.13-1.9,5.47,1.53,5.82.3,0,.6,0,.9,0a7.79,7.79,0,0,0,4.49-1.32C957.69,794,958,786.52,954.22,784.47Z"/><path class="cls-10" d="M948.57,792.15c0,.3.11.61.41.63s.6-.1.62-.4l.23-1a5.14,5.14,0,0,1,.93-2.48c.49-.57.82-1,1.26-1a1.84,1.84,0,0,1,.87.09,1.83,1.83,0,0,1,.74.48c.29.17.59.19.76-.1a.93.93,0,0,0,.09-.46.86.86,0,0,0-.18-.44,3,3,0,0,0-1.09-.64,2.94,2.94,0,0,0-1.25-.13,3.6,3.6,0,0,0-2,1.35,6.88,6.88,0,0,0-1.12,3.06Z"/><path d="M942.9,772.51c.09,3.61,2.92,6.66,6.89,7.9a13.22,13.22,0,0,0,3.9.59,14.55,14.55,0,0,0,1.86-.14c.81,3.55,5.4,6.28,11,6.28a9.5,9.5,0,0,0,1.31-.06c1.2,3.9,4.08,6.65,7.46,6.65a6.25,6.25,0,0,0,2.14-.4,4.62,4.62,0,0,0,1.59,2.7,4.61,4.61,0,0,0,7.55-3.55v-.22a7,7,0,0,0,5.58-6.72,6.78,6.78,0,0,0-3.28-5.76c4.06-1.51,6.86-4.64,6.86-8.25,0-4.15-3.67-7.66-8.72-8.82a11.8,11.8,0,0,0,1.4-5.57c0-6.88-5.87-12.45-13.1-12.45a13.39,13.39,0,0,0-9.41,3.79,13.47,13.47,0,0,0-17.26-4.89,13.56,13.56,0,0,0-5,4.17,9.51,9.51,0,0,0-2.49-.33c-6.11,0-11.06,5.54-11.06,12.37v.53a8.44,8.44,0,0,0-2,6.18,8.42,8.42,0,0,0,3,5.77,9.35,9.35,0,0,0,11.77.23Z"/><path class="cls-20" d="M424.49,899.16l-.79.84-2.76,15.33h11.6l-4-21A40.62,40.62,0,0,1,424.49,899.16Z"/><path class="cls-23" d="M550.66,775.91a4.15,4.15,0,0,1,.35.57A4.15,4.15,0,0,0,550.66,775.91Z"/><path class="cls-23" d="M551.4,778.62a3.3,3.3,0,0,0-.09-1.4,3.41,3.41,0,0,0-.24-.63,3.41,3.41,0,0,1,.24.63,3.3,3.3,0,0,1,.09,1.4Z"/><path class="cls-23" d="M550.64,775.9a2.76,2.76,0,0,0-.31-.37h0a2.17,2.17,0,0,1,.31.37Z"/><path class="cls-23" d="M528.65,777.35c-.11-.5-.21-1-.32-1.47v.36Z"/><path d="M528.33,775.88l3.89-2.06a7,7,0,0,0,.51-2.52l-5.6,1.24,1.17,3.7Z"/><path d="M509.92,804.26a16.19,16.19,0,0,0,5.86-2.83c4.56-3.55,9.14-10,11.29-17.7h-.36l-5.79,2.89-1.34-5.73c-3.14-3.76-2.9-10,.6-11.94a4.42,4.42,0,0,1,1.79-.67,4.48,4.48,0,0,1,1.89.16,4.33,4.33,0,0,1,1.65.95A4.24,4.24,0,0,1,526.6,771l.24.76-.21-.94,6.22-1.38c.17-4.67-.28-11.65-1.61-15.29,4.3-3.29,9.18-5,12-4.7.81,1.32.73,2.57,1.8,5.52,6.16-12.3-8.2-18.74-11.2-20.38-6-3.27-18.72-3.7-26-2.39-16.47,3-25.9,13.06-25.55,31,.29,15.22,4.81,29.12,13.44,37.39a40.46,40.46,0,0,0,5.39,3.6C503.87,805.49,505.89,805.33,509.92,804.26Z"/><path d="M538.33,787.62l-6.11-13.77-3.89,2.06c.11.48.21,1,.32,1.47v.12c.53,1.81,1.08,3.37.91,4.49,2.05,10.37,4.11,22.68,6.87,27h.48l.08.69c3.09,2,9.7-.82,10.78-7.8s1.63-13.33-.39-18.25C547.23,787.39,540.71,791.7,538.33,787.62Z"/><path d="M519.58,780.85l1.34,5.73,5.79-2.83h-.62a8.22,8.22,0,0,1-3.59-.7A8.41,8.41,0,0,1,519.58,780.85Z"/><path class="cls-10" d="M519.58,780.85l1.34,5.73,5.79-2.83h-.62a8.22,8.22,0,0,1-3.59-.7A8.41,8.41,0,0,1,519.58,780.85Z"/><path class="cls-23" d="M520.79,773.21a2,2,0,0,1,.79-.51,1.89,1.89,0,0,1,.94-.09c.48,0,.84.42,1.36,1a5.52,5.52,0,0,1,1,2.67l.24,1.11c0,.32.36.46.68.43s.46-.35.43-.67L526,776a7.41,7.41,0,0,0-1.2-3.3,3.89,3.89,0,0,0-2.2-1.45,3.45,3.45,0,0,0-1.35.15,3.21,3.21,0,0,0-1.17.68,1,1,0,0,0-.2.49,1,1,0,0,0,.11.51A.54.54,0,0,0,520.79,773.21Z"/><path class="cls-7" d="M520.79,773.21a2,2,0,0,1,.79-.51,1.89,1.89,0,0,1,.94-.09c.48,0,.84.42,1.36,1a5.52,5.52,0,0,1,1,2.67l.24,1.11c0,.32.36.46.68.43s.46-.35.43-.67L526,776a7.41,7.41,0,0,0-1.2-3.3,3.89,3.89,0,0,0-2.2-1.45,3.45,3.45,0,0,0-1.35.15,3.21,3.21,0,0,0-1.17.68,1,1,0,0,0-.2.49,1,1,0,0,0,.11.51A.54.54,0,0,0,520.79,773.21Z"/><path class="cls-12" d="M548.66,767.77l-.9.2,1.54,6.81a1,1,0,0,0,.41.58,1,1,0,0,0,.52.16h.2a1,1,0,0,0,.74-1.14l-3.16-14a1,1,0,0,0-.42-.59.91.91,0,0,0-1.31.27,1,1,0,0,0-.15.72l1.19,5.26.91-.2Z"/><path class="cls-12" d="M526.63,770.68l.21.94.21.94.08,0,5.6-1.24,13.4-3,1.63-.36.9-.2-.41-1.88-.92.2-1.37.3-13.11,2.91Z"/><path class="cls-10" d="M538,817.85h0l-.94-8.17Z"/><path class="cls-8" d="M551.31,777.23a3.41,3.41,0,0,0-.24-.63l-.06-.12a4.15,4.15,0,0,0-.35-.57,2.82,2.82,0,0,0-.33-.36h-.07a1,1,0,0,1-.52-.16,1,1,0,0,1-.41-.58l-.4-.16a3.89,3.89,0,0,1-1.62-1.15,4,4,0,0,1-.88-1.78l-.28-3.38-13.4,3a7,7,0,0,1-.51,2.52l6.09,13.76c2.38,4.11,8.9-.2,9.09-4l-.14-1.69,1.38-.29a3.77,3.77,0,0,0,2.74-3,3.36,3.36,0,0,0-.09-1.41Z"/><path class="cls-8" d="M532.85,769.3,546,766.39l-1-11.56c-1.07-3-1-4.2-1.8-5.52-2.77-.27-7.65,1.41-11.95,4.7C532.57,757.62,533,764.62,532.85,769.3Z"/><path class="cls-8" d="M528.69,777.47v-.12l-.35-1.11-1.17-3.7h-.08l-.21-.94-.24-.76a4.24,4.24,0,0,0-1.09-1.56,4.32,4.32,0,0,0-3.54-1.1,4.27,4.27,0,0,0-1.79.66c-3.5,1.91-3.74,8.18-.6,11.94a8.23,8.23,0,0,0,2.92,2.21,8.1,8.1,0,0,0,3.59.72h1c1.69-.18,2.38-.81,2.53-1.77S529.22,779.28,528.69,777.47Zm-8.6-5.33a3.17,3.17,0,0,1,1.18-.68,3.38,3.38,0,0,1,1.34-.15,3.89,3.89,0,0,1,2.2,1.45,7.41,7.41,0,0,1,1.2,3.3l.24,1.11c0,.32-.11.65-.43.67s-.65-.11-.68-.43l-.24-1.11a5.52,5.52,0,0,0-1-2.67c-.52-.6-.88-1.06-1.36-1a1.85,1.85,0,0,0-.93.09,1.93,1.93,0,0,0-.8.51c-.31.19-.63.21-.81-.1a.9.9,0,0,1-.1-.51.92.92,0,0,1,.19-.48Z"/><path class="cls-8" d="M537,809.68a.15.15,0,0,1-.12-.07,5.47,5.47,0,0,1-.44-.63c-2.76-4.34-4.82-16.65-6.87-27-.15,1-.84,1.59-2.53,1.77-2.15,7.66-6.73,14.15-11.29,17.7a16.19,16.19,0,0,1-5.86,2.83c-4,1.07-6,1.23-8.82-.17l-.31,6.68a10.1,10.1,0,0,1,2.87-.63,63.28,63.28,0,0,1,21.92,1.93A43.93,43.93,0,0,1,538,817.87Z"/><g class="cls-24"><path class="cls-10" d="M551.31,777.23a3.41,3.41,0,0,0-.24-.63l-.06-.12a4.15,4.15,0,0,0-.35-.57,2.82,2.82,0,0,0-.33-.36h-.07a1,1,0,0,1-.52-.16,1,1,0,0,1-.41-.58l-.4-.16a3.89,3.89,0,0,1-1.62-1.15,4,4,0,0,1-.88-1.78l-.28-3.38-13.4,3a7,7,0,0,1-.51,2.52l6.09,13.76c2.38,4.11,8.9-.2,9.09-4l-.14-1.69,1.38-.29a3.62,3.62,0,0,0,1.81-1.1,3.7,3.7,0,0,0,.93-1.9,3.36,3.36,0,0,0-.09-1.41Z"/><path class="cls-10" d="M532.85,769.3,546,766.39l-1-11.56c-1.07-3-1-4.2-1.8-5.52-2.77-.27-7.65,1.41-11.95,4.7C532.57,757.62,533,764.62,532.85,769.3Z"/><path class="cls-10" d="M528.69,777.47v-.12l-.35-1.11-1.17-3.7h-.08l-.21-.94-.24-.76a4.24,4.24,0,0,0-1.09-1.56,4.32,4.32,0,0,0-3.54-1.1,4.27,4.27,0,0,0-1.79.66c-3.5,1.91-3.74,8.18-.6,11.94a8.23,8.23,0,0,0,2.92,2.21,8.1,8.1,0,0,0,3.59.72h1c1.69-.18,2.38-.81,2.53-1.77S529.22,779.28,528.69,777.47Zm-8.6-5.33a3.17,3.17,0,0,1,1.18-.68,3.38,3.38,0,0,1,1.34-.15,3.89,3.89,0,0,1,2.2,1.45,7.41,7.41,0,0,1,1.2,3.3l.24,1.11c0,.32-.11.65-.43.67s-.65-.11-.68-.43l-.24-1.11a5.52,5.52,0,0,0-1-2.67c-.52-.6-.88-1.06-1.36-1a1.85,1.85,0,0,0-.93.09,1.93,1.93,0,0,0-.8.51c-.31.19-.63.21-.81-.1a.9.9,0,0,1-.1-.51.92.92,0,0,1,.19-.48Z"/><path class="cls-10" d="M537,809.68a.15.15,0,0,1-.12-.07,5.47,5.47,0,0,1-.44-.63c-2.76-4.34-4.82-16.65-6.87-27-.15,1-.84,1.59-2.53,1.77-2.15,7.66-6.73,14.15-11.29,17.7a16.19,16.19,0,0,1-5.86,2.83c-4,1.07-6,1.23-8.82-.17l-.31,6.68a10.1,10.1,0,0,1,2.87-.63,63.28,63.28,0,0,1,21.92,1.93A43.93,43.93,0,0,1,538,817.87Z"/></g><path class="cls-10" d="M536.91,809.62a5.47,5.47,0,0,1-.44-.63l-7.49-.15a3.28,3.28,0,0,0-2.36.92,3.36,3.36,0,0,0-1,2.32A43.93,43.93,0,0,1,538,817.86l-.94-8.17S537,809.62,536.91,809.62Z"/><path d="M536.47,809a5.47,5.47,0,0,0,.44.63.14.14,0,0,1,.12.07L537,809Z"/><path class="cls-10" d="M536.47,809a5.47,5.47,0,0,0,.44.63.14.14,0,0,1,.12.07L537,809Z"/><path class="cls-25" d="M500.64,819.84l25-.38a29.58,29.58,0,0,1,15.89,4.2v0a5.2,5.2,0,0,0-2.09-4.71c-.48-.36-1-.69-1.47-1a43.93,43.93,0,0,0-12.39-5.78,63.26,63.26,0,0,0-21.92-1.93,10.28,10.28,0,0,0-8.61,6L492.93,821a32.47,32.47,0,0,1,7.71-1.11Z"/><path class="cls-20" d="M624.39,905.07v-.25L620.57,915h9.8c-1.15-8.4-2.39-17-3.11-20.47Z"/><path class="cls-20" d="M608.69,860.42l-2.83-4.68a29.34,29.34,0,0,0-16.77-13c-4.4-1.3-9.25-2.75-12.76-3.81l-32.92-14c-.6-.45-1.24-.86-1.89-1.26a29.58,29.58,0,0,0-15.89-4.2l-25,.38a32.35,32.35,0,0,0-7.71,1,27.88,27.88,0,0,0-11.53,6c-1.9,1-6.13,3.08-11.43,5.62-1.45.7-3,1.43-4.58,2.17v-.24l-18.86,8,.18.42.12.29c.28.72.53,1.45.74,2.19.14.51.27,1,.37,1.53l14,68.14h130.4l3.92-19.09-.32-.1S601.9,876.47,608.69,860.42Z"/><path class="cls-10" d="M582.79,909.92a4.16,4.16,0,0,0-1.47,1.67,4,4,0,0,0-.38,2.19s0,.43-.05,1.22H592C592.38,909.52,586,907.78,582.79,909.92Z"/><path class="cls-10" d="M449.25,844.08c16-5.77,33.82-18.23,33.82-18.23s-19.62,10.07-35.2,16.29c.28.72.53,1.45.74,2.19Z"/><path class="cls-20" d="M470,832.48l-4.54,1.93v.24Z"/><path class="cls-10" d="M470,832.48l-4.54,1.93v.24Z"/><path class="cls-23" d="M408.19,788.33c.37,0,.76-.45,1.1-1.22a4.31,4.31,0,0,1-1.41-2.35l-1.46-12.39c-.73,1.27-1.31,4-1.12,7.71C405.58,785.25,407.16,788.38,408.19,788.33Z"/><path class="cls-23" d="M398.45,823.16q-1.14-.76-2.34-1.5c-3.49-.37-7.48-.95-7.61-2.65l-.13-1.73c-2.13-1.09-4.32-2.1-6.54-3a38.67,38.67,0,0,1-23.71,1.07,18.14,18.14,0,0,1-7.07,5.8l1.27-.24C359.48,827.76,382.88,829.24,398.45,823.16Z"/><path class="cls-26" d="M381.79,814.24c-2.85-1.21-5.74-2.29-8.62-3.23-10.3-1.26-21.75-2.72-28.92-3.48a31,31,0,0,0,13.83,7.78A38.67,38.67,0,0,0,381.79,814.24Z"/><path class="cls-10" d="M341.89,807.29l2.4.24-.57-.58C343.09,807.05,342.48,807.16,341.89,807.29Z"/><path class="cls-26" d="M373.21,811c-11.06-3.62-22-5.19-29.49-4.06l.57.58C351.46,808.29,362.91,809.75,373.21,811Z"/><path class="cls-10" d="M373.21,811c-11.06-3.62-22-5.19-29.49-4.06l.57.58C351.46,808.29,362.91,809.75,373.21,811Z"/><path class="cls-12" d="M373.21,811c2.88.94,5.77,2,8.62,3.23,2.22.94,4.41,2,6.54,3,1.47.74,2.9,1.52,4.31,2.33a54.27,54.27,0,0,0,2.64-6.36,1.25,1.25,0,0,0,.09-.25,55.82,55.82,0,0,0,2.66-11.9c.08,1.91.07,3.81,0,5.72s-.25,3.74-.49,5.6a67.24,67.24,0,0,1-1.78,9l.32.2q1.2.74,2.34,1.5c.74-.29,1.48-.6,2.18-.92l.37.08a101.26,101.26,0,0,0,1.51-11.38c0-.58.09-1.17.14-1.78.82-11.51.64-26.14-1.53-38.45.06-.08.14-.15.21-.23a11.27,11.27,0,0,1,3.63-1.82,9.47,9.47,0,0,0,3.38-2c-4.67-25.66-33.4-29-43.91-27.36a37.6,37.6,0,0,0-20.65,9.35c-13.85,13.11-16.32,41.84-6.52,60.45a14.88,14.88,0,0,1,4.61-1.81c.59-.13,1.2-.24,1.83-.34C351.25,805.82,362.15,807.39,373.21,811Z"/><path class="cls-23" d="M410.09,787.62c-.47,1-1.09,1.61-1.85,1.65-2.26.12-3.73-4.62-4-9.23-.19-3.66.38-7.46,1.75-8.95l-1-2.47a11.27,11.27,0,0,0-3.63,1.82c-.07.08-.15.15-.21.23,2.17,12.31,2.35,26.94,1.53,38.45a16.86,16.86,0,0,0,2.06-2.62,23.13,23.13,0,0,0,2.75-6.57c.09-.28.16-.58.23-.88l.16-.8.87-4.29v-.19a3.3,3.3,0,0,0,2.9-2.58,3.33,3.33,0,0,0-1.53-3.57Z"/><path class="cls-23" d="M395.41,813l.49-.1a15.27,15.27,0,0,0,1.67-.48c.24-1.86.41-3.73.49-5.6s.09-3.81,0-5.72A55.2,55.2,0,0,1,395.41,813Z"/><path class="cls-10" d="M404.79,797.15l-.18-.08a.69.69,0,0,0-.45,0,.73.73,0,0,0-.29.11.84.84,0,0,0-.23.23.77.77,0,0,0-.14.57.82.82,0,0,0,.28.52,4.9,4.9,0,0,0,1,.75,5.08,5.08,0,0,0,2.74.76c.09-.28.16-.58.23-.88l.16-.8a3.4,3.4,0,0,1-1.58-.16,3.46,3.46,0,0,1-1.35-.84.49.49,0,0,0-.14-.18Z"/><path class="cls-10" d="M398.06,806.82c.08-1.91.09-3.81,0-5.72A55.82,55.82,0,0,1,395.4,813l.49-.1a48.87,48.87,0,0,0,2.17-6.08Z"/><path class="cls-12" d="M404.26,780c.25,4.61,1.72,9.35,4,9.23.76,0,1.38-.67,1.85-1.65a17.76,17.76,0,0,0,1.14-8c-.24-4.61-1.72-9.35-4-9.23a1.78,1.78,0,0,0-.68.2,1.64,1.64,0,0,0-.56.45C404.64,772.62,404.07,776.38,404.26,780Zm2.16-7.67c.29-.51.6-.79.89-.8.94-.05,2.62,3.07,2.89,8.25a16.74,16.74,0,0,1-.91,7.29c-.34.77-.73,1.2-1.1,1.22-1,0-2.61-3.08-2.89-8.25C405.11,776.36,405.69,773.62,406.42,772.37Z"/><path class="cls-4" d="M448,846.86c-.1-.52-.23-1-.37-1.53-.21-.74-.46-1.47-.74-2.19l-.12-.29-.18-.42-.33-.74a22.18,22.18,0,0,0-15.73-12.07l-9.72-1.85a37.79,37.79,0,0,0-7.23-2.6L401,822.32l-.37-.08c-.7.32-1.44.63-2.18.92-15.57,6.08-39,4.6-46.13-2.29l-1.27.24-12.81,2.41a19.39,19.39,0,0,0-2.38.51L321,826.79a22.17,22.17,0,0,0-15.72,12.12,22.28,22.28,0,0,0-1.75,5.16L289,915h8.91l-.67-1.33-1.88-.27,1.35-1.33-.33-1.87,1.68.88,1.68-.89-.31,1.87,1.36,1.31-1.87.29-.66,1.34h17.56l3.57-17.37a8.46,8.46,0,0,1,3.82-5.47l.15-.09L324.94,915l-1.61-22.93L326.4,915h88.39l-.05-5a8.1,8.1,0,0,1,6.7-8.07l.71-.13a2.89,2.89,0,0,0-.78,1.66,2.82,2.82,0,0,1,.79-1.66l2-2.18.79-.84a23.48,23.48,0,0,0,2.93-3.73l-.11-.59.14.09.2.14v0a8.46,8.46,0,0,1,3.56,5.29L434.73,915h27.15ZM309,863.15l-.83,1.71-.85-1.7-1.88-.26,1.37-1.28-.33-1.87,1.68.87,1.68-.89-.31,1.87,1.36,1.32Zm10.1,30.3-.83,1.71-.85-1.7-1.88-.26,1.35-1.33-.33-1.87,1.69.88,1.67-.9-.31,1.87,1.36,1.32Zm20.2,4-.83,1.71-.85-1.7-1.88-.26,1.35-1.33-.33-1.87,1.69.88,1.67-.9-.31,1.87,1.37,1.32Zm0-40.4-.83,1.71-.85-1.7-1.88-.26,1.35-1.33-.33-1.87,1.69.87,1.67-.89-.31,1.87,1.37,1.32Zm0-24.24-.83,1.71-.85-1.7-1.88-.26,1.35-1.33-.33-1.87,1.69.87,1.67-.89-.31,1.87,1.37,1.32Zm20.2,54.54-.83,1.71-.85-1.7-1.87-.26,1.35-1.33-.34-1.87,1.69.88,1.67-.9-.31,1.87,1.37,1.32Zm20.2-30.3-.83,1.71-.84-1.7-1.88-.26,1.35-1.33-.33-1.87,1.68.87,1.67-.89-.31,1.87,1.37,1.32Zm10.11,50.57-.82,1.7-.85-1.7-1.88-.26,1.35-1.33-.33-1.87,1.68.88,1.67-.9L390.3,906l1.37,1.31ZM410,877.31l-.83,1.71-.85-1.7-1.88-.26,1.35-1.33-.33-1.87,1.68.87,1.68-.89-.31,1.87,1.36,1.32Zm0-38.38-.83,1.71-.85-1.7-1.88-.26,1.35-1.33-.33-1.87,1.68.87,1.68-.89-.31,1.87,1.36,1.32Zm27.17,64-.83,1.71-.85-1.7-1.88-.26,1.35-1.33-.33-1.87,1.68.87,1.68-.89-.31,1.87,1.36,1.32Zm2.55-46.09-.83,1.7-.85-1.69-1.88-.26,1.35-1.34-.33-1.86,1.69.87,1.67-.89-.31,1.87,1.37,1.31Z"/><path class="cls-13" d="M421.35,903.51a3.23,3.23,0,0,0,0,.44v0A3.23,3.23,0,0,1,421.35,903.51Z"/><path class="cls-4" d="M421.35,903.51a2.89,2.89,0,0,1,.78-1.66l-.71.13a8.1,8.1,0,0,0-6.7,8.07l0,5h6.58V904a4,4,0,0,1,0-.49Z"/><path class="cls-13" d="M421.35,903.51a2.89,2.89,0,0,1,.78-1.66l-.71.13a8.1,8.1,0,0,0-6.7,8.07l0,5h6.58V904a4,4,0,0,1,0-.49Z"/><path class="cls-2" d="M340.08,894l-1.67.9-1.69-.88.33,1.87-1.35,1.33,1.88.26.85,1.7.83-1.7,1.88-.29-1.37-1.31Z"/><path class="cls-2" d="M360.28,883.92l-1.67.9-1.69-.88.34,1.87-1.35,1.33,1.87.26.85,1.7.83-1.71,1.88-.28L360,885.79Z"/><path class="cls-2" d="M390.58,904.13l-1.67.89-1.68-.88.33,1.87-1.35,1.33,1.88.26.84,1.7.84-1.71,1.87-.28L390.27,906Z"/><path class="cls-2" d="M438,899.48l-1.68.89-1.68-.87.33,1.87-1.35,1.33,1.88.26.85,1.7.83-1.71,1.87-.28-1.36-1.32Z"/><path class="cls-2" d="M410.79,873.82l-1.68.9-1.68-.88.33,1.87L406.41,877l1.88.26.85,1.7.83-1.71,1.87-.28-1.36-1.32Z"/><path class="cls-2" d="M438,856.87l.85,1.69.83-1.7,1.88-.29-1.37-1.31.31-1.87-1.67.89-1.69-.87.33,1.86-1.35,1.33Z"/><path class="cls-2" d="M380.48,853.62l-1.67.89-1.68-.87.33,1.87-1.35,1.33,1.88.26.84,1.7.83-1.71,1.88-.28-1.37-1.32Z"/><path class="cls-2" d="M340.08,853.62l-1.67.89-1.69-.87.33,1.87-1.35,1.33,1.88.26.85,1.7.83-1.71,1.88-.28-1.37-1.32Z"/><path class="cls-2" d="M339.77,831.25l.31-1.87-1.67.89-1.69-.87.33,1.87-1.35,1.33,1.88.26.85,1.69.83-1.7,1.88-.28Z"/><path class="cls-2" d="M309.78,859.68l-1.68.89-1.68-.87.33,1.87-1.35,1.33,1.88.26.85,1.7.83-1.71,1.87-.28-1.36-1.32Z"/><path class="cls-2" d="M319.57,891.85l.31-1.87-1.67.9-1.69-.88.33,1.87-1.35,1.33,1.88.26.85,1.7.83-1.71,1.87-.28Z"/><path class="cls-2" d="M300.73,913.37l-1.36-1.31.31-1.87-1.68.89-1.68-.87.33,1.86-1.35,1.33,1.88.27.67,1.33h.35l.66-1.34Z"/><path class="cls-2" d="M410.79,835.44l-1.68.89-1.68-.87.33,1.87-1.35,1.33,1.88.26.85,1.7.83-1.71,1.87-.28-1.36-1.32Z"/><path class="cls-4" d="M323.28,892.07l-.15.09a8.46,8.46,0,0,0-3.82,5.47L315.79,915h3.1l4.44-22.93Z"/><path class="cls-13" d="M323.28,892.07l-.15.09a8.46,8.46,0,0,0-3.82,5.47L315.79,915h3.1l4.44-22.93Z"/><path class="cls-4" d="M323.28,892.07,324.89,915h1.46Z"/><path class="cls-13" d="M323.28,892.07,324.89,915h1.46Z"/><path class="cls-4" d="M428.2,894.78,432.11,915h2.68l-3-14.93a8.46,8.46,0,0,0-3.59-5.29Z"/><path class="cls-13" d="M428.2,894.78,432.11,915h2.68l-3-14.93a8.46,8.46,0,0,0-3.59-5.29Z"/><path class="cls-4" d="M427.79,894.51l.11.59c.08-.12.16-.24.23-.36l-.2-.14Z"/><path class="cls-13" d="M427.79,894.51l.11.59c.08-.12.16-.24.23-.36l-.2-.14Z"/><path class="cls-8" d="M720.19,797.45c9.07-16.45,2-15.27.24-14.81-1,3.56-2.69,9.54-4.63,15.29C717.61,801.75,720.19,797.45,720.19,797.45Z"/><path class="cls-8" d="M663.39,782.75s-10.32-3.82-.1,14.7c0,0,2.47,4.12,4.27.71-1.27-4-2.77-9.24-4-14.81Z"/><path class="cls-8" d="M713.31,812.28l-1.17-4.84a8.05,8.05,0,0,1-6.61,4.31,237.79,237.79,0,0,1-28-.07,8.1,8.1,0,0,1-7.18-5.37l-.14-.4-.06-.15h-.1l-1.51,6.69.23-.3C692.32,815.22,709.47,812.89,713.31,812.28Z"/><path d="M670.35,806.31a8.1,8.1,0,0,0,7.18,5.37,237.79,237.79,0,0,0,28,.07,8.05,8.05,0,0,0,6.61-4.31c.08-.17.18-.33.26-.5,1.14-2.61,2.3-5.77,3.4-9,1.94-5.75,3.65-11.73,4.63-15.29.55-2,.88-3.23.88-3.23,4.15-19.16-3.52-32.25-3.52-32.25,2.24-2.56-4.79-6.39-4.79-6.39,1.6-6.71-8.94-8-8.94-8,.64-8-16.6-1.28-16.6-1.28-15.88,7-22,23.47-24.38,33.29a35.32,35.32,0,0,0-.35,14.37c.26,1.4.54,2.8.85,4.18,1.21,5.57,2.71,10.79,4,14.81s2.34,6.92,2.59,7.6l.06.15Z"/><path class="cls-8" d="M783.74,895.17l-.11,0,.11.28-18.08,6-10,3.31L759.48,915h28.23Z"/><path class="cls-10" d="M783.74,895.17l-.11,0,.11.28-18.08,6,5.7,13.56h16.35Z"/><path class="cls-8" d="M622.06,904l-25.77-8.1L592.37,915h28.2l3.82-10.18v-.07Z"/><path class="cls-10" d="M622.06,904.34l-25.77-8.1-3.92,19.09h25.1Z"/><path class="cls-7" d="M755.64,837.3a23.08,23.08,0,0,1,3.7,2.65,23.08,23.08,0,0,0-3.7-2.65Z"/><path class="cls-7" d="M755.64,837.3a22.06,22.06,0,0,0-2-1.06l-33.08-15.16,33.08,15.16a22.06,22.06,0,0,1,2,1.06Z"/><path class="cls-4" d="M783.63,895.21l-17.79-46a23.64,23.64,0,0,0-4.86-7.67c-.52-.55-1.07-1.08-1.64-1.58a23.08,23.08,0,0,0-3.7-2.65,22.06,22.06,0,0,0-2-1.06l-33.08-15.16-6.39-8.94-.81.14c-3.84.61-21,2.94-44.54-.14l-.23.3-7.43,9.6h.08l-35.64,16.07a24.21,24.21,0,0,0-11.26,10.42c-1.86,3.41-3.76,7.52-5.6,11.87C601.9,876.41,596,895.8,596,895.8l.32.1v-.1L622,904l2.33.73v.32l2.87-10.54c.72,3.46,2,12.07,3.11,20.47H750.9l.43-7,.17-2.78.62-10.08,3.51,9.58,10-3.31v-.1Z"/><path class="cls-15" d="M783.79,895.21l-17.78-46a23.94,23.94,0,0,0-4.87-7.67c-.52-.55-1.06-1.08-1.63-1.58a23.16,23.16,0,0,0-3.71-2.65,21.21,21.21,0,0,0-2-1.06l-34-16L714,812.16l-.82.14c-3.84.61-21,2.94-44.53-.14l-.23.3-7.43,9.6h.07l-35.63,16.07a24.07,24.07,0,0,0-11.26,10.42c-1.86,3.41-3.76,7.52-5.6,11.87-6.79,16-12.73,35.39-12.73,35.39l.33.1v-.1L621.94,904l2.33.73v.32l2.88-10.54c.72,3.46,2,12.07,3.11,20.47h120.8l.43-7,.17-2.78.63-10.08,3.51,9.58,10-3.31v-.1Z"/><path class="cls-7" d="M783.63,895.53l-17.79-46a23.79,23.79,0,0,0-4.86-7.68c-.52-.55-1.07-1.07-1.64-1.57a23.77,23.77,0,0,0-3.7-2.66c-.66-.38-1.35-.74-2-1.06l-33.08-15.15c-8.8,2.87-18.82,3.83-28.09,3.86a223.38,223.38,0,0,1-27.31-2.76l-.18,1a217.21,217.21,0,0,0,30.86,2.84l23.66,7.53a19.74,19.74,0,0,1,13.6,14.63l4.75,21.39a207.22,207.22,0,0,1,4.93,45.43h8.14l.43-7,.17-2.78.62-10.07,3.51,9.58,10-3.31v-.1Z"/><path class="cls-20" d="M810.2,840.54c.27.11.63.26,1.09.43Z"/><path class="cls-22" d="M809.79,840.39h.08l-.29-.14-5.46,1.41.25.12,1.48-.38Z"/><path class="cls-27" d="M805.9,841.42l-1.48.38Z"/><path class="cls-22" d="M805.9,841.42l-1.48.38Z"/><path class="cls-27" d="M810.2,840.54l-.28-.13Z"/><path class="cls-22" d="M810.2,840.54l-.28-.13Z"/><path class="cls-27" d="M794.65,802.62c1,.26,3.14-2.47,4.41-7.45s.7-8.42-.29-8.67c-.61-.16-1.84,1-3,3.4l-1.83,5.81C793.23,799.72,793.79,802.4,794.65,802.62Z"/><path class="cls-27" d="M819.54,809.33c.18,3.16,4.29,12.62,3,20.46l-.44-.13c0,.5-.07,1-.12,1.5-.46,4.78,1.37,10.38-.48,15.17-3.1-1-9-4.47-10.29-5.13l-1-.57-.26-.16,5.53-.65,1.37-8.06-7.59-1.42-6.07-.94c-7.5-1.43-11.72-6.71-12.5-15.39v-.1l-.23-2.12h.13v-4.5a3.42,3.42,0,0,1-1.12-.54,3.36,3.36,0,0,1-.84-.92,3.55,3.55,0,0,1-.42-1.18,3,3,0,0,1,.07-1.24.43.43,0,0,1,0-.16,3.29,3.29,0,0,1,.85-1.48,3.22,3.22,0,0,1,1.49-.84,4,4,0,0,0,2-1.6c0,2.21.58,3.89,1.75,4.19,2.17.55,4.53-3.77,5.67-8.21s1.13-9.36-1-9.91a2.16,2.16,0,0,0-1,.08,2.07,2.07,0,0,0-.88.57l4-6a12.83,12.83,0,0,0,2.35,2c.82,3.16,3.15,4.84,5,7.22a32.38,32.38,0,0,1,5,8Z"/><path class="cls-2" d="M950.12,913.82a1.41,1.41,0,0,0-.91-1.27,1.59,1.59,0,0,0-.81,0,1.47,1.47,0,0,0-.7.41,1.37,1.37,0,0,0-.36.73,1.41,1.41,0,0,0,.1.81,1.47,1.47,0,0,0,.47.55h1.61a1.3,1.3,0,0,0,.22-.19,1.5,1.5,0,0,0,.3-.48,1.52,1.52,0,0,0,.08-.56Z"/><path class="cls-2" d="M793.63,854.25a1.38,1.38,0,0,0,.79.21,1.47,1.47,0,0,0,.55-.12,1.35,1.35,0,0,0,.45-.33,1.48,1.48,0,0,0,.39-1,1.42,1.42,0,0,0-.26-.77,1.38,1.38,0,0,0-.65-.49,1.6,1.6,0,0,0-1.52.4,1.44,1.44,0,0,0-.36.73,1.34,1.34,0,0,0,.61,1.37Z"/><path class="cls-2" d="M816.4,890.2a1.37,1.37,0,0,0,.78.21,1.42,1.42,0,0,0,1-.46,1.39,1.39,0,0,0,.39-1,1.26,1.26,0,0,0-.27-.77,1.32,1.32,0,0,0-.64-.5,1.63,1.63,0,0,0-.82,0,1.41,1.41,0,0,0-1.06,1.14,1.49,1.49,0,0,0,.11.81A1.34,1.34,0,0,0,816.4,890.2Z"/><path class="cls-2" d="M923.38,888a1.38,1.38,0,0,0,.79.21,1.42,1.42,0,0,0,1-.46,1.38,1.38,0,0,0,.33-.59,1.31,1.31,0,0,0,0-.68,1.42,1.42,0,0,0-.31-.61,1.36,1.36,0,0,0-.56-.38,1.4,1.4,0,0,0-.81,0,1.47,1.47,0,0,0-.7.41,1.37,1.37,0,0,0-.36.73,1.41,1.41,0,0,0,.1.81,1.53,1.53,0,0,0,.51.56Z"/><path class="cls-2" d="M878.69,907.21a1.32,1.32,0,0,0-.65-.49,1.4,1.4,0,0,0-.81-.06,1.5,1.5,0,0,0-.71.41,1.37,1.37,0,0,0-.36.73,1.4,1.4,0,0,0,.11.81,1.36,1.36,0,0,0,.42.53,1.44,1.44,0,0,0,.62.27,1.31,1.31,0,0,0,.68-.06,1.34,1.34,0,0,0,.57-.37,1.48,1.48,0,0,0,.39-1A1.42,1.42,0,0,0,878.69,907.21Z"/><path class="cls-2" d="M851.93,895.38a1.4,1.4,0,0,0-.81,0,1.42,1.42,0,0,0-.71.41,1.44,1.44,0,0,0-.36.73,1.41,1.41,0,0,0,.11.81,1.41,1.41,0,0,0,1.33.82,1.46,1.46,0,0,0,1-.46,1.38,1.38,0,0,0,.33-.59,1.42,1.42,0,0,0,0-.68,1.38,1.38,0,0,0-.31-.6,1.29,1.29,0,0,0-.56-.39Z"/><path class="cls-2" d="M786.46,882.8a1.25,1.25,0,0,0-.81,0,1.37,1.37,0,0,0-.7.4,1.43,1.43,0,0,0-.36.74,1.3,1.3,0,0,0,.11.8,1.36,1.36,0,0,0,.54.62,1.39,1.39,0,0,0,1.75-.25,1.35,1.35,0,0,0,.12-1.77A1.38,1.38,0,0,0,786.46,882.8Z"/><path class="cls-2" d="M790.86,913.79a1.35,1.35,0,0,0-.82,0,1.32,1.32,0,0,0-.7.41,1.44,1.44,0,0,0-.36.73V915h2.81a1.42,1.42,0,0,0-.27-.74,1.4,1.4,0,0,0-.63-.47Z"/><path class="cls-2" d="M751.33,908h.17a1.52,1.52,0,0,0,.55-.13,1.28,1.28,0,0,0,.45-.32,1.48,1.48,0,0,0,.39-1,1.33,1.33,0,0,0-.27-.77,1.42,1.42,0,0,0-.64-.49,1.12,1.12,0,0,0-.45-.08Z"/><path class="cls-2" d="M922.72,910.68a1.43,1.43,0,0,0-.82,0,1.32,1.32,0,0,0-.7.41,1.44,1.44,0,0,0-.36.73,1.5,1.5,0,0,0,.11.81,1.39,1.39,0,0,0,.54.61,1.42,1.42,0,0,0,2.14-1.24,1.39,1.39,0,0,0-.27-.78,1.4,1.4,0,0,0-.64-.54Z"/><path class="cls-2" d="M900.73,885.31a1.37,1.37,0,0,0-.64-.5,1.63,1.63,0,0,0-.82,0h-.09a1.48,1.48,0,0,0-.61.37,1.44,1.44,0,0,0-.36.73,1.4,1.4,0,0,0,.11.81,1.33,1.33,0,0,0,.54.61,1.38,1.38,0,0,0,.79.21,1.52,1.52,0,0,0,.55-.13,1.45,1.45,0,0,0,.45-.33,1.33,1.33,0,0,0,.32-.55,1.62,1.62,0,0,0,.07-.44A1.31,1.31,0,0,0,900.73,885.31Z"/><path d="M799.05,785.41a2.15,2.15,0,0,0-1,.08,2.07,2.07,0,0,0-.88.57c-1.52,1.33-2.94,4.4-3.74,7.54a22.19,22.19,0,0,0-.72,5.74c0,2.21.58,3.89,1.75,4.19,2.17.55,4.53-3.77,5.67-8.21S801.22,786,799.05,785.41Zm0,9.76c-1.27,5-3.42,7.71-4.41,7.45s-1.42-2.9-.68-6.91c.11-.56.23-1.14.39-1.74a22.36,22.36,0,0,1,1.44-4.07c1.13-2.35,2.36-3.56,3-3.4,1,.25,1.54,3.69.27,8.67Z"/><path class="cls-10" d="M816,807.22a12.13,12.13,0,0,1-2,.07l2.3,1.73c-.17-1.15-.31-1.8-.31-1.8Z"/><path class="cls-27" d="M810.87,806.73h-.13a1.33,1.33,0,0,0,.39.28l-.14-.11a.66.66,0,0,1-.12-.17Z"/><path class="cls-10" d="M810.87,806.73h-.13a1.33,1.33,0,0,0,.39.28l-.14-.11a.66.66,0,0,1-.12-.17Z"/><path class="cls-2" d="M792.79,813.09a4,4,0,0,0,1.23-1.88.14.14,0,0,0,0-.09.11.11,0,0,0,0-.08l0,0h-.12l-.05,0a4.08,4.08,0,0,1-1.55.76,3.92,3.92,0,0,1-1.6,0h-.13l.23,2.12v.1A4.12,4.12,0,0,0,792.79,813.09Z"/><path class="cls-10" d="M821.08,829.88l1,2-5-.65.18.4-.53,3.07,4.16-2.6C821,831.34,821,830.62,821.08,829.88Z"/><path class="cls-20" d="M949.52,915h7.08a14.55,14.55,0,0,0-1.94-2.55l-2.17-2.22-16-16.43-14.7-15.06L906.73,863.3l-3.84-3.94a16.28,16.28,0,0,1-.12,2.42,17.39,17.39,0,0,1-25.54,13.16,16.31,16.31,0,0,1-3.6,3.86A16.12,16.12,0,0,1,861.71,882a16.91,16.91,0,0,1-2.45-.51c-.56.64-1.14,1.26-1.77,1.85A27.29,27.29,0,0,1,815,850c.43-.76.9-1.48,1.4-2.19.21-.51.4-1,.59-1.49l.25-.62c.29-.91.54-1.83.77-2.75a.67.67,0,0,0,0-.2,52.5,52.5,0,0,1-5.21-1.23l-1.55-.51c-.55-.19-.82-.32-1.09-.43l-.3-.12h-.08l-3.92,1-1.46.39-3.32.83h.08l-4.42,1.17a38.43,38.43,0,0,0-17.58,10.8l-8.25,7.72,12.6,32.6.1.25h.11l4,19.83H789v-.12a1.44,1.44,0,0,1,.36-.73,1.32,1.32,0,0,1,.7-.41,1.4,1.4,0,0,1,.61,0,1.42,1.42,0,0,1,.55.24,1.44,1.44,0,0,1,.4.45,1.48,1.48,0,0,1,.16.58h98.36l.84-7.85L892.4,894v-.16l18.34,16.11,5.8,5.1h31.38a1.47,1.47,0,0,1-.47-.55,1.41,1.41,0,0,1-.1-.81,1.37,1.37,0,0,1,.36-.73,1.47,1.47,0,0,1,.7-.41,1.59,1.59,0,0,1,.81,0,1.36,1.36,0,0,1,.56.38,1.42,1.42,0,0,1,.31.61,1.31,1.31,0,0,1,0,.68,1.38,1.38,0,0,1-.33.59,1.1,1.1,0,0,1-.23.2ZM784.59,883.89a1.43,1.43,0,0,1,.36-.74,1.42,1.42,0,0,1,.7-.4,1.4,1.4,0,0,1,.81,0,1.44,1.44,0,0,1,.65.49,1.35,1.35,0,0,1-.12,1.77,1.38,1.38,0,0,1-2.29-.37A1.3,1.3,0,0,1,784.59,883.89ZM795.38,854a1.35,1.35,0,0,1-.45.33,1.47,1.47,0,0,1-.55.12,1.38,1.38,0,0,1-.79-.21,1.52,1.52,0,0,1-.54-.61,1.49,1.49,0,0,1-.11-.81A1.38,1.38,0,0,1,794,851.7a1.4,1.4,0,0,1,.81,0,1.38,1.38,0,0,1,.65.49,1.42,1.42,0,0,1,.26.77,1.44,1.44,0,0,1-.35,1ZM818.15,890a1.42,1.42,0,0,1-1,.46,1.37,1.37,0,0,1-.78-.21,1.39,1.39,0,0,1-.54-.61,1.49,1.49,0,0,1-.11-.81,1.41,1.41,0,0,1,1.06-1.14,1.43,1.43,0,0,1,.82,0,1.32,1.32,0,0,1,.64.5,1.26,1.26,0,0,1,.27.77,1.43,1.43,0,0,1-.36,1Zm34.3,7.69a1.4,1.4,0,0,1-.83.45,1.41,1.41,0,0,1-.92-.2,1.45,1.45,0,0,1-.54-.61,1.41,1.41,0,0,1-.11-.81,1.44,1.44,0,0,1,.36-.73,1.42,1.42,0,0,1,.71-.41,1.37,1.37,0,0,1,.87.08,1.33,1.33,0,0,1,.66.58,1.4,1.4,0,0,1-.2,1.65ZM878.56,909a1.45,1.45,0,0,1-.45.33,1.51,1.51,0,0,1-.55.12,1.38,1.38,0,0,1-.79-.21,1.45,1.45,0,0,1-.54-.61,1.35,1.35,0,0,1-.15-.62,1.41,1.41,0,0,1,1.15-1.38,1.4,1.4,0,0,1,.81.06,1.32,1.32,0,0,1,.65.49,1.42,1.42,0,0,1,.26.77,1.51,1.51,0,0,1-.39,1.05Zm44.18-22.45a1.37,1.37,0,0,1,.36-.73,1.47,1.47,0,0,1,.7-.41,1.59,1.59,0,0,1,.81,0,1.36,1.36,0,0,1,.56.38,1.42,1.42,0,0,1,.31.61,1.31,1.31,0,0,1,0,.68,1.38,1.38,0,0,1-.33.59,1.42,1.42,0,0,1-1,.46,1.38,1.38,0,0,1-.79-.21,1.52,1.52,0,0,1-.54-.61,1.4,1.4,0,0,1,0-.76Zm-22.13.54a1.45,1.45,0,0,1-.45.33,1.48,1.48,0,0,1-.55.13,1.38,1.38,0,0,1-.79-.21,1.33,1.33,0,0,1-.54-.61,1.4,1.4,0,0,1-.11-.81,1.44,1.44,0,0,1,.36-.73,1.48,1.48,0,0,1,.61-.37h.09a1.43,1.43,0,0,1,.82,0,1.37,1.37,0,0,1,.64.5,1.33,1.33,0,0,1,.27.77,1.62,1.62,0,0,1-.07.44,1.29,1.29,0,0,1-.28.56Z"/><path class="cls-20" d="M752.12,895.17l-.62,10.08a1.12,1.12,0,0,1,.45.08,1.42,1.42,0,0,1,.64.49,1.33,1.33,0,0,1,.27.77,1.48,1.48,0,0,1-.39,1,1.28,1.28,0,0,1-.45.32,1.48,1.48,0,0,1-.55.13h-.17l-.43,7h8.58l-3.85-10.25Z"/><path d="M795.66,793.23a1.41,1.41,0,0,1,.41,0,1.61,1.61,0,0,1,.81.36,1.55,1.55,0,0,1,.47.76,1.47,1.47,0,0,1,0,.88,1.5,1.5,0,0,1-.51.73,1.55,1.55,0,0,1-1.7.11,1.51,1.51,0,0,1-.61-.64,1.63,1.63,0,0,1-.15-.87,1.53,1.53,0,0,1,1.31-1.33Z"/><path class="cls-2" d="M795.24,794.62a.38.38,0,0,1-.17-.08.32.32,0,0,1-.09-.16.28.28,0,0,1,0-.18.35.35,0,0,1,.11-.15.45.45,0,0,1,.18-.07.29.29,0,0,1,.18,0,.4.4,0,0,1,.13.13.41.41,0,0,1,0,.19.32.32,0,0,1-.12.2.34.34,0,0,1-.24.07Z"/><path class="cls-10" d="M782.79,894.17l.23,1.17,9.47-8.18a.68.68,0,0,0,.21-.46.69.69,0,0,0,0-.25.51.51,0,0,0-.12-.23.72.72,0,0,0-.46-.2.75.75,0,0,0-.48.14l-9,7.8.1.25Z"/><path class="cls-22" d="M817.23,845.62c.29-.91.54-1.83.77-2.75a49,49,0,0,1-6.71-1.94c-.46-.17-.82-.32-1.09-.43l-.3-.12h-.08l-3.92,1-1.46.39A65.06,65.06,0,0,0,817,846.22l.25-.62Z"/><path class="cls-13" d="M900.93,886.85a1.69,1.69,0,0,1-.32.55,1.42,1.42,0,0,1-1.79.25,1.33,1.33,0,0,1-.54-.61,1.41,1.41,0,0,1-.11-.81,1.44,1.44,0,0,1,.36-.73,1.38,1.38,0,0,1,.61-.37l-5.61-5.57-1.09,14.62,24.16,21.15h13.06Zm22.31,26.42a1.28,1.28,0,0,1-.45.32,1.52,1.52,0,0,1-.55.13,1.38,1.38,0,0,1-.79-.21,1.28,1.28,0,0,1-.54-.61,1.38,1.38,0,0,1-.11-.8,1.47,1.47,0,0,1,.36-.74,1.37,1.37,0,0,1,.7-.4,1.4,1.4,0,0,1,.61,0,1.37,1.37,0,0,1,.56.26,1.31,1.31,0,0,1,.4.47,1.33,1.33,0,0,1,.16.59,1.48,1.48,0,0,1-.35,1Z"/><path d="M900.19,850.33a17.36,17.36,0,0,0-6.36-6,16.76,16.76,0,0,0-2.88-1.26,18.11,18.11,0,0,0-2.91-.69,21.09,21.09,0,0,0-7.36-36.64l-.27-.06c-.36-.1-.72-.21-1.09-.3-2.67-.78-8.74-2.93-12.86-7.29-10.28-10.87-6.63-24.76-20.42-36.41a41.7,41.7,0,0,0-4-3l-.29-.2a1,1,0,0,0-.41-.15,21.09,21.09,0,0,0-9.2-2.41c-5-.14-12,1.56-18.3,4.41a21.09,21.09,0,0,0-6.27.8c-8.24,2.31-13.6,8.82-12,14.55a8.49,8.49,0,0,0,3.37,4.58,12.47,12.47,0,0,0,2.73,1.43,22.6,22.6,0,0,0,5.9,7.17c.5.51,3.28,5.22,6,9.16,2.18-4.84,8.1-3.49,7.24,3-.2,1.5-3.77,2.19-4.42,3l3.84-.76h-.06c-1.3,1.68-6.08,2.47-7.49,2.84,0,0,.22.63.54,1.75a84.73,84.73,0,0,1,3.08,17.67c.05.73.09,1.46.11,2.21A55.18,55.18,0,0,1,815,842.67a.67.67,0,0,1,0,.2c-.23.92-.48,1.84-.77,2.75l-.25.62c-.19.49-.38,1-.59,1.49a20.28,20.28,0,0,0-1.4,2.19c-3.13,5.49-1.26,11.89-.19,18.11a27.28,27.28,0,0,0,45.67,15.22c.63-.59,1.21-1.21,1.77-1.85a16.91,16.91,0,0,0,2.45.51,16.12,16.12,0,0,0,11.92-3.18,16.31,16.31,0,0,0,3.6-3.86,17.38,17.38,0,0,0,25.54-13.16,16.28,16.28,0,0,0,.12-2.42,17.36,17.36,0,0,0-2.71-9Z"/><path class="cls-27" d="M813.92,796.85a7.31,7.31,0,0,0-1.1,2.13l-2,7.81.68.06h.29a9.56,9.56,0,0,0,2,.12,7.91,7.91,0,0,0,7.52-5.44C823.57,795.47,817.12,792.62,813.92,796.85Z"/><path class="cls-10" d="M813.72,800.12l-.22.74a.56.56,0,0,0,.07.38.5.5,0,0,0,.14.15.58.58,0,0,0,.18.08.45.45,0,0,0,.2,0,.36.36,0,0,0,.18-.07.5.5,0,0,0,.15-.14.37.37,0,0,0,.08-.18l.24-.8a5.1,5.1,0,0,1,1.06-2.21,1.61,1.61,0,0,1,.55-.55,1.7,1.7,0,0,1,.75-.24,1.52,1.52,0,0,1,.78.18,1.59,1.59,0,0,1,.6.52.56.56,0,0,0,.17.09h.19a.75.75,0,0,0,.36-.13.44.44,0,0,0,0-.32.43.43,0,0,0-.15-.28h.09a2.44,2.44,0,0,0-.94-.71,3,3,0,0,0-1.14-.26,2.45,2.45,0,0,0-1.15.29,2.88,2.88,0,0,0-.88.75,5.42,5.42,0,0,0-1.31,2.71Z"/><path class="cls-23" d="M1047.22,778.83a3.25,3.25,0,0,1,.33-.57A3.25,3.25,0,0,0,1047.22,778.83Z"/><path class="cls-23" d="M1047.87,777.87a3.57,3.57,0,0,0-.31.37,2.91,2.91,0,0,1,.33-.37Z"/><path class="cls-23" d="M1069.87,777.45l-.28,1.48c.11-.4.22-.77.32-1.12C1069.9,777.69,1069.88,777.62,1069.87,777.45Z"/><path d="M1070.94,774.06l-5.64-1a7.44,7.44,0,0,0,.6,2.5l4,1.93v.36C1070.39,776.05,1070.72,774.87,1070.94,774.06Z"/><path d="M1066.19,755.69c-1.2,3.68-1.4,10.67-1.08,15.34l6.27,1.16-.18.95c.21-.77.22-.77.22-.77a4.33,4.33,0,0,1,1-1.59,4.47,4.47,0,0,1,1.61-1,4.33,4.33,0,0,1,1.89-.21,4.43,4.43,0,0,1,1.8.61c3.56,1.79,4,8,1,11.91l-1.14,5.78-5.89-2.62h-.35c2.42,7.58,7.22,13.91,11.9,17.3a16.29,16.29,0,0,0,6,2.62c4.07.94,6.1,1,8.81-.47a40.78,40.78,0,0,0,5.26-3.79c8.33-8.57,12.37-22.62,12.13-37.83-.27-17.9-10-27.64-26.62-30.05-7.28-1.06-20-.18-25.87,3.3-2.93,1.74-17.06,8.67-10.48,20.67,1-3,.84-4.23,1.61-5.58C1056.85,751,1061.79,752.55,1066.19,755.69Z"/><path d="M1062.89,810.81c2.61-4.44,4.23-16.82,5.92-27.25-.22-1.11.28-2.69.75-4.51v-.12c.09-.51.19-1,.28-1.48l-4-1.93-5.62,14c-2.24,4.18-8.9.11-9.22-3.64-1.85,5-1.08,11.41.24,18.25s8,9.5,11,7.42v-.7Z"/><path d="M1072.38,785.26h-.59l5.89,2.62,1.14-5.78a8.11,8.11,0,0,1-6.44,3.16Z"/><path class="cls-23" d="M1072.44,779.32c.32,0,.65-.14.66-.46l.21-1.12a5.53,5.53,0,0,1,.9-2.7c.5-.62.84-1.09,1.33-1.07a2.14,2.14,0,0,1,.94.06,2,2,0,0,1,.8.49c.32.17.64.18.81-.13a.85.85,0,0,0,.09-.52.84.84,0,0,0-.21-.48,3.29,3.29,0,0,0-2.55-.74,3.81,3.81,0,0,0-2.14,1.53,7.46,7.46,0,0,0-1.09,3.33l-.2,1.12C1072,779,1072.12,779.31,1072.44,779.32Z"/><path class="cls-12" d="M1048,777.87a.94.94,0,0,0,.51-.19.85.85,0,0,0,.25-.25.81.81,0,0,0,.14-.33h0l1.3-6.87-.91-.17.35-1.89.92.17,1-5.3a1,1,0,0,0-.26-.58,1,1,0,0,0-.56-.31,1,1,0,0,0-.64.1,1,1,0,0,0-.44.46l-2.67,14a1,1,0,0,0,.17.72,1,1,0,0,0,.62.4h.2Z"/><path class="cls-12" d="M1049.26,770l.91.17,1.65.31,13.48,2.5,5.64,1.05h.09l.17-.94.18-.95-6.27-1.16-13.2-2.45-1.38-.26-.92-.17Z"/><path class="cls-23" d="M1098.06,804.69c-2.71,1.49-4.74,1.41-8.81.47a16.29,16.29,0,0,1-6-2.62c-4.68-3.39-9.48-9.72-11.9-17.3h1a8.11,8.11,0,0,0,6.4-3.16c3-3.87,2.55-10.12-1-11.91a4.43,4.43,0,0,0-1.8-.61,4.33,4.33,0,0,0-1.89.21,4.47,4.47,0,0,0-1.61,1,4.33,4.33,0,0,0-1,1.59l-.22.77-.17.94h-.09c-.22.81-.55,2-1,3.75-.1.35-.21.72-.32,1.12v.12c-.47,1.82-1,3.4-.75,4.51-1.69,10.43-3.31,22.81-5.92,27.25a5.5,5.5,0,0,1-.43.64l-.11.08-.65,8.19a43.64,43.64,0,0,1,12.18-6.2,62.82,62.82,0,0,1,21.84-2.7,9.77,9.77,0,0,1,2.88.53Z"/><path class="cls-23" d="M1065.3,773l-13.51-2.5-.16,3.38a4,4,0,0,1-2.4,3l-.39.18a1,1,0,0,1-.13.33,1,1,0,0,1-.26.25.94.94,0,0,1-.51.19h-.07a2.91,2.91,0,0,0-.33.37h0a3.25,3.25,0,0,0-.33.57l-.06.12a3.43,3.43,0,0,0-.31,1.38,3.7,3.7,0,0,0,2.9,3.59l1.39.24-.08,1.7c.32,3.75,7,7.82,9.22,3.64l5.62-14a7.65,7.65,0,0,1-.59-2.44Z"/><path class="cls-23" d="M1066.19,755.69c-4.41-3.14-9.34-4.65-12.1-4.28-.77,1.35-.65,2.59-1.61,5.58l-.57,11.59,13.2,2.45C1064.79,766.36,1065,759.37,1066.19,755.69Z"/><path class="cls-10" d="M1070.36,810.39l-7.47.42a5.5,5.5,0,0,1-.43.64l-.11.08-.65,8.19a43.91,43.91,0,0,1,12.18-6.2,3.38,3.38,0,0,0-1.12-2.29,3.31,3.31,0,0,0-2.4-.84Z"/><path class="cls-10" d="M1072.44,779.32c.32,0,.65-.14.66-.46l.21-1.12a5.53,5.53,0,0,1,.9-2.7c.5-.62.84-1.09,1.33-1.07a2.14,2.14,0,0,1,.94.06,2,2,0,0,1,.8.49c.32.17.64.18.81-.13a.85.85,0,0,0,.09-.52.84.84,0,0,0-.21-.48,3.29,3.29,0,0,0-2.55-.74,3.81,3.81,0,0,0-2.14,1.53,7.46,7.46,0,0,0-1.09,3.33l-.2,1.12C1072,779,1072.12,779.31,1072.44,779.32Z"/><path d="M1062.46,811.45a5.5,5.5,0,0,0,.43-.64h-.49v.7Z"/><path class="cls-10" d="M1062.46,811.45a5.5,5.5,0,0,0,.43-.64h-.49v.7Z"/><path class="cls-25" d="M1074.08,820.9l25-.49a32.5,32.5,0,0,1,7.74.78l-2.28-4.68a10.27,10.27,0,0,0-2.45-3.18,10.12,10.12,0,0,0-3.48-2,9.77,9.77,0,0,0-2.88-.53,62.84,62.84,0,0,0-21.84,2.7,43.64,43.64,0,0,0-12.18,6.2h0c-.49.35-1,.7-1.44,1.07a5.24,5.24,0,0,0-1.92,4.79v0A29.58,29.58,0,0,1,1074.08,820.9Z"/><path class="cls-10" d="M1134.77,833.74l-4.61-1.77Z"/><path class="cls-4" d="M1158.84,843l-24.07-9.26-4.61-1.77c-5.38-2.35-9.68-4.33-11.61-5.22a28.2,28.2,0,0,0-11.74-5.56,32.5,32.5,0,0,0-7.74-.78l-25,.49a29.57,29.57,0,0,0-15.73,4.74c-.64.42-1.26.87-1.84,1.34l-32.42,15.19c-3.47,1.19-8.26,2.8-12.61,4.25A29.32,29.32,0,0,0,995.15,860c-7.54,13.54-21.15,38-30.35,54.47l187.88.24c4-14.21,11.09-41.13,12.11-59,.3-5.41-7.34-10.21-12.49-11.86-16.19-5.21-34.44-17-34.44-17s24.7,11.6,40.89,16.81a11.89,11.89,0,0,1,8.19,12c-1,17.49-8.15,44.27-12.45,59.08h11.43l15,.18L1169.09,855a16.49,16.49,0,0,0-10.25-12Z"/><path class="cls-7" d="M1158.84,843l-24.07-9.26-4.61-1.77c-5.38-2.35-9.68-4.33-11.61-5.22a28.2,28.2,0,0,0-11.74-5.56,32.5,32.5,0,0,0-7.74-.78l-25,.49a29.57,29.57,0,0,0-15.73,4.74c-.64.42-1.26.87-1.84,1.34l-32.42,15.19c-3.47,1.19-8.26,2.8-12.61,4.25A29.32,29.32,0,0,0,995.15,860c-7.54,13.54-21.15,38-30.35,54.47l187.88.24c4-14.21,11.09-41.13,12.11-59,.3-5.41-7.34-10.21-12.49-11.86-16.19-5.21-34.44-17-34.44-17s24.7,11.6,40.89,16.81a11.89,11.89,0,0,1,8.19,12c-1,17.49-8.15,44.27-12.45,59.08h11.43l15,.18L1169.09,855a16.49,16.49,0,0,0-10.25-12Z"/><path class="cls-4" d="M1158.79,843.62c-16.19-5.21-40.89-16.81-40.89-16.81s18.25,11.83,34.44,17c5.15,1.65,12.79,6.45,12.49,11.86-1,17.87-8.07,44.79-12.11,59h1.81c4.3-14.81,11.45-41.59,12.45-59.08a11.89,11.89,0,0,0-8.19-12Z"/><path class="cls-7" d="M1158.79,843.62c-16.19-5.21-40.89-16.81-40.89-16.81s18.25,11.83,34.44,17c5.15,1.65,12.79,6.45,12.49,11.86-1,17.87-8.07,44.79-12.11,59h1.81c4.3-14.81,11.45-41.59,12.45-59.08a11.89,11.89,0,0,0-8.19-12Z"/><path class="cls-10" d="M1158.79,843.62c-16.19-5.21-40.89-16.81-40.89-16.81s18.25,11.83,34.44,17c5.15,1.65,12.79,6.45,12.49,11.86-1,17.87-8.07,44.79-12.11,59h1.81c4.3-14.81,11.45-41.59,12.45-59.08a11.89,11.89,0,0,0-8.19-12Z"/></svg>