<svg id="Layer_1" data-name="Layer 1" xmlns="http://www.w3.org/2000/svg" viewBox="0 0 1280 1024"><defs><style>.cls-1{fill:#fc9d9d;}.cls-2{opacity:0.15;}.cls-11,.cls-15,.cls-17,.cls-19,.cls-2,.cls-20,.cls-21,.cls-35,.cls-36,.cls-5,.cls-9{isolation:isolate;}.cls-3{fill:#58119d;}.cls-4{fill:#21252b;}.cls-35,.cls-5{opacity:0.4;}.cls-6{fill:#84888f;}.cls-7{fill:#b0b4b9;}.cls-8{fill:#61656d;}.cls-21,.cls-27,.cls-9{opacity:0.5;}.cls-10{fill:#3f4249;}.cls-11,.cls-14,.cls-19{opacity:0.2;}.cls-12,.cls-19,.cls-20,.cls-21,.cls-35,.cls-36{fill:#fff;}.cls-13{fill:#868a91;}.cls-15,.cls-16{opacity:0.6;}.cls-17,.cls-32,.cls-36{opacity:0.3;}.cls-18{opacity:0.45;}.cls-20,.cls-28{opacity:0.7;}.cls-22,.cls-33{fill:none;stroke-miterlimit:10;}.cls-22{stroke:#000;stroke-width:3px;}.cls-23{fill:#b074ff;}.cls-24{fill:#00beff;}.cls-25{fill:#fd8a88;}.cls-26{fill:#00f3be;}.cls-29{fill:#b1b5ba;}.cls-30{fill:#f69797;}.cls-31{fill:#f4f4f4;}.cls-33{stroke:#f69797;stroke-linecap:round;stroke-width:1.3px;}.cls-34{fill:#858990;}</style></defs><path class="cls-1" d="M811.58,863.56a44.57,44.57,0,0,1-1,6.69c-2.48,7-10.36,9.16-17.35,11.44l-38.33,13.56c-3.45,1.1-3,6.15.59,6.15h4.8a3.28,3.28,0,0,0,2.7,1.35,4.84,4.84,0,0,0,2.95-1.18c.08-.08.17-.08.25-.17h.67c.08.08.25.08.34.25a3.46,3.46,0,0,0,2.53,1.18,4.87,4.87,0,0,0,2.78-1,.82.82,0,0,1,1.18.08,2.57,2.57,0,0,0,2,.93A4.29,4.29,0,0,0,778,902a.9.9,0,0,1,1.1.08,2.87,2.87,0,0,0,1.85.76,2.61,2.61,0,0,0,2.27-1.35h.34l50.94-.76h.14a11.1,11.1,0,0,0,10.51-9l4.2-24Z"/><path class="cls-2" d="M835.31,865.39l-24.12,1.12,25.53,7-3,12.11a11.35,11.35,0,0,1-10.62,8.66H823L772.4,895h-.34a2.6,2.6,0,0,1-4.12.59.89.89,0,0,0-1.1-.08,4.19,4.19,0,0,1-2.36.84,2.56,2.56,0,0,1-2-.93.89.89,0,0,0-1.18-.08,4.37,4.37,0,0,1-2.78,1,3.16,3.16,0,0,1-2.53-1.18,1.11,1.11,0,0,0-.34-.25h-.08l-.76.25a4.36,4.36,0,0,0-.59.25c-.08.08-.25.17-.34.25-2.36,1.68-1.68,5.73,1.52,5.73h4.8a3.28,3.28,0,0,0,2.7,1.35,4.84,4.84,0,0,0,3-1.18c.08-.08.17-.08.25-.17h.67c.08.08.25.08.34.25a3.46,3.46,0,0,0,2.53,1.18,4.87,4.87,0,0,0,2.78-1,.82.82,0,0,1,1.18.08,2.57,2.57,0,0,0,2,.93A4.29,4.29,0,0,0,778,902a.9.9,0,0,1,1.1.08,2.87,2.87,0,0,0,1.85.76,2.61,2.61,0,0,0,2.27-1.35h.34l47.43-.76c9.08,1.3,11.71-3.46,13.65-7l4.79-25.91Z"/><path class="cls-2" d="M790.84,882.53s7.41,13.06,21.31,17.77H798.08Z"/><path class="cls-3" d="M752.85,905h86.94a2.36,2.36,0,1,0,0-4.72H750.58v2.36A2.34,2.34,0,0,0,752.85,905Z"/><path class="cls-3" d="M750.58,900.3a12.06,12.06,0,0,1,8.09-10.95l28.81-10a2.17,2.17,0,0,1,2.86,1.52c1.26,4.21,4.38,13.23,10.53,19.46h38.92a2.36,2.36,0,0,1,2.36,2.36,2.3,2.3,0,0,1-2.36,2.36H752.85a2.26,2.26,0,0,1-2.27-2.27V900.3Z"/><path class="cls-4" d="M750.58,900.3a12.06,12.06,0,0,1,8.09-10.95l28.81-10a2.17,2.17,0,0,1,2.86,1.52c1.26,4.21,4.38,13.23,10.53,19.46h38.92a2.36,2.36,0,0,1,2.36,2.36,2.3,2.3,0,0,1-2.36,2.36H752.85a2.26,2.26,0,0,1-2.27-2.27V900.3Z"/><path class="cls-5" d="M750.58,900.3a12,12,0,0,1,5.39-9.6c-4.13,2.95-3.37,5.9,2.53,5.64,30.41-1.43,34.37-1.43,37.91-1.77a.31.31,0,0,1-.08-.25,35.39,35.39,0,0,0,4.63,6H839.8a2.36,2.36,0,0,1,2.36,2.36A2.3,2.3,0,0,1,839.8,905H752.86a2.26,2.26,0,0,1-2.27-2.27Z"/><path class="cls-5" d="M750.58,899.54h49.61l.68.76H750.58Z"/><path class="cls-6" d="M1060.56,738.26H953.93A11,11,0,0,1,943.49,724l11.58-236.71a10.92,10.92,0,0,1,10.44-7.94h106.63a11,11,0,0,1,10.44,14.22L1071,730.32A10.94,10.94,0,0,1,1060.56,738.26Z"/><path class="cls-7" d="M1045.89,738.26H953A11,11,0,0,1,942.58,724l11.58-236.71a10.92,10.92,0,0,1,10.44-7.94h92.87a11,11,0,0,1,10.44,14.22l-11.57,236.71A10.94,10.94,0,0,1,1045.89,738.26Z"/><path class="cls-7" d="M1028,738.26H915.15a9.53,9.53,0,0,1,0-19.06H1028a9.53,9.53,0,1,1,0,19.06Z"/><path class="cls-7" d="M1009.22,886.69h-97v9.6h97Z"/><path class="cls-7" d="M921.23,894.37a9.15,9.15,0,1,1-10.52-7.53A9.15,9.15,0,0,1,921.23,894.37Z"/><path class="cls-7" d="M910.71,886.84a9.47,9.47,0,0,1,1.5-.11v0h97v9.6H921.34a9.15,9.15,0,1,1-10.63-9.45Z"/><path class="cls-6" d="M1046,886.69H949v9.6h97Z"/><path class="cls-6" d="M958,894.37a9.15,9.15,0,1,1-10.52-7.53A9.15,9.15,0,0,1,958,894.37Z"/><path class="cls-6" d="M1001.06,732.54h-9.6V890.62h9.6Z"/><path class="cls-6" d="M1055,894.37a9.15,9.15,0,1,1-10.52-7.53A9.15,9.15,0,0,1,1055,894.37Z"/><path class="cls-6" d="M1057.56,738.26H944.71a9.53,9.53,0,0,1,0-19.06h112.85a9.53,9.53,0,0,1,0,19.06Z"/><path class="cls-8" d="M1166.61,656.34h-7.3V905h7.3Z"/><path class="cls-8" d="M1159.31,656.34h-77.22V905h77.22Z"/><path class="cls-9" d="M1159.31,656.34h-77.22V905h77.22Z"/><path class="cls-8" d="M1176,642.11H662.34v14.22H1176a7.11,7.11,0,0,0,0-14.22Z"/><path class="cls-10" d="M811.18,866.51l38.2,1.3,15.5-148.21h148.69v-63h-174l-1.38,0c-13.46.68-23.9,12.11-24.11,25.59Z"/><path class="cls-1" d="M880.1,863.56a44.57,44.57,0,0,1-1,6.69c-2.48,7-10.36,9.16-17.35,11.44l-38.33,13.56c-3.45,1.1-3,6.15.59,6.15h4.8a3.28,3.28,0,0,0,2.7,1.35,4.84,4.84,0,0,0,2.95-1.18c.08-.08.17-.08.25-.17h.67c.08.08.25.08.34.25a3.46,3.46,0,0,0,2.53,1.18,4.87,4.87,0,0,0,2.78-1,.82.82,0,0,1,1.18.08,2.57,2.57,0,0,0,2,.93,4.29,4.29,0,0,0,2.36-.84.9.9,0,0,1,1.1.08,2.87,2.87,0,0,0,1.85.76,2.61,2.61,0,0,0,2.27-1.35h.34l50.94-.76h.14a11.1,11.1,0,0,0,10.51-9l4.86-24Z"/><path class="cls-2" d="M903.83,865.39l-24.22,2.32,25.62,5.76-3,12.11a11.35,11.35,0,0,1-10.62,8.66h-.14l-50.55.76h-.34a2.6,2.6,0,0,1-4.12.59.89.89,0,0,0-1.1-.08,4.19,4.19,0,0,1-2.36.84,2.56,2.56,0,0,1-2-.93.89.89,0,0,0-1.18-.08,4.37,4.37,0,0,1-2.78,1,3.16,3.16,0,0,1-2.53-1.18,1.11,1.11,0,0,0-.34-.25h-.08l-.76.25a4.36,4.36,0,0,0-.59.25c-.08.08-.25.17-.34.25-2.36,1.68-1.68,5.73,1.52,5.73h4.8a3.28,3.28,0,0,0,2.7,1.35,4.84,4.84,0,0,0,3-1.18c.08-.08.17-.08.25-.17h.67c.08.08.25.08.34.25a3.46,3.46,0,0,0,2.53,1.18,4.87,4.87,0,0,0,2.78-1,.82.82,0,0,1,1.18.08,2.57,2.57,0,0,0,2,.93,4.29,4.29,0,0,0,2.36-.84.9.9,0,0,1,1.1.08,2.87,2.87,0,0,0,1.85.76,2.61,2.61,0,0,0,2.27-1.35H852l47.43-.76c9.08,1.3,11.71-3.46,13.65-7l5.45-25.91Z"/><path class="cls-2" d="M859.36,882.53s7.41,13.06,21.31,17.77H866.6Z"/><path class="cls-11" d="M829.69,867.14l19.7.67,15.5-148.21h148.69v-63H864.8c-5.56,0-10.91,2.91-15.39,7.1a34.55,34.55,0,0,0-10.65,23.56Z"/><path class="cls-3" d="M821.37,905h86.94a2.36,2.36,0,1,0,0-4.72H819.1v2.36A2.34,2.34,0,0,0,821.37,905Z"/><path class="cls-3" d="M819.1,900.3a12.06,12.06,0,0,1,8.09-10.95l28.81-10a2.17,2.17,0,0,1,2.86,1.52c1.26,4.21,4.38,13.23,10.53,19.46h38.92a2.36,2.36,0,0,1,2.36,2.36,2.3,2.3,0,0,1-2.36,2.36H821.37a2.26,2.26,0,0,1-2.27-2.27Z"/><path class="cls-4" d="M819.1,900.3a12.06,12.06,0,0,1,8.09-10.95l28.81-10a2.17,2.17,0,0,1,2.86,1.52c1.26,4.21,4.38,13.23,10.53,19.46h38.92a2.36,2.36,0,0,1,2.36,2.36,2.3,2.3,0,0,1-2.36,2.36H821.37a2.26,2.26,0,0,1-2.27-2.27Z"/><path class="cls-5" d="M819.1,900.3a12,12,0,0,1,5.39-9.6c-4.13,2.95-3.37,5.9,2.53,5.64,30.41-1.43,34.37-1.43,37.91-1.77a.31.31,0,0,1-.08-.25,35.39,35.39,0,0,0,4.63,6h38.84a2.36,2.36,0,0,1,2.36,2.36,2.3,2.3,0,0,1-2.36,2.36H821.38a2.26,2.26,0,0,1-2.27-2.27Z"/><path class="cls-5" d="M819.1,899.54h49.62l.67.76H819.1Z"/><path class="cls-10" d="M879.61,867.71l38.95.1L951.32,719.6H1021a24,24,0,0,0,24-24v-39H928a27.44,27.44,0,0,0-25.36,17Z"/><path class="cls-11" d="M927.14,706.21c6.32-12.3,13.31-15.92,27.13-15.92h71.91l-3.62-33.7h22v39.77a23.24,23.24,0,0,1-23.24,23.24H951.42L918.58,867.81l-18,0Z"/><path class="cls-3" d="M878,642,894.87,526a29.51,29.51,0,0,1,22.32-24.43l45.07-10.7,45.41.42,41.95,10a29.5,29.5,0,0,1,22.32,33.11l-4.89,32.18-8.26,17.86a21.92,21.92,0,0,0-.93,3L1045,642.11Z"/><path class="cls-12" d="M919.16,554.12l103.76,4.17-2.21,21.43L917.05,575Z"/><path class="cls-11" d="M1018.28,602.77l6.66-65.46a.69.69,0,0,0-1.35-.25l-20.72,68Z"/><path class="cls-13" d="M894.53,633a2.51,2.51,0,0,0,3.45.42l14.91-11-18.95,8.68A2.49,2.49,0,0,0,894.53,633Z"/><path class="cls-11" d="M920.9,537l-8,78.93-7,6.91-6.4-4.21,14-75.82C914.92,536.56,920.9,536.05,920.9,537Z"/><path class="cls-12" d="M1007.75,491.24s.84,3.45-1.85,5.14c-3,1.77-14.74,9.6-31.25,4.63A35.21,35.21,0,0,1,964.46,496a5.16,5.16,0,0,1-2.11-3.45v-1.6l-4.63,1.1a9.25,9.25,0,0,0,2.78,6.49c1.35,1.35,21.31,16.76,46.75,2.53a8.44,8.44,0,0,0,5-8.68Z"/><path class="cls-1" d="M943.9,613.64l-12,1.6L906.41,613a8.56,8.56,0,0,0-5.9,2.53l-15.75,14.07a2.51,2.51,0,0,0,3.2,3.87l14.91-11L893.18,634a2.45,2.45,0,0,0,1,3.88,2.49,2.49,0,0,0,2.53-.51l13-12.72-9.86,9.69a2.28,2.28,0,0,0,2.95,3.46l13.82-10.11-9.35,6.91a2,2,0,0,0,0,3.2,2,2,0,0,0,1.94.25l12.55-5.22a4.56,4.56,0,0,1,3.79.08l4.8,2.36a28.32,28.32,0,0,0,12.55,2.95h7.83C961.93,638.16,943.9,613.64,943.9,613.64Z"/><path class="cls-2" d="M907.25,635a.31.31,0,0,0,.25-.08l8.59-6.32a.42.42,0,0,0-.51-.67L907,634.2a.41.41,0,0,0-.08.59A.7.7,0,0,0,907.25,635Z"/><path class="cls-2" d="M899.93,634.7c.08,0,.25,0,.25-.08l9.27-9.1a.42.42,0,0,0-.59-.59l-9.27,9.1a.41.41,0,0,0,0,.59A.52.52,0,0,0,899.93,634.7Z"/><path class="cls-2" d="M919,631.25c-2.86,1.43-7.67,3.88-9.35,4.8-2.36,1.35-3-.42-3-.42a2.06,2.06,0,0,0,.76,2.11,2,2,0,0,0,1.94.25l12.55-5.22a4.56,4.56,0,0,1,3.79.08l-2.44-1.43A4.66,4.66,0,0,0,919,631.25Z"/><path class="cls-3" d="M945.84,614.65,1018.2,604l4.72-45.83,45.15,2.27L1058.89,619a22.61,22.61,0,0,1-22.32,19.12h-82.3Z"/><path class="cls-3" d="M936,614.65l82.22-10.53,4.72-45.83,45.15,2.27-9.18,58.55a22.61,22.61,0,0,1-22.32,19.12H944.16Z"/><path class="cls-12" d="M944.15,613.64l-8.17,1,8.09,23.51h10.11Z"/><g class="cls-14"><path class="cls-11" d="M943.31,613.05a.62.62,0,0,0,.59.51H944l74.3-10.78.17-1.35L943.81,612.3A.65.65,0,0,0,943.31,613.05Z"/></g><path class="cls-2" d="M942.72,633.94l1.35,4.13h92.41A22.55,22.55,0,0,0,1058.8,619L1072,534.29a29.51,29.51,0,0,0-22.32-33.11l-7.83-1.85a29.46,29.46,0,0,1,17.19,31.34l-12.22,78a22.61,22.61,0,0,1-22.32,19.12Z"/><path class="cls-2" d="M934.55,634a3.4,3.4,0,0,0,3.29-3.71L936,614.65l8.17,23.5H943a28,28,0,0,1-12.55-2.95l-5.73-2.7C926,632.68,929.58,634,934.55,634Z"/><path class="cls-4" d="M955.36,637.48H872.3a1.29,1.29,0,0,0-1.26,1.26v2.11a1.29,1.29,0,0,0,1.26,1.26h83.06a1.29,1.29,0,0,0,1.26-1.26v-2.11A1.24,1.24,0,0,0,955.36,637.48Z"/><path class="cls-15" d="M955.36,637.48H872.3a1.29,1.29,0,0,0-1.26,1.26v2.11a1.29,1.29,0,0,0,1.26,1.26h83.06a1.29,1.29,0,0,0,1.26-1.26v-2.11A1.24,1.24,0,0,0,955.36,637.48Z"/><path class="cls-4" d="M899.34,637.48H754.52a1.29,1.29,0,0,0-1.26,1.26v2.11a1.29,1.29,0,0,0,1.26,1.26H899.33a1.29,1.29,0,0,0,1.26-1.26v-2.11A1.35,1.35,0,0,0,899.34,637.48Z"/><g class="cls-16"><path class="cls-15" d="M756.38,638.32H903.8a.42.42,0,1,0,0-.84H756.38a.4.4,0,0,0-.42.42A.45.45,0,0,0,756.38,638.32Z"/></g><path class="cls-4" d="M899.67,637.48H877.85a3.51,3.51,0,0,1-3.45-2.86L856.12,538.5a3.47,3.47,0,0,1,3.45-4.13h21.82a3.51,3.51,0,0,1,3.45,2.86l18.28,96.12A3.51,3.51,0,0,1,899.67,637.48Z"/><path class="cls-15" d="M899.67,637.48H877.85a3.51,3.51,0,0,1-3.45-2.86L856.12,538.5a3.47,3.47,0,0,1,3.45-4.13h21.82a3.51,3.51,0,0,1,3.45,2.86l18.28,96.12A3.51,3.51,0,0,1,899.67,637.48Z"/><path class="cls-4" d="M896.56,637.48H756.46a3.51,3.51,0,0,1-3.45-2.86L734.73,538.5a3.47,3.47,0,0,1,3.45-4.13h140a3.51,3.51,0,0,1,3.45,2.86l18.28,96.12A3.41,3.41,0,0,1,896.56,637.48Z"/><path class="cls-15" d="M816.53,583.23c.84,1.94-.08,3.62-2,3.62h-.34c2.27,2.53,5.73,4.3,8.76,4.21,4.13-.08,6.07-3.45,4.21-7.58s-6.66-7.33-10.78-7.24c-2.61.08-4.38,1.43-4.8,3.54A6.09,6.09,0,0,1,816.53,583.23Z"/><path class="cls-1" d="M958.56,441.11s38.58-28.31,42.37,2.53l1.1,8.09,5.73,39.51v.08l.08.84a4,4,0,0,1-.84,3.12v.08l-.08.08a3.64,3.64,0,0,1-1,.93,38.62,38.62,0,0,1-7.67,3.88,36.06,36.06,0,0,1-34.79-5.05,4.82,4.82,0,0,1-1.1-3.37l.67-20.55a34.11,34.11,0,0,1-1.35-7.08C960.41,452.07,958.56,441.11,958.56,441.11Z"/><path class="cls-4" d="M954.18,443.3a13.73,13.73,0,1,0-13.73-13.73A13.73,13.73,0,0,0,954.18,443.3Z"/><path class="cls-1" d="M952.41,419.63s-9.94,61.24,21.31,63c27,1.6,26.87-40.27,26.87-40.27l-3.29-27Z"/><path class="cls-4" d="M954.43,423.26h27.46a6.22,6.22,0,0,1,6.23,6.23,6.22,6.22,0,0,0,6.23,6.23A1.68,1.68,0,0,1,996,437.4v6.07a1.42,1.42,0,0,0,1.43,1.43,1.38,1.38,0,0,0,1.35-1.18l.84-5.81,1.1-2,6.74,3.54s9.27-16.85,3.2-31.09c-3.45-8.17-12-10.45-15.84-10.7a4.42,4.42,0,0,1-3.2-1.77c-1.77-2.61-6-7-14.57-6a14.36,14.36,0,0,0-11.63,7.67,4.34,4.34,0,0,1-5.14,1.94,11.91,11.91,0,0,0-11.46,1.68C940.11,407.25,944.83,422.5,954.43,423.26Z"/><path class="cls-2" d="M1002.36,453.75s-2.53.42-4-.59l4.8,6.4Z"/><path class="cls-1" d="M999.67,437.83a5.52,5.52,0,0,1,7.67-3.62c6.91,2.44,6.74,17.86-4.63,19.54-6,.93-5-2.61-4.3-7.33Z"/><path class="cls-17" d="M1007.92,438.08a4.2,4.2,0,0,0-3.37-.59,4.3,4.3,0,0,0-2.44,2.27,8.71,8.71,0,0,0-.84,4.21v1.36a.72.72,0,1,0,1.43-.09v-1.35a8.38,8.38,0,0,1,.67-3.54,3,3,0,0,1,1.6-1.6,3.1,3.1,0,0,1,2.27.51.69.69,0,0,0,.93-.25A.72.72,0,0,0,1007.92,438.08Z"/><path class="cls-1" d="M954.35,424.52l3.2.08a.63.63,0,1,0,.08-1.26l-3.2-.08a4.73,4.73,0,0,1-1.18-.17,15.54,15.54,0,0,1-3.79-1.52.62.62,0,1,0-.59,1.09,14.73,14.73,0,0,0,4.13,1.6A3.15,3.15,0,0,0,954.35,424.52Z"/><path class="cls-2" d="M962.35,488.37l.34-9.77c2.78,2.53,10.53,5.81,18.7,3.2h0a20.57,20.57,0,0,0,10.28-7.5.61.61,0,0,1,1,.67A22.43,22.43,0,0,1,979,483.65,22,22,0,0,1,962.35,488.37Z"/><g class="cls-18"><path class="cls-17" d="M970.44,470.6h3.79a.84.84,0,1,0,0-1.68h-3.71a.84.84,0,0,0-.84.84A1.11,1.11,0,0,0,970.44,470.6Z"/></g><g class="cls-18"><path class="cls-17" d="M968.92,467.14c6.82.51,9.6-3.37,10.53-5.31a.75.75,0,1,0-1.35-.67c-.93,1.85-4,6-12.3,3.88a.78.78,0,1,0-.34,1.52A17.62,17.62,0,0,0,968.92,467.14Z"/></g><path class="cls-4" d="M976.75,450.29a2.44,2.44,0,1,0-2.44-2.44A2.44,2.44,0,0,0,976.75,450.29Z"/><path class="cls-12" d="M975.57,449a.51.51,0,1,0-.51-.51A.51.51,0,0,0,975.57,449Z"/><path class="cls-4" d="M957.21,451.81a2.44,2.44,0,1,0-2.44-2.44A2.44,2.44,0,0,0,957.21,451.81Z"/><path class="cls-12" d="M956,450.39a.51.51,0,1,0-.51-.51A.51.51,0,0,0,956,450.39Z"/><g class="cls-18"><path class="cls-17" d="M966.64,461.25H970a.76.76,0,0,0,0-1.52h-3.37a1.52,1.52,0,1,1,0-3,.76.76,0,0,0,0-1.52,3,3,0,0,0,0,6.08Z"/></g><path class="cls-4" d="M946.26,447.18l.17,2.78a9.71,9.71,0,0,0,19.37-1.35l-.17-2.78a3.68,3.68,0,0,0-.93-2.11l3.79-.25a3.23,3.23,0,0,0-.59,2.19l.17,2.78a9.71,9.71,0,0,0,19.37-1.35l-.17-2.78a3.52,3.52,0,0,0-3.79-3.29l-12.13.84h-.08l-9.44.67-1.43.08-10.78.76A3.78,3.78,0,0,0,946.26,447.18Zm25.19-3.88h.08l12.13-.84a2.15,2.15,0,0,1,2.27,2l.17,2.78a8.28,8.28,0,0,1-16.52,1.18l-.17-2.78A2.27,2.27,0,0,1,971.45,443.3ZM947.77,447a2.15,2.15,0,0,1,2-2.27l10.78-.76,1.43-.08a2.15,2.15,0,0,1,2.27,2l.17,2.78a8.28,8.28,0,0,1-16.52,1.18Z"/><path class="cls-12" d="M673.12,55.8H658.33V906.08h14.79Z"/><path class="cls-3" d="M869.62,411.2H468.44a1.34,1.34,0,0,1-1.34-1.34V159.32a1.34,1.34,0,0,1,1.34-1.34H869.62a1.34,1.34,0,0,1,1.34,1.34V409.85A1.34,1.34,0,0,1,869.62,411.2Z"/><path class="cls-19" d="M869.62,411.2H468.44a1.34,1.34,0,0,1-1.34-1.34V159.32a1.34,1.34,0,0,1,1.34-1.34H869.62a1.34,1.34,0,0,1,1.34,1.34V409.85A1.34,1.34,0,0,1,869.62,411.2Z"/><path class="cls-10" d="M863,411.2H461.82a1.34,1.34,0,0,1-1.34-1.34V159.32a1.34,1.34,0,0,1,1.34-1.34H863a1.34,1.34,0,0,1,1.34,1.34V409.85A1.33,1.33,0,0,1,863,411.2Z"/><path class="cls-3" d="M856.33,166.07H468.49v237H856.33v-237Z"/><path class="cls-20" d="M856.33,166.07H571.08v237H856.33Z"/><path class="cls-21" d="M571.08,166.07H468.49v237H571.08v-237Z"/><path d="M440.73,558.43a4.27,4.27,0,1,0-4.27-4.27A4.27,4.27,0,0,0,440.73,558.43Z"/><path class="cls-12" d="M440.73,555.65a1.49,1.49,0,1,0-1.49-1.49A1.49,1.49,0,0,0,440.73,555.65Z"/><path class="cls-22" d="M440.73,551.41V382.09h19.75"/><path d="M807,525.52a4.27,4.27,0,1,0-4.27-4.27A4.27,4.27,0,0,0,807,525.52Z"/><path class="cls-12" d="M807,522.74a1.49,1.49,0,1,0-1.49-1.49A1.49,1.49,0,0,0,807,522.74Z"/><path class="cls-22" d="M807,518.49V411.2"/><path class="cls-12" d="M716.2,191.25H592.52v4.5H716.2Z"/><path class="cls-12" d="M651.16,206.88H592.52v4.5h58.64Z"/><path class="cls-12" d="M668.74,222.52H610.1V227h58.64Z"/><path class="cls-23" d="M715.45,309.17H592.52v4.5H715.45Z"/><path class="cls-12" d="M655.6,324.85H592.52v4.5H655.6Z"/><path class="cls-12" d="M655.6,340.53H592.52V345H655.6Z"/><path class="cls-12" d="M697.35,360.18H634.27v4.5h63.08Z"/><path class="cls-12" d="M738.73,360.18H711.26v4.5h27.47Z"/><path class="cls-12" d="M701.89,379.84H674.42v4.5h27.47Z"/><path class="cls-12" d="M780.19,379.84H720.47v4.5h59.72Z"/><path class="cls-12" d="M829.31,379.84H788v4.5h41.31v-4.5Z"/><path class="cls-12" d="M822.37,360.18H753.64v4.5h68.73Z"/><path class="cls-24" d="M732.11,324.85H669v4.5h63.08Z"/><path class="cls-25" d="M819,309.17H732.52v4.5H819Z"/><path class="cls-25" d="M727.88,206.88H669.24v4.5h58.64Z"/><path class="cls-12" d="M689.69,239.62H631.05v4.5h58.64Z"/><path class="cls-24" d="M744.29,239.62H709.86v4.5h34.43Z"/><path class="cls-12" d="M838.14,239.62H760.35v4.5h77.79Z"/><path class="cls-12" d="M666.45,257.58h-35.4v4.5h35.4Z"/><path class="cls-12" d="M744.29,257.58H686.62v4.5h57.67Z"/><path class="cls-12" d="M838.14,257.58H752.32v4.5h85.82Z"/><path class="cls-12" d="M700.58,275.54H631.05V280h69.53Z"/><path class="cls-25" d="M755.18,275.54H709.86V280h45.32v-4.5Z"/><path class="cls-12" d="M842.82,275.54H765V280h77.79Z"/><path class="cls-12" d="M689.69,293.5H631.05V298h58.64Z"/><path class="cls-12" d="M744.29,293.5H709.86V298h34.43Z"/><path class="cls-12" d="M838.14,293.5H760.35V298h77.79Z"/><path class="cls-26" d="M830.49,206.88H742.76v4.5h87.73Z"/><g class="cls-27"><path class="cls-21" d="M491.41,186.74H477.89v13.52h13.52Z"/><path class="cls-21" d="M560.54,191.25H502.91v4.5h57.63Z"/><path class="cls-21" d="M491.41,206.88H477.89V220.4h13.52Z"/><path class="cls-21" d="M560.54,211.39H502.91v4.5h57.63Z"/><path class="cls-21" d="M491.41,227H477.89v13.52h13.52Z"/><path class="cls-21" d="M560.54,231.53H502.91V236h57.63Z"/><path class="cls-21" d="M510.13,248.57H496.61v13.52h13.52Z"/><path class="cls-21" d="M560.55,253.07H521.64v4.5h38.91Z"/><path class="cls-21" d="M510.13,269.37H496.61v13.52h13.52Z"/><path class="cls-21" d="M560.55,273.88H521.64v4.5h38.91Z"/><path class="cls-21" d="M510.13,290.18H496.61V303.7h13.52Z"/><path class="cls-21" d="M560.55,294.68H521.64v4.5h38.91Z"/><path class="cls-21" d="M491.41,313.32H477.89v13.52h13.52Z"/><path class="cls-21" d="M560.54,317.83H502.91v4.5h57.63Z"/><path class="cls-21" d="M510.13,334.87H496.61v13.52h13.52Z"/><path class="cls-21" d="M560.55,339.38H521.64v4.5h38.91Z"/><path class="cls-21" d="M510.13,355.68H496.61V369.2h13.52Z"/><path class="cls-21" d="M560.55,360.18H521.64v4.5h38.91Z"/><path class="cls-21" d="M510.13,376.48H496.61V390h13.52Z"/><path class="cls-21" d="M560.55,381H521.64v4.5h38.91Z"/></g><g class="cls-28"><path class="cls-20" d="M581.37,191.25h-4.5v4.5h4.5Z"/><path class="cls-20" d="M581.37,206.88h-4.5v4.5h4.5Z"/><path class="cls-20" d="M581.37,222.52h-4.5V227h4.5Z"/><path class="cls-20" d="M581.37,238.15h-4.5v4.5h4.5Z"/><path class="cls-20" d="M581.37,253.79h-4.5v4.5h4.5Z"/><path class="cls-20" d="M581.37,269.42h-4.5v4.5h4.5Z"/><path class="cls-20" d="M581.37,285.05h-4.5v4.5h4.5Z"/><path class="cls-20" d="M581.37,300.69h-4.5v4.5h4.5Z"/><path class="cls-20" d="M581.37,316.32h-4.5v4.5h4.5Z"/><path class="cls-20" d="M581.37,332h-4.5v4.5h4.5Z"/><path class="cls-20" d="M581.37,347.59h-4.5v4.5h4.5Z"/><path class="cls-20" d="M581.37,363.22h-4.5v4.5h4.5Z"/><path class="cls-20" d="M581.37,378.86h-4.5v4.5h4.5Z"/></g><path class="cls-29" d="M244.7,544.14c-133.09,45.56-114.5,230-97.86,316.07a55,55,0,0,0,54,44.67h367.9a54.89,54.89,0,0,0,53.92-44.16c4.21-21.41,6.69-50.58,2.66-87.46-9.55-87.51-78.84-101-78.84-101s-87.81-14.32-122.81-59.67S333,513.91,244.7,544.14Z"/><path class="cls-30" d="M420.74,635.37l-11.35-12.68a7.16,7.16,0,0,0-4.49-2.55l-20.64-.58-33.51-6.25-13.63,14.47,29.2,5.28,2.71,1.39a18.19,18.19,0,0,0,14.7,1.21h.12l4.12-1.44a4,4,0,0,1,3.08.24l9.56,5.29a1.49,1.49,0,0,0,1.56-.06,1.69,1.69,0,0,0,.3-2.6l-6.8-6.41L405.85,640a1.88,1.88,0,0,0,1.74.44,1.81,1.81,0,0,0,.93-2.89l-7-8.71,9.23,11.36a1.84,1.84,0,0,0,2,.59,2,2,0,0,0,1.18-3l-6.74-10.11,10.92,10.11a1.92,1.92,0,0,0,2.76,0A1.76,1.76,0,0,0,420.74,635.37Z"/><path class="cls-2" d="M348.21,625.94l19.47,4.52a9.66,9.66,0,0,1,4.19,2,18.34,18.34,0,0,0,9.73,3.87s-7.07,2.18-15.31-3.2l-22.41-3.9Z"/><path class="cls-30" d="M486,902.94l46,1.41c.8-1.36,3.06-5.44.45-6.41l-31-13.48c-5.48-2.06-11.78-4.5-13-8.3-.6-.9.46-2.73.11-3.75l-3.05-46.33-23.06,5.14-2.89,40.89c.5,4.06.06,10.93.07,14.83l-.07,6.29a9,9,0,0,0,8.41,8.94h.13Z"/><path class="cls-2" d="M502.09,898.75,485.75,898h-.13a9,9,0,0,1-8.41-8.94l.07-6.29c0-3.9-1.16-10.77-1.66-14.83l2.85-40.28-16,3.57-2.89,40.89c.5,4.06.06,10.93.07,14.83l-.07,6.29a9,9,0,0,0,8.41,8.94h.13l17.93.75,46,1.41c.53-.91,1.71-3,1.66-4.63Z"/><path class="cls-10" d="M462.44,723.28H362.76a37.21,37.21,0,0,1-37.16-36.54l-.37-23.19H488.09a25.77,25.77,0,0,1,25.58,29L488.11,874.58,459.6,871l-1.06-32.17C453.81,776.54,455.47,761.75,462.44,723.28Z"/><path class="cls-11" d="M486.44,698.45a33.22,33.22,0,0,0-33.16-34.79c-49.92,0-107.06-.11-107.06-.11h-21l.37,23.19a37.21,37.21,0,0,0,37.16,36.54h99.68c-7,38.47-8.63,53.26-3.9,115.54L459.59,871,476,873.06Z"/><path class="cls-30" d="M538.19,905h45.64c.75-1.37,2.87-5.49.25-6.36L553,885.32c-5.49-1.87-9.23-3.12-12.47-7.23a12.91,12.91,0,0,1-1.62-2.87l-24.19-54.87L485,834.69l25.31,43.89c2.24,3.24,2.74,7.48,2.87,11.35l.12,6.23a9,9,0,0,0,8.6,8.6H522Z"/><path class="cls-2" d="M584.7,903c-.37.87-.75,1.62-1,2.12H538.06l-16.34-.25h-.12a8.86,8.86,0,0,1-8.6-8.6l-.12-6.23c-.12-3.87-.75-8.23-2.87-11.35L500.91,863l.5-4.36,13.84,10,8.73,21.2s8.35,11.35,33.29,12.34l24.94.87h2.49Z"/><path class="cls-10" d="M532.83,861.25l-26.56,11-16.83-27.31c-40.78-60.48-48.85-71-65.06-121.5H304.28a37.21,37.21,0,0,1-37.16-36.54l8.71-23.32,154.53.12A29.74,29.74,0,0,1,457.79,682Z"/><path class="cls-11" d="M489.44,820.35C457.27,765,457.79,759.2,443.33,713.19c-4-12.72-13.09-15.46-19.58-15.46l-56.87.37c-19.2-.5-52.5,1.5-68.33-9.23l-27.68-25.31h5l-8.46,23.19a37.12,37.12,0,0,0,37.16,36.54H424.63c17.46,52.12,24.41,61.4,65.06,121.5l16.83,27.31,9-3.74C515.37,868.48,495.17,830.32,489.44,820.35Z"/><path class="cls-4" d="M338.71,513.62a7.87,7.87,0,0,0,5,2.65c8.73,1.78,15.38,3,19.21-5,5.86-12.78,14.08-42.86,9.91-63.38-8.51,1-10.25,2.22-10.25,2.22s-9.34-7.23-9.52-7.42C353.08,442.52,327.84,498.69,338.71,513.62Z"/><path class="cls-4" d="M316,495.35l20.62-72.17c-3.35-1.9-10.79.62-13.17,1.87-31,17.57-48.61,75.28-54.69,97,7.43,22.4,40.61-9.9,45.58-12.59C316.81,508,316,495.35,316,495.35Z"/><path class="cls-30" d="M363.9,507l-37.37,45.57-27.85-42.16,2.44-4.33c.25-.09.49-.06.74-.15a7.42,7.42,0,0,0,5-7.32l8-23.54,26.54,20.69c.43,3.52,1.37,9.91,7.34,10.06Z"/><path class="cls-3" d="M291.26,507.61c1.17,0,8.3-.25,13.31,4.43,20.91,19.54,41.48,16.07,47.31-5.94l4.68.27s2.89,11.92,11,30.48c1.3,3,6.6,15.41,6.6,15.41,7.27,19.14-3.08,32-3.08,32a9.42,9.42,0,0,0-1.49,4.62s-.86,35.81,5,53.58c2.2,6.66,10.26,26.37,10.26,26.37s-49.67,1.6-69.89,10.89l-31.33,14.35c-10.12,4.7-20.83-5.15-17.1-15.73l1.77-4.94C275,654.9,288.1,635.3,287,615.79l-2.05-44.56-21.59-14.8-1.79-13.2C264.17,514.31,287.22,507.71,291.26,507.61Z"/><path class="cls-3" d="M320.68,657.5l.53-.42a3.16,3.16,0,0,1,.5-4.37l-.42-.53a3.16,3.16,0,0,1-4.37-.5l-.53.42a3.16,3.16,0,0,1-.5,4.37l.42.53A3,3,0,0,1,320.68,657.5Z"/><path class="cls-17" d="M287.74,575.19a1.79,1.79,0,0,1,2,1.66s2.33,18.68,16.78,21.37c-.81,1.07-9.73,2.36-10.26,3.86,0,0-3.78,74.07,7.28,83l-19.59,9c-10.12,4.7-20.83-5.15-17.1-15.73l1.77-4.94c6.68-18.5,19.31-36.16,18.21-55.67l-.73-40.46A1.76,1.76,0,0,1,287.74,575.19Z"/><path class="cls-3" d="M370.06,663.18l.53-.42a3.16,3.16,0,0,1,.5-4.37l-.42-.53a3.16,3.16,0,0,1-4.37-.5l-.53.42a3.16,3.16,0,0,1-.5,4.37l.42.53A3,3,0,0,1,370.06,663.18Z"/><path class="cls-17" d="M371,584.25a16.9,16.9,0,0,1-8.25,5.91l6,4.94.77-6.23A10.73,10.73,0,0,1,371,584.25Z"/><path class="cls-30" d="M407.51,663.3l-11.35-12.67a7.16,7.16,0,0,0-4.49-2.55l-23,.18-30.93-8.39-13.84,15.84,29.2,5.28,2.71,1.39a18.19,18.19,0,0,0,14.7,1.21h.12l4.12-1.44a4,4,0,0,1,3.08.24l9.56,5.29a1.49,1.49,0,0,0,1.56-.06,1.69,1.69,0,0,0,.3-2.6l-6.8-6.41,10.18,9.31a1.88,1.88,0,0,0,1.74.44,1.81,1.81,0,0,0,.93-2.89l-7-8.71,9.23,11.36a1.84,1.84,0,0,0,2,.59,2,2,0,0,0,1.18-3l-6.74-10.11,10.92,10.11a1.92,1.92,0,0,0,2.76,0C408.1,665.41,408.25,664.11,407.51,663.3Z"/><path class="cls-2" d="M389.05,665.61c-.12,0-.12,0-.22-.15l-6.27-5.87c-.1-.13-.2-.38-.06-.49s.38-.2.49-.06l6.27,5.87c.1.13.2.38.06.49Z"/><path class="cls-2" d="M394.86,666c-.12,0-.24,0-.22-.15l-6.6-8.18a.33.33,0,0,1,.52-.42l6.6,8.18a.36.36,0,0,1-.05.47C395.1,666.07,395,666.05,394.86,666Z"/><path class="cls-3" d="M261.56,543.2l-11.84,93.32a16.07,16.07,0,0,0,10,12.28l57.24,22.63,30-29.1-66.54-17.71,19.79-72.35Z"/><path class="cls-17" d="M298.54,629.46l.36-1L367,647.21l-.17.46Z"/><path class="cls-2" d="M335,653.88l19.47,4.52a9.66,9.66,0,0,1,4.19,2,18.34,18.34,0,0,0,9.73,3.87s-7.07,2.18-15.31-3.2l-22.41-3.9Z"/><path class="cls-31" d="M302.71,527.72a1.66,1.66,0,1,0-1.46-1.84A1.61,1.61,0,0,0,302.71,527.72Z"/><path class="cls-4" d="M349.67,664.78h73a1.07,1.07,0,0,1,1.07,1.07v1.9a1.07,1.07,0,0,1-1.07,1.07h-73a1.07,1.07,0,0,1-1.07-1.07v-1.9A1,1,0,0,1,349.67,664.78Z"/><path class="cls-15" d="M349.67,664.78h73a1.07,1.07,0,0,1,1.07,1.07v1.9a1.07,1.07,0,0,1-1.07,1.07h-73a1.07,1.07,0,0,1-1.07-1.07v-1.9A1,1,0,0,1,349.67,664.78Z"/><path class="cls-4" d="M398.9,664.78H530.73a1.07,1.07,0,0,1,1.07,1.07v1.9a1.07,1.07,0,0,1-1.07,1.07H398.9a1.07,1.07,0,0,1-1.07-1.07v-1.9A1.06,1.06,0,0,1,398.9,664.78Z"/><g class="cls-16"><path class="cls-15" d="M524.58,665.49H395a.36.36,0,1,1,0-.72H524.58a.32.32,0,0,1,.36.36A.38.38,0,0,1,524.58,665.49Z"/></g><path class="cls-4" d="M402.4,668.65l19.14-.22a3.28,3.28,0,0,0,3.06-2.53l15.08-84.72a3.1,3.1,0,0,0-3.13-3.65l-19.14.22a3.28,3.28,0,0,0-3.06,2.53L399.27,665A3.11,3.11,0,0,0,402.4,668.65Z"/><path class="cls-15" d="M402.4,668.65l19.14-.22a3.28,3.28,0,0,0,3.06-2.53l15.08-84.72a3.1,3.1,0,0,0-3.13-3.65l-19.14.22a3.28,3.28,0,0,0-3.06,2.53L399.27,665A3.11,3.11,0,0,0,402.4,668.65Z"/><path class="cls-4" d="M405.14,668.61l123.18-1.41a3.28,3.28,0,0,0,3.06-2.53L546.46,580a3.1,3.1,0,0,0-3.13-3.65l-123.18,1.41a3.28,3.28,0,0,0-3.06,2.53l-15,84.72A3,3,0,0,0,405.14,668.61Z"/><path class="cls-15" d="M474.86,620.13c-.69,1.67.16,3.21,1.82,3.19h.24a10.41,10.41,0,0,1-7.69,3.77c-3.69-.08-5.39-3-3.76-6.62a11.11,11.11,0,0,1,9.44-6.53,4.32,4.32,0,0,1,4.32,3A5.61,5.61,0,0,0,474.86,620.13Z"/><path class="cls-30" d="M336.81,501.2l-1.68-.26c-12.49-1.94-21.31-14.56-19.37-27.05l4.75-31.64a7.63,7.63,0,0,1,8.65-6.38l29.59,4.48a9.91,9.91,0,0,1,8.31,11.29l-4.43,29.47C360.72,493.48,349.77,503.57,336.81,501.2Z"/><path class="cls-12" d="M339.62,484.72l.62,1.38a5.61,5.61,0,0,0,9.21,1.2L350.6,486c.24-.29.14-.71-.23-.72l-10.27-1.09C339.77,484,339.49,484.42,339.62,484.72Z"/><path class="cls-4" d="M338.77,470.54a2.5,2.5,0,1,0-1.45-3.22A2.44,2.44,0,0,0,338.77,470.54Z"/><path class="cls-12" d="M340.3,469.85a.47.47,0,1,0-.28-.61A.52.52,0,0,0,340.3,469.85Z"/><path class="cls-4" d="M357.5,474.46a2.5,2.5,0,1,0-1.45-3.22A2.44,2.44,0,0,0,357.5,474.46Z"/><path class="cls-12" d="M359.19,473.7a.47.47,0,1,0-.28-.61A.52.52,0,0,0,359.19,473.7Z"/><g class="cls-32"><path class="cls-17" d="M348.26,481.39,345,481c-.38,0-.74-.41-.61-.74s.41-.74.74-.61l3.3.36a1.47,1.47,0,0,0,.34-2.92c-.38,0-.74-.41-.61-.74s.41-.74.74-.61a3,3,0,0,1,2.58,3.27A2.8,2.8,0,0,1,348.26,481.39Z"/></g><path class="cls-4" d="M372.65,461l1.22.46c2.42-34.56-31.13-47-50.57-36.34-11.74,6.48-21.09,20.74-21.09,20.74.48,6.79,6.09,14.13,6.9,19,.33,2.16,5.6-5.38,7.47-5.94.26,0,1.37,2.43,2.13,4.11a1.36,1.36,0,0,0,2.48.18,36.58,36.58,0,0,0,4-11.84l.53-3.74c8.38.38,34.17.11,39.8.34,1.39,0,1.79,2.33,1.66,3.68l-2.78,18.4,6.19-6.94Z"/><path class="cls-30" d="M317.08,475.41s-10.94-.33-12-11.29,12.36-11.47,13.15-.48l.19,11.9Z"/><path class="cls-17" d="M309,458.76a4.07,4.07,0,0,1,3.37-.5,4,4,0,0,1,2.39,2.43,9.22,9.22,0,0,1,.76,4.36l-.05,1.13c-.07.86-1.51.95-1.5-.06l.09-1.24a8.57,8.57,0,0,0-.57-3.52,2.87,2.87,0,0,0-1.55-1.61,3.31,3.31,0,0,0-2.31.4.73.73,0,0,1-.93-.23A.9.9,0,0,1,309,458.76Z"/><path class="cls-12" d="M362.28,462.54a9.76,9.76,0,0,0-8,2.8,9,9,0,0,0-6.05-1.15,10.17,10.17,0,0,0-8.09-6.5,9.92,9.92,0,1,0,8.66,11,8.35,8.35,0,0,0-.17-3.24,8.37,8.37,0,0,1,4.9.84,10.25,10.25,0,0,0-2,5,9.92,9.92,0,0,0,19.7,2.38A10.26,10.26,0,0,0,362.28,462.54Zm-24.49,13.6a8.64,8.64,0,1,1,9.6-7.55A8.66,8.66,0,0,1,337.79,476.14Zm22.35,4.79a8.64,8.64,0,1,1,9.6-7.55A8.56,8.56,0,0,1,360.14,480.93Z"/><path class="cls-3" d="M313.93,473.33a2.14,2.14,0,1,0-1.24-2.76A2.13,2.13,0,0,0,313.93,473.33Z"/><path class="cls-2" d="M315.14,473.15a2.35,2.35,0,0,1-2.08-2.57,2.5,2.5,0,0,1,.46-1.22A2.15,2.15,0,0,0,312.4,471a2,2,0,0,0,1.9,2.37,1.71,1.71,0,0,0,1.25-.29C315.48,473.28,315.37,473.24,315.14,473.15Z"/><path class="cls-2" d="M314.91,475.1l3.74.53-5.91,7.55Z"/><path class="cls-4" d="M367.09,451.52C350,440,342.44,469.26,324.41,458.1c-16.89-10.47,7.92-26.25,7.92-26.25l17.22,3.22L370.22,446Z"/><path d="M326.28,460.21a13.19,13.19,0,0,1-5-3.66Z"/><path class="cls-33" d="M326.28,460.21a13.19,13.19,0,0,1-5-3.66"/><path class="cls-2" d="M343.52,502.92a5.54,5.54,0,0,1-.8-1.5,24.49,24.49,0,0,1-11.64-1.53.73.73,0,0,0-.56,1.34,31.73,31.73,0,0,0,3.19,1C340.11,503.68,343.52,502.92,343.52,502.92Z"/><path class="cls-4" d="M314.91,475.1s-1.28,41.93,3.74,58.2a83.86,83.86,0,0,1-8.57.61c-.63,0-1.7-13.85-2.36-13.85s-1,13.86-1.76,13.84c-6-.17-12.69-1.1-17-4-5-3.31.14-35.26,9.09-49.82C304.38,469.84,314.91,475.1,314.91,475.1Z"/><path class="cls-3" d="M356.56,506.37l5.88.42A9.22,9.22,0,0,1,371,516v31S358.94,517.38,356.56,506.37Z"/><path class="cls-17" d="M371,544.77c-4.36-10.22-13-26.34-13-26.34L371,538Z"/><path class="cls-3" d="M378.69,618.52,374.83,643s-5.38-14.33-4.42-26.16Z"/><path class="cls-17" d="M374.83,643c-5.72-14.58-4.37-26.16-4.37-26.16l2.5.51s-.6,5.11-.66,11.07C372.26,632.61,374.83,643,374.83,643Z"/><path class="cls-17" d="M268.1,538.16,257.5,613a23.94,23.94,0,0,0,16.55,26.88l.29.08,60.75,13.94-18.18,17.54-57-22.48a16.39,16.39,0,0,1-10.15-12.66l11.81-93.09c1.33-15.47,10-31.4,28.58-35.47C279.24,510.91,269.27,523,268.1,538.16Z"/><path class="cls-12" d="M315.87,569.74a3.08,3.08,0,0,1,.93,1.32,2.88,2.88,0,0,1,.15,1.61,3.14,3.14,0,0,1-1.08-2.93Z"/><path class="cls-12" d="M316.41,573a2.63,2.63,0,1,1-1.47,0A2.44,2.44,0,0,1,316.41,573Z"/><path class="cls-12" d="M316.87,576.73a3,3,0,0,1-.57-1.51,2.92,2.92,0,0,1,.25-1.59,2.91,2.91,0,0,1,.57,1.51A3,3,0,0,1,316.87,576.73Z"/><path class="cls-12" d="M317,573.31a2.55,2.55,0,0,1,1.39-.49.77.77,0,1,1-1.39.49Z"/><path class="cls-12" d="M352.92,538a3.08,3.08,0,0,1,.93,1.32A2.88,2.88,0,0,1,354,541a3.14,3.14,0,0,1-1.08-2.93Z"/><path class="cls-12" d="M353.46,541.33a2.63,2.63,0,1,1-1.47,0A2.52,2.52,0,0,1,353.46,541.33Z"/><path class="cls-12" d="M353.91,545a3,3,0,0,1-.57-1.51,2.92,2.92,0,0,1,.25-1.59,3.15,3.15,0,0,1,.32,3.1Z"/><path class="cls-12" d="M354,541.61a2.55,2.55,0,0,1,1.39-.49.77.77,0,1,1-1.39.49Z"/><path class="cls-12" d="M361.93,516.68a3.16,3.16,0,1,1,1.25,1A3,3,0,0,1,361.93,516.68Z"/><path class="cls-12" d="M364.65,518.61a2.61,2.61,0,0,1-1.29,2.5,2.61,2.61,0,0,1,1.29-2.5Z"/><path class="cls-12" d="M367.6,520.89a2.93,2.93,0,0,1-1.47-.66,3,3,0,0,1-1-1.3,2.85,2.85,0,0,1,1.47.66A3,3,0,0,1,367.6,520.89Z"/><path class="cls-12" d="M365.23,518.43a2.55,2.55,0,0,1,.63-1.33.77.77,0,1,1,.62.55A2.58,2.58,0,0,1,365.23,518.43Z"/><path class="cls-12" d="M303.23,603.39a3.08,3.08,0,0,1,.93,1.32,2.88,2.88,0,0,1,.15,1.61,3.14,3.14,0,0,1-1.08-2.93Z"/><path class="cls-12" d="M303.77,606.68a2.63,2.63,0,1,1-1.47,0A2.52,2.52,0,0,1,303.77,606.68Z"/><path class="cls-12" d="M304.23,610.38a3,3,0,0,1-.57-1.51,2.92,2.92,0,0,1,.25-1.59,3.15,3.15,0,0,1,.32,3.1Z"/><path class="cls-12" d="M304.31,607a2.55,2.55,0,0,1,1.39-.49.77.77,0,1,1-1.39.49Z"/><path class="cls-12" d="M365.08,574.9a3.08,3.08,0,0,1,.93,1.32,2.88,2.88,0,0,1,.15,1.61,3.14,3.14,0,0,1-1.08-2.93Z"/><path class="cls-12" d="M365.62,578.19a2.44,2.44,0,0,1-1.22.81,2.52,2.52,0,0,1-1.47,0,2.63,2.63,0,0,1,2.69-.84Z"/><path class="cls-12" d="M366.07,581.89a3,3,0,0,1-.57-1.51,2.92,2.92,0,0,1,.25-1.59,3.15,3.15,0,0,1,.32,3.1Z"/><path class="cls-12" d="M366.16,578.47a2.55,2.55,0,0,1,1.39-.49.77.77,0,1,1-1.39.49Z"/><path class="cls-12" d="M316.8,635.47a3.08,3.08,0,0,1,.93,1.32,2.88,2.88,0,0,1,.15,1.61,3.08,3.08,0,0,1-.93-1.32A2.89,2.89,0,0,1,316.8,635.47Z"/><path class="cls-12" d="M317.34,638.76a2.63,2.63,0,1,1-1.47,0A2.44,2.44,0,0,1,317.34,638.76Z"/><path class="cls-12" d="M317.79,642.45a3,3,0,0,1-.57-1.51,2.92,2.92,0,0,1,.25-1.59,3.15,3.15,0,0,1,.32,3.1Z"/><path class="cls-12" d="M317.88,639a2.55,2.55,0,0,1,1.39-.49.77.77,0,1,1,0,.83A2.62,2.62,0,0,1,317.88,639Z"/><path class="cls-12" d="M351.66,615.77a3.08,3.08,0,0,1,.93,1.32,2.88,2.88,0,0,1,.15,1.61,3.14,3.14,0,0,1-1.08-2.93Z"/><path class="cls-12" d="M352.2,619.06a2.63,2.63,0,1,1-1.47,0A2.44,2.44,0,0,1,352.2,619.06Z"/><path class="cls-12" d="M352.66,622.76a3,3,0,0,1-.57-1.51,2.92,2.92,0,0,1,.25-1.59,2.91,2.91,0,0,1,.57,1.51A3.13,3.13,0,0,1,352.66,622.76Z"/><path class="cls-12" d="M352.74,619.34a2.55,2.55,0,0,1,1.39-.49.77.77,0,1,1-1.39.49Z"/><path class="cls-12" d="M291.84,648.5a3.08,3.08,0,0,1,.93,1.32,2.88,2.88,0,0,1,.15,1.61,3.14,3.14,0,0,1-1.08-2.93Z"/><path class="cls-12" d="M292.38,651.79a2.63,2.63,0,1,1-1.47,0A2.44,2.44,0,0,1,292.38,651.79Z"/><path class="cls-12" d="M292.84,655.48a3,3,0,0,1-.57-1.51,2.92,2.92,0,0,1,.25-1.59,2.91,2.91,0,0,1,.57,1.51A3.11,3.11,0,0,1,292.84,655.48Z"/><path class="cls-12" d="M292.92,652.07a2.55,2.55,0,0,1,1.39-.49.77.77,0,1,1,0,.83A2.64,2.64,0,0,1,292.92,652.07Z"/><path class="cls-12" d="M277,678.58a3.08,3.08,0,0,1,.93,1.32,2.88,2.88,0,0,1,.15,1.61,3.14,3.14,0,0,1-1.08-2.93Z"/><path class="cls-12" d="M277.55,681.87a2.63,2.63,0,1,1-1.47,0A2.44,2.44,0,0,1,277.55,681.87Z"/><path class="cls-12" d="M278,685.57a3,3,0,0,1-.57-1.51,2.92,2.92,0,0,1,.25-1.59,3.15,3.15,0,0,1,.32,3.1Z"/><path class="cls-12" d="M278.09,682.15a2.55,2.55,0,0,1,1.39-.49.77.77,0,1,1-1.39.49Z"/><path class="cls-12" d="M270.36,614.17a3.15,3.15,0,1,1,1.13,1.15A3,3,0,0,1,270.36,614.17Z"/><path class="cls-12" d="M272.85,616.39a2.45,2.45,0,0,1-.44,1.4,2.5,2.5,0,0,1-1.12.94,2.61,2.61,0,0,1,1.56-2.34Z"/><path class="cls-12" d="M275.53,619a3.05,3.05,0,0,1-1.39-.81,3,3,0,0,1-.81-1.4,3.15,3.15,0,0,1,2.2,2.21Z"/><path class="cls-12" d="M273.45,616.27a2.59,2.59,0,1,1,1.32-.63A2.63,2.63,0,0,1,273.45,616.27Z"/><path class="cls-12" d="M293.14,563.61a3,3,0,0,1-1.56.41.84.84,0,1,1,0-.83A3.16,3.16,0,0,1,293.14,563.61Z"/><path class="cls-12" d="M289.87,563a2.61,2.61,0,0,1,.15-2.82,2.48,2.48,0,0,1,.34,1.43A2.52,2.52,0,0,1,289.87,563Z"/><path class="cls-12" d="M286.24,562.11a3,3,0,0,1,1.61,0,3,3,0,0,1,1.41.79,3,3,0,0,1-1.61,0A3,3,0,0,1,286.24,562.11Z"/><path class="cls-12" d="M289.42,563.38a2.61,2.61,0,0,1-.85,2.69,2.44,2.44,0,0,1,0-1.47A2.53,2.53,0,0,1,289.42,563.38Z"/><path class="cls-12" d="M272.68,540a3.08,3.08,0,0,1,.93,1.32,2.88,2.88,0,0,1,.15,1.61,3.08,3.08,0,0,1-.93-1.32A2.88,2.88,0,0,1,272.68,540Z"/><path class="cls-12" d="M273.22,543.28a2.44,2.44,0,0,1-1.22.81,2.52,2.52,0,0,1-1.47,0,2.63,2.63,0,0,1,2.69-.84Z"/><path class="cls-12" d="M273.67,547a3,3,0,0,1-.57-1.51,2.92,2.92,0,0,1,.25-1.59,3.15,3.15,0,0,1,.32,3.1Z"/><path class="cls-12" d="M273.76,543.56a2.55,2.55,0,0,1,1.39-.49.77.77,0,1,1,0,.83A2.6,2.6,0,0,1,273.76,543.56Z"/><path class="cls-34" d="M244.7,544.14S186,680,284.15,707.09c42,11.57,89.16-6.14,116-2,48.22,7.37,68.18,109.87,48.38,199.82H202a62.47,62.47,0,0,1-61.9-53.73c-7.66-54.71-13.28-141.35,11.77-212.45C178.54,563.05,244.7,544.14,244.7,544.14Z"/><path class="cls-10" d="M169.77,854.21l-.68-.14c.14-.55,7.39-58.59,24-89.94l.55.27C177.16,795.89,169.77,853.66,169.77,854.21Z"/><path class="cls-10" d="M167.17,833.4h-.68c1.78-31.9-9.45-78.58-9.58-79.12l.68-.14C157.59,754.55,169,801.37,167.17,833.4Z"/><path class="cls-3" d="M191.81,767.14s.14-31.35,27.52-33.27C219.46,733.88,221.66,761.53,191.81,767.14Z"/><path class="cls-3" d="M126.1,760.43s-7.39-29.84-39.84-21.36C86.27,738.94,92.43,760.84,126.1,760.43Z"/><path class="cls-3" d="M161.28,772.62s9.72-25.46-12.87-38.74C148.55,733.88,138.7,758.93,161.28,772.62Z"/><path class="cls-10" d="M156.36,854.21h-.68c0-58.86-29.43-93.22-29.84-93.64l.55-.41C126.65,760.57,156.36,795.07,156.36,854.21Z"/><path class="cls-10" d="M165.8,854.21h-.68c3.42-60.37,6.16-70.91,11.5-91.72.55-2.19,1.1-4.38,1.78-6.84l.68.14c-.55,2.46-1.23,4.65-1.78,6.84C172,783.43,169.22,793.84,165.8,854.21Z"/><path class="cls-10" d="M149.38,853.11h-.68c3.7-45.31-6.84-77.35-16.29-96.24-11.09-22-24.78-34.36-31.21-37.37l.27-.55c6.57,3,20.4,15.47,31.49,37.65C142.53,775.49,153.21,807.66,149.38,853.11Z"/><path class="cls-10" d="M144.31,853.11h-.68c.14-.55,8.21-58.45-27.38-77.62l.27-.55c10.4,5.61,23.55,18.21,27.52,46.54A121.87,121.87,0,0,1,144.31,853.11Z"/><path class="cls-10" d="M170.87,845.45l-.68-.27c0-.14,3.29-9.45,13.28-17.25l.41.55C174.15,836.14,170.87,845.31,170.87,845.45Z"/><path class="cls-10" d="M174.15,827.51l-.41-.55c.82-.68,20.67-18.07,30.8-21.08l.14.68C194.69,809.44,174.29,827.24,174.15,827.51Z"/><path class="cls-3" d="M132.67,790s-8.08-30.66-40-23.55C92.7,766.46,98.18,792.6,132.67,790Z"/><path class="cls-35" d="M132.67,790s-8.08-30.66-40-23.55C92.7,766.46,98.18,792.6,132.67,790Z"/><path class="cls-3" d="M149.1,821.49s-5.48-21.77-34.77-14.65C114.33,806.84,123.91,828.61,149.1,821.49Z"/><path class="cls-3" d="M169,807.25s2.74-34.22,38.47-38.47C207.28,768.92,209.06,802.32,169,807.25Z"/><path class="cls-10" d="M159.51,854.21h-.68c.27-24.37,1.64-150,1.64-151.27h.68C161,704.17,159.64,829.84,159.51,854.21Z"/><path class="cls-3" d="M166.08,798.22s-30.53,1.64-30.53-32.17C135.55,766.05,165.12,766.46,166.08,798.22Z"/><path class="cls-35" d="M166.08,798.22s-30.53,1.64-30.53-32.17C135.55,766.05,165.12,766.46,166.08,798.22Z"/><path class="cls-3" d="M194.82,811.22s8.35-23.27,34.5-17.39C229.32,794,224.94,813.41,194.82,811.22Z"/><path class="cls-35" d="M194.82,811.22s8.35-23.27,34.5-17.39C229.32,794,224.94,813.41,194.82,811.22Z"/><path class="cls-10" d="M182.64,853.52H128.7v6.84h53.94Z"/><path class="cls-6" d="M175.8,904.58H135.55l-3-44.21h46.27Z"/><path class="cls-10" d="M175.8,904.58H135.55l-3-44.21h46.27Z"/><path class="cls-11" d="M182.64,853.52H174v6.85H132.54l.13,1.91h33.27l.14,42.3h9.72l3-44.21h3.83Z"/><path class="cls-3" d="M160.33,729.09S145.41,706.5,164.85,685A40.27,40.27,0,0,1,160.33,729.09Z"/><path class="cls-35" d="M160.33,729.09S145.41,706.5,164.85,685A40.27,40.27,0,0,1,160.33,729.09Z"/><path class="cls-3" d="M173.88,774.4s-16.43-34.91,12.87-56.54C186.75,718,207,749.62,173.88,774.4Z"/><path class="cls-35" d="M173.88,774.4s-16.43-34.91,12.87-56.54C186.75,718,206.87,749.62,173.88,774.4Z"/><path class="cls-3" d="M177.85,834.22s4-15.2,24.78-12.05C202.63,822.17,199.2,837.64,177.85,834.22Z"/><path class="cls-3" d="M149.38,841.2s-4.52-29.57,22.45-33C171.83,808.21,178.26,833.81,149.38,841.2Z"/><path class="cls-35" d="M149.38,841.2s-4.52-29.57,22.45-33C171.83,808.21,178.26,833.81,149.38,841.2Z"/><path class="cls-3" d="M94.07,714.71s16.29-1.64,19.44,14C113.37,728.67,98.72,730.45,94.07,714.71Z"/><path class="cls-36" d="M94.07,714.71s16.29-1.64,19.44,14C113.37,728.67,98.72,730.45,94.07,714.71Z"/><path class="cls-3" d="M133.63,713.07s-20.26,21.08-.41,43.94C133.22,757,153.07,734.56,133.63,713.07Z"/><path class="cls-35" d="M133.63,713.07s-20.26,21.08-.41,43.94C133.22,757,153.07,734.56,133.63,713.07Z"/></svg>